<svg width="25" height="24" viewBox="0 0 25 24" fill="none" xmlns="http://www.w3.org/2000/svg">
<path fill-rule="evenodd" clip-rule="evenodd" d="M12.8008 24C19.4282 24 24.8008 18.6274 24.8008 12C24.8008 5.37258 19.4282 0 12.8008 0C6.17336 0 0.800781 5.37258 0.800781 12C0.800781 18.6274 6.17336 24 12.8008 24ZM13.5508 7.2C13.5508 6.78579 13.215 6.45 12.8008 6.45C12.3866 6.45 12.0508 6.78579 12.0508 7.2V11.25H8.00078C7.58657 11.25 7.25078 11.5858 7.25078 12C7.25078 12.4142 7.58657 12.75 8.00078 12.75H12.0508V16.8C12.0508 17.2142 12.3866 17.55 12.8008 17.55C13.215 17.55 13.5508 17.2142 13.5508 16.8V12.75H17.6008C18.015 12.75 18.3508 12.4142 18.3508 12C18.3508 11.5858 18.015 11.25 17.6008 11.25H13.5508V7.2Z" fill="#636F7E"/>
<path fill-rule="evenodd" clip-rule="evenodd" d="M12.8008 24C19.4282 24 24.8008 18.6274 24.8008 12C24.8008 5.37258 19.4282 0 12.8008 0C6.17336 0 0.800781 5.37258 0.800781 12C0.800781 18.6274 6.17336 24 12.8008 24ZM13.5508 7.2C13.5508 6.78579 13.215 6.45 12.8008 6.45C12.3866 6.45 12.0508 6.78579 12.0508 7.2V11.25H8.00078C7.58657 11.25 7.25078 11.5858 7.25078 12C7.25078 12.4142 7.58657 12.75 8.00078 12.75H12.0508V16.8C12.0508 17.2142 12.3866 17.55 12.8008 17.55C13.215 17.55 13.5508 17.2142 13.5508 16.8V12.75H17.6008C18.015 12.75 18.3508 12.4142 18.3508 12C18.3508 11.5858 18.015 11.25 17.6008 11.25H13.5508V7.2Z" fill="url(#paint0_linear)"/>
<defs>
<linearGradient id="paint0_linear" x1="0.800779" y1="24" x2="24.8008" y2="1.05393e-06" gradientUnits="userSpaceOnUse">
<stop stop-color="#4937E8"/>
<stop offset="0.979167" stop-color="#2A80E9"/>
<stop offset="1" stop-color="#2A82E9"/>
</linearGradient>
</defs>
</svg>
