<svg width="34" height="33" viewBox="0 0 34 33" fill="none" xmlns="http://www.w3.org/2000/svg">
<path fill-rule="evenodd" clip-rule="evenodd" d="M16.8214 0.25C17.7879 0.25 18.5714 1.0335 18.5714 2V14.75H31.3214C32.2879 14.75 33.0714 15.5335 33.0714 16.5C33.0714 17.4665 32.2879 18.25 31.3214 18.25H18.5714V31C18.5714 31.9665 17.7879 32.75 16.8214 32.75C15.8549 32.75 15.0714 31.9665 15.0714 31V18.25H2.32141C1.35491 18.25 0.571411 17.4665 0.571411 16.5C0.571411 15.5335 1.35491 14.75 2.32141 14.75H15.0714V2C15.0714 1.0335 15.8549 0.25 16.8214 0.25Z" fill="#3170E9"/>
</svg>
