<svg width="18" height="17" viewBox="0 0 18 17" fill="none" xmlns="http://www.w3.org/2000/svg">
<path fill-rule="evenodd" clip-rule="evenodd" d="M16.9141 1.70711C17.3047 1.31658 17.3047 0.683417 16.9141 0.292893C16.5236 -0.0976311 15.8904 -0.0976311 15.4999 0.292893L9.20703 6.58579L2.91414 0.292893C2.52361 -0.0976311 1.89045 -0.0976311 1.49992 0.292893C1.1094 0.683417 1.1094 1.31658 1.49992 1.70711L7.79282 8L0.999924 14.7929C0.6094 15.1834 0.6094 15.8166 0.999924 16.2071C1.39045 16.5976 2.02361 16.5976 2.41414 16.2071L9.20703 9.41421L15.9999 16.2071C16.3904 16.5976 17.0236 16.5976 17.4141 16.2071C17.8047 15.8166 17.8047 15.1834 17.4141 14.7929L10.6212 8L16.9141 1.70711Z" fill="black"/>
<path fill-rule="evenodd" clip-rule="evenodd" d="M16.9141 1.70711C17.3047 1.31658 17.3047 0.683417 16.9141 0.292893C16.5236 -0.0976311 15.8904 -0.0976311 15.4999 0.292893L9.20703 6.58579L2.91414 0.292893C2.52361 -0.0976311 1.89045 -0.0976311 1.49992 0.292893C1.1094 0.683417 1.1094 1.31658 1.49992 1.70711L7.79282 8L0.999924 14.7929C0.6094 15.1834 0.6094 15.8166 0.999924 16.2071C1.39045 16.5976 2.02361 16.5976 2.41414 16.2071L9.20703 9.41421L15.9999 16.2071C16.3904 16.5976 17.0236 16.5976 17.4141 16.2071C17.8047 15.8166 17.8047 15.1834 17.4141 14.7929L10.6212 8L16.9141 1.70711Z" fill="url(#paint0_linear)"/>
<defs>
<linearGradient id="paint0_linear" x1="0.70703" y1="16.5" x2="17.1997" y2="-0.492427" gradientUnits="userSpaceOnUse">
<stop stop-color="#4937E8"/>
<stop offset="1" stop-color="#2A82E9"/>
</linearGradient>
</defs>
</svg>
