<svg width="22" height="22" viewBox="0 0 22 22" fill="none" xmlns="http://www.w3.org/2000/svg">
<path fill-rule="evenodd" clip-rule="evenodd" d="M5.55 2.01508e-07H5.5179C4.70506 -7.42789e-06 4.04944 -1.3448e-05 3.51853 0.0433636C2.9719 0.0880256 2.49175 0.182385 2.04754 0.408726C1.34193 0.768251 0.768251 1.34193 0.408726 2.04754C0.182385 2.49175 0.0880256 2.9719 0.0433636 3.51853C-1.3448e-05 4.04944 -7.42789e-06 4.70506 2.01508e-07 5.5179V5.55V9.95V9.98211C-7.42789e-06 10.7949 -1.3448e-05 11.4506 0.0433636 11.9815C0.0880256 12.5281 0.182385 13.0082 0.408726 13.4525C0.768251 14.1581 1.34193 14.7317 2.04754 15.0913C2.49175 15.3176 2.9719 15.412 3.51853 15.4566C4.04944 15.5 4.70505 15.5 5.51788 15.5H5.55H6V15.95V15.9821C5.99999 16.7949 5.99999 17.4506 6.04336 17.9815C6.08803 18.5281 6.18238 19.0082 6.40873 19.4525C6.76825 20.1581 7.34193 20.7317 8.04754 21.0913C8.49175 21.3176 8.9719 21.412 9.51853 21.4566C10.0494 21.5 10.7051 21.5 11.5179 21.5H11.55H15.95H15.9821C16.7949 21.5 17.4506 21.5 17.9815 21.4566C18.5281 21.412 19.0082 21.3176 19.4525 21.0913C20.1581 20.7317 20.7317 20.1581 21.0913 19.4525C21.3176 19.0082 21.412 18.5281 21.4566 17.9815C21.5 17.4506 21.5 16.7949 21.5 15.9821V15.95V11.55V11.5179C21.5 10.7051 21.5 10.0494 21.4566 9.51853C21.412 8.9719 21.3176 8.49175 21.0913 8.04754C20.7317 7.34193 20.1581 6.76825 19.4525 6.40873C19.0082 6.18238 18.5281 6.08803 17.9815 6.04336C17.4506 5.99999 16.7949 5.99999 15.9821 6H15.95H15.5V5.55V5.51788C15.5 4.70505 15.5 4.04944 15.4566 3.51853C15.412 2.9719 15.3176 2.49175 15.0913 2.04754C14.7317 1.34193 14.1581 0.768251 13.4525 0.408726C13.0082 0.182385 12.5281 0.0880256 11.9815 0.0433636C11.4506 -1.3448e-05 10.7949 -7.42789e-06 9.9821 2.01508e-07H9.95H5.55ZM15.5 7.5V9.95V9.98212C15.5 10.795 15.5 11.4506 15.4566 11.9815C15.412 12.5281 15.3176 13.0082 15.0913 13.4525C14.7317 14.1581 14.1581 14.7317 13.4525 15.0913C13.0082 15.3176 12.5281 15.412 11.9815 15.4566C11.4506 15.5 10.795 15.5 9.98212 15.5H9.95H7.5V15.95C7.5 16.8025 7.50058 17.3967 7.53838 17.8593C7.57546 18.3132 7.6446 18.574 7.74524 18.7715C7.96095 19.1948 8.30516 19.539 8.72852 19.7548C8.92604 19.8554 9.1868 19.9245 9.64068 19.9616C10.1033 19.9994 10.6975 20 11.55 20H15.95C16.8025 20 17.3967 19.9994 17.8593 19.9616C18.3132 19.9245 18.574 19.8554 18.7715 19.7548C19.1948 19.539 19.539 19.1948 19.7548 18.7715C19.8554 18.574 19.9245 18.3132 19.9616 17.8593C19.9994 17.3967 20 16.8025 20 15.95V11.55C20 10.6975 19.9994 10.1033 19.9616 9.64068C19.9245 9.1868 19.8554 8.92604 19.7548 8.72852C19.539 8.30516 19.1948 7.96095 18.7715 7.74524C18.574 7.6446 18.3132 7.57546 17.8593 7.53838C17.3967 7.50058 16.8025 7.5 15.95 7.5H15.5ZM2.72852 1.74524C2.92604 1.6446 3.1868 1.57547 3.64068 1.53838C4.10331 1.50058 4.69755 1.5 5.55 1.5H9.95C10.8025 1.5 11.3967 1.50058 11.8593 1.53838C12.3132 1.57547 12.574 1.6446 12.7715 1.74524C13.1948 1.96095 13.539 2.30516 13.7548 2.72852C13.8554 2.92604 13.9245 3.1868 13.9616 3.64068C13.9994 4.10331 14 4.69755 14 5.55V9.95C14 10.8025 13.9994 11.3967 13.9616 11.8593C13.9245 12.3132 13.8554 12.574 13.7548 12.7715C13.539 13.1948 13.1948 13.539 12.7715 13.7548C12.574 13.8554 12.3132 13.9245 11.8593 13.9616C11.3967 13.9994 10.8025 14 9.95 14H5.55C4.69755 14 4.10331 13.9994 3.64068 13.9616C3.1868 13.9245 2.92604 13.8554 2.72852 13.7548C2.30516 13.539 1.96095 13.1948 1.74524 12.7715C1.6446 12.574 1.57547 12.3132 1.53838 11.8593C1.50058 11.3967 1.5 10.8025 1.5 9.95V5.55C1.5 4.69755 1.50058 4.10331 1.53838 3.64068C1.57547 3.1868 1.6446 2.92604 1.74524 2.72852C1.96095 2.30516 2.30516 1.96095 2.72852 1.74524Z" fill="#3170E9"/>
</svg>
