<svg width="60" height="66" viewBox="0 0 60 66" fill="none" xmlns="http://www.w3.org/2000/svg">
<path d="M12.3078 23.7907C12.3078 22.5192 13.341 21.4884 14.6155 21.4884H45.3847C46.6592 21.4884 47.6924 22.5192 47.6924 23.7907C47.6924 25.0622 46.6592 26.093 45.3847 26.093H14.6155C13.341 26.093 12.3078 25.0622 12.3078 23.7907Z" fill="#B0B0B0"/>
<path d="M12.3078 23.7907C12.3078 22.5192 13.341 21.4884 14.6155 21.4884H45.3847C46.6592 21.4884 47.6924 22.5192 47.6924 23.7907C47.6924 25.0622 46.6592 26.093 45.3847 26.093H14.6155C13.341 26.093 12.3078 25.0622 12.3078 23.7907Z" fill="#686868"/>
<path d="M39.2308 49.1163C37.9563 49.1163 36.9231 50.1471 36.9231 51.4186C36.9231 52.6901 37.9563 53.7209 39.2308 53.7209H45.3847C46.6592 53.7209 47.6923 52.6901 47.6923 51.4186C47.6923 50.1471 46.6592 49.1163 45.3847 49.1163H39.2308Z" fill="#B0B0B0"/>
<path d="M39.2308 49.1163C37.9563 49.1163 36.9231 50.1471 36.9231 51.4186C36.9231 52.6901 37.9563 53.7209 39.2308 53.7209H45.3847C46.6592 53.7209 47.6923 52.6901 47.6923 51.4186C47.6923 50.1471 46.6592 49.1163 45.3847 49.1163H39.2308Z" fill="#686868"/>
<path fill-rule="evenodd" clip-rule="evenodd" d="M17.6924 0C18.9669 0 20.0001 1.03079 20.0001 2.30233V6.13953L38.1016 6.13953C38.7607 6.13953 39.3933 6.13953 40 6.14085V2.30233C40 1.03079 41.0332 0 42.3077 0C43.5822 0 44.6154 1.03079 44.6154 2.30233V6.21552C45.1996 6.23987 45.7508 6.27202 46.2716 6.31447C48.4667 6.4934 50.324 6.86671 52.0199 7.72881C54.7699 9.12678 57.0058 11.3574 58.407 14.1011C59.2711 15.7931 59.6453 17.6461 59.8247 19.836C60 21.9775 60 24.6344 60 27.987V44.1525C60 47.5051 60 50.162 59.8247 52.3035C59.6453 54.4935 59.2711 56.3464 58.407 58.0384C57.0058 60.7821 54.7699 63.0128 52.0199 64.4107C50.324 65.2728 48.4667 65.6461 46.2716 65.8251C44.1251 66 41.4621 66 38.1017 66H21.8985C18.5381 66 15.875 66 13.7285 65.8251C11.5335 65.6461 9.67619 65.2728 7.98027 64.4107C5.23022 63.0128 2.99435 60.7821 1.59313 58.0384C0.729017 56.3464 0.35484 54.4935 0.175498 52.3035C0.00012055 50.162 0.000134494 47.5051 0.0001521 44.1525L7.47061e-05 25.2949C-0.000958561 21.0528 -0.00161771 18.3476 0.757804 16.0871C2.21435 11.7514 5.62513 8.34859 9.97087 6.89543C11.4732 6.39307 13.1714 6.22408 15.3847 6.16754V2.30233C15.3847 1.03079 16.4179 0 17.6924 0ZM40 10.7457V11.5116C40 12.7832 41.0332 13.814 42.3077 13.814C43.5822 13.814 44.6154 12.7832 44.6154 11.5116V10.8243C45.0682 10.845 45.4936 10.871 45.8958 10.9038C47.8054 11.0595 48.9877 11.3554 49.9245 11.8316C51.8062 12.7881 53.336 14.3143 54.2947 16.1916C54.772 17.1262 55.0686 18.3058 55.2246 20.211C55.3828 22.143 55.3846 24.6119 55.3846 28.0884V44.0512C55.3846 47.5276 55.3828 49.9965 55.2246 51.9286C55.0686 53.8337 54.772 55.0133 54.2947 55.948C53.336 57.8252 51.8062 59.3514 49.9245 60.308C48.9877 60.7842 47.8054 61.08 45.8958 61.2357C43.9592 61.3936 41.4846 61.3953 38.0001 61.3953H22.0001C18.5155 61.3953 16.0409 61.3936 14.1044 61.2357C12.1947 61.08 11.0124 60.7842 10.0756 60.308C8.19399 59.3514 6.66419 57.8252 5.70546 55.948C5.22812 55.0133 4.93156 53.8337 4.77554 51.9286C4.61732 49.9965 4.61553 47.5276 4.61553 44.0512V25.777C4.61553 20.8862 4.64568 19.0037 5.13392 17.5504C6.1305 14.5839 8.4642 12.2556 11.4376 11.2614C12.361 10.9526 13.4572 10.8275 15.3847 10.7772V11.5116C15.3847 12.7832 16.4179 13.814 17.6924 13.814C18.9669 13.814 20.0001 12.7832 20.0001 11.5116V10.7442H38.0001C38.707 10.7442 39.3723 10.7443 40 10.7457Z" fill="#B0B0B0"/>
<path fill-rule="evenodd" clip-rule="evenodd" d="M17.6924 0C18.9669 0 20.0001 1.03079 20.0001 2.30233V6.13953L38.1016 6.13953C38.7607 6.13953 39.3933 6.13953 40 6.14085V2.30233C40 1.03079 41.0332 0 42.3077 0C43.5822 0 44.6154 1.03079 44.6154 2.30233V6.21552C45.1996 6.23987 45.7508 6.27202 46.2716 6.31447C48.4667 6.4934 50.324 6.86671 52.0199 7.72881C54.7699 9.12678 57.0058 11.3574 58.407 14.1011C59.2711 15.7931 59.6453 17.6461 59.8247 19.836C60 21.9775 60 24.6344 60 27.987V44.1525C60 47.5051 60 50.162 59.8247 52.3035C59.6453 54.4935 59.2711 56.3464 58.407 58.0384C57.0058 60.7821 54.7699 63.0128 52.0199 64.4107C50.324 65.2728 48.4667 65.6461 46.2716 65.8251C44.1251 66 41.4621 66 38.1017 66H21.8985C18.5381 66 15.875 66 13.7285 65.8251C11.5335 65.6461 9.67619 65.2728 7.98027 64.4107C5.23022 63.0128 2.99435 60.7821 1.59313 58.0384C0.729017 56.3464 0.35484 54.4935 0.175498 52.3035C0.00012055 50.162 0.000134494 47.5051 0.0001521 44.1525L7.47061e-05 25.2949C-0.000958561 21.0528 -0.00161771 18.3476 0.757804 16.0871C2.21435 11.7514 5.62513 8.34859 9.97087 6.89543C11.4732 6.39307 13.1714 6.22408 15.3847 6.16754V2.30233C15.3847 1.03079 16.4179 0 17.6924 0ZM40 10.7457V11.5116C40 12.7832 41.0332 13.814 42.3077 13.814C43.5822 13.814 44.6154 12.7832 44.6154 11.5116V10.8243C45.0682 10.845 45.4936 10.871 45.8958 10.9038C47.8054 11.0595 48.9877 11.3554 49.9245 11.8316C51.8062 12.7881 53.336 14.3143 54.2947 16.1916C54.772 17.1262 55.0686 18.3058 55.2246 20.211C55.3828 22.143 55.3846 24.6119 55.3846 28.0884V44.0512C55.3846 47.5276 55.3828 49.9965 55.2246 51.9286C55.0686 53.8337 54.772 55.0133 54.2947 55.948C53.336 57.8252 51.8062 59.3514 49.9245 60.308C48.9877 60.7842 47.8054 61.08 45.8958 61.2357C43.9592 61.3936 41.4846 61.3953 38.0001 61.3953H22.0001C18.5155 61.3953 16.0409 61.3936 14.1044 61.2357C12.1947 61.08 11.0124 60.7842 10.0756 60.308C8.19399 59.3514 6.66419 57.8252 5.70546 55.948C5.22812 55.0133 4.93156 53.8337 4.77554 51.9286C4.61732 49.9965 4.61553 47.5276 4.61553 44.0512V25.777C4.61553 20.8862 4.64568 19.0037 5.13392 17.5504C6.1305 14.5839 8.4642 12.2556 11.4376 11.2614C12.361 10.9526 13.4572 10.8275 15.3847 10.7772V11.5116C15.3847 12.7832 16.4179 13.814 17.6924 13.814C18.9669 13.814 20.0001 12.7832 20.0001 11.5116V10.7442H38.0001C38.707 10.7442 39.3723 10.7443 40 10.7457Z" fill="#686868"/>
</svg>
