<svg width="24" height="24" viewBox="0 0 24 24" fill="none" xmlns="http://www.w3.org/2000/svg">
<path fill-rule="evenodd" clip-rule="evenodd" d="M8.6182 1.67094C8.65223 1.56886 8.74777 1.5 8.85538 1.5H14.7985C14.9061 1.5 15.0016 1.56886 15.0356 1.67094L15.7094 3.69231H7.94442L8.6182 1.67094ZM16.4587 1.1966L17.2906 3.69231H20.4423H22.9038C23.3181 3.69231 23.6538 4.02809 23.6538 4.44231C23.6538 4.85652 23.3181 5.19231 22.9038 5.19231H21.144L20.1466 20.1533C20.0152 22.1232 18.3791 23.6538 16.4049 23.6538H7.24897C5.27473 23.6538 3.6386 22.1232 3.50727 20.1533L2.50987 5.19231H0.75C0.335786 5.19231 0 4.85652 0 4.44231C0 4.02809 0.335786 3.69231 0.75 3.69231H3.21154H6.36328L7.19518 1.1966C7.43338 0.482002 8.10212 0 8.85538 0H14.7985C15.5517 0 16.2205 0.482002 16.4587 1.1966Z" fill="#CBCBCB"/>
</svg>
