<svg width="36" height="35" viewBox="0 0 36 35" fill="none" xmlns="http://www.w3.org/2000/svg">
<path fill-rule="evenodd" clip-rule="evenodd" d="M17.8218 35C27.4868 35 35.3218 27.165 35.3218 17.5C35.3218 7.83502 27.4868 0 17.8218 0C8.15679 0 0.321777 7.83502 0.321777 17.5C0.321777 27.165 8.15679 35 17.8218 35ZM18.5718 10.5C18.5718 10.0858 18.236 9.75 17.8218 9.75C17.4076 9.75 17.0718 10.0858 17.0718 10.5V22.6893L13.1021 18.7197C12.8092 18.4268 12.3343 18.4268 12.0414 18.7197C11.7486 19.0126 11.7486 19.4874 12.0414 19.7803L17.2914 25.0303C17.5843 25.3232 18.0592 25.3232 18.3521 25.0303L23.6021 19.7803C23.895 19.4874 23.895 19.0126 23.6021 18.7197C23.3092 18.4268 22.8343 18.4268 22.5414 18.7197L18.5718 22.6893V10.5Z" fill="#636F7E"/>
<path fill-rule="evenodd" clip-rule="evenodd" d="M17.8218 35C27.4868 35 35.3218 27.165 35.3218 17.5C35.3218 7.83502 27.4868 0 17.8218 0C8.15679 0 0.321777 7.83502 0.321777 17.5C0.321777 27.165 8.15679 35 17.8218 35ZM18.5718 10.5C18.5718 10.0858 18.236 9.75 17.8218 9.75C17.4076 9.75 17.0718 10.0858 17.0718 10.5V22.6893L13.1021 18.7197C12.8092 18.4268 12.3343 18.4268 12.0414 18.7197C11.7486 19.0126 11.7486 19.4874 12.0414 19.7803L17.2914 25.0303C17.5843 25.3232 18.0592 25.3232 18.3521 25.0303L23.6021 19.7803C23.895 19.4874 23.895 19.0126 23.6021 18.7197C23.3092 18.4268 22.8343 18.4268 22.5414 18.7197L18.5718 22.6893V10.5Z" fill="url(#paint0_linear)"/>
<defs>
<linearGradient id="paint0_linear" x1="0.321775" y1="35" x2="35.3218" y2="1.53698e-06" gradientUnits="userSpaceOnUse">
<stop stop-color="#4937E8"/>
<stop offset="1" stop-color="#2A82E9"/>
</linearGradient>
</defs>
</svg>
