<svg width="22" height="20" viewBox="0 0 22 20" fill="none" xmlns="http://www.w3.org/2000/svg">
<path fill-rule="evenodd" clip-rule="evenodd" d="M1.06488 2.18404C0.628906 3.03969 0.628906 4.15979 0.628906 6.4V13.105C0.628906 15.3452 0.628906 16.4653 1.06488 17.321C1.44837 18.0736 2.0603 18.6855 2.81294 19.069C3.66859 19.505 4.7887 19.505 7.02891 19.505H13.7339C15.9741 19.505 17.0942 19.505 17.9499 19.069C18.7025 18.6855 19.3144 18.0736 19.6979 17.321C20.1339 16.4653 20.1339 15.3452 20.1339 13.105V6.4C20.1339 5.0172 20.1339 4.06117 20.0314 3.33069L21.7481 1.61395C22.041 1.32105 22.041 0.84618 21.7481 0.553287C21.4552 0.260394 20.9804 0.260394 20.6875 0.553287L19.4611 1.77965C19.0822 1.21189 18.5627 0.748215 17.9499 0.435974C17.0942 0 15.9741 0 13.7339 0H7.02891C4.7887 0 3.66859 0 2.81294 0.435974C2.0603 0.819467 1.44837 1.43139 1.06488 2.18404ZM19.4611 1.77965L10.3817 10.8591L7.66117 8.13857C7.36827 7.84567 6.8934 7.84567 6.60051 8.13857C6.30761 8.43146 6.30761 8.90633 6.60051 9.19923L9.85134 12.4501C9.99199 12.5907 10.1828 12.6697 10.3817 12.6697C10.5806 12.6697 10.7713 12.5907 10.912 12.4501L20.0314 3.33069C19.9678 2.87775 19.8648 2.51152 19.6979 2.18404C19.6267 2.0442 19.5476 1.90922 19.4611 1.77965Z" fill="#B0B0B0"/>
</svg>
