<svg width="18" height="18" viewBox="0 0 18 18" fill="none" xmlns="http://www.w3.org/2000/svg">
<path fill-rule="evenodd" clip-rule="evenodd" d="M16.5999 0.715126C15.551 -0.238356 13.9493 -0.238378 12.9004 0.715075C12.8516 0.759437 12.7997 0.811291 12.7324 0.878623L12.7198 0.891203L2.47319 11.1377L2.42911 11.1818L2.4291 11.1818C2.0045 11.6063 1.7307 11.88 1.50501 12.194C1.30503 12.4722 1.13574 12.7712 1.00008 13.0858C0.846987 13.4408 0.753128 13.8165 0.607581 14.3989L0.592462 14.4594L0.022409 16.7396C-0.0414863 16.9952 0.0334006 17.2656 0.219686 17.4519C0.405971 17.6382 0.676336 17.7131 0.931918 17.6492L3.21215 17.0791L3.27264 17.064L3.2727 17.064C3.85514 16.9184 4.23075 16.8246 4.58579 16.6715C4.90039 16.5358 5.19939 16.3665 5.47757 16.1666C5.79152 15.9409 6.06526 15.6671 6.48974 15.2425L6.53383 15.1984L16.7804 4.95182L16.793 4.9392C16.8603 4.8719 16.9122 4.82007 16.9565 4.77128C17.91 3.72242 17.91 2.12068 16.9566 1.0718C16.9122 1.02302 16.8604 0.971198 16.7931 0.903924L16.793 0.903852L16.7805 0.89126L16.7679 0.878702L16.7678 0.878632C16.7005 0.81132 16.6487 0.759478 16.5999 0.715126Z" fill="#CBCBCB"/>
</svg>
