<svg width="24" height="22" viewBox="0 0 24 22" fill="none" xmlns="http://www.w3.org/2000/svg">
<path fill-rule="evenodd" clip-rule="evenodd" d="M2.39647 0.21967C2.10358 -0.0732233 1.62871 -0.0732233 1.33581 0.21967C1.04292 0.512563 1.04292 0.987437 1.33581 1.28033L4.3891 4.33361C2.98599 5.25441 1.93888 6.37029 1.2214 7.4552C0.430883 8.65057 0 9.87228 0 10.7965C0 11.5162 0.261031 12.405 0.730163 13.3057C1.20629 14.2199 1.9221 15.1961 2.89245 16.0918C4.84215 17.8915 7.8135 19.3604 11.9128 19.3604C14.3602 19.3604 16.4098 18.8368 18.0822 18.0267L21.4288 21.3734C21.7217 21.6662 22.1966 21.6662 22.4895 21.3734C22.7824 21.0805 22.7824 20.6056 22.4895 20.3127L2.39647 0.21967ZM14.2319 14.1765L13.1423 13.0868C12.7763 13.2838 12.3579 13.3954 11.9127 13.3954C10.4774 13.3954 9.31387 12.2318 9.31387 10.7965C9.31387 10.3513 9.4254 9.93288 9.6224 9.56691L8.53276 8.47728C8.07958 9.13675 7.81387 9.93621 7.81387 10.7965C7.81387 13.0602 9.64898 14.8954 11.9127 14.8954C12.773 14.8954 13.5725 14.6296 14.2319 14.1765ZM11.9128 3.73252C10.7447 3.73252 9.68806 3.86323 8.73726 4.08905C8.33426 4.18476 7.92997 3.93565 7.83425 3.53265C7.73854 3.12965 7.98764 2.72536 8.39065 2.62964C9.45884 2.37594 10.6319 2.23252 11.9128 2.23252C16.0121 2.23252 18.9834 3.70147 20.9331 5.50119C21.9035 6.3969 22.6193 7.37306 23.0954 8.28724C23.5645 9.18797 23.8256 10.0767 23.8256 10.7965C23.8256 12.1171 22.9434 14.0992 21.2449 15.7927C20.9516 16.0852 20.4767 16.0845 20.1842 15.7911C19.8918 15.4978 19.8925 15.023 20.1858 14.7305C21.7128 13.2079 22.3256 11.5854 22.3256 10.7965C22.3256 10.3999 22.168 9.75382 21.765 8.98014C21.3691 8.21989 20.7593 7.3821 19.9157 6.60339C18.2375 5.05428 15.6274 3.73252 11.9128 3.73252Z" fill="url(#paint0_linear)"/>
<defs>
<linearGradient id="paint0_linear" x1="-1.79396e-06" y1="21.593" x2="21.4889" y2="-2.1177" gradientUnits="userSpaceOnUse">
<stop stop-color="#4937E8"/>
<stop offset="0.979167" stop-color="#2A80E9"/>
<stop offset="1" stop-color="#2A82E9"/>
</linearGradient>
</defs>
</svg>
