<svg width="25" height="18" viewBox="0 0 25 18" fill="none" xmlns="http://www.w3.org/2000/svg">
<path fill-rule="evenodd" clip-rule="evenodd" d="M12.6556 0C8.47491 0 5.44543 1.49802 3.45794 3.33262C2.46869 4.24577 1.73908 5.24083 1.25386 6.17244C0.775645 7.09062 0.510254 7.99539 0.510254 8.72674C0.510254 9.4581 0.775645 10.3629 1.25386 11.281C1.73908 12.2127 2.46869 13.2077 3.45794 14.1209C5.44543 15.9555 8.47491 17.4535 12.6556 17.4535C16.8363 17.4535 19.8658 15.9555 21.8533 14.1209C22.8425 13.2077 23.5721 12.2127 24.0573 11.281C24.5356 10.3629 24.801 9.4581 24.801 8.72674C24.801 7.99539 24.5356 7.09062 24.0573 6.17244C23.5721 5.24083 22.8425 4.24577 21.8533 3.33262C19.8658 1.49802 16.8363 0 12.6556 0ZM12.6558 6.05808C11.1819 6.05808 9.98716 7.25285 9.98716 8.72668C9.98716 10.2005 11.1819 11.3953 12.6558 11.3953C14.1296 11.3953 15.3244 10.2005 15.3244 8.72668C15.3244 7.25285 14.1296 6.05808 12.6558 6.05808ZM8.48716 8.72668C8.48716 6.42443 10.3535 4.55808 12.6558 4.55808C14.958 4.55808 16.8244 6.42443 16.8244 8.72668C16.8244 11.0289 14.958 12.8953 12.6558 12.8953C10.3535 12.8953 8.48716 11.0289 8.48716 8.72668Z" fill="url(#paint0_linear)"/>
<defs>
<linearGradient id="paint0_linear" x1="0.510252" y1="17.4535" x2="17.0518" y2="-5.56798" gradientUnits="userSpaceOnUse">
<stop stop-color="#4937E8"/>
<stop offset="0.979167" stop-color="#2A80E9"/>
<stop offset="1" stop-color="#2A82E9"/>
</linearGradient>
</defs>
</svg>
