<svg width="18" height="12" viewBox="0 0 18 12" fill="none" xmlns="http://www.w3.org/2000/svg">
<path d="M8.74279 0.0269478L0.193868 3.72718C-0.0646234 3.83906 -0.0646223 4.20074 0.193869 4.31262L8.74279 8.01285C8.8247 8.04831 8.91782 8.0488 9.00011 8.0142L17.803 4.31397C18.0657 4.20354 18.0657 3.83626 17.803 3.72582L9.00011 0.0255945C8.91782 -0.00899586 8.8247 -0.00850609 8.74279 0.0269478Z" fill="#BEBEBE"/>
<path d="M9.00012 9.29111C8.91782 9.3257 8.8247 9.32521 8.74278 9.28975L3.79347 7.14751V10.1444H3.79831C3.91706 11.1767 6.20502 12 9.01007 12C11.8151 12 14.1031 11.1767 14.2218 10.1444H14.2267V7.09414L9.00012 9.29111Z" fill="#BEBEBE"/>
</svg>
