<svg width="16" height="16" viewBox="0 0 16 16" fill="none" xmlns="http://www.w3.org/2000/svg">
<path fill-rule="evenodd" clip-rule="evenodd" d="M8 1.23077C4.26146 1.23077 1.23077 4.26146 1.23077 8C1.23077 11.7385 4.26146 14.7692 8 14.7692C11.7385 14.7692 14.7692 11.7385 14.7692 8C14.7692 4.26146 11.7385 1.23077 8 1.23077ZM0 8C0 3.58172 3.58172 0 8 0C12.4183 0 16 3.58172 16 8C16 12.4183 12.4183 16 8 16C3.58172 16 0 12.4183 0 8ZM8 6.5641C8.33987 6.5641 8.61539 6.83962 8.61539 7.17949V11.2821C8.61539 11.6219 8.33987 11.8974 8 11.8974C7.66013 11.8974 7.38462 11.6219 7.38462 11.2821V7.17949C7.38462 6.83962 7.66013 6.5641 8 6.5641ZM8 5.53846C8.45316 5.53846 8.82051 5.17111 8.82051 4.71795C8.82051 4.26479 8.45316 3.89744 8 3.89744C7.54684 3.89744 7.17949 4.26479 7.17949 4.71795C7.17949 5.17111 7.54684 5.53846 8 5.53846Z" fill="#F9F9F9"/>
</svg>
