<svg width="34" height="15" viewBox="0 0 34 15" fill="none" xmlns="http://www.w3.org/2000/svg">
<path fill-rule="evenodd" clip-rule="evenodd" d="M11 0.75C11 0.335786 11.3358 0 11.75 0H32.4167C32.8309 0 33.1667 0.335786 33.1667 0.75C33.1667 1.16421 32.8309 1.5 32.4167 1.5H11.75C11.3358 1.5 11 1.16421 11 0.75ZM11 7.20833C11 6.79412 11.3358 6.45833 11.75 6.45833L32.4167 6.45833C32.8309 6.45833 33.1667 6.79412 33.1667 7.20833C33.1667 7.62255 32.8309 7.95833 32.4167 7.95833L11.75 7.95833C11.3358 7.95833 11 7.62255 11 7.20833ZM11.75 12.9167C11.3358 12.9167 11 13.2525 11 13.6667C11 14.0809 11.3358 14.4167 11.75 14.4167H32.4167C32.8309 14.4167 33.1667 14.0809 33.1667 13.6667C33.1667 13.2525 32.8309 12.9167 32.4167 12.9167H11.75Z" fill="white"/>
<path d="M5 10.5L1.75619 7.14093L5.11525 3.89712" stroke="#FBFBFB" stroke-width="1.5" stroke-linecap="round" stroke-linejoin="round"/>
</svg>
