<svg width="23" height="21" viewBox="0 0 23 21" fill="none" xmlns="http://www.w3.org/2000/svg">
<path d="M1.25 5.74478V5.74478C1.25 4.66101 1.25 4.11912 1.38839 3.67943C1.68256 2.74475 2.41467 2.01264 3.34935 1.71846C3.78904 1.58008 4.33093 1.58008 5.4147 1.58008H7.58954C8.32339 1.58008 8.69032 1.58008 9.03562 1.66299C9.34176 1.73649 9.63442 1.85773 9.90286 2.02225C10.2056 2.20781 10.4651 2.46729 10.9839 2.98625L11.2951 3.29743C11.8139 3.81639 12.0734 4.07587 12.3761 4.26144C12.6446 4.42596 12.9372 4.54719 13.2434 4.6207C13.5887 4.70361 13.9556 4.70361 14.6895 4.70361H17.27C18.9502 4.70361 19.7902 4.70361 20.432 5.03059C20.9965 5.31821 21.4554 5.77715 21.743 6.34164C22.07 6.98337 22.07 7.82345 22.07 9.50361V14.4801C22.07 16.1602 22.07 17.0003 21.743 17.6421C21.4554 18.2065 20.9965 18.6655 20.432 18.9531C19.7902 19.2801 18.9502 19.2801 17.27 19.2801H6.05C4.36984 19.2801 3.52976 19.2801 2.88803 18.9531C2.32354 18.6655 1.8646 18.2065 1.57698 17.6421C1.25 17.0003 1.25 16.1602 1.25 14.4801V5.74478Z" stroke="#B0B0B0" stroke-width="1.5" stroke-linecap="round" stroke-linejoin="round"/>
</svg>
