<svg width="20" height="20" viewBox="0 0 20 20" fill="none" xmlns="http://www.w3.org/2000/svg">
<path fill-rule="evenodd" clip-rule="evenodd" d="M7.34995 2.33512e-07L7.31695 1.14302e-07C6.22481 -5.60774e-06 5.35931 -1.01377e-05 4.66168 0.0569878C3.9483 0.115274 3.34467 0.236882 2.7935 0.517719C1.89973 0.973118 1.17307 1.69978 0.71767 2.59355C0.436833 3.14472 0.315225 3.74834 0.256939 4.46173C0.199941 5.15935 0.199946 6.02485 0.199951 7.117L0.199951 7.15V11.8551L0.199951 11.8881C0.199946 12.9802 0.199941 13.8457 0.256939 14.5433C0.315225 15.2567 0.436833 15.8603 0.71767 16.4115C1.17307 17.3053 1.89973 18.0319 2.7935 18.4873C3.34467 18.7682 3.9483 18.8898 4.66168 18.9481C5.3593 19.0051 6.2248 19.0051 7.31693 19.0051H7.34995H12.1709H12.204C13.2961 19.0051 14.1616 19.0051 14.8592 18.9481C15.5726 18.8898 16.1762 18.7682 16.7274 18.4873C17.6212 18.0319 18.3478 17.3053 18.8032 16.4115C19.0841 15.8603 19.2057 15.2567 19.264 14.5433C19.321 13.8457 19.321 12.9802 19.3209 11.8881V11.8551V8.53003C19.3209 8.11581 18.9852 7.78003 18.5709 7.78003C18.1567 7.78003 17.8209 8.11581 17.8209 8.53003V11.8551C17.8209 12.9875 17.8204 13.7918 17.7689 14.4212C17.7182 15.0418 17.6219 15.4261 17.4667 15.7305C17.1551 16.3421 16.6579 16.8392 16.0464 17.1508C15.7419 17.306 15.3577 17.4023 14.7371 17.4531C14.1077 17.5045 13.3034 17.5051 12.1709 17.5051H7.34995C6.21747 17.5051 5.41322 17.5045 4.78383 17.4531C4.16321 17.4023 3.77895 17.306 3.47448 17.1508C2.86296 16.8392 2.36577 16.3421 2.05418 15.7305C1.89904 15.4261 1.80266 15.0418 1.75196 14.4212C1.70053 13.7918 1.69995 12.9875 1.69995 11.8551V7.15C1.69995 6.01752 1.70053 5.21326 1.75196 4.58388C1.80266 3.96325 1.89904 3.579 2.05418 3.27453C2.36577 2.663 2.86296 2.16582 3.47448 1.85423C3.77895 1.69909 4.16321 1.60271 4.78383 1.55201C5.41322 1.50058 6.21747 1.5 7.34995 1.5H13.6762C14.0904 1.5 14.4262 1.16421 14.4262 0.75C14.4262 0.335787 14.0904 2.33512e-07 13.6762 2.33512e-07H7.34995ZM19.0995 3.22704C19.3934 2.93511 19.395 2.46024 19.1031 2.16638C18.8111 1.87253 18.3363 1.87096 18.0424 2.16288L9.76047 10.3903L7.35222 7.9979C7.05836 7.70598 6.58349 7.70754 6.29156 8.0014C5.99964 8.29526 6.00121 8.77013 6.29506 9.06206L9.2319 11.9796C9.52438 12.2701 9.99656 12.2701 10.2891 11.9796L19.0995 3.22704Z" fill="#B0B0B0"/>
</svg>
