<svg width="22" height="21" viewBox="0 0 22 21" fill="none" xmlns="http://www.w3.org/2000/svg">
<path fill-rule="evenodd" clip-rule="evenodd" d="M0.635925 3.09761C0.199951 3.95326 0.199951 5.07336 0.199951 7.31357V14.0186C0.199951 16.2588 0.199951 17.3789 0.635925 18.2345C1.01942 18.9872 1.63134 19.5991 2.38399 19.9826C3.23964 20.4186 4.35974 20.4186 6.59995 20.4186H13.305C15.5452 20.4186 16.6653 20.4186 17.5209 19.9826C18.2736 19.5991 18.8855 18.9872 19.269 18.2345C19.705 17.3789 19.705 16.2588 19.705 14.0186V7.31357C19.705 5.93077 19.705 4.97474 19.6024 4.24426L21.3192 2.52752C21.6121 2.23463 21.6121 1.75975 21.3192 1.46686C21.0263 1.17397 20.5514 1.17397 20.2585 1.46686L19.0321 2.69323C18.6532 2.12546 18.1337 1.66179 17.5209 1.34955C16.6653 0.913574 15.5452 0.913574 13.305 0.913574H6.59995C4.35974 0.913574 3.23964 0.913574 2.38399 1.34955C1.63134 1.73304 1.01942 2.34496 0.635925 3.09761ZM19.0321 2.69323L9.95272 11.7726L7.23221 9.05214C6.93932 8.75925 6.46444 8.75925 6.17155 9.05214C5.87866 9.34504 5.87866 9.81991 6.17155 10.1128L9.42239 13.3636C9.56304 13.5043 9.7538 13.5833 9.95272 13.5833C10.1516 13.5833 10.3424 13.5043 10.483 13.3636L19.6024 4.24426C19.5388 3.79132 19.4358 3.4251 19.269 3.09761C19.1977 2.95777 19.1186 2.82279 19.0321 2.69323Z" fill="#007AFF"/>
</svg>
