<svg width="22" height="20" viewBox="0 0 22 20" fill="none" xmlns="http://www.w3.org/2000/svg">
<path fill-rule="evenodd" clip-rule="evenodd" d="M5.55 0.861572H5.5179H5.51788C4.70505 0.861565 4.04944 0.861559 3.51853 0.904936C2.9719 0.949598 2.49175 1.04396 2.04754 1.2703C1.34193 1.62982 0.768251 2.2035 0.408726 2.90911C0.182385 3.35333 0.0880258 3.83347 0.0433638 4.3801C-1.30293e-05 4.91101 -7.21222e-06 5.56662 0 6.37946V6.37947V6.41157V11.9821V12.0142V12.0143C-7.21222e-06 12.8271 -1.30311e-05 13.4827 0.0433638 14.0136C0.0880258 14.5602 0.182385 15.0404 0.408726 15.4846C0.768251 16.1902 1.34193 16.7639 2.04754 17.1234C2.49175 17.3498 2.9719 17.4441 3.51853 17.4888C4.04945 17.5321 4.70507 17.5321 5.51793 17.5321H5.55H14.4097C14.9932 17.5321 15.2145 17.5338 15.4269 17.5635C15.626 17.5914 15.8221 17.6377 16.0127 17.7018C16.2159 17.7702 16.4146 17.8677 16.9365 18.1286L19.9196 19.6202C20.1521 19.7364 20.4282 19.724 20.6493 19.5873C20.8704 19.4507 21.005 19.2093 21.005 18.9494V6.41157V6.37945C21.005 5.56662 21.005 4.91101 20.9616 4.3801C20.917 3.83347 20.8226 3.35333 20.5963 2.90911C20.2368 2.2035 19.6631 1.62982 18.9575 1.2703C18.5133 1.04396 18.0331 0.949598 17.4865 0.904936C16.9556 0.861559 16.3 0.861565 15.4871 0.861572H15.4871H15.455H5.55ZM5.08465 5.196C4.67043 5.196 4.33465 5.53179 4.33465 5.946C4.33465 6.36021 4.67043 6.696 5.08465 6.696H13.7535C14.1678 6.696 14.5035 6.36021 14.5035 5.946C14.5035 5.53179 14.1678 5.196 13.7535 5.196H5.08465ZM4.33465 10.2805C4.33465 9.86624 4.67043 9.53045 5.08465 9.53045H9.41909C9.83331 9.53045 10.1691 9.86624 10.1691 10.2805C10.1691 10.6947 9.83331 11.0305 9.41909 11.0305H5.08465C4.67043 11.0305 4.33465 10.6947 4.33465 10.2805Z" fill="#007AFF"/>
</svg>
