<svg width="23" height="15" viewBox="0 0 23 15" fill="none" xmlns="http://www.w3.org/2000/svg">
<path fill-rule="evenodd" clip-rule="evenodd" d="M0.461914 0.75C0.461914 0.335786 0.7977 0 1.21191 0H21.8786C22.2928 0 22.6286 0.335786 22.6286 0.75C22.6286 1.16421 22.2928 1.5 21.8786 1.5H1.21191C0.7977 1.5 0.461914 1.16421 0.461914 0.75ZM0.461914 7.20833C0.461914 6.79412 0.797701 6.45833 1.21191 6.45833L21.8786 6.45833C22.2928 6.45833 22.6286 6.79412 22.6286 7.20833C22.6286 7.62255 22.2928 7.95833 21.8786 7.95833L1.21191 7.95833C0.7977 7.95833 0.461914 7.62255 0.461914 7.20833ZM1.21191 12.9167C0.7977 12.9167 0.461914 13.2525 0.461914 13.6667C0.461914 14.0809 0.7977 14.4167 1.21191 14.4167H21.8786C22.2928 14.4167 22.6286 14.0809 22.6286 13.6667C22.6286 13.2525 22.2928 12.9167 21.8786 12.9167H1.21191Z" fill="#151E28"/>
</svg>
