<svg width="19" height="23" viewBox="0 0 19 23" fill="none" xmlns="http://www.w3.org/2000/svg">
<path fill-rule="evenodd" clip-rule="evenodd" d="M11.2729 0L11.2619 3.15916e-06L11.1764 1.95504e-05H6.54878L6.51667 1.9312e-05C5.70384 1.1921e-05 5.04822 5.90098e-06 4.51731 0.0433829C3.97067 0.0880449 3.49053 0.182404 3.04631 0.408745C2.34071 0.76827 1.76703 1.34195 1.40751 2.04755C1.18116 2.49177 1.0868 2.97191 1.04214 3.51855C0.998766 4.04946 0.998772 4.70508 0.998779 5.51791V5.55002V16.5023V16.5344C0.998772 17.3473 0.998766 18.0029 1.04214 18.5338C1.0868 19.0804 1.18116 19.5606 1.40751 20.0048C1.76703 20.7104 2.34071 21.2841 3.04631 21.6436C3.49053 21.8699 3.97067 21.9643 4.51731 22.009C5.04824 22.0523 5.70388 22.0523 6.51676 22.0523H6.54878H12.9313H12.9634C13.7762 22.0523 14.4319 22.0523 14.9628 22.009C15.5094 21.9643 15.9896 21.8699 16.4338 21.6436C17.1394 21.2841 17.7131 20.7104 18.0726 20.0048C18.2989 19.5606 18.3933 19.0804 18.438 18.5338C18.4813 18.0029 18.4813 17.3473 18.4813 16.5345V16.5023V7.3052L18.4813 7.21973L18.4813 7.20894H15.2229H15.1925H15.1925C14.6583 7.20895 14.2125 7.20896 13.8483 7.1792C13.4684 7.14816 13.1117 7.08105 12.7745 6.90921C12.257 6.64556 11.8363 6.22486 11.5727 5.70741C11.4008 5.37015 11.3337 5.0135 11.3027 4.63361C11.2729 4.26938 11.2729 3.82353 11.2729 3.28938V3.25894V0ZM18.3835 5.70894L18.3777 5.68437C18.2859 5.30177 18.1344 4.93601 17.9288 4.60051C17.6962 4.22087 17.3773 3.90206 16.9165 3.44149L16.8561 3.38107L15.1012 1.62589L15.0408 1.56543L15.0408 1.56542L15.0408 1.56542C14.5802 1.10449 14.2613 0.785429 13.8817 0.552729C13.5461 0.347082 13.1803 0.195535 12.7976 0.103653L12.7729 0.097848V3.25894C12.7729 3.83137 12.7735 4.21559 12.7977 4.51146C12.8212 4.79859 12.863 4.93587 12.9092 5.02643C13.029 5.26163 13.2203 5.45286 13.4555 5.5727C13.546 5.61884 13.6833 5.66072 13.9704 5.68418C14.2663 5.70836 14.6505 5.70894 15.2229 5.70894H18.3835ZM5.56445 11.0262C5.56445 10.612 5.90024 10.2762 6.31445 10.2762H13.1641C13.5783 10.2762 13.9141 10.612 13.9141 11.0262C13.9141 11.4404 13.5783 11.7762 13.1641 11.7762H6.31445C5.90024 11.7762 5.56445 11.4404 5.56445 11.0262ZM6.31445 14.8434C5.90024 14.8434 5.56445 15.1792 5.56445 15.5934C5.56445 16.0076 5.90024 16.3434 6.31445 16.3434H10.8809C11.2951 16.3434 11.6309 16.0076 11.6309 15.5934C11.6309 15.1792 11.2951 14.8434 10.8809 14.8434H6.31445Z" fill="#007AFF"/>
</svg>
