<svg width="22" height="22" viewBox="0 0 22 22" fill="none" xmlns="http://www.w3.org/2000/svg">
<path fill-rule="evenodd" clip-rule="evenodd" d="M11.1759 0.41974C11.0499 0.162826 10.7887 0 10.5025 0C10.2164 0 9.95517 0.162825 9.82916 0.419739L6.75208 6.69361L0.640788 7.59328C0.360059 7.63461 0.12669 7.83083 0.0377847 8.10029C-0.051121 8.36976 0.0196608 8.66633 0.220678 8.8666L4.80304 13.4319L3.26947 20.1867C3.20491 20.471 3.311 20.767 3.54148 20.9456C3.77195 21.1242 4.08505 21.153 4.34426 21.0195L10.5025 17.8478L16.6608 21.0195C16.92 21.153 17.2331 21.1242 17.4636 20.9456C17.694 20.767 17.8001 20.471 17.7356 20.1867L16.202 13.4319L20.7844 8.8666C20.9854 8.66633 21.0562 8.36976 20.9673 8.10029C20.8784 7.83083 20.645 7.63461 20.3643 7.59328L14.253 6.69361L11.1759 0.41974Z" fill="#007AFF"/>
</svg>
