<svg width="24" height="22" viewBox="0 0 24 22" fill="none" xmlns="http://www.w3.org/2000/svg">
<path fill-rule="evenodd" clip-rule="evenodd" d="M0.21967 10.2847L3.45737 7.04703C3.4658 7.03818 3.47445 7.02953 3.4833 7.0211L8.79304 1.71136L8.81457 1.68983C9.19226 1.31212 9.50752 0.996855 9.78611 0.760348C10.0767 0.513676 10.3763 0.308936 10.7363 0.191968C11.2886 0.0125082 11.8836 0.0125082 12.4359 0.191968C12.7959 0.308936 13.0956 0.513676 13.3861 0.760348C13.6647 0.996853 13.98 1.31211 14.3576 1.68982L14.3577 1.68983L14.3792 1.71136L22.9526 10.2847C23.2455 10.5776 23.2455 11.0525 22.9526 11.3454C22.6597 11.6383 22.1848 11.6383 21.8919 11.3454L19.9211 9.37456V15.7676V15.7996C19.9211 16.6125 19.9211 17.2681 19.8777 17.799C19.833 18.3457 19.7387 18.8258 19.5123 19.27C19.1528 19.9756 18.5791 20.5493 17.8735 20.9089C17.4293 21.1352 16.9492 21.2295 16.4025 21.2742C15.8716 21.3176 15.216 21.3176 14.4031 21.3176H14.3711H8.80051H8.76844C7.95558 21.3176 7.29996 21.3176 6.76904 21.2742C6.22241 21.2295 5.74226 21.1352 5.29805 20.9089C4.59244 20.5493 4.01876 19.9756 3.65924 19.27C3.4329 18.8258 3.33854 18.3457 3.29387 17.799C3.2505 17.2681 3.2505 16.6125 3.25051 15.7997L3.25051 15.7676V9.37521L1.28033 11.3454C0.987437 11.6383 0.512563 11.6383 0.21967 11.3454C-0.0732233 11.0525 -0.0732233 10.5776 0.21967 10.2847Z" fill="#007AFF"/>
</svg>
