<svg width="19" height="23" viewBox="0 0 19 23" fill="none" xmlns="http://www.w3.org/2000/svg">
<path fill-rule="evenodd" clip-rule="evenodd" d="M11.2738 1.50128C11.2423 1.50126 11.2098 1.50125 11.1764 1.50125H6.54878C5.69633 1.50125 5.10209 1.50184 4.63946 1.53963C4.18558 1.57672 3.92482 1.64585 3.7273 1.74649C3.30394 1.9622 2.95973 2.30641 2.74401 2.72977C2.64338 2.92729 2.57424 3.18806 2.53716 3.64193C2.49936 4.10457 2.49878 4.6988 2.49878 5.55126V16.502C2.49878 17.3544 2.49936 17.9487 2.53716 18.4113C2.57424 18.8652 2.64338 19.1259 2.74401 19.3235C2.95973 19.7468 3.30394 20.091 3.7273 20.3068C3.92482 20.4074 4.18558 20.4765 4.63946 20.5136C5.10209 20.5514 5.69632 20.552 6.54878 20.552H12.9312C13.7836 20.552 14.3779 20.5514 14.8405 20.5136C15.2944 20.4765 15.5551 20.4074 15.7527 20.3068C16.176 20.091 16.5202 19.7468 16.736 19.3235C16.8366 19.1259 16.9057 18.8652 16.9428 18.4113C16.9806 17.9487 16.9812 17.3544 16.9812 16.502V7.30618C16.9812 7.27325 16.9812 7.24125 16.9812 7.21014H15.2238H15.1934H15.1933C14.6592 7.21015 14.2134 7.21016 13.8491 7.1804C13.4692 7.14936 13.1126 7.08225 12.7753 6.91041C12.2579 6.64675 11.8372 6.22606 11.5735 5.70861C11.4017 5.37135 11.3346 5.01469 11.3035 4.63481C11.2738 4.27057 11.2738 3.82473 11.2738 3.29057V3.26014V1.50128ZM16.8142 5.71014C16.7683 5.59769 16.7133 5.48897 16.6497 5.38508C16.5213 5.17563 16.3391 4.98662 15.7951 4.44253L14.0403 2.6876C13.4962 2.14345 13.3072 1.96122 13.0977 1.83285C12.9942 1.7694 12.8859 1.71453 12.7738 1.6687V3.26014C12.7738 3.83256 12.7744 4.21678 12.7986 4.51266C12.822 4.79978 12.8639 4.93706 12.91 5.02763C13.0299 5.26283 13.2211 5.45405 13.4563 5.5739C13.5469 5.62004 13.6842 5.66192 13.9713 5.68538C14.2672 5.70955 14.6514 5.71014 15.2238 5.71014H16.8142ZM12.7975 0.104878C12.3645 0.000917256 11.9135 0.00104779 11.2619 0.00123644L11.1764 0.00125283H6.54878L6.51667 0.00125259C5.70384 0.0012452 5.04822 0.00123918 4.51731 0.0446162C3.97067 0.0892782 3.49053 0.183638 3.04632 0.409978C2.34071 0.769504 1.76703 1.34318 1.40751 2.04879C1.18116 2.49301 1.08681 2.97315 1.04214 3.51979C0.998766 4.05069 0.998772 4.70631 0.998779 5.51914V5.51915V5.55126V16.502V16.5341C0.998772 17.3469 0.998766 18.0025 1.04214 18.5335C1.08681 19.0801 1.18116 19.5602 1.40751 20.0045C1.76703 20.7101 2.34071 21.2837 3.04632 21.6433C3.49053 21.8696 3.97067 21.964 4.51731 22.0086C5.04822 22.052 5.70382 22.052 6.51665 22.052H6.54878H12.9312H12.9633C13.7761 22.052 14.4317 22.052 14.9627 22.0086C15.5093 21.964 15.9894 21.8696 16.4337 21.6433C17.1393 21.2837 17.7129 20.7101 18.0725 20.0045C18.2988 19.5602 18.3932 19.0801 18.4378 18.5335C18.4812 18.0026 18.4812 17.3469 18.4812 16.5341V16.502V7.30618L18.4812 7.22071C18.4814 6.5692 18.4815 6.11822 18.3776 5.68527C18.2857 5.30266 18.1342 4.93688 17.9287 4.60138C17.696 4.22173 17.3771 3.90292 16.9163 3.44234L16.8558 3.38192L15.1011 1.62699L15.0406 1.56654C14.58 1.10564 14.2612 0.7866 13.8815 0.553916C13.546 0.348286 13.1802 0.196752 12.7975 0.104878ZM6.31592 10.2764C5.9017 10.2764 5.56592 10.6122 5.56592 11.0264C5.56592 11.4406 5.9017 11.7764 6.31592 11.7764H13.1655C13.5797 11.7764 13.9155 11.4406 13.9155 11.0264C13.9155 10.6122 13.5797 10.2764 13.1655 10.2764H6.31592ZM5.56592 15.5933C5.56592 15.1791 5.9017 14.8433 6.31592 14.8433H10.8823C11.2965 14.8433 11.6323 15.1791 11.6323 15.5933C11.6323 16.0075 11.2965 16.3433 10.8823 16.3433H6.31592C5.9017 16.3433 5.56592 16.0075 5.56592 15.5933Z" fill="#B0B0B0"/>
</svg>
