<svg width="21" height="20" viewBox="0 0 21 20" fill="none" xmlns="http://www.w3.org/2000/svg">
<path fill-rule="evenodd" clip-rule="evenodd" d="M5.51789 0.859986H5.55H15.4497H15.4818H15.4819C16.2947 0.859978 16.9503 0.859973 17.4812 0.903349C18.0278 0.948011 18.508 1.04237 18.9522 1.26871C19.6578 1.62824 20.2315 2.20191 20.591 2.90752C20.8173 3.35174 20.9117 3.83188 20.9564 4.37852C20.9997 4.90945 20.9997 5.56509 20.9997 6.37796V6.40999V18.95C20.9997 19.2099 20.8651 19.4514 20.644 19.588C20.4228 19.7247 20.1467 19.737 19.9142 19.6208L16.9326 18.1294C16.4106 17.8683 16.2119 17.7707 16.0086 17.7023C15.818 17.6381 15.6218 17.5918 15.4226 17.5639C15.2102 17.5341 14.9888 17.5325 14.4051 17.5325H5.55H5.51793C4.70508 17.5325 4.04945 17.5325 3.51853 17.4891C2.9719 17.4445 2.49175 17.3501 2.04754 17.1238C1.34193 16.7642 0.768251 16.1906 0.408726 15.485C0.182385 15.0407 0.0880258 14.5606 0.0433638 14.014C-1.32761e-05 13.483 -7.25603e-06 12.8274 1.94547e-07 12.0146V11.9825V6.40999V6.37789C-7.25603e-06 5.56504 -1.32761e-05 4.90943 0.0433638 4.37852C0.0880257 3.83188 0.182385 3.35174 0.408726 2.90752C0.768251 2.20191 1.34193 1.62824 2.04754 1.26871C2.49175 1.04237 2.9719 0.948011 3.51853 0.903349C4.04944 0.859973 4.70505 0.859978 5.51788 0.859986H5.51789ZM3.64068 2.39837C3.1868 2.43545 2.92604 2.50458 2.72852 2.60522C2.30516 2.82094 1.96095 3.16514 1.74524 3.58851C1.6446 3.78602 1.57547 4.04679 1.53838 4.50067C1.50058 4.9633 1.5 5.55753 1.5 6.40999V11.9825C1.5 12.8349 1.50058 13.4292 1.53838 13.8918C1.57547 14.3457 1.6446 14.6064 1.74524 14.804C1.96095 15.2273 2.30516 15.5715 2.72852 15.7873C2.92604 15.8879 3.1868 15.957 3.64068 15.9941C4.10331 16.0319 4.69755 16.0325 5.55 16.0325H14.4051L14.4582 16.0325H14.4583C14.9713 16.0324 15.3022 16.0324 15.6306 16.0784C15.9218 16.1192 16.2085 16.1869 16.4871 16.2806C16.8014 16.3864 17.0973 16.5345 17.5562 16.7641L17.6037 16.7878L19.4997 17.7362V6.40999C19.4997 5.55753 19.4991 4.9633 19.4613 4.50067C19.4243 4.04679 19.3551 3.78602 19.2545 3.58851C19.0388 3.16514 18.6946 2.82094 18.2712 2.60522C18.0737 2.50458 17.8129 2.43545 17.3591 2.39837C16.8964 2.36057 16.3022 2.35999 15.4497 2.35999H5.55C4.69755 2.35999 4.10331 2.36057 3.64068 2.39837ZM4.3551 5.96683C4.3551 5.55261 4.69089 5.21683 5.1051 5.21683H13.8151C14.2293 5.21683 14.5651 5.55261 14.5651 5.96683C14.5651 6.38104 14.2293 6.71683 13.8151 6.71683H5.1051C4.69089 6.71683 4.3551 6.38104 4.3551 5.96683ZM5.1051 9.57355C4.69089 9.57355 4.3551 9.90934 4.3551 10.3235C4.3551 10.7378 4.69089 11.0735 5.1051 11.0735H9.46011C9.87432 11.0735 10.2101 10.7378 10.2101 10.3235C10.2101 9.90934 9.87432 9.57355 9.46011 9.57355H5.1051Z" fill="#B0B0B0"/>
</svg>
