<svg width="24" height="22" viewBox="0 0 24 22" fill="none" xmlns="http://www.w3.org/2000/svg">
<path fill-rule="evenodd" clip-rule="evenodd" d="M11.2021 1.63016C11.4532 1.54857 11.7236 1.54857 11.9747 1.63016C12.0714 1.66157 12.1981 1.72904 12.4177 1.91552C12.644 2.10768 12.9162 2.379 13.3209 2.78384L18.4228 7.88636V15.7784C18.4228 16.6308 18.4222 17.225 18.3844 17.6877C18.3473 18.1416 18.2782 18.4023 18.1776 18.5998C17.9619 19.0232 17.6176 19.3674 17.1943 19.5831C16.9968 19.6838 16.736 19.7529 16.2821 19.79C15.8195 19.8278 15.2253 19.8284 14.3728 19.8284H8.80415C7.95169 19.8284 7.35746 19.8278 6.89483 19.79C6.44095 19.7529 6.18019 19.6838 5.98267 19.5831C5.55931 19.3674 5.2151 19.0232 4.99939 18.5998C4.89875 18.4023 4.82962 18.1416 4.79253 17.6877C4.75473 17.225 4.75415 16.6308 4.75415 15.7784V7.88624L9.85589 2.78384C10.2607 2.379 10.5328 2.10768 10.7591 1.91552C10.9787 1.72904 11.1054 1.66157 11.2021 1.63016ZM3.45551 7.06359L0.223298 10.2962C-0.0695766 10.5891 -0.0695458 11.064 0.223366 11.3569C0.516279 11.6498 0.991152 11.6497 1.28403 11.3568L3.25415 9.38644V15.7784L3.25415 15.8105C3.25414 16.6233 3.25414 17.2789 3.29751 17.8098C3.34218 18.3565 3.43654 18.8366 3.66288 19.2808C4.0224 19.9864 4.59608 20.5601 5.30169 20.9196C5.7459 21.146 6.22604 21.2403 6.77268 21.285C7.3036 21.3284 7.95922 21.3284 8.77207 21.3284H8.80415H14.3728H14.4049C15.2177 21.3284 15.8734 21.3284 16.4043 21.285C16.9509 21.2403 17.4311 21.146 17.8753 20.9196C18.5809 20.5601 19.1546 19.9864 19.5141 19.2808C19.7404 18.8366 19.8348 18.3565 19.8794 17.8098C19.9228 17.2789 19.9228 16.6234 19.9228 15.8106V15.8105V15.7784V9.38656L21.8928 11.3568C22.1857 11.6497 22.6606 11.6498 22.9535 11.3569C23.2464 11.064 23.2464 10.5891 22.9535 10.2962L19.7231 7.06533C19.7101 7.0513 19.6965 7.03778 19.6825 7.02478L14.3817 1.72325L14.3601 1.70171C13.9824 1.32393 13.6672 1.00861 13.3886 0.772066C13.098 0.525352 12.7983 0.320575 12.4383 0.203586C11.8859 0.0240975 11.2909 0.0240975 10.7386 0.203586C10.3785 0.320575 10.0789 0.525352 9.78828 0.772066C9.50967 1.00862 9.19439 1.32395 8.81667 1.70174L8.79516 1.72325L3.49271 7.02639C3.47988 7.03836 3.46747 7.05076 3.45551 7.06359Z" fill="#B0B0B0"/>
</svg>
