<svg width="23" height="21" viewBox="0 0 23 21" fill="none" xmlns="http://www.w3.org/2000/svg">
<path fill-rule="evenodd" clip-rule="evenodd" d="M5.41415 0.832098L5.27932 0.832064C4.3268 0.831699 3.67624 0.83145 3.12484 1.0049C1.95602 1.37256 1.04053 2.28805 0.672867 3.45687C0.499419 4.00827 0.499668 4.65883 0.500033 5.61135L0.500067 5.74618V14.4795L0.500067 14.5116C0.500059 15.3244 0.500053 15.98 0.54343 16.5109C0.588092 17.0576 0.682452 17.5377 0.908792 17.9819C1.26832 18.6875 1.84199 19.2612 2.5476 19.6207C2.99182 19.8471 3.47196 19.9414 4.0186 19.9861C4.5495 20.0295 5.20511 20.0295 6.01794 20.0295H6.05006H17.2705H17.3026C18.1154 20.0295 18.7711 20.0295 19.302 19.9861C19.8486 19.9414 20.3287 19.8471 20.773 19.6207C21.4786 19.2612 22.0522 18.6875 22.4118 17.9819C22.6381 17.5377 22.7325 17.0576 22.7771 16.5109C22.8205 15.98 22.8205 15.3244 22.8205 14.5115V14.4795V9.50516V9.47314C22.8205 8.66026 22.8205 8.00462 22.7771 7.47369C22.7325 6.92706 22.6381 6.44692 22.4118 6.0027C22.0522 5.29709 21.4786 4.72341 20.773 4.36389C20.3287 4.13755 19.8486 4.04319 19.302 3.99853C18.771 3.95515 18.1154 3.95515 17.3026 3.95516H17.2705H14.6895C13.9201 3.95516 13.6576 3.95034 13.4187 3.89299C13.1891 3.83788 12.9696 3.74697 12.7683 3.6236C12.5589 3.49525 12.3698 3.31304 11.8257 2.76894L11.5145 2.45766L11.454 2.39721L11.454 2.39721C10.9934 1.93635 10.6746 1.61735 10.295 1.3847C9.95944 1.17909 9.59365 1.02757 9.21102 0.935711C8.77804 0.831762 8.32703 0.831893 7.67547 0.832082L7.59001 0.832098H5.41415Z" fill="#007AFF"/>
</svg>
