<svg width="23" height="15" viewBox="0 0 23 15" fill="none" xmlns="http://www.w3.org/2000/svg">
<path fill-rule="evenodd" clip-rule="evenodd" d="M0 0.75C0 0.335786 0.335786 0 0.75 0H21.4167C21.8309 0 22.1667 0.335786 22.1667 0.75C22.1667 1.16421 21.8309 1.5 21.4167 1.5H0.75C0.335786 1.5 0 1.16421 0 0.75ZM0 7.20833C0 6.79412 0.335787 6.45833 0.75 6.45833L21.4167 6.45833C21.8309 6.45833 22.1667 6.79412 22.1667 7.20833C22.1667 7.62255 21.8309 7.95833 21.4167 7.95833L0.75 7.95833C0.335786 7.95833 0 7.62255 0 7.20833ZM0.75 12.9167C0.335786 12.9167 0 13.2525 0 13.6667C0 14.0809 0.335786 14.4167 0.75 14.4167H21.4167C21.8309 14.4167 22.1667 14.0809 22.1667 13.6667C22.1667 13.2525 21.8309 12.9167 21.4167 12.9167H0.75Z" fill="white"/>
</svg>
