<svg width="21" height="20" viewBox="0 0 21 20" fill="none" xmlns="http://www.w3.org/2000/svg">
<path fill-rule="evenodd" clip-rule="evenodd" d="M15.5057 2.4519C14.2365 1.1827 12.1787 1.1827 10.9095 2.4519L3.83847 9.52297C1.78822 11.5732 1.78822 14.8973 3.83847 16.9476C5.88872 18.9978 9.21284 18.9978 11.2631 16.9476L19.0413 9.16942C19.3342 8.87652 19.809 8.87652 20.1019 9.16942C20.3948 9.46231 20.3948 9.93718 20.1019 10.2301L12.3238 18.0083C9.68771 20.6443 5.41385 20.6443 2.77781 18.0083C0.141772 15.3722 0.141771 11.0983 2.77781 8.46231L9.84888 1.39124C11.7039 -0.463748 14.7114 -0.463747 16.5664 1.39124C18.4214 3.24623 18.4214 6.25377 16.5664 8.10876L9.49533 15.1798C8.42138 16.2538 6.68018 16.2538 5.60624 15.1798C4.5323 14.1059 4.5323 12.3647 5.60624 11.2907L12.6773 4.21967C12.9702 3.92678 13.4451 3.92678 13.738 4.21967C14.0309 4.51256 14.0309 4.98744 13.738 5.28033L6.6669 12.3514C6.17874 12.8396 6.17874 13.631 6.6669 14.1192C7.15505 14.6073 7.94651 14.6073 8.43466 14.1192L15.5057 7.0481C16.7749 5.77889 16.7749 3.72111 15.5057 2.4519Z" fill="#252F42"/>
<path fill-rule="evenodd" clip-rule="evenodd" d="M15.5057 2.4519C14.2365 1.1827 12.1787 1.1827 10.9095 2.4519L3.83847 9.52297C1.78822 11.5732 1.78822 14.8973 3.83847 16.9476C5.88872 18.9978 9.21284 18.9978 11.2631 16.9476L19.0413 9.16942C19.3342 8.87652 19.809 8.87652 20.1019 9.16942C20.3948 9.46231 20.3948 9.93718 20.1019 10.2301L12.3238 18.0083C9.68771 20.6443 5.41385 20.6443 2.77781 18.0083C0.141772 15.3722 0.141771 11.0983 2.77781 8.46231L9.84888 1.39124C11.7039 -0.463748 14.7114 -0.463747 16.5664 1.39124C18.4214 3.24623 18.4214 6.25377 16.5664 8.10876L9.49533 15.1798C8.42138 16.2538 6.68018 16.2538 5.60624 15.1798C4.5323 14.1059 4.5323 12.3647 5.60624 11.2907L12.6773 4.21967C12.9702 3.92678 13.4451 3.92678 13.738 4.21967C14.0309 4.51256 14.0309 4.98744 13.738 5.28033L6.6669 12.3514C6.17874 12.8396 6.17874 13.631 6.6669 14.1192C7.15505 14.6073 7.94651 14.6073 8.43466 14.1192L15.5057 7.0481C16.7749 5.77889 16.7749 3.72111 15.5057 2.4519Z" fill="url(#paint0_linear)"/>
<defs>
<linearGradient id="paint0_linear" x1="0.80078" y1="19.9853" x2="20.7805" y2="0.469863" gradientUnits="userSpaceOnUse">
<stop stop-color="#4937E8"/>
<stop offset="1" stop-color="#2A82E9"/>
</linearGradient>
</defs>
</svg>
