<svg width="18" height="19" viewBox="0 0 18 19" fill="none" xmlns="http://www.w3.org/2000/svg">
<path fill-rule="evenodd" clip-rule="evenodd" d="M8.96467 0.155829C9.23694 0.385603 9.26535 0.785662 9.02814 1.04939L7.65961 2.57083C7.94366 2.54629 8.23552 2.53334 8.53516 2.53334C13.2296 2.53334 17.0352 6.21953 17.0352 10.7667C17.0352 15.3138 13.2296 19 8.53516 19C3.84074 19 0.0351562 15.3138 0.0351562 10.7667C0.0351562 9.07503 0.562559 7.50078 1.4669 6.19215C1.66777 5.90148 2.07387 5.82358 2.37396 6.01815C2.67404 6.21271 2.75447 6.60608 2.5536 6.89675C1.78884 8.0034 1.34285 9.33362 1.34285 10.7667C1.34285 14.6143 4.56295 17.7333 8.53516 17.7333C12.5074 17.7333 15.7275 14.6143 15.7275 10.7667C15.7275 6.91909 12.5074 3.80001 8.53516 3.80001C8.17034 3.80001 7.81969 3.82207 7.48309 3.86283L9.35674 5.18859C9.64833 5.39492 9.71204 5.79115 9.49903 6.07359C9.28602 6.35604 8.87696 6.41775 8.58537 6.21142L5.53408 4.05239C5.38619 3.94774 5.29039 3.7878 5.26999 3.6115C5.2496 3.4352 5.30648 3.25869 5.42679 3.12493L8.04218 0.217299C8.27939 -0.0464241 8.69241 -0.0739452 8.96467 0.155829Z" fill="#252F42"/>
</svg>
