<svg width="40" height="39" viewBox="0 0 40 39" fill="none" xmlns="http://www.w3.org/2000/svg">
<circle cx="19.8218" cy="19.5" r="19.5" fill="url(#paint0_linear)"/>
<path fill-rule="evenodd" clip-rule="evenodd" d="M27.2174 11.6045C27.4183 11.8053 27.4884 12.1025 27.3986 12.372L22.3216 27.6022C22.2257 27.89 21.9658 28.0917 21.6632 28.1132C21.3607 28.1347 21.0749 27.9718 20.9393 27.7005L18.02 21.862L21.717 18.1649C22.0099 17.872 22.0099 17.3972 21.717 17.1043C21.4242 16.8114 20.9493 16.8114 20.6564 17.1043L16.9592 20.8014L11.1211 17.8824C10.8498 17.7467 10.6869 17.461 10.7084 17.1584C10.7299 16.8558 10.9316 16.596 11.2194 16.5L26.4499 11.4233C26.7194 11.3334 27.0165 11.4036 27.2174 11.6045Z" fill="white"/>
<defs>
<linearGradient id="paint0_linear" x1="0.321774" y1="39" x2="39.3218" y2="1.71264e-06" gradientUnits="userSpaceOnUse">
<stop stop-color="#4937E8"/>
<stop offset="1" stop-color="#2A82E9"/>
</linearGradient>
</defs>
</svg>
