<svg width="31" height="30" viewBox="0 0 31 30" fill="none" xmlns="http://www.w3.org/2000/svg">
<path fill-rule="evenodd" clip-rule="evenodd" d="M12.3218 27C12.3218 28.6569 13.6649 30 15.3218 30C16.9786 30 18.3218 28.6569 18.3218 27V25.0652C19.0203 24.8573 19.6883 24.5787 20.3176 24.2377L21.6865 25.6066C22.8581 26.7782 24.7576 26.7782 25.9291 25.6066C27.1007 24.435 27.1007 22.5355 25.9291 21.3639L24.56 19.9948C24.9008 19.3658 25.1792 18.6981 25.387 18H27.3218C28.9786 18 30.3218 16.6569 30.3218 15C30.3218 13.3431 28.9786 12 27.3218 12H25.387C25.1791 11.3016 24.9006 10.6337 24.5596 10.0045L25.9281 8.63605C27.0996 7.46448 27.0996 5.56498 25.9281 4.39341C24.7565 3.22183 22.857 3.22184 21.6854 4.39341L20.3169 5.76196C19.6878 5.4211 19.02 5.14262 18.3218 4.93482V3C18.3218 1.34315 16.9786 0 15.3218 0C13.6649 0 12.3218 1.34315 12.3218 3V4.93482C11.6237 5.14259 10.956 5.42101 10.327 5.76179L8.95858 4.39339C7.78701 3.22181 5.88752 3.22181 4.71594 4.39339C3.54437 5.56496 3.54437 7.46445 4.71594 8.63603L6.08412 10.0042C5.74309 10.6335 5.46448 11.3015 5.25659 12H3.32178C1.66492 12 0.321777 13.3431 0.321777 15C0.321777 16.6569 1.66492 18 3.32178 18H5.2566C5.4644 18.6982 5.74288 19.366 6.08374 19.9951L4.71486 21.364C3.54329 22.5355 3.54329 24.435 4.71486 25.6066C5.88643 26.7782 7.78593 26.7782 8.9575 25.6066L10.3263 24.2378C10.9555 24.5788 11.6234 24.8573 12.3218 25.0652V27ZM15.3218 19.5C17.8071 19.5 19.8218 17.4853 19.8218 15C19.8218 12.5147 17.8071 10.5 15.3218 10.5C12.8365 10.5 10.8218 12.5147 10.8218 15C10.8218 17.4853 12.8365 19.5 15.3218 19.5Z" fill="#CBCBCB"/>
</svg>
