<svg width="60" height="60" viewBox="0 0 60 60" fill="none" xmlns="http://www.w3.org/2000/svg">
<path fill-rule="evenodd" clip-rule="evenodd" d="M30 0C13.4315 0 0 13.4315 0 30C0 46.5685 13.4315 60 30 60C46.5685 60 60 46.5685 60 30C60 13.4315 46.5685 0 30 0ZM4.61538 30C4.61538 15.9805 15.9805 4.61538 30 4.61538C44.0195 4.61538 55.3846 15.9805 55.3846 30C55.3846 44.0195 44.0195 55.3846 30 55.3846C15.9805 55.3846 4.61538 44.0195 4.61538 30ZM32.3077 17.6923C32.3077 16.4178 31.2745 15.3846 30 15.3846C28.7255 15.3846 27.6923 16.4178 27.6923 17.6923V30C27.6923 30.7716 28.0779 31.4921 28.7199 31.9201L37.9507 38.074C39.0111 38.7809 40.4439 38.4944 41.1509 37.4339C41.8579 36.3735 41.5713 34.9407 40.5108 34.2337L32.3077 28.765V17.6923Z" fill="#686868"/>
</svg>
