<svg width="17" height="16" viewBox="0 0 17 16" fill="none" xmlns="http://www.w3.org/2000/svg">
<path fill-rule="evenodd" clip-rule="evenodd" d="M0.582127 0.26035C0.92926 -0.0867832 1.49207 -0.0867832 1.83921 0.26035L8.32178 6.74292L14.8043 0.26035C15.1515 -0.0867832 15.7143 -0.0867832 16.0614 0.26035C16.4086 0.607482 16.4086 1.1703 16.0614 1.51743L9.57886 8L16.0614 14.4826C16.4086 14.8297 16.4086 15.3925 16.0614 15.7396C15.7143 16.0868 15.1515 16.0868 14.8043 15.7396L8.32178 9.25708L1.83921 15.7396C1.49207 16.0868 0.92926 16.0868 0.582127 15.7396C0.234994 15.3925 0.234994 14.8297 0.582127 14.4826L7.0647 8L0.582127 1.51743C0.234994 1.1703 0.234994 0.607482 0.582127 0.26035Z" fill="#A4A4A4"/>
</svg>
