<svg width="229" height="177" viewBox="0 0 229 177" fill="none" xmlns="http://www.w3.org/2000/svg">
<path d="M89.3241 111.049C89.3241 111.049 90.5031 117.969 92.7283 115.971C94.9534 113.973 104.335 107.3 105.499 111.049C106.662 114.798 106.055 127.048 102.261 131.284C98.4664 135.519 95.1771 135.42 97.1362 139.229C99.0952 143.038 100.135 144.136 112.274 140.84C124.412 137.545 135.453 135.528 135.752 134.47C136.052 133.412 137.043 132.526 132.88 130.298C128.717 128.07 121.649 126.991 122.601 122.238C123.553 117.486 127.221 109.876 128.599 110.695C129.978 111.515 133.436 114.088 134.749 115.143C136.061 116.198 142.004 116.509 140.266 110.484C138.528 104.458 135.408 90.757 134.077 90.7177C132.747 90.6784 118.121 93.3661 118.121 93.3661L89.8501 98.5963C89.8501 98.5963 87.2471 100.15 87.5615 101.973" fill="#CBCBCB"/>
<path d="M71.2056 62.3986C71.2056 62.3986 70.5556 55.4783 73.7149 54.0211C76.8742 52.5639 75.6135 51.8353 75.6135 51.8353C75.6135 51.8353 75.5138 47.3669 80.9375 45.2234C86.3612 43.0799 112.355 36.5799 112.355 36.5799C112.355 36.5799 121.634 35.3011 123.109 36.335C124.584 37.369 125.485 38.8836 125.479 39.3129C125.473 39.7422 130.368 38.796 131.592 39.9448C132.817 41.0936 137.013 47.9081 135.353 50.9827C133.693 54.0574 131.148 54.4051 130.268 54.2297C129.388 54.0544 129.385 59.7623 128.424 61.7879C127.462 63.8134 125.029 70.1804 119.874 70.8335C114.719 71.4865 112.398 72.0609 112.655 74.0865C112.912 76.1121 113.51 83.8426 114.417 85.1516C115.324 86.4607 117.794 85.5809 119.989 86.5453C122.184 87.5098 124.557 88.057 124.336 89.8074C124.116 91.5579 124.466 92.4316 116.038 94.2758C107.609 96.12 92.3473 98.847 95.6729 94.6568C98.9985 90.4665 102.823 90.0977 102.983 88.8037C103.143 87.5098 102.076 82.0558 102.076 82.0558C102.076 82.0558 100.326 73.373 98.3031 73.893C96.2806 74.413 94.4817 75.707 91.4524 75.3351C88.4231 74.9632 83.1959 74.1772 81.7357 70.4767L80.2724 66.7762C80.2724 66.7762 78.7336 68.7414 77.0798 68.2425C75.4261 67.7437 73.9054 65.3825 73.9054 65.3825" fill="#CBCBCB"/>
<path d="M99.7784 54.8766C100.126 53.629 100.271 52.3336 100.208 51.04C101.438 51.5952 102.486 52.4872 103.231 53.6128C103.397 53.8668 103.6 54.16 103.902 54.1631C104.079 54.1458 104.248 54.0787 104.389 53.9696C105.558 53.2632 106.958 53.046 108.286 53.3649C108.197 54.4415 107.882 55.4872 107.361 56.4335C107.022 57.0382 106.584 57.7184 106.804 58.3775C106.93 58.6767 107.115 58.9472 107.349 59.1726C107.951 59.8636 108.459 60.631 108.86 61.4552C108.941 61.5827 108.971 61.7358 108.945 61.8845C108.881 62.081 108.643 62.1596 108.443 62.1868C107.316 62.3885 106.155 62.2723 105.09 61.8512C104.407 61.5791 103.63 61.1801 102.974 61.5489C102.743 61.6991 102.538 61.8871 102.369 62.1052C101.638 62.9389 100.748 63.6192 99.7512 64.1066C99.6946 64.1406 99.6298 64.1584 99.5638 64.158C99.3945 64.1338 99.3582 63.907 99.3642 63.7377L99.4972 60.7447C99.5373 60.4969 99.488 60.243 99.3582 60.0282C99.2183 59.8846 99.0431 59.7804 98.8503 59.7259C98.1428 59.4483 97.4758 59.0772 96.867 58.6224C96.589 58.4506 96.3763 58.191 96.2624 57.8847C96.1324 57.407 96.4861 56.9082 96.9305 56.6966C97.3938 56.5205 97.8913 56.4533 98.3847 56.5" fill="white"/>
<path d="M167.097 51.8113C167.097 51.8113 168.306 55.8413 168.355 59.6476C168.403 63.4539 169.51 67.8406 165.852 65.6941C162.193 63.5476 159.599 59.7625 156.803 58.5985C154.006 57.4346 146.397 52.6215 145.109 48.3194C143.821 44.0173 143.845 40.7915 147.225 37.6503C150.605 34.5092 163.034 20.2515 163.034 20.2515C163.034 20.2515 173.34 7.72912 177.512 5.99377C181.684 4.25842 183.807 3.46028 185.739 4.86307C187.67 6.26587 187.67 2.774 190.878 4.14051C194.086 5.50703 204.882 5.95447 211.022 22.8605C217.162 39.7666 217.177 50.1424 216.18 52.9208C215.182 55.6992 212.673 60.9718 208.773 62.4048C204.873 63.8378 201.544 66.4227 199.67 62.8734C197.795 59.3241 199.165 52.6759 200.063 50.599C200.961 48.522 202.04 47.1192 203.443 45.4594C204.846 43.7996 208.425 39.8815 205.257 36.2536C202.088 32.6257 201.154 33.5054 200.338 34.0315C199.522 34.5575 198.022 37.3571 198.125 37.0124C198.228 36.6678 197.1 33.185 197.1 33.185C197.1 33.185 191.078 25.5905 189.844 21.7752C188.611 17.9598 186.646 10.698 184.23 12.8687C181.814 15.0394 175.36 18.2954 174.967 18.4466C174.574 18.5977 173.041 20.5054 172.621 22.3194C172.2 24.1333 167.46 38.388 163.134 42.0129C158.807 45.6378 158.968 47.1796 160.249 47.9022C161.531 48.6248 167.097 51.8113 167.097 51.8113Z" fill="#5B5B5B"/>
<path d="M16.5753 50.1845C16.7023 50.6108 18.9062 61.1862 20.43 61.2104C21.9537 61.2346 29.1158 56.5848 29.7265 52.9508C30.3372 49.3169 32.5411 47.8113 29.7265 45.0087C26.9118 42.2062 25.6995 36.6161 27.973 34.3578C30.2465 32.0994 33.3211 31.1229 34.3732 32.695C35.4253 34.2671 35.4828 34.6087 35.4828 34.6087C35.4828 34.6087 33.2395 25.9289 34.9023 24.7861C36.5651 23.6433 46.2637 18.4373 51.4275 19.3926C56.5912 20.348 55.8686 21.2519 53.5226 22.177C51.1765 23.1022 52.4251 25.0703 53.8098 27.2531C55.1944 29.4359 56.3191 32.0692 59.1096 29.191C61.9 26.3129 65.9724 20.6836 64.7933 16.0308C63.6142 11.378 57.8821 10.1928 55.1612 9.60028C52.4402 9.00772 41.7228 6.31097 36.6225 9.60028C31.5223 12.8896 28.8528 20.5959 26.0411 21.125C23.2295 21.654 23.0632 19.3442 20.4451 21.0856C17.8269 22.827 13.7304 26.9508 13.3948 32.1024C13.0592 37.254 15.5323 46.6443 15.5323 46.6443" fill="#5B5B5B"/>
<path d="M95.7637 138.258C96.6133 139.985 97.3056 142.122 98.5391 143.612C99.5186 144.795 100.764 144.737 102.143 144.405C106.527 143.34 110.865 142.037 115.218 140.855L128.004 137.388L134.398 135.652C135.795 135.271 137.651 135.117 138.422 133.723C138.918 132.816 137.551 132.033 137.058 132.925C136.656 133.648 135.278 133.775 134.558 133.968L131.952 134.679L126.722 136.1L115.962 139.017L105.499 141.856C103.893 142.291 100.81 143.749 99.5186 142.255C99.0228 141.684 98.7477 140.743 98.4182 140.078L97.1303 137.46C96.6798 136.553 95.3163 137.348 95.7637 138.258Z" fill="#5B5B5B"/>
<path d="M172.367 19.2207C171.214 27.1772 167.967 34.6844 162.959 40.973C162.197 41.9254 161.393 42.8444 160.555 43.7302C159.95 44.3651 158.517 45.2661 158.424 46.1821C158.276 47.6786 160.062 48.8275 161.193 49.3233C162.889 50.064 165.217 50.3663 166.305 52.0261C166.986 53.0631 167.07 54.4024 167.113 55.6026C167.167 57.2079 167.161 58.8193 167.182 60.4398L167.315 69.9631C167.412 77.104 167.513 84.246 167.617 91.3889C167.617 92.4047 169.214 92.4078 169.199 91.3889C169.06 81.3698 168.921 71.3518 168.784 61.3347C168.754 59.0703 168.854 56.7635 168.636 54.5082C168.485 52.9603 168.074 51.4124 166.91 50.3089C165.943 49.4019 164.646 48.9303 163.412 48.4949C162.058 48.0112 160.328 47.5879 159.987 45.9916L159.784 46.7626C167.379 39.5556 172.348 30.0167 173.9 19.6621C174.048 18.6674 172.524 18.2381 172.388 19.2418L172.367 19.2207Z" fill="#191919"/>
<path d="M184.372 36.4136L184.321 36.3229L184.43 36.7189C184.185 37.0666 184.001 37.1512 183.874 36.9789C183.904 37.0638 183.928 37.1507 183.946 37.2389C183.974 37.3806 183.991 37.5241 183.998 37.6682C184.01 37.8302 184.01 37.9929 183.998 38.155C184 38.2305 183.986 38.3056 183.958 38.3757C184.015 38.2983 184.106 38.2527 184.202 38.2527C184.298 38.2527 184.388 38.2983 184.445 38.3757L184.554 38.7747V38.6719L184.448 39.071L184.947 38.0189C185.379 37.1119 184.019 36.3017 183.58 37.2208C183.366 37.6743 182.954 38.2638 182.976 38.7747C183.02 39.2692 183.378 39.6789 183.861 39.7906C184.992 40.0657 185.585 38.9985 185.582 38.0219C185.582 37.1573 185.458 35.954 184.536 35.5761C183.523 35.1589 182.468 36.2443 183 37.2238C183.487 38.1308 184.85 37.3206 184.363 36.4257L184.372 36.4136Z" fill="#191919"/>
<path d="M45.6258 35.9814L45.5744 35.8877L45.6802 36.2868C45.4353 36.6345 45.2509 36.7191 45.1269 36.5468C45.1561 36.6317 45.1793 36.7186 45.1965 36.8068C45.224 36.9485 45.2412 37.0919 45.2479 37.2361C45.2614 37.3981 45.2614 37.5609 45.2479 37.7228C45.2516 37.7984 45.2381 37.8739 45.2086 37.9435C45.2655 37.8662 45.3559 37.8206 45.4519 37.8206C45.548 37.8206 45.6383 37.8662 45.6953 37.9435L45.8041 38.3426V38.2398L45.6953 38.6389L46.1941 37.5868C46.6265 36.6798 45.266 35.8696 44.8276 36.7887C44.613 37.2421 44.2018 37.8317 44.223 38.3426C44.2677 38.837 44.625 39.2468 45.1088 39.3584C46.2395 39.6335 46.832 38.5663 46.832 37.5898C46.832 36.7252 46.7051 35.5219 45.783 35.144C44.7702 34.7268 43.7151 35.8121 44.2472 36.7917C44.7339 37.6987 46.0974 36.8884 45.6137 35.9935L45.6258 35.9814Z" fill="#191919"/>
<path d="M53.6792 37.9679L53.6278 37.8742L53.7367 38.2733C53.4888 38.621 53.3043 38.7056 53.1804 38.5333C53.2105 38.6182 53.2348 38.7051 53.2529 38.7933C53.2777 38.9354 53.2948 39.0787 53.3043 39.2226C53.3149 39.3847 53.3149 39.5473 53.3043 39.7093C53.307 39.7851 53.2925 39.8606 53.262 39.93C53.3189 39.8515 53.4099 39.805 53.5069 39.805C53.6038 39.805 53.6949 39.8515 53.7518 39.93L53.8606 40.3291V40.2263L53.7518 40.6254L54.2536 39.5521C54.689 38.6451 53.3255 37.8349 52.8902 38.754C52.6755 39.2075 52.2613 39.797 52.2855 40.3079C52.3299 40.8015 52.6857 41.211 53.1683 41.3238C54.302 41.5989 54.8915 40.5317 54.8915 39.5552C54.8915 38.6905 54.7646 37.4872 53.8425 37.1093C52.8297 36.6921 51.7776 37.7775 52.3097 38.757C52.7934 39.664 54.1599 38.8538 53.6732 37.9589L53.6792 37.9679Z" fill="#191919"/>
<path d="M174.523 37.1723L174.471 37.0785L174.58 37.4776C174.332 37.8223 174.148 37.9069 174.024 37.7346C174.054 37.8195 174.078 37.9064 174.096 37.9946C174.121 38.1367 174.138 38.28 174.148 38.4239C174.158 38.587 174.158 38.7506 174.148 38.9137C174.149 38.9893 174.134 39.0644 174.105 39.1344C174.162 39.0558 174.253 39.0093 174.35 39.0093C174.447 39.0093 174.538 39.0558 174.595 39.1344L174.704 39.5334V39.4276L174.595 39.8267L175.094 38.7746C175.529 37.8676 174.166 37.0574 173.73 37.9765C173.516 38.4299 173.102 39.0195 173.126 39.5334C173.172 40.0262 173.527 40.4348 174.009 40.5493C175.142 40.8213 175.732 39.7541 175.732 38.7776C175.732 37.913 175.605 36.7097 174.683 36.3318C173.67 35.9146 172.618 37.003 173.147 37.9825C173.634 38.8895 175 38.0792 174.513 37.1844L174.523 37.1723Z" fill="#191919"/>
<path d="M168.567 21.1402C174.981 19.7886 181.002 16.986 186.165 12.9471L184.859 12.5904C186.45 17.0811 188.537 21.3805 191.081 25.409C192.381 27.4557 193.929 29.306 195.28 31.3074C196.849 33.6292 196.946 36.2837 196.961 38.9986C196.961 39.8541 198.373 40.1141 198.515 39.2072C198.778 37.499 199.12 35.1802 201.052 34.6178C202.866 34.0918 204.791 35.3223 205.444 37.0032C206.98 40.9546 203.555 44.5009 200.807 46.8076C200.027 47.4607 201.148 48.5762 201.922 47.9262C205.454 44.9634 209.861 39.2162 205.895 34.7297C204.533 33.2045 202.42 32.5916 200.453 33.1516C198.007 33.9346 197.336 36.5346 196.985 38.7869L198.539 38.9986C198.539 36.6706 198.485 34.2762 197.539 32.1055C196.559 29.8592 194.676 27.9697 193.306 25.9441C190.431 21.6585 188.102 17.0316 186.371 12.1701C186.289 11.9044 186.076 11.6998 185.807 11.629C185.538 11.5583 185.252 11.6314 185.05 11.8225C180.083 15.6733 174.303 18.3391 168.15 19.6164C167.155 19.825 167.575 21.3488 168.57 21.1281L168.567 21.1402Z" fill="#191919"/>
<path d="M201.275 38.5242C200.829 39.1928 200.626 39.9944 200.701 40.7947C200.712 41.2258 201.059 41.5726 201.49 41.5837C201.925 41.5805 202.277 41.2296 202.282 40.7947C202.217 40.2768 202.344 39.7529 202.639 39.3223C202.781 39.0788 202.783 38.7776 202.643 38.5324C202.504 38.2871 202.244 38.135 201.962 38.1333C201.68 38.1316 201.418 38.2806 201.275 38.5242Z" fill="#191919"/>
<path d="M173.621 50.5988C176.106 50.6743 178.588 50.3871 180.989 49.7462C182.198 49.4167 183.341 48.9149 184.526 48.5037C185.285 48.2407 185.829 48.0048 186.165 48.8514C186.392 49.4258 186.331 50.236 186.265 50.8407C185.986 53.4634 184.035 55.6006 181.449 56.1163C177.561 56.9084 176.554 53.6342 176.379 50.5081C176.321 49.4983 174.74 49.4893 174.797 50.5081C174.973 53.616 175.84 57.3558 179.526 57.7639C182.764 58.0737 185.844 56.3003 187.202 53.3439C187.976 51.5995 188.762 46.596 185.72 46.6021C184.003 46.6021 182.207 47.766 180.581 48.2104C178.314 48.8118 175.971 49.0797 173.627 49.0055C172.612 48.9814 172.612 50.5625 173.627 50.5867L173.621 50.5988Z" fill="#191919"/>
<path d="M176.285 53.6947C179.887 53.6756 183.439 52.8491 186.679 51.2761C187.586 50.8347 186.794 49.4621 185.881 49.9095C182.886 51.3496 179.607 52.1006 176.285 52.1074C175.266 52.1074 175.266 53.6947 176.285 53.6886V53.6947Z" fill="#191919"/>
<path d="M176.191 54.2872C176.907 55.5267 178.434 56.0104 179.734 56.4246C180.714 56.7269 181.095 55.2455 180.154 54.8979C179.525 54.6791 178.945 54.3392 178.446 53.8972L177.887 55.2455C178.809 55.1763 179.737 55.2601 180.632 55.4935C181.618 55.7474 182.035 54.2388 181.052 53.9818C180.119 53.7257 179.168 53.5407 178.207 53.4286V55.0097C180.073 54.9372 181.917 54.78 183.504 53.7158L182.709 52.3523C181.58 53.1148 180.563 54.0305 179.686 55.0732C179.136 55.7262 179.828 56.8055 180.644 56.3158C181.553 55.7728 182.376 55.0984 183.087 54.3144C183.67 53.6765 182.921 52.573 182.132 53.0718C181.342 53.5707 180.36 54.3446 180.13 55.3423C180.042 55.6913 180.188 56.0574 180.493 56.2493C181.76 57.1955 183.673 55.2425 184.269 54.3023C184.68 53.6523 183.846 52.7695 183.19 53.22C182.283 53.8428 180.868 54.8102 181.092 56.0588C181.163 56.3291 181.375 56.5402 181.645 56.6121C183.595 57.0414 184.828 54.2993 185.626 52.9841C186.092 52.2193 185.022 51.3788 184.384 52.0258L183.314 53.1293C182.603 53.8609 183.698 54.9583 184.432 54.2479L185.369 53.3409L184.127 52.3825C183.835 52.8189 183.57 53.2721 183.332 53.74C182.942 54.5018 183.936 55.3997 184.571 54.6983L186.654 52.3795C187.332 51.6237 186.216 50.502 185.536 51.2609L183.456 53.5797L184.695 54.5381C184.934 54.0703 185.201 53.617 185.493 53.1807C186.001 52.4188 184.889 51.6116 184.251 52.2223L183.314 53.1293L184.432 54.2479L185.503 53.1444L184.254 52.1769C183.952 52.6637 182.661 55.2002 182.059 55.0641L182.612 55.6174C182.612 55.6567 183.906 54.6167 183.979 54.5653L182.899 53.483C182.797 53.6462 181.615 55.1095 181.285 54.8616L181.648 55.7535C181.775 55.2032 182.491 54.7014 182.924 54.4293L181.965 53.1867C181.35 53.8725 180.637 54.4634 179.849 54.9402L180.804 56.1828C181.592 55.2378 182.508 54.4074 183.525 53.7158C184.36 53.1474 183.58 51.7839 182.73 52.3523C181.367 53.2593 179.822 53.3651 178.229 53.4286C177.189 53.4679 177.24 54.8918 178.229 55.0097C179.052 55.1085 179.867 55.2702 180.665 55.4935L181.086 53.9818C180.054 53.7093 178.985 53.6071 177.92 53.6795C177.297 53.7218 176.805 54.5502 177.361 55.0279C178.072 55.645 178.892 56.1239 179.779 56.4397L180.2 54.913C179.38 54.653 178.068 54.3083 177.6 53.5041C177.089 52.6244 175.722 53.4195 176.236 54.3023L176.191 54.2872Z" fill="#191919"/>
<path d="M184.614 2.97021C178.422 3.4237 173.479 7.33278 169.497 11.8193C164.941 16.9588 160.751 22.4007 156.122 27.4828C153.774 30.0647 151.374 32.6002 148.921 35.0893C146.892 37.1482 144.353 39.1919 143.585 42.1093C142.004 48.1256 147.128 52.9235 151.476 56.104C152.982 57.2079 154.55 58.2264 156.171 59.1545C156.948 59.5989 157.773 59.9889 158.52 60.4847C159.493 61.1317 159.944 61.954 160.591 62.8852C162.207 65.1854 164.784 66.6234 167.59 66.7912C168.606 66.8638 168.603 65.2796 167.59 65.2101C166.258 65.1203 164.972 64.6859 163.859 63.9494C162.592 63.1029 161.936 61.9117 161.059 60.7175C159.587 58.7131 156.851 57.788 154.813 56.485C150.39 53.6461 143.428 48.7514 145.109 42.5326C145.877 39.6907 148.658 37.6198 150.635 35.6033C152.746 33.4447 154.82 31.2508 156.86 29.0217C160.963 24.5351 164.833 19.8672 168.705 15.1842C172.814 10.217 177.775 5.05324 184.611 4.5544C185.62 4.47882 185.626 2.89766 184.611 2.97324L184.614 2.97021Z" fill="#191919"/>
<path d="M186.28 1.3922C186.842 2.10883 187.282 2.91257 187.583 3.77151C187.685 4.10931 187.992 4.34346 188.345 4.35197C194.718 4.06779 200.263 7.83175 204.093 12.6599C208.096 17.7057 211.134 24.0394 213.314 30.0739C217.066 40.4618 219.491 59.3995 205.257 62.9428C203.634 63.3479 201.593 63.487 200.23 62.3139C198.984 61.2407 198.821 59.4842 198.936 57.9483C199.202 54.4928 200.662 50.9132 202.031 47.766C202.434 46.8409 201.073 46.0367 200.668 46.9679C199.301 50.109 197.989 53.4709 197.481 56.8751C197.085 59.5114 197.424 62.5921 199.97 64.0523C202.515 65.5125 205.853 64.657 208.347 63.5051C211.144 62.19 213.497 60.089 215.119 57.4586C216.972 54.4625 217.58 50.9283 217.695 47.4546C217.812 43.4663 217.43 39.479 216.558 35.5853C214.92 28.1722 211.461 20.7441 207.295 14.4225C203.062 7.99198 196.469 2.40802 188.345 2.77081L189.107 3.35127C188.709 2.239 188.132 1.19935 187.399 0.273595C186.773 -0.524546 185.66 0.600107 186.28 1.3922Z" fill="#191919"/>
<path d="M183.486 53.1712L184.073 53.1228C184.509 53.1228 184.862 52.7695 184.862 52.3337C184.862 51.898 184.509 51.5447 184.073 51.5447L183.486 51.593C183.053 51.6011 182.704 51.9492 182.694 52.3821C182.699 52.817 183.052 53.1679 183.486 53.1712Z" fill="#191919"/>
<path d="M122.499 123.756C126.057 129.073 132.989 129.977 137.234 134.506C139.852 137.303 141.639 140.885 143.719 144.081C145.741 147.195 147.858 150.248 150.131 153.19C158.995 164.678 170.992 174.716 185.806 176.687C193.171 177.678 200.661 176.301 207.192 172.757C212.952 169.603 217.635 164.79 221.06 159.221C229.223 145.943 229.74 129.896 228.065 114.819C227.119 106.336 226.251 97.1539 222.188 89.4929C218.91 83.3043 212.921 78.2192 205.693 77.9169C204.677 77.8745 204.68 79.4557 205.693 79.498C212.362 79.7762 217.822 84.6103 220.809 90.2911C224.295 96.8878 225.196 104.633 226.124 111.932C227.971 126.489 228.264 142.001 221.386 155.388C218.493 161.087 214.363 166.226 209.046 169.806C203.024 173.839 195.85 175.794 188.614 175.375C174.03 174.528 161.765 165.047 152.873 154.109C150.4 151.065 148.121 147.86 145.956 144.589C143.84 141.399 142.002 137.971 139.662 134.936C137.545 132.178 134.824 130.419 131.801 128.816C128.881 127.278 125.779 125.793 123.889 122.957C123.324 122.117 121.954 122.906 122.523 123.756H122.499Z" fill="#191919"/>
<path d="M188.935 124.787C194.903 126.903 201.212 127.653 207.51 127.958C214.161 128.282 220.812 128.327 227.463 128.481C228.479 128.502 228.479 126.924 227.463 126.9C220.996 126.752 214.521 126.694 208.057 126.404C201.708 126.117 195.359 125.4 189.349 123.26C188.388 122.921 187.973 124.448 188.929 124.772L188.935 124.787Z" fill="#191919"/>
<path d="M124.246 120.744C124.647 121.423 125.327 121.889 126.105 122.02C126.523 122.122 126.949 121.881 127.075 121.47C127.178 121.098 126.951 120.563 126.525 120.496C126.403 120.478 126.283 120.451 126.165 120.415C126.041 120.375 126.247 120.457 126.129 120.415C126.066 120.384 126.008 120.348 125.951 120.315C125.812 120.224 125.696 120.103 125.609 119.961C125.467 119.718 125.206 119.568 124.924 119.57C124.642 119.571 124.382 119.722 124.242 119.967C124.102 120.212 124.104 120.513 124.246 120.756V120.744Z" fill="#191919"/>
<path d="M126.132 116.847L128.01 118.32C128.325 118.614 128.814 118.614 129.128 118.32C129.435 118.011 129.435 117.513 129.128 117.204L127.251 115.738C126.936 115.444 126.447 115.444 126.132 115.738C125.829 116.049 125.829 116.545 126.132 116.856V116.847Z" fill="#191919"/>
<path d="M129.283 112.996C131.406 114.661 133.863 115.85 136.487 116.481C137.476 116.717 137.896 115.193 136.907 114.97C134.543 114.42 132.324 113.37 130.401 111.889C129.606 111.284 128.478 112.388 129.283 113.008V112.996Z" fill="#191919"/>
<path d="M141.46 113.089C146.705 113.256 148.867 119.438 152.601 122.159C154.657 123.671 157.169 124.52 159.476 125.557C161.88 126.64 164.267 127.76 166.638 128.919C176.285 133.644 185.619 138.984 194.582 144.906C195.431 145.469 196.223 144.099 195.377 143.54C186.099 137.41 176.425 131.904 166.417 127.057C163.873 125.829 161.309 124.644 158.723 123.502C156.325 122.44 153.922 121.488 152.05 119.571C148.894 116.355 146.554 111.662 141.469 111.499C140.45 111.469 140.453 113.05 141.469 113.08L141.46 113.089Z" fill="#191919"/>
<path d="M165.849 90.8716C168.872 94.0702 174.426 93.2358 178.244 92.347C182.964 91.2354 187.322 88.9378 190.906 85.6716C191.661 84.9883 190.54 83.8728 189.787 84.553C186.652 87.4027 182.886 89.4686 178.797 90.5814C175.399 91.4884 169.728 92.6735 166.979 89.753C166.281 89.0123 165.166 90.1309 165.864 90.8716H165.849Z" fill="#191919"/>
<path d="M50.4934 23.5043L59.3334 37.4113C60.591 39.3915 62.3566 41.4655 63.0943 43.7148C63.3966 44.649 63.6234 45.9248 62.4292 46.1606C61.4497 46.3511 60.5155 45.9459 59.539 46.348C56.0955 47.7599 56.7969 53.5283 56.7152 56.3913C56.562 61.7909 56.4069 67.1914 56.2496 72.593L55.7145 91.1981C55.6873 92.2169 57.2655 92.2139 57.2957 91.1981C57.6182 79.9959 57.9396 68.7937 58.2601 57.5915C58.3327 55.1578 58.0908 52.4762 58.6773 50.0969C58.9101 49.1657 59.3394 48.0018 60.3764 47.7266C61.359 47.4666 62.3627 47.9987 63.3573 47.6027C67.1364 46.0911 63.3241 40.749 62.148 38.8927L51.8689 22.7001C51.3248 21.8445 49.9552 22.6366 50.5024 23.4982L50.4934 23.5043Z" fill="#191919"/>
<path d="M31.9788 45.3142C29.1611 43.3793 26.6035 40.1565 27.7251 36.5286C28.2209 34.9293 29.4453 33.5839 31.1746 33.4086C32.7291 33.2021 34.2344 34.0421 34.8751 35.4734C35.2591 36.3593 36.4502 35.67 36.3202 34.8688L35.637 30.6181C35.4072 29.1911 34.7814 27.3469 35.4888 25.9804C36.4835 24.0576 39.0593 22.7425 40.9609 21.8839C45.3975 19.9026 50.417 19.663 55.0221 21.2127C55.9896 21.5362 56.4037 20.0034 55.4423 19.686C50.1175 17.9236 44.3083 18.3713 39.3163 20.9285C37.327 21.9534 34.6604 23.5255 33.8744 25.7658C33.3937 27.1111 33.7232 28.5411 33.9439 29.9076L34.8086 35.2921L36.2537 34.6874C34.467 30.5758 28.6774 31.25 26.7516 34.8204C24.2846 39.3916 27.4228 44.1079 31.1928 46.6928C32.0332 47.2702 32.8253 45.9007 31.9909 45.3263L31.9788 45.3142Z" fill="#191919"/>
<path d="M57.8489 24.2538C56.1428 23.915 54.4065 23.7519 52.6671 23.7671C51.7843 23.7671 51.5847 25.0882 52.4585 25.321L52.7064 25.3876C53.692 25.6506 54.1092 24.1269 53.1266 23.8759L52.8787 23.8094L52.6671 25.3603C54.2648 25.3413 55.8602 25.4851 57.4287 25.7896C58.4234 25.9862 58.8466 24.4624 57.8489 24.278V24.2538Z" fill="#191919"/>
<path d="M23.1145 19.4167C19.0845 20.1483 15.8375 22.96 13.957 26.5335C11.7531 30.7177 11.7047 35.2526 12.7628 39.7784C14.1445 45.6979 16.161 51.5117 17.9024 57.3344C18.4284 59.1061 18.758 62.0538 21.1282 62.1535C23.0601 62.2352 25.1582 60.4575 26.4703 59.2028C30.0619 55.7654 31.7459 50.8133 32.3898 45.9972C32.5259 44.9935 30.9447 45.0026 30.8117 45.9972C30.1859 50.6712 28.4082 55.5417 24.7138 58.6617C23.6073 59.5989 21.4366 61.4612 20.2424 59.6321C19.8856 59.0819 19.7828 58.1205 19.5954 57.4886L18.9121 55.191L16.2607 46.2875C14.7038 41.0542 12.6086 35.5186 14.2291 30.0495C15.5412 25.6204 18.8668 21.79 23.5407 20.9404C24.5414 20.759 24.1182 19.2353 23.1205 19.4288L23.1145 19.4167Z" fill="#191919"/>
<path d="M26.1378 13.4703L26.4401 18.3075C26.4855 19.0452 27.5194 19.4382 27.9124 18.7066C30.1287 14.6125 33.7505 11.4578 38.1099 9.82421C40.2273 9.01952 42.4718 8.60074 44.7369 8.5877C47.3339 8.5877 49.8764 9.25282 52.3827 9.797C54.9888 10.3624 57.8246 10.704 60.3188 11.6321C62.9611 12.6177 63.9951 15.1482 64.0072 17.8086C64.0283 22.6973 61.0927 27.2745 56.9267 29.6901C56.0469 30.201 56.842 31.5675 57.7248 31.0566C61.2598 29.0106 63.8703 25.681 65.0139 21.76C66.0176 18.2621 65.9209 13.6184 62.7979 11.1786C60.9839 9.77584 58.4988 9.4977 56.3281 9.02607C53.6071 8.43654 50.9074 7.75026 48.1653 7.29677C39.4397 5.8843 30.7726 10.1318 26.5429 17.8933L28.0152 18.2924L27.7129 13.4551C27.6494 12.4454 26.0683 12.4363 26.1317 13.4551L26.1378 13.4703Z" fill="#191919"/>
<path d="M51.8356 48.5519C50.277 47.8273 48.6661 47.2209 47.0165 46.738C45.7135 46.3661 43.8088 45.6405 42.4332 45.8915C39.9965 46.3359 41.4476 51.3001 42.1309 52.6575C43.053 54.5078 46.1307 56.9385 48.3044 56.1464C50.5839 55.321 51.373 51.2759 51.5181 49.2261C51.5907 48.2103 50.0065 48.2164 49.94 49.2261C49.8377 50.2627 49.5925 51.2801 49.2114 52.2494C48.9483 52.978 48.5886 54.405 47.7179 54.668C46.8472 54.931 45.6318 53.9515 44.9969 53.492C44.0816 52.8679 43.4341 51.9226 43.183 50.8436C42.9804 50.0515 42.4786 48.6003 42.7658 47.8203C42.9683 47.2701 42.6237 47.3699 43.3916 47.4938C43.9328 47.5815 44.4739 47.6964 45.006 47.8203C47.0875 48.2979 49.1138 48.9898 51.0525 49.8852C51.9595 50.3054 52.7758 48.9419 51.8507 48.5187L51.8356 48.5519Z" fill="#191919"/>
<path d="M42.3514 50.6864C44.2349 52.1103 46.6263 52.4217 48.661 53.5585L48.8484 52.1133L49.1023 52.1678C48.2196 51.6629 47.4214 53.0264 48.3072 53.5343C48.5869 53.7357 48.9518 53.7759 49.2686 53.6401C49.8733 53.4043 50.1 52.5547 49.4561 52.195C47.4275 51.0582 45.024 50.7378 43.1495 49.3229C42.3363 48.7182 41.5472 50.0817 42.3514 50.6864Z" fill="#191919"/>
<path d="M43.7025 50.5321C43.6148 50.4804 43.5215 50.4388 43.4244 50.4081C42.7623 50.1844 42.1909 50.9976 42.5325 51.569C42.8076 52.0256 43.4002 52.3914 43.8144 52.7088C44.7213 53.4042 45.849 53.773 46.6713 54.5802L47.6297 53.3376C47.1369 52.9809 46.6895 52.5667 46.2179 52.1858L45.4499 53.5069C46.0938 53.7472 46.7193 54.0342 47.3213 54.3656L47.926 52.9204C47.7386 52.8872 47.5541 52.8449 47.3727 52.7965C46.3872 52.5456 45.9669 54.0693 46.9525 54.3081C47.1347 54.3587 47.3194 54.4001 47.5058 54.4321C48.3251 54.5983 48.9811 53.383 48.1104 52.9869C47.3606 52.6453 46.6623 52.2009 45.8641 51.9711C45.1476 51.7625 44.4613 52.7783 45.0932 53.2923C45.6706 53.7579 46.2239 54.2537 46.8255 54.6921C47.5602 55.2242 48.4127 54.0663 47.7839 53.4495C46.9555 52.6393 45.9095 52.2402 44.9632 51.5962C44.8453 51.5146 44.6155 51.3332 44.3858 51.1428C44.2679 51.046 44.153 50.9402 44.029 50.8404C43.9565 50.783 43.7509 50.52 43.893 50.7558L42.986 51.9167L42.8862 51.8835C43.7539 52.4156 44.549 51.049 43.6844 50.5169L43.7025 50.5321Z" fill="#191919"/>
<path d="M42.5901 51.0099C43.5243 50.9192 44.389 51.3455 45.2536 51.6478C45.3504 51.6841 47.8808 52.6244 47.6359 52.8057C46.8318 53.4104 47.6208 54.783 48.4341 54.1723C49.5678 53.3227 49.3411 51.8141 48.1711 51.0916C47.3608 50.5988 46.3571 50.363 45.4501 50.0516C44.5069 49.716 43.5969 49.332 42.578 49.4288C41.5592 49.5255 41.5652 51.1067 42.578 51.0099H42.5901Z" fill="#191919"/>
<path d="M30.9296 38.5722C31.1399 38.6143 31.3254 38.7369 31.4466 38.9138C31.5365 39.0575 31.5923 39.2199 31.6099 39.3885C31.5917 39.6826 31.7382 39.9625 31.9904 40.115C32.2425 40.2676 32.5584 40.2676 32.8105 40.115C33.0626 39.9625 33.2092 39.6826 33.191 39.3885C33.1564 38.2893 32.41 37.3407 31.3499 37.0485C30.3643 36.7854 29.944 38.3092 30.9296 38.5601V38.5722Z" fill="#191919"/>
<path d="M35.0262 86.6147C41.9146 91.5949 50.4112 93.8303 58.8586 92.8849C59.8563 92.7731 59.8683 91.1889 58.8586 91.3038C50.6947 92.2375 42.4771 90.0804 35.8244 85.2573C34.999 84.6526 34.2099 86.0282 35.0262 86.6207V86.6147Z" fill="#191919"/>
<path d="M17.6303 86.2368C7.79865 90.9682 2.68027 102.562 1.1384 112.841C-0.506251 123.777 1.49212 135.029 5.74585 145.16C9.86353 154.965 16.2819 165.301 25.6117 170.888C36.2294 177.237 48.3073 173.933 58.3566 168.119C70.4134 161.147 81.2427 151.648 90.4032 141.212C91.0713 140.45 89.9588 139.328 89.2846 140.093C81.5341 148.948 72.6792 156.772 62.9369 163.372C53.6162 169.664 41.7499 175.768 30.3612 171.463C20.4661 167.735 13.6607 157.858 9.11679 148.758C4.37027 139.21 1.63119 128.435 2.21468 117.742C2.81934 106.471 7.57493 92.8275 18.4284 87.6003C19.3354 87.1589 18.5463 85.7863 17.6303 86.2368Z" fill="#191919"/>
<path d="M36.2687 143.117C42.9199 137.161 50.8409 132.889 59.1034 129.612C63.1395 128.01 67.2662 126.628 71.4111 125.358C75.1237 124.222 79.1265 123.402 82.4732 121.346C84.2328 120.293 85.6858 118.797 86.6877 117.008C87.897 114.843 88.5198 112.437 89.9891 110.417C90.5937 109.595 89.2181 108.806 88.6256 109.622C87.4011 111.303 86.7391 113.25 85.8714 115.109C84.9993 117.119 83.5355 118.815 81.6751 119.971C78.2437 122.087 74.0655 122.87 70.2593 124.046C62.1841 126.546 54.1755 129.503 46.7988 133.678C42.6293 136.021 38.7248 138.806 35.1532 141.986C34.3943 142.666 35.5129 143.782 36.2687 143.105V143.117Z" fill="#191919"/>
<path d="M102.671 109.389L95.8056 114.106C94.9712 114.677 95.7633 116.047 96.6037 115.469L103.47 110.753C104.304 110.182 103.515 108.812 102.671 109.389Z" fill="#191919"/>
<path d="M103.636 115.415L101.686 117.15C100.927 117.83 102.046 118.943 102.805 118.268L104.752 116.53C105.514 115.853 104.392 114.737 103.636 115.415Z" fill="#191919"/>
<path d="M103.932 121.555C103.437 121.885 103.009 122.307 102.672 122.797C102.455 123.175 102.582 123.657 102.956 123.88C103.334 124.087 103.808 123.962 104.035 123.595C104.035 123.577 104.153 123.432 104.089 123.517C104.026 123.601 104.12 123.48 104.132 123.468C104.201 123.384 104.277 123.305 104.356 123.226C104.434 123.148 104.498 123.093 104.573 123.03C104.649 122.966 104.628 122.994 104.573 123.03L104.733 122.918C105.089 122.688 105.201 122.219 104.987 121.854C104.773 121.488 104.31 121.355 103.935 121.552L103.932 121.555Z" fill="#191919"/>
<path d="M103.769 128.07C102.003 130.809 99.5031 132.871 96.8819 134.76C94.161 136.719 91.3886 138.618 88.6405 140.541C87.8121 141.121 88.6012 142.491 89.4386 141.907C92.4619 139.791 95.5335 137.726 98.5084 135.525C101.057 133.635 103.412 131.549 105.141 128.874C105.695 128.018 104.328 127.223 103.778 128.079L103.769 128.07Z" fill="#191919"/>
<path d="M91.5911 114.408C90.7225 112 89.9838 109.548 89.3781 107.061C89.0899 105.852 88.8339 104.643 88.6102 103.434C88.332 101.922 87.7818 100.108 89.6139 99.4731C91.9479 98.6689 94.6325 98.4814 97.0572 98.034L105.069 96.5586L121.092 93.6079L129.104 92.1326L131.163 91.7517C131.637 91.664 132.45 91.3435 132.922 91.4282C134.5 91.7154 134.642 93.9405 135.017 95.2375L140.13 112.969C140.411 113.942 141.944 113.528 141.641 112.549L136.381 94.2731C135.867 92.4984 135.601 89.6928 133.167 89.8319C130.313 89.9982 127.344 90.881 124.533 91.401L105.837 94.8414L96.3407 96.5919L91.5911 97.4656C90.4725 97.6712 89.2602 97.8012 88.2504 98.3726C85.8076 99.7542 86.8597 102.802 87.3011 105C87.9836 108.34 88.9081 111.625 90.0674 114.831C90.406 115.781 91.9358 115.372 91.579 114.411L91.5911 114.408Z" fill="#5B5B5B"/>
<path d="M6.71319 145.97C11.1937 141.617 15.6893 137.227 20.7351 133.524C25.7809 129.82 31.3377 127.012 36.9004 124.221C37.8074 123.765 37.0123 122.407 36.1023 122.855C30.3581 125.73 24.6442 128.644 19.4744 132.493C14.4951 136.205 10.0267 140.532 5.56738 144.852C4.83877 145.562 5.95738 146.681 6.68598 145.97H6.71319Z" fill="#191919"/>
<path d="M76.5657 52.8539C74.5492 52.6 72.6355 54.1963 71.532 55.7291C69.8813 58.0237 70.3438 60.9109 71.3203 63.3961C72.1638 65.5335 73.4366 67.9007 75.7192 68.7382C77.639 69.4396 79.8248 68.9316 80.9555 67.1782L79.5104 66.9877C80.115 70.67 82.8359 73.6389 86.225 75.0689C88.2829 75.8953 90.4998 76.2507 92.7129 76.1089C93.8251 76.0466 94.9303 75.8929 96.0174 75.6493C96.5313 75.5344 97.0513 75.3168 97.5683 75.2503C98.9227 75.0749 99.3278 75.4044 99.7753 76.4989C100.682 78.7482 101.145 81.3119 101.607 83.6882C101.713 84.2354 101.816 84.7856 101.91 85.3359C102.019 85.9707 102.451 87.2919 102.294 87.8875C102.073 88.7249 100.839 88.6645 100.059 88.991C96.7139 90.4349 94.5006 93.6783 94.3757 97.3201C94.3425 98.3359 95.9206 98.3359 95.9569 97.3201C96.036 95.0985 97.0615 93.0167 98.7746 91.6001C99.649 90.8753 100.677 90.3585 101.78 90.0884C102.402 89.9342 103.092 89.8949 103.536 89.3628C104.068 88.728 103.875 87.8754 103.772 87.1317C103.597 85.8377 103.384 84.5518 103.134 83.274C102.675 80.9038 102.173 78.4519 101.344 76.1814C100.767 74.5942 99.7178 73.4242 97.9129 73.5935C96.7913 73.6963 95.6908 74.1468 94.5874 74.3312C93.3731 74.5336 92.1401 74.6005 90.9111 74.5307C86.2764 74.2586 81.8413 71.3714 81.0492 66.5735C80.9313 65.857 79.9397 65.8661 79.6071 66.3861C78.7001 67.8009 76.7169 67.6982 75.4562 66.8275C73.9082 65.7542 73.0375 63.6863 72.4964 61.963C71.922 60.1672 71.7013 58.2142 72.8622 56.6149C73.6966 55.4691 75.0692 54.2507 76.5808 54.4412C77.5876 54.5681 77.5785 52.987 76.5808 52.86L76.5657 52.8539Z" fill="#5B5B5B"/>
<path d="M77.125 53.0928C75.5106 51.2124 76.8227 48.5368 78.5611 47.2821C80.1574 46.1333 82.1285 45.6405 84.0029 45.0993C88.6588 43.7479 93.3176 42.4026 98.0067 41.1691C102.696 39.9356 107.403 38.8261 112.165 37.9342C114.505 37.4958 116.872 37.0514 119.242 36.8005C121.265 36.5858 125.289 36.9426 124.636 39.99C124.475 40.7398 125.373 41.3384 125.957 40.7579C127.275 39.4489 129.337 39.4731 130.873 40.4042C132.575 41.4321 133.5 43.4093 134.029 45.2414C134.591 47.2126 134.915 49.474 134.071 51.3968C133.258 53.2682 131.214 54.4563 129.234 53.628C128.629 53.38 128.133 54.0784 128.26 54.6014C129.515 59.6926 127.656 65.2403 123.299 68.2726C121.4 69.6052 119.181 70.4105 116.869 70.6066C115.336 70.7275 113.271 70.3859 112.24 71.8491C111.636 72.6926 111.829 73.7024 111.938 74.6547C112.128 76.2117 112.334 77.7657 112.543 79.3226C112.718 80.6831 112.878 82.0436 113.063 83.4071C113.171 84.2203 113.298 85.0729 113.879 85.6987C115.254 87.1922 117.313 86.1915 119.018 86.3427C121.585 86.5724 123.686 88.8278 123.837 91.3673C123.898 92.3801 125.479 92.3862 125.419 91.3673C125.305 89.4732 124.428 87.7063 122.988 86.4704C121.548 85.2345 119.668 84.6354 117.779 84.8099C117.253 84.8613 116.675 85.0215 116.143 84.9701C114.834 84.8371 114.71 83.912 114.568 82.8236C114.393 81.4631 114.223 80.1026 114.051 78.7392C113.864 77.2789 113.667 75.8217 113.495 74.3615C113.392 73.4968 113.365 72.7047 114.299 72.3419C114.783 72.1515 115.448 72.2361 115.959 72.221C120.381 72.1338 124.523 70.0391 127.215 66.5289C129.906 63.0187 130.854 58.4746 129.79 54.1812L128.82 55.1517C130.984 56.0587 133.448 55.0821 134.818 53.2591C136.617 50.8677 136.33 47.5391 135.55 44.8212C134.851 42.4026 133.512 39.8751 131.133 38.7535C129.016 37.7649 126.513 37.9644 124.835 39.6333L126.156 40.4042C126.948 36.6826 123.076 34.9623 119.983 35.1498C115.233 35.4521 110.399 36.5979 105.773 37.6379C100.936 38.7172 96.1716 39.984 91.413 41.3203C88.9943 42.0035 86.5757 42.6989 84.1571 43.4063C82.3281 43.9354 80.4476 44.4191 78.7606 45.3231C75.6285 46.9979 73.3762 51.0975 76.0397 54.2024C76.7048 54.9733 77.8174 53.8517 77.1583 53.0838L77.125 53.0928Z" fill="#5B5B5B"/>
<path d="M100.54 54.5142C100.879 53.1945 101.03 51.8339 100.991 50.4721L99.7996 51.1553C100.688 51.5631 101.479 52.1545 102.121 52.8907C102.499 53.3351 102.765 53.9609 103.313 54.23C103.703 54.411 104.154 54.4055 104.54 54.2149C105.858 53.7463 106.602 53.2807 108.062 53.5588L107.482 52.797C107.346 53.976 106.919 54.889 106.405 55.9351C106.103 56.57 105.834 57.2018 106.015 57.9184C106.17 58.523 106.62 58.9614 107.001 59.43C107.255 59.7535 107.454 60.1767 107.733 60.47C108.219 60.987 108.416 60.9053 107.464 60.9235C106.003 60.9507 104.594 59.8049 103.167 60.077C101.617 60.3793 100.954 62.3988 99.3672 62.813L100.135 63.0186C100.18 63.2544 100.196 63.203 100.184 62.8584L100.223 61.9514C100.241 61.5523 100.262 61.1532 100.277 60.7421C100.298 60.1374 100.389 59.4602 99.9961 58.9523C99.6665 58.526 99.0891 58.39 98.6417 58.1663C98.2834 58.0333 97.9494 57.8423 97.653 57.6009L97.1844 57.2835C97.4097 56.8396 97.9092 56.6073 98.3937 56.7211C99.4126 56.7211 99.4126 55.14 98.3937 55.14C97.2026 55.14 95.7 55.4423 95.4823 56.8511C95.2828 58.1511 96.6614 58.9493 97.6319 59.4602C98.82 60.083 98.7112 60.2705 98.6507 61.6732C98.6235 62.2779 98.3998 63.2605 98.7233 63.8349C99.4005 65.0291 100.879 63.8651 101.565 63.3481C102.124 62.9249 102.629 62.1025 103.213 61.7912C103.957 61.3921 105.287 62.2446 106.037 62.3958C106.986 62.5742 109.06 62.8402 109.613 61.7277C110.121 60.7028 108.875 59.3091 108.307 58.5684C107.485 57.5163 107.872 56.6849 108.349 55.6056C108.727 54.7142 108.966 53.77 109.057 52.806C109.057 52.4502 108.819 52.1382 108.476 52.0442C107.682 51.8702 106.862 51.8425 106.058 51.9625C105.65 52.0321 104.244 52.7849 103.941 52.6911C103.582 52.5763 102.935 51.4274 102.62 51.1402C102.014 50.599 101.334 50.147 100.601 49.7979C100.356 49.6605 100.056 49.6622 99.8127 49.8023C99.5692 49.9424 99.4172 50.2002 99.4126 50.4811C99.4506 51.7028 99.3183 52.9238 99.0196 54.109C98.7686 55.0977 100.292 55.5179 100.531 54.5293L100.54 54.5142Z" fill="#5B5B5B"/>
<path d="M57.9969 80.0635C63.4811 78.5307 69.183 80.1481 73.8993 83.0867C76.1965 84.5605 78.3487 86.249 80.3267 88.1295C81.3546 89.0819 82.3553 90.0674 83.35 91.0621C84.257 91.9691 85.4663 92.9093 86.0346 94.0854C86.473 94.9923 87.8486 94.2002 87.3981 93.2872C86.8358 92.1112 85.7384 91.2253 84.8374 90.3153C83.7279 89.1937 82.6063 88.0812 81.4453 87.0079C79.2455 84.9113 76.8353 83.0471 74.253 81.4451C69.2797 78.4551 63.2786 76.9374 57.5797 78.5307C56.6002 78.8028 57.0174 80.3295 57.9999 80.0423L57.9969 80.0635Z" fill="#191919"/>
<path d="M145.792 95.3943C147.836 91.9931 150.76 89.3085 154.085 87.1801C155.689 86.1666 157.356 85.2578 159.077 84.4592C161.081 83.522 163.354 82.4789 165.619 82.9929C166.607 83.2166 167.031 81.6929 166.039 81.4813C161.852 80.532 157.111 83.4524 153.689 85.5778C149.973 87.8876 146.693 90.8443 144.426 94.6143C143.903 95.488 145.269 96.2832 145.792 95.4094V95.3943Z" fill="#191919"/>
<path d="M76.1123 58.9158C77.4183 58.3777 78.0985 62.4349 78.3404 63.2421C78.6276 64.2156 80.1544 63.7984 79.852 62.8219C79.3381 61.0986 78.6034 56.1888 75.6799 57.38C74.7518 57.7609 75.1599 59.2937 76.1002 58.8916L76.1123 58.9158Z" fill="#5B5B5B"/>
<path d="M128.212 43.4516C127.238 43.7704 126.538 44.6256 126.417 45.6435C126.169 47.3546 127.417 48.8149 127.194 50.517C127.064 51.5207 128.645 51.5116 128.775 50.517C128.857 49.6721 128.743 48.8196 128.442 48.0258C128.182 47.2126 127.372 45.4228 128.633 44.9753C129.585 44.6367 129.174 43.107 128.212 43.4637V43.4516Z" fill="#5B5B5B"/>
<path d="M38.7356 40.5857H40.9486V42.7987H38.7356V40.5857Z" fill="#CBCBCB"/>
<path d="M188.726 40.7947H192.145V44.214H188.726V40.7947Z" fill="#CBCBCB"/>
<path d="M88.2843 29.3934L90.6274 33.886C91.099 34.793 92.4625 33.9888 91.9939 33.0878L89.6508 28.5953C89.1792 27.6883 87.8127 28.4925 88.2843 29.3934Z" fill="#5B5B5B"/>
<path d="M98.6536 24.5471V31.3887C98.6536 32.4076 100.235 32.4076 100.235 31.3887V24.5471C100.235 23.5282 98.6536 23.5282 98.6536 24.5471Z" fill="#5B5B5B"/>
<path d="M98.9172 19.5406C99.936 19.5406 99.936 17.9595 98.9172 17.9595C97.8984 17.9595 97.8984 19.5406 98.9172 19.5406Z" fill="#5B5B5B"/>
<path d="M110.251 20.9105C109.893 23.4257 109.299 25.9017 108.476 28.3054C108.147 29.2698 109.686 29.684 109.988 28.7256C110.811 26.321 111.405 23.844 111.763 21.3277C111.905 20.333 110.384 19.9037 110.251 20.9105Z" fill="#5B5B5B"/>
<path d="M80.5746 37.3964L81.8958 38.1855C82.2707 38.382 82.734 38.249 82.9475 37.8834C83.161 37.5178 83.0493 37.049 82.6939 36.8189L81.3727 36.0329C80.9962 35.8125 80.5123 35.9391 80.2919 36.3156C80.0715 36.6921 80.1981 37.176 80.5746 37.3964Z" fill="#5B5B5B"/>
<path d="M74.4194 33.2391C75.4352 33.2391 75.4382 31.658 74.4194 31.658C73.4006 31.658 73.4006 33.2391 74.4194 33.2391Z" fill="#5B5B5B"/>
<path d="M43.1462 52.6212C44.0956 54.2809 46.7167 55.8772 48.4128 54.3898C49.1777 53.7186 48.056 52.603 47.2942 53.2742C46.5323 53.9454 44.8756 52.464 44.5128 51.823C44.0079 50.9402 42.6414 51.7354 43.1462 52.6212Z" fill="#191919"/>
<path d="M24.1245 87.2767C35.4121 95.7297 48.3962 101.638 62.1843 104.597L61.6311 103.623C61.0627 106.078 60.7634 109.047 62.6166 111.064C64.0708 112.639 66.5136 113.256 68.2732 111.813C70.0327 110.371 70.5557 107.33 69.9118 105.214C69.286 103.17 67.1576 101.631 65.0292 102.526C64.1071 102.916 64.5122 104.446 65.4494 104.053C69.026 102.541 69.4704 109.392 66.9611 110.773C65.4948 111.581 63.8562 110.471 63.2122 109.108C62.4625 107.526 62.7769 105.676 63.1548 104.044C63.2673 103.623 63.0226 103.191 62.6045 103.07C48.9534 100.142 36.0994 94.2884 24.9287 85.9132C24.1124 85.3085 23.3263 86.672 24.1305 87.2767H24.1245Z" fill="#CBCBCB"/>
<path d="M59.4543 83.7669C61.8397 86.3285 63.729 89.3105 65.0261 92.5616C66.1447 95.4004 67.8317 99.9384 66.2203 102.823L67.6624 103.01L67.5052 102.59C67.1515 101.643 65.6217 102.055 65.9936 103.007L66.1508 103.43C66.3775 104.035 67.2392 104.256 67.5959 103.621C69.4099 100.386 67.9496 95.8267 66.7403 92.6039C65.3534 88.9177 63.2628 85.5364 60.585 82.6483C59.8926 81.9016 58.771 83.0202 59.4664 83.7669H59.4543Z" fill="#CBCBCB"/>
<path d="M158.968 89.626C158.458 95.3493 159.196 101.115 161.129 106.526L161.679 105.553C156.301 107.366 156.519 115.46 162.444 116.188C164.954 116.491 167.439 115.115 168.095 112.594C168.721 110.175 167.663 107.478 165.428 106.32C164.521 105.852 163.726 107.227 164.63 107.684C168.089 109.477 166.876 115 162.795 114.637C158.499 114.263 158.185 108.388 162.1 107.079C162.517 106.958 162.762 106.526 162.653 106.106C160.762 100.831 160.039 95.2077 160.537 89.626C160.627 88.6132 159.046 88.6192 158.956 89.626H158.968Z" fill="#CBCBCB"/>
<path d="M167.647 109.876C174.339 107.964 180.526 104.598 185.766 100.017C191.646 94.8772 195.999 88.0779 200.673 81.8772C201.278 81.064 199.911 80.2779 199.307 81.0791C194.808 87.047 190.618 93.5621 185.016 98.5747C179.902 103.129 173.825 106.468 167.239 108.343C166.263 108.624 166.677 110.157 167.659 109.854L167.647 109.876Z" fill="#CBCBCB"/>
<path d="M105.525 106.239C108.307 105.166 111.209 104.522 114.111 103.866C117.192 103.17 120.291 102.3 123.435 101.958C124.436 101.849 124.448 100.265 123.435 100.377C120.324 100.715 117.277 101.532 114.229 102.221C111.182 102.91 108.059 103.575 105.105 104.715C104.168 105.078 104.576 106.608 105.525 106.227V106.239Z" fill="white"/>
<path d="M109.773 110.725L118.211 108.817C119.203 108.594 118.782 107.07 117.791 107.306L109.353 109.213C108.361 109.437 108.782 110.961 109.773 110.725Z" fill="white"/>
<path d="M121.147 108.255C122.166 108.255 122.166 106.674 121.147 106.674C120.128 106.674 120.128 108.255 121.147 108.255Z" fill="white"/>
<path d="M112.548 115.185C114.269 115.024 115.975 114.732 117.651 114.311C118.637 114.06 118.22 112.536 117.231 112.799C115.694 113.192 114.128 113.465 112.548 113.615C111.544 113.709 111.535 115.293 112.548 115.197V115.185Z" fill="white"/>
<path d="M120.765 41.8734C122.464 45.5143 123.672 49.3642 124.36 53.3225C125.007 57.0804 125.267 61.9055 121.591 64.2243C120.729 64.7625 121.524 66.132 122.389 65.5878C126.107 63.2508 126.67 58.7704 126.162 54.7434C125.529 50.0011 124.164 45.3859 122.114 41.0631C121.684 40.141 120.324 40.9422 120.75 41.8613L120.765 41.8734Z" fill="white"/>
<path d="M119.653 66.5433V66.3679C119.653 65.9321 119.3 65.5789 118.864 65.5789C118.428 65.5789 118.075 65.9321 118.075 66.3679V66.5433C118.075 66.9791 118.428 67.3323 118.864 67.3323C119.3 67.3323 119.653 66.9791 119.653 66.5433Z" fill="white"/>
<path d="M108.446 73.3909C108.421 77.5344 108.791 81.6709 109.552 85.744C109.737 86.7416 111.26 86.3214 111.064 85.3237C110.336 81.3885 109.984 77.3928 110.015 73.3909C110.015 72.3751 108.443 72.3721 108.434 73.3909H108.446Z" fill="white"/>
<path d="M116.094 89.9884C117.005 89.7918 117.92 90.3017 118.232 91.1795C118.552 92.1379 120.082 91.7267 119.743 90.7593C119.179 89.054 117.409 88.0585 115.659 88.4616C114.667 88.6914 115.087 90.2151 116.079 89.9884H116.094Z" fill="white"/>
<path d="M80.3085 110.456C81.1668 111.864 81.905 113.341 82.5154 114.873C82.9568 116.007 83.1201 117.488 83.7247 118.519C84.2478 119.393 85.6143 118.598 85.0882 117.721C84.7859 117.189 84.6952 116.324 84.4836 115.726C84.2417 115.009 83.9696 114.302 83.6764 113.609C83.0963 112.248 82.4204 110.93 81.6538 109.664C81.1308 108.796 79.7612 109.588 80.2903 110.462L80.3085 110.456Z" fill="#191919"/>
<path d="M91.0321 140.178L94.2035 148.25C94.5724 149.187 96.1021 148.779 95.7152 147.83L92.5438 139.757C92.1749 138.82 90.6482 139.228 91.0321 140.178Z" fill="#191919"/>
<path d="M140.039 151.11L141.747 138.932C141.886 137.938 140.366 137.508 140.236 138.512L138.528 150.69C138.386 151.684 139.909 152.114 140.039 151.11Z" fill="#191919"/>
</svg>
