<svg width="1968" height="1773" viewBox="0 0 1968 1773" fill="none" xmlns="http://www.w3.org/2000/svg">
<circle cx="846.795" cy="925.951" r="846.5" fill="#BAD5F8"/>
<path d="M281.506 1330.23L317.295 1321.95C408.295 1301.45 733.628 1193.62 854.295 1136.45L820.295 1011.45C841.095 1010.65 840.628 996.784 837.795 989.951H845.295C880.095 988.351 876.462 964.284 870.295 952.451L801.795 898.451L772.795 883.951L793.295 845.951C805.462 829.451 837.895 783.651 870.295 732.451C902.695 681.251 964.462 670.451 991.295 671.451L986.795 646.951L959.795 617.451H918.295L887.795 639.451L875.295 626.451L858.295 634.451L816.295 662.451L775.795 773.451C772.628 769.785 759.595 748.351 732.795 691.951C705.995 635.551 687.795 618.887 628.295 605.451C529.095 583.051 497.628 613.785 488.295 634.451V542.951V491.951L492.795 473.451C500.295 478.951 517.595 483.251 526.795 456.451C535.995 429.651 504.962 405.285 488.295 396.451L454.295 341.451L471.295 317.951L463.295 302.951L404.795 291.951L315.295 317.951L228.795 419.951L233.295 542.951L253.934 664.989C255.349 673.355 251.331 681.703 243.91 685.816L210.295 704.451C115.895 756.051 100.628 837.618 104.795 871.951L157.295 1096.95L247.046 1312.54C252.674 1326.05 267.239 1333.53 281.506 1330.23Z" fill="white"/>
<path d="M773.706 883.033C804.49 831.044 837.605 780.527 873.05 731.481C884.018 716.455 895.37 701.318 911.165 691.502C925.149 682.892 941.601 679.245 957.779 676.722C1026.33 666.083 1096.44 673.459 1165.52 680.89C1174.37 681.823 1183.75 683.002 1190.66 688.595C1202.29 697.973 1202.26 715.632 1199.05 730.22C1191.24 765.702 1171.19 797.125 1150.46 826.959C1113.81 879.71 1073.9 930.124 1030.96 977.908C1022.96 986.792 1014.7 995.759 1004.34 1001.79C989.697 1010.32 972.23 1012.27 955.339 1013.53C914.178 1016.59 872.851 1016.71 831.673 1013.88" fill="#BAD5F8"/>
<path d="M841.295 992.451C842.895 1010.85 818.295 1014.78 805.795 1014.45L754.295 985.951L761.795 897.951L778.295 887.951L801.795 899.451C814.962 907.284 847.195 928.851 870.795 952.451C894.395 976.051 860.962 988.951 841.295 992.451Z" fill="white"/>
<path d="M1070.5 668.552L1284.16 357.275C1261.02 346.307 1249.04 315.596 1259.87 292.371C1270.7 269.146 1303.47 258.946 1324.86 273.177C1346.24 287.408 1348.96 322.972 1329.11 339.178" fill="#BAD5F8"/>
<path d="M403.53 1291.6C403.53 1291.6 313.207 1302.57 321.762 1334.48C330.317 1366.4 305.611 1408.52 304.487 1440.19C303.363 1471.86 303.555 1540.9 311.891 1584.15C320.226 1627.39 318.801 1620.18 386.529 1631.69C454.257 1643.21 919.17 1668.41 910.259 1576.85C901.347 1485.3 852.923 1291.68 852.923 1291.68C852.923 1291.68 836.827 1147.2 798.082 1163.57C759.337 1179.94 498.953 1275.64 498.953 1275.64" fill="#1A73E8"/>
<path d="M244.795 615.951C278.2 634.205 326.904 652.96 364.127 660.928C413.484 671.43 464.294 672.308 514.747 673.651C518.434 673.402 522.11 674.261 525.304 676.119C531.529 680.753 529.472 690.405 526.785 697.672L509.784 743.793C508.36 748.459 506.112 752.833 503.149 756.708C500.089 759.932 496.403 762.498 492.318 764.248C464.595 777.575 437.295 773.599 401.611 773.599C300.795 773.599 271.984 763.48 240.795 738.951C214.294 718.108 218.795 694.951 218.795 694.951" fill="#BAD5F8"/>
<path d="M286.856 788.625C278.692 813.248 272.125 838.371 267.196 863.839C265.441 872.97 263.96 882.787 267.772 891.26C275.148 907.712 297.111 910.454 315.209 910.454L373.971 910.92C378.221 910.92 383.02 910.756 385.844 907.575C388.668 904.394 388.312 900.034 388.092 896.003C385.695 854.813 395.286 813.811 415.705 777.959" fill="#BAD5F8"/>
<path d="M178.354 426.84C178.354 426.84 189.322 472.962 206.405 500.217C216.771 516.67 228.65 532.12 241.887 546.366C241.887 546.366 275.093 509.376 273.447 498.325C271.802 487.275 279.973 476.937 263.329 471.07C246.685 465.202 228.039 448.612 243.34 429.637C258.64 410.662 274.106 400.352 285.951 413.514C297.797 426.676 296.645 423.523 304.953 400.681C313.262 377.84 326.506 326.646 351.815 320.257C377.124 313.868 459.55 297.005 457.137 318.146C454.724 339.287 441.397 334.927 451.159 348.308C460.921 361.69 479.1 381.213 496.951 347.102C514.802 312.991 511.429 277.838 477.757 266.294C444.085 254.75 358.423 229.222 315.264 249.211C272.104 269.201 294.753 296.237 275.531 298.979C256.31 301.721 268.621 277.427 241.558 294.866C214.494 312.305 191.707 320.751 181.233 355.712" fill="#1A73E8"/>
<path d="M1514.22 540.854C1492.92 558.732 1467.36 589.827 1446.08 607.705C1442.16 610.996 1438.05 614.588 1436.73 619.523C1435.42 624.459 1437.12 629.504 1438.82 634.248C1446.13 654.905 1453.58 675.543 1461.16 696.163C1463.33 702.026 1469.06 705.795 1475.3 705.461C1481.54 705.128 1486.84 700.77 1488.36 694.71C1490.06 687.8 1491.89 680.936 1493.85 674.117C1494.51 670.99 1495.81 668.032 1497.66 665.425C1500.19 662.765 1503.31 660.728 1506.76 659.475L1564.84 633.288" fill="#BAD5F8"/>
<path d="M1730.68 522.154C1753.27 531.083 1774.83 542.457 1794.95 556.073C1801.15 560.24 1807.37 564.82 1811.18 571.236C1821.66 588.813 1810.44 610.721 1800.98 628.819C1793.52 643.182 1787.11 658.064 1781.79 673.35C1779.8 678.994 1774.25 682.58 1768.28 682.07C1762.32 681.561 1757.46 677.084 1756.45 671.183C1755.88 667.591 1755.47 663.972 1755.19 660.215C1754.89 655.828 1754.7 651.112 1752.15 647.52C1749.21 643.407 1743.92 641.789 1739.12 640.418C1717.19 634.33 1685.71 626.077 1663.83 619.99" fill="#BAD5F8"/>
<path fill-rule="evenodd" clip-rule="evenodd" d="M1491.63 258.562C1485.05 352.97 1497.77 447.626 1514.22 540.855L1551.83 537.604C1554.92 568.517 1558.73 599.336 1562.85 630L1727.6 611.292C1728.95 580.013 1729.49 550.415 1729.23 522.272L1730.6 522.154C1743.65 291.987 1699.42 152.856 1597.96 15.0413C1594.17 9.85341 1588.07 6.86755 1581.64 7.05937C1575.22 7.2512 1569.3 10.5961 1565.83 16.001C1520.09 87.8425 1497.6 173.339 1491.63 258.562Z" fill="#BAD5F8"/>
<path d="M1595.63 558.486C1585.54 563.148 1579.18 573.677 1576.79 584.536C1574.41 595.394 1575.62 606.691 1577.07 617.687C1580.5 643.19 1585.54 668.45 1592.18 693.312C1594.76 702.992 1598.05 713.302 1605.89 719.389C1615.7 726.902 1629.39 725.751 1641.67 724.243C1645.4 723.776 1649.65 723.009 1651.54 719.773C1652.32 718.218 1652.77 716.519 1652.86 714.782C1656.51 683.231 1660.09 651.688 1663.58 620.155" fill="#BAD5F8"/>
<path d="M1601.97 233.17C1587.57 233.17 1574.55 242.657 1566.05 254.229C1555.38 268.57 1550.22 288.724 1558.72 304.463C1562.51 311.149 1568.08 316.648 1574.82 320.339C1596.14 332.649 1623.19 328.113 1639.32 309.523C1655.46 290.932 1656.14 263.511 1640.96 244.138C1636.68 238.654 1630.29 233.609 1623.35 234.568" fill="#BAD5F8"/>
<path d="M1539.17 699.509C1510.68 818.89 1470.73 935.243 1419.9 1046.95C1445.55 1020.38 1474.63 997.324 1506.35 978.402C1501.38 1066.9 1486.56 1154.56 1462.18 1239.77C1490.02 1203.87 1515.27 1166.04 1537.75 1126.55C1542.36 1212.11 1546.97 1297.65 1551.6 1383.18" fill="#BAD5F8"/>
<path d="M1713.43 707.954C1739.9 822.846 1764.3 938.249 1786.62 1054.16L1707.29 989.287C1730.85 1038.53 1745.28 1091.65 1749.87 1146.05C1729.47 1123.72 1704.11 1106.48 1675.84 1095.73C1687.47 1155.37 1695.39 1215.68 1699.56 1276.3C1681.9 1252.82 1661.31 1231.72 1638.27 1213.5C1630.23 1235.72 1624.71 1258.77 1621.82 1282.22" fill="#BAD5F8"/>
<path d="M1268.67 1079.64C1258.16 1078.58 1247.61 1081.3 1238.92 1087.32C1225.4 1096.31 1216.33 1112.43 1217.67 1128.61C1219.01 1144.79 1231.9 1159.98 1248.08 1161.93C1233.08 1169.38 1227.02 1190.64 1235.82 1204.89C1244.62 1219.15 1266.31 1223.24 1279.69 1213.12C1284.11 1221.76 1293.12 1227.08 1302.82 1226.77C1312.52 1226.46 1321.17 1220.58 1325.02 1211.67" fill="#BAD5F8"/>
<path d="M1703.01 1414.19C1704.46 1433.09 1728.98 1444.06 1746.17 1436.13C1763.36 1428.21 1771.84 1407.39 1770.11 1388.56C1778.5 1404.57 1798.27 1414.96 1815.49 1409.42C1832.71 1403.88 1842.47 1380.41 1831.75 1365.82C1837.97 1372.38 1849.05 1370.65 1856.92 1366.15C1874.26 1356.23 1883.91 1336.83 1881.36 1317.01C1878.8 1297.2 1864.56 1280.87 1845.27 1275.67" fill="#BAD5F8"/>
<path d="M1899.15 888.518C1910.12 879.716 1928.87 884.076 1934.8 896.744C1940.72 909.412 1932.05 926.66 1918.34 929.429C1930 937.354 1940.55 948.624 1942.2 962.745C1943.84 976.867 1932.88 992.469 1918.81 991.427C1927.2 991.838 1933.01 1001.6 1931.07 1009.74C1929.12 1017.89 1921.28 1023.7 1913.05 1025.32C1904.71 1026.5 1896.2 1025.48 1888.37 1022.36" fill="#BAD5F8"/>
<path d="M1332.09 826.109C1319.87 836.163 1306.16 844.265 1291.46 850.129C1300.56 862.404 1312.44 872.353 1326.12 879.168L1268.84 918.68" fill="#BAD5F8"/>
<path d="M1831.15 749.962C1846.59 753.906 1861.03 761.043 1873.54 770.912L1834.25 793.588L1862.3 812.097" fill="#BAD5F8"/>
<path d="M1882.29 1132.26C1903.04 1145.45 1922.75 1160.22 1941.24 1176.43C1930.09 1179.8 1919.41 1184.58 1909.46 1190.64C1925.64 1202.04 1942.91 1211.81 1961.01 1219.81" fill="#BAD5F8"/>
<path d="M1364.18 1324.91L1346.79 1373.86L1391.19 1383.26L1372.98 1440.35" fill="#BAD5F8"/>
<path d="M1492.7 1454.64C1495.44 1464.13 1498.43 1473.83 1503.99 1481.92C1509.56 1490.01 1518.36 1496.67 1528.26 1497.09C1538.16 1497.5 1548.44 1490.12 1549.07 1480.25C1551.33 1491.09 1561.71 1498.23 1572.64 1496.45C1583.56 1494.67 1591.15 1484.6 1589.85 1473.61" fill="#BAD5F8"/>
<path d="M779.189 886.407C796.811 856.701 815.174 827.453 834.277 798.661C852.868 770.72 871.157 741.079 893.313 715.742C916.565 689.254 947.934 683.551 981.524 680.288C1016.1 677.294 1050.87 677.166 1085.48 679.904C1103.3 681.11 1121.12 682.783 1138.86 684.62C1155.15 686.265 1185.07 683.797 1192.41 702.087C1197.68 715.194 1192.41 731.838 1188.36 744.479C1182.62 761.096 1175.03 777.011 1165.71 791.916C1131.73 848.32 1089.37 900.802 1046.43 950.543C1035.08 963.705 1023.89 978.128 1010.56 989.398C994.769 1002.72 975.19 1005.55 955.283 1007.08C914.123 1010.16 872.794 1010.28 831.617 1007.44C823.391 1006.89 823.391 1019.89 831.617 1020.41C872.794 1023.25 914.122 1023.14 955.283 1020.08C970.2 1018.9 985.446 1017.34 999.32 1011.47C1015.64 1004.53 1027.32 991.728 1038.89 978.759C1088.88 922.794 1138.1 862.88 1176.92 798.469C1192.39 772.804 1210.95 738.638 1206.84 707.516C1202.31 673.021 1166.04 674.42 1138.86 671.623C1099.84 667.647 1060.66 664.356 1021.39 665.069C987.228 665.7 947.112 666.769 915.633 681.741C881.796 697.809 860.792 736.582 840.501 766.36C815.055 803.378 790.889 841.2 768.002 879.826C763.724 887.01 774.912 893.536 779.189 886.379V886.407Z" fill="#1A73E8"/>
<path d="M1076.12 671.897L1289.76 360.538C1291.57 357.456 1290.54 353.491 1287.45 351.681C1255.95 335.229 1252.71 286.695 1290.2 274.904C1326.17 263.634 1352.47 309.262 1324.58 334.406C1318.38 339.89 1327.57 349.158 1333.77 343.565C1349.75 329.142 1353.26 305.176 1344.08 285.982C1334.29 265.526 1311.83 256.477 1290.11 261.523C1239.63 273.259 1238.01 340.192 1280.98 362.814L1278.65 353.957L1064.91 665.288C1060.17 672.198 1071.41 678.697 1076.12 671.842V671.897Z" fill="#1A73E8"/>
<path d="M438.436 341.207C456.341 367.668 476.66 389.988 499.172 412.5C509.591 422.92 520.066 436.136 516.09 451.821C511.538 469.891 496.293 462.049 485.489 471.317C477.427 478.227 479.237 490.209 479.237 499.724V553.66V666.989C479.237 675.215 492.207 675.352 492.207 666.989V548.286C492.207 529.393 492.207 510.5 492.207 491.608C492.207 487.659 492.207 482.394 496.375 480.036C498.047 479.077 504.765 479.131 507.041 478.501C511.636 477.315 515.859 474.995 519.326 471.755C536.162 455.797 530.623 430.213 517.872 413.926C508.111 401.449 495.388 391.633 484.666 380.034C471.866 365.803 460.16 350.624 449.65 334.626C444.989 327.743 433.747 334.215 438.436 341.179V341.207Z" fill="#192939"/>
<path d="M382.938 402.272C376.357 402.409 372.161 407.015 369.886 412.801C367.774 418.148 366.705 425.222 370.928 429.829C375.15 434.436 383.322 434.6 386.585 428.732C390.177 422.261 385.46 416.037 379.812 413.103C372.408 409.264 365.827 420.451 373.258 424.29C373.67 424.509 374.821 425.359 375.123 425.332C374.918 424.517 374.844 423.675 374.904 422.837L377.234 420.506C377.897 420.169 378.669 420.116 379.372 420.359C380.076 420.602 380.65 421.12 380.963 421.795C380.937 421.485 380.937 421.173 380.963 420.863C381.327 419.788 381.611 418.688 381.813 417.572C382.033 416.996 383.102 415.241 382.855 415.241C391.082 415.077 391.219 402.107 382.855 402.272H382.938Z" fill="#192939"/>
<path d="M444.058 402.272C437.477 402.409 433.282 407.015 431.006 412.801C428.894 418.148 427.825 425.222 432.048 429.829C436.27 434.436 444.442 434.6 447.705 428.732C451.297 422.261 446.58 416.037 440.932 413.103C433.528 409.264 426.947 420.451 434.378 424.29C434.79 424.509 435.941 425.359 436.243 425.332C436.038 424.517 435.964 423.675 436.024 422.837L438.354 420.506C439.018 420.169 439.789 420.116 440.493 420.359C441.196 420.602 441.77 421.12 442.084 421.795C442.057 421.485 442.057 421.173 442.084 420.863C442.447 419.788 442.732 418.688 442.934 417.572C443.153 416.996 444.222 415.241 443.976 415.241C452.202 415.077 452.339 402.107 443.976 402.272H444.058Z" fill="#192939"/>
<path d="M419.516 470.083C406.903 472.03 394.399 470.083 381.868 468.355C375.04 467.505 363.441 464.05 359.082 471.371C355.078 478.144 357.08 489.469 358.533 496.845C360.279 506.171 364.386 514.894 370.461 522.181C380.744 534.274 399.965 543.871 414.169 532.437C429.059 520.427 428.455 495.639 425.604 478.775C424.205 470.549 411.701 474.031 413.1 482.23C415.705 497.722 413.84 536.276 388.421 520.893C375.342 512.968 365.471 490.566 371.311 475.622L366.759 480.146C375.671 478.336 387.434 482.285 396.483 483.19C405.311 484.127 414.223 483.925 422.999 482.586C431.225 481.298 427.742 468.876 419.544 470.083H419.516Z" fill="#192939"/>
<path d="M369.639 508.827C385.288 514.42 401.725 517.492 418.337 517.931C425.467 518.15 427.386 506.387 420.065 505.18L415.924 504.522C407.698 503.179 404.243 515.655 412.469 517.026L416.61 517.711L418.337 504.961C402.898 504.527 387.626 501.639 373.094 496.406C365.224 493.664 361.824 506.112 369.639 508.909V508.827Z" fill="#192939"/>
<path d="M381.594 518.343C388.785 518.529 395.481 522.044 399.718 527.858L407.561 517.657C405.887 516.528 404.032 515.693 402.077 515.189L400.349 527.912H405.367C413.73 527.912 413.73 515.052 405.367 514.943H400.349C397.169 515.051 394.531 517.436 394.104 520.589C393.677 523.741 395.585 526.743 398.622 527.693C399.504 527.83 400.32 528.243 400.952 528.872C403.771 530.507 407.366 529.79 409.343 527.2C411.254 524.605 411.035 521.014 408.822 518.672C402.163 510.395 392.16 505.519 381.539 505.373C373.313 505.181 373.313 518.151 381.539 518.343H381.594Z" fill="#192939"/>
<path d="M302.952 421.631C289.242 399.009 252.718 394.869 238.075 419.081C231.662 430.074 230.749 443.431 235.608 455.194C241.942 470.659 256.529 476.719 271.994 479.872C280.221 481.49 283.648 468.904 275.449 467.368C265.605 465.421 254.829 462.926 249.208 453.658C244.637 445.849 244.156 436.303 247.919 428.075C256.502 410.224 282.359 412.719 291.792 428.212C296.097 435.341 307.339 428.815 302.979 421.658L302.952 421.631Z" fill="#192939"/>
<path d="M304.076 428.403C308.032 411.372 313.341 394.684 319.952 378.498C325.985 363.91 334.046 340.329 346.879 330.457C360.589 319.846 386.858 318.255 403.584 316.884C422.934 315.328 442.399 316.055 461.579 319.051C469.805 320.312 473.287 307.808 465.034 306.547C443.079 302.995 420.762 302.258 398.621 304.353C380.496 306.218 356.641 308.082 341.038 318.31C326.423 327.99 318.609 349.378 311.753 364.733C303.099 384.155 296.305 404.354 291.462 425.058C289.543 433.284 302.047 436.657 303.966 428.513L304.076 428.403Z" fill="#192939"/>
<path d="M254.994 286.037C201.497 291.822 169.332 342.495 168.647 393.251C167.824 454.096 200.838 514.037 239.94 558.513C241.374 559.915 243.37 560.582 245.359 560.326C247.347 560.069 249.109 558.917 250.14 557.197C263.304 533.717 273.203 508.551 279.562 482.394C281.537 474.305 269.033 470.823 267.059 478.967C261.029 504.029 251.59 528.146 239.008 550.644L249.208 549.328C215.015 510.61 186.662 460.321 182.11 408.03C178.025 360.785 202.182 304.737 254.939 299.007C263.165 298.102 263.165 285.132 254.939 286.037H254.994Z" fill="#192939"/>
<path d="M285.157 231.608C284.223 244 282.391 256.307 279.673 268.433C278.329 274.548 285.788 279.539 290.641 274.74C329.989 234.706 385.845 247.32 434.05 261.852C457.193 268.762 487.108 276.906 499.256 299.939C512.582 325.221 490.371 346.554 472.603 361.882C466.296 367.366 475.345 376.497 481.789 371.04C500.489 354.835 521.521 333.557 515.406 306.383C509.127 278.359 481.789 264.567 457.11 255.738C400.515 235.501 328.865 217.349 281.455 265.582L292.423 271.888C295.347 258.619 297.317 245.158 298.319 231.608C298.95 223.382 285.98 223.382 285.349 231.608H285.157Z" fill="#192939"/>
<path d="M217.4 689.473C160.64 725.833 104.126 781.496 102.234 853.31C101.192 895.455 118.467 937.765 131.547 977.141C146.171 1021.25 162.23 1064.87 179.724 1107.99C193.791 1142.68 209.147 1177.86 235.388 1205.25C258.373 1228.54 287.026 1245.43 318.527 1254.28C386.365 1274.32 458.371 1261.63 521.163 1231.77C561.416 1212.57 598.242 1187.07 633.395 1159.9C652.123 1145.39 670.522 1130.48 688.729 1115.37C703.701 1102.92 718.234 1089.37 721.99 1069.44C723.526 1061.21 711.022 1057.78 709.487 1066.01C705.84 1085.2 690.292 1097.32 675.897 1109.17C661.501 1121.02 646.612 1133.22 631.695 1144.82C602.676 1168.13 571.871 1189.12 539.562 1207.61C480.855 1240.24 413.922 1259.3 346.605 1247.48C314.907 1241.99 283.922 1229.66 258.86 1209.09C231.659 1186.8 214.494 1156.09 200.646 1124.31C184.468 1087.21 170.484 1049.09 156.993 1010.95C143.859 973.686 130.231 935.846 120.88 897.402C110.899 856.272 115.78 817.883 138.347 781.853C159.488 748.208 190.775 721.857 223.926 700.606C230.946 696.109 224.447 684.867 217.4 689.391V689.473Z" fill="#192939"/>
<path d="M254.364 626.982C292.912 647.879 334.577 662.425 377.755 670.059C398.908 673.622 420.235 676.066 441.645 677.381C453.82 678.176 465.994 678.697 478.196 679.108C488.835 679.465 501.942 677.518 512.143 680.068C529.308 684.4 518.751 700.825 514.885 711.327C510.552 723.063 507.235 736.252 501.449 747.33C491.468 766.524 457.713 768.252 438.848 768.581C392.508 769.376 345.427 763.097 299.251 760.026C291.025 759.45 291.025 772.42 299.251 772.996L385.433 778.836C410.797 780.591 436.463 783.251 461.799 779.631C480.088 777.026 503.313 771.405 512.636 753.719C518.12 743.19 521.356 730.905 525.497 719.773C529.171 709.792 534.82 699.07 535.67 688.321C537.26 668.113 519.958 667.18 504.301 666.769C476.469 666.029 448.582 665.233 420.833 662.656C364.566 657.391 310.767 642.557 260.917 615.74C253.568 611.791 246.988 622.979 254.364 626.927V626.982Z" fill="#1A73E8"/>
<path d="M280.605 786.898C274.436 805.818 269.034 824.958 264.674 844.481C261.274 859.59 255.351 877.961 261.493 893.152C271.529 917.831 303.885 917.036 325.904 917.2C343.261 917.337 363.36 920.271 380.443 917.2C394.29 914.623 394.674 903.49 394.345 891.535C393.203 853.079 402.529 815.036 421.327 781.469C425.385 774.175 414.17 767.622 410.112 774.916C390.016 810.317 380.073 850.574 381.375 891.26C381.622 899.788 381.375 904.395 371.312 904.395C363.305 904.395 355.271 904.258 347.264 904.203C327.796 904.038 283.621 910.921 273.723 888.025C267.718 874.15 276.136 851.665 279.536 837.626C283.429 821.64 288.009 805.901 293.109 790.271C295.851 782.319 283.183 778.892 280.605 786.816V786.898Z" fill="#1A73E8"/>
<path d="M275.066 932.391H273.887C271.47 932.234 269.166 933.434 267.909 935.505C266.653 937.577 266.653 940.175 267.909 942.246C269.166 944.318 271.47 945.518 273.887 945.361H275.066C278.485 945.138 281.143 942.301 281.143 938.876C281.143 935.451 278.485 932.613 275.066 932.391Z" fill="#1A73E8"/>
<path d="M303.309 949.967H304.461C306.878 950.124 309.183 948.923 310.439 946.852C311.695 944.781 311.695 942.183 310.439 940.111C309.183 938.04 306.878 936.839 304.461 936.997H303.309C299.743 937.026 296.855 939.902 296.811 943.468C296.869 947.033 299.745 949.908 303.309 949.967Z" fill="#1A73E8"/>
<path d="M337.42 947.608H338.599C342.017 947.386 344.675 944.549 344.675 941.124C344.675 937.698 342.017 934.861 338.599 934.639H337.42C335.002 934.481 332.698 935.682 331.441 937.753C330.185 939.824 330.185 942.423 331.441 944.494C332.698 946.565 335.002 947.766 337.42 947.608Z" fill="#1A73E8"/>
<path d="M385.076 938.752V937.6C385.047 934.034 382.171 931.146 378.605 931.102C375.041 931.16 372.165 934.036 372.107 937.6V938.752C371.949 941.169 373.15 943.473 375.221 944.73C377.292 945.986 379.891 945.986 381.962 944.73C384.033 943.473 385.234 941.169 385.076 938.752Z" fill="#1A73E8"/>
<path d="M681.903 882.375C684.629 910.072 692.261 937.063 704.442 962.086C710.846 975.055 718.495 987.37 727.284 998.857C731.122 1003.88 735.373 1008.54 739.239 1013.53C743.489 1019.01 754.512 1038.56 739.705 1040.45C731.479 1041.5 731.479 1054.47 739.705 1053.42C750.564 1052.36 759.065 1043.61 759.804 1032.72C761.395 1018.08 750.262 1006.78 741.762 996.362C715.372 963.739 699.076 924.124 694.873 882.375C694.023 874.149 681.162 874.149 681.903 882.375Z" fill="#192939"/>
<path d="M787.415 836.419C746.66 843.691 710.558 867.09 687.276 901.323C682.532 908.205 693.775 914.704 698.464 907.849C720.094 876.586 753.4 855.347 790.87 848.922C799.096 847.469 795.587 834.965 787.415 836.419Z" fill="#192939"/>
<path d="M875.162 946.347C854.186 926.712 831.336 909.179 806.94 894.002C799.838 889.56 793.229 900.774 800.386 905.189C823.86 919.837 845.846 936.744 866.031 955.67C872.118 961.374 881.304 952.215 875.189 946.484L875.162 946.347Z" fill="#192939"/>
<path d="M820.1 983.64C824.662 990.511 832.14 994.893 840.364 995.513C843.936 995.498 846.833 992.614 846.863 989.042C846.79 985.483 843.923 982.616 840.364 982.543C836.691 982.126 833.385 980.122 831.315 977.059C829.439 974.049 825.534 973.036 822.431 974.755C819.378 976.585 818.343 980.517 820.1 983.612V983.64Z" fill="#192939"/>
<path d="M791.748 1007.58C792.414 1010.86 794.396 1013.72 797.232 1015.5C800.076 1017.35 803.543 1017.98 806.856 1017.26C810.295 1016.28 812.311 1012.73 811.381 1009.28C810.359 1005.88 806.843 1003.88 803.401 1004.75C805.184 1004.45 804.334 1004.75 803.813 1004.75C803.292 1004.75 805.376 1005.08 804.251 1004.75C803.127 1004.42 805.074 1005.38 804.581 1004.92C804.339 1004.72 804.071 1004.55 803.785 1004.42C803.95 1004.42 804.964 1005.19 804.224 1004.7C803.484 1004.2 804.964 1005.44 804.443 1004.97C803.922 1004.51 804.8 1004.97 804.443 1005.33C804.443 1005.33 804.224 1004.37 804.197 1004.23C803.754 1002.6 802.692 1001.2 801.235 1000.34C799.71 999.477 797.908 999.25 796.217 999.708C794.596 1000.16 793.212 1001.22 792.351 1002.67C791.56 1004.22 791.328 1005.99 791.693 1007.69L791.748 1007.58Z" fill="#192939"/>
<path d="M538.547 621.553C562.266 612.833 591.085 618.071 615.599 621.553C636.603 624.569 658.046 629.45 676.472 640.391C698.408 653.498 710.693 675.105 723.553 696.466L767.234 769.02C771.539 776.149 782.754 769.651 778.421 762.467C761.969 735.266 745.59 708.055 729.284 680.836C716.232 659.229 702.138 639.513 679.516 627.202C659.334 616.234 636.575 611.353 614.008 608.364C588.507 604.964 559.826 599.918 535.093 609.022C527.333 611.764 530.678 624.432 538.547 621.526V621.553Z" fill="#192939"/>
<path d="M773.24 790.791C785.003 758.243 796.383 725.531 808.558 693.12C814.59 677.106 822.268 663.314 836.855 653.525C843.409 649.083 871.679 630.766 878.233 637.95C883.881 644.147 893.04 634.934 887.419 628.792C876.889 617.275 860.739 626.488 849.332 631.863C833.976 639.129 819.169 648.315 809.325 662.354C798.22 678.285 792.873 698.193 786.429 716.235L760.736 787.336C757.994 795.206 770.416 798.606 773.24 790.791Z" fill="#192939"/>
<path d="M886.486 654.183C897.263 638.577 913.163 627.237 931.428 622.129C955.667 615.548 967.787 628.408 979.358 647.767C983.663 654.924 994.878 648.425 990.573 641.241C977.987 620.182 962.934 603.648 936.445 607.815C911.274 611.764 889.831 627.01 875.298 647.63C870.472 654.485 881.714 660.956 886.486 654.183Z" fill="#192939"/>
<path d="M263.686 1324.5C468.646 1292.52 668.09 1231.88 856.159 1144.35C863.727 1140.84 857.146 1129.65 849.605 1133.16C662.496 1220.09 464.097 1280.28 260.231 1311.97C252.005 1313.26 255.515 1325.68 263.686 1324.5Z" fill="#192939"/>
<path d="M313.482 1320.39C317.501 1347.83 316.01 1375.79 309.094 1402.65C303.546 1424.5 299.56 1446.72 297.166 1469.14C292.266 1516.84 294.847 1565 304.817 1611.9C306.517 1620.12 319.02 1616.58 317.32 1608.44C306.745 1558.21 304.89 1506.54 311.836 1455.68C315.127 1431.99 322.311 1409.29 326.342 1385.81C330.373 1362.34 329.248 1340.05 326.068 1316.93C324.943 1308.71 312.357 1312.19 313.564 1320.39H313.482Z" fill="#192939"/>
<path d="M813.409 1159.16C832.603 1233.6 855.335 1307.06 873.46 1381.78C891.585 1456.5 907.159 1533.23 903.238 1610.17C902.8 1618.39 915.797 1618.39 916.208 1610.17C920.129 1533.67 904.801 1456.78 887.033 1382.77C868.716 1306.54 845.491 1231.63 825.913 1155.73C823.829 1147.5 811.325 1151.07 813.409 1159.16Z" fill="#192939"/>
<path d="M710.338 1427.33C688.402 1495.5 681.602 1571.26 682.534 1642.58C682.534 1650.8 695.613 1650.97 695.504 1642.58C694.599 1572.27 701.207 1497.99 722.924 1430.78C725.474 1422.8 712.97 1419.4 710.42 1427.33H710.338Z" fill="#192939"/>
<path d="M913.741 515.875C911.746 525.705 913.942 535.921 919.801 544.063C924.682 550.726 935.951 544.255 930.988 537.509C926.929 532.382 925.209 525.787 926.245 519.33C927.698 511.104 915.276 507.676 913.741 515.875Z" fill="#192939"/>
<path d="M976.891 510.665C977.585 515.644 976.141 520.684 972.915 524.54C967.568 530.874 976.699 540.087 982.074 533.698C988.377 526.42 991.075 516.695 989.422 507.21C988.437 503.782 984.891 501.771 981.443 502.686C978.051 503.719 976.054 507.219 976.891 510.665Z" fill="#192939"/>
<path d="M1043.38 522.538L1020.32 554.263C1015.42 561.009 1026.66 567.507 1031.54 560.789L1054.6 529.091C1059.51 522.319 1048.27 515.847 1043.38 522.538Z" fill="#192939"/>
<path d="M1509.61 536.275C1486.36 556.21 1467.28 580.477 1444.3 600.713C1434.32 609.515 1427.57 617.165 1430.97 631.122C1435.47 649.658 1444.05 668.057 1450.58 685.963C1454.25 696.054 1456.83 707.433 1468.32 710.97C1476.57 713.519 1485.53 710.755 1490.91 704.006C1501.28 690.597 1494.48 672.171 1512.41 663.944C1530.89 655.472 1549.51 647.218 1568.05 638.855C1575.64 635.427 1569.06 624.24 1561.49 627.667L1520.36 646.203C1511.23 650.316 1498.18 653.662 1491.98 662.107C1484.91 671.704 1487.6 686.649 1480.22 695.478C1468.48 709.599 1459.82 673.542 1457.02 665.864C1452.66 653.854 1445.37 640.253 1443.31 627.64C1441.48 615.465 1458.39 605.457 1466.4 597.477C1483.84 580.148 1499.94 561.392 1518.64 545.379C1524.97 539.895 1515.76 530.791 1509.45 536.22L1509.61 536.275Z" fill="#1A73E8"/>
<path d="M1728.87 528.405C1743.37 534.226 1757.45 541.043 1771.01 548.806C1783.68 556.073 1804.14 565.478 1808.09 580.751C1812.04 596.024 1801.94 612.613 1795.31 625.583C1788.81 638.354 1783 651.461 1777.9 664.849C1775.15 672.006 1767.18 681.96 1762.57 669.511C1760.62 664.191 1761.88 657.583 1760.54 652.044C1758.15 642.282 1751.68 637.84 1742.52 634.879C1717.24 626.653 1691.03 621.004 1665.42 613.875C1657.36 611.654 1653.93 624.157 1661.96 626.406C1678.91 631.095 1695.88 635.619 1712.88 640.116C1720.62 642.2 1729.97 643.434 1737.26 646.752C1750.23 652.702 1747.27 662.244 1750.06 672.883C1751.99 681.971 1759.97 688.502 1769.26 688.595C1781.95 688.595 1786.4 678.56 1790.26 668.195C1797.15 649.768 1806.99 633.014 1814.69 614.999C1820.37 601.7 1824.62 586.509 1818.81 572.497C1812.67 557.69 1796.71 549.108 1783.68 541.238C1767.22 531.395 1750 522.886 1732.19 515.792C1724.43 512.666 1721.08 525.225 1728.73 528.323L1728.87 528.405Z" fill="#1A73E8"/>
<path d="M1520.47 539.127C1492.34 379.705 1475.23 206.106 1550.47 56.2536C1556.2 44.8467 1569.39 9.06306 1585.95 14.081C1597.39 17.536 1609.12 41.7208 1615.51 51.3453C1631.32 74.9562 1645.66 99.5164 1658.45 124.887C1683.91 175.941 1702.13 230.288 1712.61 286.366C1727.36 363.938 1728.43 443.485 1724.1 522.181C1723.63 530.407 1736.63 530.407 1737.07 522.181C1744.72 383.16 1732.49 242.685 1668.87 116.798C1654.86 89.2961 1639.08 62.7338 1621.63 37.2787C1609.59 19.6473 1587.6 -16.7121 1563.28 8.78886C1550.88 21.7861 1542.74 42.1869 1535.12 58.1456C1526.73 75.7607 1519.4 93.8633 1513.18 112.356C1500.34 151.357 1491.71 191.62 1487.43 232.457C1476 336.106 1489.9 440.468 1507.91 542.527C1509.34 550.753 1521.84 547.243 1520.42 539.072L1520.47 539.127Z" fill="#1A73E8"/>
<path d="M1592.34 552.892C1565.94 567.37 1567.86 598.684 1571.53 624.514C1574.07 642.337 1577.41 660.023 1581.54 677.572C1584.69 690.926 1587.02 706.83 1595.77 718.045C1602.93 727.368 1613.51 731.344 1625.03 731.755C1634.46 732.139 1651.6 732.495 1657.27 722.981C1659.58 719.087 1659.52 713.822 1660.02 709.462C1661.25 698.96 1662.4 688.431 1663.58 677.929L1670.13 620.099C1671.09 611.873 1658.1 611.873 1657.16 620.099C1654.4 644.613 1651.66 669.145 1648.94 693.696C1648.36 698.851 1649.19 711.327 1646.39 715.632C1644.09 719.169 1637.37 718.374 1633.53 718.621C1618.75 719.635 1607.48 716.153 1601.69 701.647C1593.3 680.589 1589.74 656.047 1586.06 633.782C1582.39 611.517 1574.49 577.515 1598.98 564.079C1606.3 560.076 1599.77 548.861 1592.43 552.892H1592.34Z" fill="#1A73E8"/>
<path d="M1601.97 226.562C1574.11 228.399 1551.46 253.489 1548.39 280.745C1545.15 309.399 1568.21 331.198 1595.88 332.843C1623.55 334.489 1649.13 317.269 1655.85 290.342C1661.58 267.336 1652.31 228.701 1623.36 228.097C1614.99 227.905 1614.99 240.875 1623.36 241.067C1647.51 241.588 1647.27 281.814 1639.81 296.265C1631.58 312.47 1613.62 321.217 1595.77 319.874C1574.05 318.228 1557.14 300.679 1561.74 278.332C1565.66 259.357 1581.76 240.766 1601.86 239.449C1610.08 238.929 1610.08 225.959 1601.86 226.48L1601.97 226.562Z" fill="#1A73E8"/>
<path d="M1532.92 697.782C1504.44 816.577 1464.72 932.392 1414.3 1043.66C1411.56 1050 1418.99 1057.18 1424.47 1051.53C1449.82 1025.49 1478.38 1002.78 1509.48 983.968L1499.72 978.484C1494.61 1066.37 1479.9 1153.44 1455.84 1238.13C1453.68 1245.75 1463.49 1248.58 1467.69 1243.12C1495.49 1207.14 1520.76 1169.28 1543.34 1129.82L1531.28 1126.55L1544.99 1383.18C1545.43 1391.41 1558.42 1391.41 1557.96 1383.18L1544.25 1126.55C1543.89 1120.33 1535.47 1117.45 1532.15 1123.29C1509.53 1162.69 1484.24 1200.5 1456.47 1236.46L1468.32 1241.45C1492.68 1155.58 1507.57 1067.31 1512.71 978.21C1512.65 975.917 1511.39 973.826 1509.39 972.702C1507.39 971.579 1504.94 971.588 1502.95 972.726C1470.87 992.107 1441.38 1015.49 1415.21 1042.32L1425.49 1050.3C1476.45 938.011 1516.62 821.131 1545.45 701.237C1547.4 693.01 1534.9 689.665 1532.92 697.782Z" fill="#1A73E8"/>
<path d="M1707.15 709.682C1733.59 824.628 1757.99 940.031 1780.37 1055.89L1791.33 1049.59L1711.98 984.708C1709.64 982.548 1706.09 982.386 1703.57 984.325C1701.05 986.264 1700.29 989.739 1701.78 992.551C1724.63 1040.88 1738.75 1092.86 1743.48 1146.1L1754.45 1141.53C1733.05 1118.59 1706.75 1100.78 1677.51 1089.43C1672.49 1087.45 1668.71 1093.07 1669.53 1097.41C1680.94 1156.49 1688.78 1216.21 1693 1276.24L1705.1 1272.98C1687.05 1249.18 1666.18 1227.67 1642.93 1208.92C1641.3 1207.28 1638.92 1206.62 1636.67 1207.18C1634.42 1207.74 1632.63 1209.45 1631.97 1211.67C1623.92 1234.5 1618.3 1258.11 1615.18 1282.11C1614.09 1290.34 1627.09 1290.34 1628.15 1282.11C1631.24 1259.27 1636.7 1236.82 1644.47 1215.12L1633.5 1217.86C1656.04 1235.83 1676.3 1256.48 1693.83 1279.37C1697.28 1283.89 1706.41 1283.26 1705.92 1276.08C1701.61 1214.89 1693.61 1154.01 1681.98 1093.79L1674 1101.77C1701.12 1112.42 1725.48 1129.05 1745.29 1150.41C1748.91 1154.3 1756.87 1151.48 1756.26 1145.83C1751.35 1090.34 1736.64 1036.16 1712.8 985.805L1702.6 993.647L1781.96 1058.55C1784.07 1060.52 1787.23 1060.86 1789.72 1059.41C1792.22 1057.95 1793.46 1055.03 1792.79 1052.22C1770.5 936.54 1746.14 821.21 1719.71 706.227C1717.82 698.001 1705.32 701.538 1707.18 709.682H1707.15Z" fill="#1A73E8"/>
<path d="M1268.67 1073.14C1241.52 1071.55 1217.33 1090.18 1211.94 1116.85C1207.35 1140.49 1222.67 1163.41 1246.27 1168.21L1244.73 1156.36C1227.29 1166.48 1219.12 1190.28 1230.15 1208.18C1241.17 1226.09 1265.96 1229.93 1282.9 1218.82L1274.05 1216.49C1287.76 1238.43 1318.25 1238.43 1330.56 1215.04C1334.45 1207.66 1323.27 1201.11 1319.37 1208.51C1311.78 1222.91 1294.25 1224.36 1285.23 1209.94C1283.39 1206.9 1279.46 1205.87 1276.38 1207.64C1265.41 1214.82 1248.96 1213.59 1241.36 1201.63C1233.77 1189.68 1239.96 1174.21 1251.29 1167.55C1255.81 1164.81 1255.37 1156.77 1249.72 1155.7C1241.06 1154.11 1233.47 1148.94 1228.81 1141.46C1224.16 1133.98 1222.88 1124.88 1225.29 1116.41C1230.76 1097.34 1248.89 1084.74 1268.67 1086.25C1276.9 1086.79 1276.9 1073.83 1268.67 1073.28V1073.14Z" fill="#1A73E8"/>
<path d="M1696.76 1415.92C1699.94 1437.04 1723.25 1449.16 1743.18 1444.03C1767.17 1437.89 1777.84 1411.12 1776.61 1388.58L1764.51 1391.85C1775.7 1410.88 1800.33 1424.5 1821.91 1413.78C1840.47 1404.57 1848.42 1380.25 1837.34 1362.53L1827.17 1370.4C1850.7 1389.6 1879.9 1360.56 1886.21 1337.88C1894.43 1307.89 1875.9 1278.41 1847 1269.33C1839.02 1266.81 1835.59 1279.34 1843.54 1281.84C1862.19 1287.68 1876.03 1304.65 1875.32 1324.69C1874.8 1334.71 1870.94 1344.26 1864.35 1351.81C1858.51 1358.48 1845.4 1368.57 1836.38 1361.19C1831.06 1356.83 1822.02 1362.37 1826.21 1369.06C1833.83 1381.26 1827.36 1398.21 1813.82 1403.14C1798.76 1408.63 1783.11 1397.66 1775.76 1385.24C1772.63 1379.92 1763.31 1381.92 1763.69 1388.53C1764.54 1404.32 1759.5 1422.75 1743.84 1429.91C1729.58 1436.43 1711.7 1428.21 1709.32 1412.41C1708.08 1404.19 1695.61 1407.7 1696.81 1415.87L1696.76 1415.92Z" fill="#1A73E8"/>
<path d="M1902.44 894.002C1924.9 878.811 1942.75 915.582 1916.62 923.123C1914.17 923.885 1912.38 926.002 1912.05 928.546C1911.71 931.089 1912.89 933.596 1915.05 934.968C1923.77 941.22 1932.66 949.391 1935.21 960.277C1937.76 971.163 1931.2 984.599 1918.76 984.956C1911.74 985.12 1909.6 996.28 1917.03 997.706C1929.12 1000.01 1924.93 1013.2 1916.56 1017.37C1908.2 1021.53 1898.44 1018.76 1890.05 1016.13C1882.07 1013.64 1878.64 1026.14 1886.59 1028.64C1903.21 1033.85 1926.38 1035.08 1935.43 1016.41C1938.44 1010.36 1938.49 1003.25 1935.57 997.156C1932.65 991.059 1927.09 986.649 1920.48 985.202L1918.76 997.925C1934.55 997.569 1946.45 985.339 1948.45 969.819C1950.97 950.132 1936.33 934.447 1921.55 923.863L1919.99 935.708C1937.07 930.8 1948.48 911.304 1940.69 894.276C1932.9 877.248 1910.53 872.888 1895.83 882.869C1888.95 887.531 1895.45 898.773 1902.39 894.084L1902.44 894.002Z" fill="#1A73E8"/>
<path d="M1327.6 821.502C1316.11 830.69 1303.39 838.222 1289.81 843.877C1287.62 844.572 1285.94 846.358 1285.38 848.595C1284.82 850.831 1285.46 853.198 1287.07 854.845C1296.73 867.357 1309.01 877.604 1323.05 884.871V873.656L1265.74 913.032C1258.91 917.748 1265.38 928.99 1272.29 924.246L1329.6 884.871C1333.38 882.129 1334.21 876.069 1329.6 873.656C1316.55 866.89 1305.16 857.331 1296.23 845.66L1293.49 856.628C1309.11 850.128 1323.75 841.471 1336.98 830.907C1343.5 825.698 1334.23 816.594 1327.82 821.722L1327.6 821.502Z" fill="#1A73E8"/>
<path d="M1829.39 756.214C1844.2 760.265 1858.08 767.167 1870.25 776.533V765.318L1830.95 787.995C1829.01 789.192 1827.82 791.315 1827.82 793.602C1827.82 795.889 1829.01 798.012 1830.95 799.21L1858.9 817.691C1865.89 822.325 1872.39 811.083 1865.45 806.476L1837.62 787.995V799.21L1876.91 776.533C1881.52 773.791 1880.61 768.17 1876.91 765.318C1863.82 755.346 1848.92 748.008 1833.04 743.711C1824.98 741.517 1821.55 754.021 1829.61 756.214H1829.39Z" fill="#1A73E8"/>
<path d="M1879 1137.85C1899.19 1150.8 1918.44 1165.17 1936.58 1180.87L1939.32 1169.91C1927.76 1173.68 1916.64 1178.7 1906.17 1184.88C1904.22 1186.07 1903.03 1188.2 1903.03 1190.48C1903.03 1192.77 1904.22 1194.9 1906.17 1196.09C1922.42 1207.42 1939.67 1217.24 1957.72 1225.4C1965.26 1228.83 1971.87 1217.67 1964.25 1214.22C1946.2 1206.03 1928.95 1196.21 1912.69 1184.88V1196.09C1922.23 1190.49 1932.34 1185.95 1942.86 1182.55C1947.16 1181.15 1949.6 1175.06 1945.6 1171.58C1926.59 1155.14 1906.43 1140.09 1885.27 1126.53C1878.23 1122 1871.73 1133.24 1878.72 1137.71L1879 1137.85Z" fill="#1A73E8"/>
<path d="M1357.93 1323.19L1340.51 1372.02C1339.58 1375.47 1341.6 1379.03 1345.04 1380L1389.43 1389.41L1384.91 1381.45L1366.7 1438.52C1364.15 1446.5 1376.68 1449.9 1379.2 1441.97L1397.41 1384.83C1398.34 1381.38 1396.33 1377.82 1392.89 1376.85L1348.49 1367.42L1353.02 1375.39L1370.43 1326.59C1373.17 1318.69 1360.72 1315.32 1357.93 1323.13V1323.19Z" fill="#1A73E8"/>
<path d="M1486.45 1456.37C1491.93 1474.3 1499.22 1494.75 1518.58 1501.61C1534.29 1507.09 1552.17 1498.87 1555.33 1481.98H1542.82C1552.09 1513.65 1597.66 1507.07 1596.35 1473.75C1596.02 1465.52 1583.05 1465.52 1583.35 1473.75C1584.06 1491.88 1560.67 1496.89 1555.33 1478.66C1553.65 1472.9 1544.06 1472.11 1542.82 1478.66C1539.5 1496.37 1519.93 1490.97 1511.48 1481.02C1504.76 1473.09 1501.88 1462.81 1498.95 1453.05C1496.54 1445.1 1484.03 1448.47 1486.45 1456.5V1456.37Z" fill="#1A73E8"/>
<path d="M324.531 441.264H336.349V453.082H324.531V441.264Z" fill="#BAD5F8"/>
<path d="M269.17 447.324C269.599 447.352 270.03 447.352 270.459 447.324H269.581H269.993C270.541 447.516 270.541 447.488 269.993 447.324C269.444 447.159 269.499 447.105 269.993 447.324C270.925 448.064 269.362 446.611 269.993 447.324C270.228 447.6 270.484 447.857 270.761 448.092C270.514 448.092 269.856 447.022 270.623 448.092C271.035 448.64 270.294 446.83 270.623 447.927C270.952 449.024 270.623 446.474 270.623 447.927C270.846 451.345 273.683 454.004 277.108 454.004C280.534 454.004 283.371 451.345 283.593 447.927C283.487 444.256 281.912 440.781 279.221 438.281C276.53 435.781 272.949 434.465 269.28 434.628C265.726 434.702 262.867 437.573 262.809 441.127C262.98 444.539 265.754 447.242 269.17 447.324Z" fill="#192939"/>
<path d="M382.334 521.084L391.849 527.007C394.94 528.796 398.895 527.755 400.706 524.676C402.452 521.586 401.433 517.668 398.402 515.82L388.888 509.897C385.793 508.117 381.843 509.141 380.003 512.2C378.274 515.308 379.302 519.226 382.334 521.084Z" fill="#192939"/>
<path d="M381.375 1018.16C419.913 987.402 461.748 961.018 506.11 939.493C528.763 928.368 552.088 918.67 575.95 910.454C600.299 902.228 629.365 895.922 650.205 915.335C656.292 921.039 665.505 911.88 659.363 906.177C619.85 869.296 557.908 901.68 517.024 919.887C465.222 943.315 416.572 973.163 372.217 1008.73C365.691 1013.94 374.959 1023.07 381.375 1017.91V1018.16Z" fill="#192939"/>
<path d="M381.209 1346.93C383.018 1344.69 385.819 1343.47 388.695 1343.7C396.921 1343.94 396.921 1330.97 388.695 1330.73C381.228 1330.6 374.198 1334.23 369.994 1340.41C368.205 1343.5 369.246 1347.45 372.325 1349.26C375.432 1350.99 379.351 1349.96 381.209 1346.93Z" fill="#1A73E8"/>
<path d="M442.741 1337.25H447.046C450.612 1337.22 453.5 1334.35 453.544 1330.78C453.486 1327.22 450.61 1324.34 447.046 1324.28H442.741C440.323 1324.13 438.019 1325.33 436.763 1327.4C435.506 1329.47 435.506 1332.07 436.763 1334.14C438.019 1336.21 440.323 1337.41 442.741 1337.25Z" fill="#1A73E8"/>
<path d="M410.85 1379.97L417.239 1382.09C420.689 1383.02 424.246 1381 425.219 1377.56C426.088 1374.12 424.094 1370.6 420.694 1369.58L414.168 1367.47C410.712 1366.56 407.162 1368.58 406.189 1372.02C405.337 1375.47 407.339 1378.98 410.741 1380L410.85 1379.97Z" fill="#1A73E8"/>
<path d="M479.484 1410.77H481.65C484.068 1410.92 486.372 1409.72 487.628 1407.65C488.885 1405.58 488.885 1402.98 487.628 1400.91C486.372 1398.84 484.068 1397.64 481.65 1397.8H479.484C476.066 1398.02 473.407 1400.86 473.407 1404.28C473.407 1407.71 476.066 1410.54 479.484 1410.77Z" fill="#1A73E8"/>
<path d="M421.106 1438.87H423.272C425.69 1439.03 427.994 1437.83 429.25 1435.76C430.507 1433.69 430.507 1431.09 429.25 1429.02C427.994 1426.95 425.69 1425.75 423.272 1425.9H421.106C417.688 1426.13 415.029 1428.96 415.029 1432.39C415.029 1435.81 417.688 1438.65 421.106 1438.87Z" fill="#1A73E8"/>
<path d="M369.501 1408.87L371.64 1406.71C374.145 1404.16 374.145 1400.07 371.64 1397.52C369.082 1395.06 365.039 1395.06 362.482 1397.52L360.315 1399.69C358.586 1401.31 357.878 1403.75 358.468 1406.04C359.057 1408.34 360.851 1410.13 363.147 1410.72C365.443 1411.31 367.879 1410.6 369.501 1408.87Z" fill="#1A73E8"/>
<path d="M470.572 1460.75L472.739 1462.92C475.294 1465.41 479.369 1465.41 481.925 1462.92C484.372 1460.35 484.372 1456.31 481.925 1453.73L479.758 1451.6C478.161 1449.78 475.687 1449 473.336 1449.57C470.985 1450.14 469.147 1451.98 468.567 1454.33C467.986 1456.67 468.759 1459.15 470.572 1460.75Z" fill="#1A73E8"/>
<path d="M364.483 1469.01C365.279 1468.84 365.416 1468.82 364.867 1469.01H365.58C366.046 1468.98 366.513 1468.98 366.979 1469.01C366.54 1469.01 366.567 1469.01 366.979 1469.01C367.39 1469.01 368.679 1469.45 368.569 1469.39L370.324 1470.38C373.413 1472.18 377.379 1471.14 379.181 1468.05C380.983 1464.96 379.939 1460.99 376.85 1459.19C372.14 1456.21 366.438 1455.22 361.001 1456.45C357.573 1457.43 355.562 1460.98 356.477 1464.43C357.498 1467.83 361.014 1469.82 364.456 1468.95L364.483 1469.01Z" fill="#1A73E8"/>
<path d="M440.574 1490.75V1495.08C440.417 1497.5 441.617 1499.81 443.689 1501.06C445.76 1502.32 448.358 1502.32 450.43 1501.06C452.501 1499.81 453.701 1497.5 453.544 1495.08V1490.75C453.322 1487.33 450.485 1484.68 447.059 1484.68C443.634 1484.68 440.797 1487.33 440.574 1490.75Z" fill="#1A73E8"/>
<path d="M384.336 1536.16H390.807C393.224 1536.32 395.529 1535.12 396.785 1533.05C398.041 1530.97 398.041 1528.38 396.785 1526.3C395.529 1524.23 393.224 1523.03 390.807 1523.19H384.336C381.918 1523.03 379.614 1524.23 378.357 1526.3C377.101 1528.38 377.101 1530.97 378.357 1533.05C379.614 1535.12 381.918 1536.32 384.336 1536.16Z" fill="#1A73E8"/>
<path d="M430.704 1548.47L435.036 1550.64C438.118 1552.3 441.961 1551.22 443.728 1548.19C445.494 1545.17 444.548 1541.29 441.589 1539.42L437.257 1537.26C434.175 1535.6 430.332 1536.68 428.565 1539.7C426.799 1542.72 427.745 1546.6 430.704 1548.47Z" fill="#1A73E8"/>
<path d="M351.925 1510.22H354.174C356.591 1510.38 358.895 1509.18 360.152 1507.11C361.408 1505.04 361.408 1502.44 360.152 1500.37C358.895 1498.29 356.591 1497.09 354.174 1497.25H352.007C348.589 1497.47 345.931 1500.31 345.931 1503.74C345.931 1507.16 348.589 1510 352.007 1510.22H351.925Z" fill="#1A73E8"/>
<path d="M408.137 1490.75V1492.92C407.98 1495.34 409.18 1497.64 411.251 1498.9C413.323 1500.15 415.921 1500.15 417.992 1498.9C420.063 1497.64 421.264 1495.34 421.107 1492.92V1490.75C420.884 1487.33 418.047 1484.68 414.622 1484.68C411.196 1484.68 408.359 1487.33 408.137 1490.75Z" fill="#1A73E8"/>
<path d="M374.546 1602.11L378.878 1599.94C381.948 1598.11 382.985 1594.16 381.209 1591.06C379.351 1588.02 375.432 1587 372.325 1588.73L368.02 1590.89C364.951 1592.72 363.914 1596.67 365.689 1599.78C367.546 1602.79 371.445 1603.82 374.546 1602.11Z" fill="#1A73E8"/>
<path d="M442.988 1592.13L440.822 1589.96C438.293 1587.43 434.192 1587.43 431.663 1589.96C429.134 1592.49 429.134 1596.59 431.663 1599.12L433.83 1601.28C436.359 1603.81 440.459 1603.81 442.988 1601.28C445.517 1598.76 445.517 1594.65 442.988 1592.13Z" fill="#1A73E8"/>
<path d="M353.652 1559.71L364.456 1557.55C367.895 1556.58 369.92 1553.03 369.008 1549.57C367.986 1546.17 364.47 1544.18 361.028 1545.04L350.197 1547.21C346.769 1548.2 344.758 1551.74 345.673 1555.19C346.694 1558.59 350.21 1560.58 353.652 1559.71Z" fill="#1A73E8"/>
<path d="M494.621 1555.63C502.847 1555.63 502.847 1542.66 494.621 1542.66C486.394 1542.66 486.257 1555.63 494.621 1555.63Z" fill="#1A73E8"/>
<path d="M494.62 1542.66H492.454C489.036 1542.88 486.377 1545.72 486.377 1549.14C486.377 1552.57 489.036 1555.41 492.454 1555.63H494.62C497.037 1555.79 499.342 1554.59 500.598 1552.51C501.855 1550.44 501.855 1547.84 500.598 1545.77C499.342 1543.7 497.037 1542.5 494.62 1542.66Z" fill="#1A73E8"/>
<path d="M491.522 1611.18L495.827 1608.99C497.311 1608.12 498.391 1606.71 498.829 1605.04C499.266 1603.38 499.024 1601.62 498.158 1600.13C496.319 1597.09 492.398 1596.06 489.301 1597.8L484.996 1600C483.511 1600.86 482.432 1602.28 481.994 1603.94C481.557 1605.6 481.798 1607.37 482.665 1608.85C484.513 1611.88 488.423 1612.91 491.522 1611.18Z" fill="#1A73E8"/>
<path d="M555.164 1611.84V1607.51C554.942 1604.09 552.105 1601.43 548.679 1601.43C545.254 1601.43 542.417 1604.09 542.194 1607.51V1611.84C542.224 1615.4 545.104 1618.28 548.666 1618.31C552.22 1618.25 555.091 1615.39 555.164 1611.84Z" fill="#1A73E8"/>
<path d="M546.5 1572.93C554.863 1572.93 554.863 1559.96 546.5 1559.96C538.137 1559.96 538.137 1572.93 546.5 1572.93Z" fill="#1A73E8"/>
<path d="M515.761 1505.48L522.232 1503.28C524.598 1502.79 526.492 1501.01 527.148 1498.69C527.804 1496.36 527.113 1493.86 525.356 1492.2C523.598 1490.54 521.063 1489.99 518.777 1490.78L512.306 1492.97C509.06 1494.09 507.244 1497.54 508.158 1500.85C509.072 1504.16 512.402 1506.18 515.761 1505.48Z" fill="#1A73E8"/>
<path d="M570.301 1492.92V1497.25C570.144 1499.67 571.344 1501.97 573.415 1503.23C575.487 1504.49 578.085 1504.49 580.156 1503.23C582.228 1501.97 583.428 1499.67 583.271 1497.25V1492.92C583.048 1489.5 580.211 1486.84 576.786 1486.84C573.36 1486.84 570.523 1489.5 570.301 1492.92Z" fill="#1A73E8"/>
<path d="M579.02 1562.1H581.186C584.604 1561.88 587.263 1559.04 587.263 1555.62C587.263 1552.19 584.604 1549.35 581.186 1549.13H579.02C576.603 1548.97 574.298 1550.17 573.042 1552.24C571.785 1554.32 571.785 1556.91 573.042 1558.99C574.298 1561.06 576.603 1562.26 579.02 1562.1Z" fill="#1A73E8"/>
<path d="M607.318 1609.95L609.457 1607.78C611.728 1605.21 611.611 1601.32 609.189 1598.89C606.768 1596.46 602.876 1596.33 600.299 1598.6L598.132 1600.76C595.642 1603.32 595.642 1607.39 598.132 1609.95C600.705 1612.4 604.746 1612.4 607.318 1609.95Z" fill="#1A73E8"/>
<path d="M641.895 1607.26L639.729 1605.1C637.2 1602.57 633.1 1602.57 630.571 1605.1C628.042 1607.62 628.042 1611.73 630.571 1614.25L632.737 1616.42C635.266 1618.95 639.366 1618.95 641.895 1616.42C644.424 1613.89 644.424 1609.79 641.895 1607.26Z" fill="#1A73E8"/>
<path d="M623.523 1535.15C623.907 1534.6 623.798 1534.82 623.523 1535.15C623.825 1534.84 624.099 1534.49 624.401 1534.19L625.141 1533.45C625.361 1533.25 626.348 1532.49 625.141 1533.31C625.695 1532.89 626.272 1532.51 626.869 1532.16L628.048 1531.55C628.87 1531.09 626.649 1532.08 628.185 1531.55C630.551 1531.06 632.445 1529.29 633.101 1526.96C633.757 1524.63 633.066 1522.13 631.308 1520.47C629.551 1518.81 627.016 1518.26 624.73 1519.05C619.676 1520.85 615.319 1524.2 612.281 1528.62C610.508 1531.71 611.546 1535.66 614.612 1537.48C617.721 1539.19 621.629 1538.17 623.496 1535.15H623.523Z" fill="#1A73E8"/>
<path d="M653.879 1557.22L656.017 1548.58C656.725 1545.22 654.698 1541.89 651.389 1540.98C648.08 1540.06 644.631 1541.88 643.514 1545.13L641.375 1553.79C640.428 1557.24 642.46 1560.81 645.913 1561.76C649.366 1562.7 652.932 1560.67 653.879 1557.22Z" fill="#1A73E8"/>
<path d="M669.755 1449.68H665.423C663.005 1449.52 660.701 1450.72 659.444 1452.79C658.188 1454.86 658.188 1457.46 659.444 1459.53C660.701 1461.6 663.005 1462.8 665.423 1462.65H669.755C673.317 1462.62 676.196 1459.74 676.226 1456.18C676.168 1452.62 673.309 1449.75 669.755 1449.68Z" fill="#1A73E8"/>
<path d="M628.679 1469.14V1462.65C628.679 1459.06 625.769 1456.15 622.18 1456.15C618.591 1456.15 615.682 1459.06 615.682 1462.65V1469.14C615.682 1472.73 618.591 1475.64 622.18 1475.64C625.769 1475.64 628.679 1472.73 628.679 1469.14Z" fill="#1A73E8"/>
<path d="M550.833 1421.57H548.667C545.248 1421.79 542.59 1424.63 542.59 1428.06C542.59 1431.48 545.248 1434.32 548.667 1434.54H550.833C553.25 1434.7 555.555 1433.5 556.811 1431.43C558.067 1429.36 558.067 1426.76 556.811 1424.69C555.555 1422.61 553.25 1421.41 550.833 1421.57Z" fill="#1A73E8"/>
<path d="M535.724 1454.04L539.974 1449.65C541.703 1448.03 542.411 1445.59 541.821 1443.29C541.232 1441 539.439 1439.2 537.142 1438.62C534.846 1438.03 532.411 1438.73 530.788 1440.46L526.538 1444.85C524.809 1446.47 524.101 1448.91 524.691 1451.2C525.28 1453.5 527.073 1455.29 529.37 1455.88C531.666 1456.47 534.101 1455.76 535.724 1454.04Z" fill="#1A73E8"/>
<path d="M535.696 1378.33C544.059 1378.33 544.059 1365.36 535.696 1365.36C527.333 1365.36 527.333 1378.33 535.696 1378.33Z" fill="#1A73E8"/>
<path d="M505.424 1361.05V1356.72C505.581 1354.3 504.381 1352 502.31 1350.74C500.238 1349.49 497.64 1349.49 495.569 1350.74C493.497 1352 492.297 1354.3 492.454 1356.72V1361.05C492.677 1364.47 495.514 1367.13 498.939 1367.13C502.364 1367.13 505.202 1364.47 505.424 1361.05Z" fill="#1A73E8"/>
<path d="M503.257 1328.62C511.62 1328.62 511.62 1315.65 503.257 1315.65C494.894 1315.65 495.031 1328.62 503.257 1328.62Z" fill="#1A73E8"/>
<path d="M580.83 1307.25L582.996 1309.42C585.552 1311.91 589.627 1311.91 592.182 1309.42C594.63 1306.85 594.63 1302.81 592.182 1300.23L590.016 1298.1C587.466 1295.59 583.38 1295.59 580.83 1298.1C578.372 1300.65 578.372 1304.7 580.83 1307.25Z" fill="#1A73E8"/>
<path d="M596.24 1393.47V1391.33C596.398 1388.91 595.197 1386.6 593.126 1385.35C591.055 1384.09 588.456 1384.09 586.385 1385.35C584.314 1386.6 583.113 1388.91 583.271 1391.33V1393.47C583.113 1395.88 584.314 1398.19 586.385 1399.44C588.456 1400.7 591.055 1400.7 593.126 1399.44C595.197 1398.19 596.398 1395.88 596.24 1393.47Z" fill="#1A73E8"/>
<path d="M550.833 1326.45H559.47C561.888 1326.61 564.192 1325.41 565.448 1323.33C566.705 1321.26 566.705 1318.67 565.448 1316.59C564.192 1314.52 561.888 1313.32 559.47 1313.48H550.833C548.415 1313.32 546.111 1314.52 544.854 1316.59C543.598 1318.67 543.598 1321.26 544.854 1323.33C546.111 1325.41 548.415 1326.61 550.833 1326.45Z" fill="#1A73E8"/>
<path d="M626.238 1359.13L628.404 1361.3C630.933 1363.83 635.034 1363.83 637.563 1361.3C640.092 1358.77 640.092 1354.67 637.563 1352.14L635.424 1349.98C632.854 1347.71 628.961 1347.82 626.532 1350.24C624.103 1352.67 623.975 1356.56 626.238 1359.13Z" fill="#1A73E8"/>
<path d="M634.463 1440.08L636.63 1435.77C637.8 1433.78 637.816 1431.31 636.67 1429.29C635.525 1427.28 633.393 1426.03 631.077 1426.02C628.761 1426 626.613 1427.22 625.442 1429.22L623.276 1433.55C621.474 1436.64 622.517 1440.61 625.607 1442.41C628.696 1444.21 632.661 1443.17 634.463 1440.08Z" fill="#1A73E8"/>
<path d="M687.029 1402.13V1397.8C686.807 1394.38 683.97 1391.72 680.544 1391.72C677.119 1391.72 674.282 1394.38 674.06 1397.8V1402.13C674.282 1405.55 677.119 1408.21 680.544 1408.21C683.97 1408.21 686.807 1405.55 687.029 1402.13Z" fill="#1A73E8"/>
<path d="M713.379 1388.89L711.213 1386.72C708.636 1384.46 704.744 1384.58 702.322 1387.01C699.901 1389.44 699.784 1393.33 702.055 1395.9L704.221 1398.07C706.798 1400.33 710.69 1400.21 713.112 1397.78C715.533 1395.35 715.651 1391.46 713.379 1388.89Z" fill="#1A73E8"/>
<path d="M644.83 1290.58L640.498 1292.75C637.415 1294.57 636.376 1298.53 638.167 1301.63C640.034 1304.66 643.951 1305.67 647.051 1303.94L651.384 1301.8C654.343 1299.93 655.288 1296.05 653.522 1293.03C651.756 1290 647.912 1288.92 644.83 1290.58Z" fill="#1A73E8"/>
<path d="M691.443 1343.7V1341.53C691.221 1338.11 688.384 1335.45 684.958 1335.45C681.533 1335.45 678.696 1338.11 678.474 1341.53V1343.7C678.696 1347.11 681.533 1349.77 684.958 1349.77C688.384 1349.77 691.221 1347.11 691.443 1343.7Z" fill="#1A73E8"/>
<path d="M689.223 1276.63C695.032 1276.89 700.291 1273.21 702.028 1267.66C702.957 1264.2 700.926 1260.64 697.477 1259.68C694.037 1258.83 690.53 1260.81 689.497 1264.2L689.881 1263.38L689.717 1263.71C689.058 1264.34 689.936 1263.44 690.073 1263.35C689.886 1263.52 689.712 1263.71 689.552 1263.9C688.784 1264.7 690.457 1263.41 689.799 1263.68C689.607 1263.68 688.757 1264.2 689.799 1263.68C690.841 1263.16 689.799 1263.68 689.662 1263.68C689.525 1263.68 690.896 1263.68 690.265 1263.68H689.305C685.727 1263.68 682.822 1266.58 682.807 1270.15C682.907 1273.7 685.759 1276.55 689.305 1276.65L689.223 1276.63Z" fill="#1A73E8"/>
<path d="M730.272 1263.77V1265.91C730.114 1268.32 731.315 1270.63 733.386 1271.88C735.457 1273.14 738.056 1273.14 740.127 1271.88C742.198 1270.63 743.399 1268.32 743.241 1265.91V1263.77C743.212 1260.2 740.336 1257.31 736.77 1257.27C733.206 1257.33 730.33 1260.2 730.272 1263.77Z" fill="#1A73E8"/>
<path d="M736.769 1348.08C744.995 1348.08 745.132 1335.11 736.769 1335.11C728.406 1335.11 728.543 1348.08 736.769 1348.08Z" fill="#1A73E8"/>
<path d="M721.881 1309.42L728.38 1302.92C730.643 1300.35 730.515 1296.45 728.086 1294.03C725.657 1291.61 721.764 1291.49 719.194 1293.76L712.723 1300.24C710.905 1301.83 710.125 1304.31 710.698 1306.66C711.271 1309.01 713.104 1310.85 715.453 1311.43C717.802 1312.01 720.279 1311.23 721.881 1309.42Z" fill="#1A73E8"/>
<path d="M771.348 1233.49V1239.97C771.19 1242.38 772.391 1244.69 774.462 1245.94C776.534 1247.2 779.132 1247.2 781.203 1245.94C783.274 1244.69 784.475 1242.38 784.318 1239.97V1233.49C784.288 1229.93 781.412 1227.04 777.846 1227C774.282 1227.05 771.406 1229.93 771.348 1233.49Z" fill="#1A73E8"/>
<path d="M767.043 1350.22C775.269 1350.22 775.406 1337.25 767.043 1337.25C758.68 1337.25 758.68 1350.22 767.043 1350.22Z" fill="#1A73E8"/>
<path d="M771.346 1298.23C776.378 1297.9 780.951 1295.19 783.658 1290.94C785.418 1287.84 784.384 1283.9 781.327 1282.06C778.22 1280.33 774.301 1281.35 772.443 1284.39C772.059 1284.96 772.169 1284.85 772.745 1284.08L772.196 1284.66C772.008 1284.86 771.807 1285.04 771.593 1285.21C772.388 1284.63 772.47 1284.52 771.922 1284.91L771.209 1285.29C772.141 1284.93 772.279 1284.85 771.62 1285.1C770.962 1285.35 769.345 1285.48 771.346 1285.26C769.642 1285.32 768.017 1286 766.767 1287.16C765.562 1288.39 764.884 1290.04 764.875 1291.76C764.905 1295.32 767.785 1298.2 771.346 1298.23Z" fill="#1A73E8"/>
<path d="M803.538 1295.88L805.677 1304.51C806.65 1307.95 810.2 1309.98 813.656 1309.06C817.056 1308.04 819.049 1304.53 818.18 1301.09L816.042 1292.42C814.924 1289.17 811.475 1287.36 808.166 1288.27C804.858 1289.19 802.831 1292.52 803.538 1295.88Z" fill="#1A73E8"/>
<path d="M806.363 1361.16L797.698 1363.33C794.26 1364.3 792.243 1367.86 793.174 1371.31C794.184 1374.72 797.71 1376.72 801.153 1375.83L809.818 1373.67C813.247 1372.68 815.258 1369.14 814.343 1365.69C813.321 1362.29 809.805 1360.29 806.363 1361.16Z" fill="#1A73E8"/>
<path d="M750.671 1394.95L755.003 1397.14C758.086 1398.8 761.929 1397.72 763.695 1394.7C765.461 1391.67 764.516 1387.79 761.557 1385.92L757.224 1383.76C754.135 1381.95 750.164 1382.99 748.354 1386.07C746.544 1389.16 747.582 1393.14 750.671 1394.95Z" fill="#1A73E8"/>
<path d="M827.668 1350.63L825.475 1357.11C824.544 1360.55 826.561 1364.11 829.999 1365.08C833.439 1365.94 836.945 1363.95 837.979 1360.56L840.2 1354.09C841.112 1350.63 839.087 1347.08 835.648 1346.11C832.206 1345.24 828.69 1347.23 827.668 1350.63Z" fill="#1A73E8"/>
<path d="M806.939 1437.83L802.634 1435.64C800.626 1434.37 798.085 1434.3 796.008 1435.45C793.931 1436.6 792.648 1438.8 792.663 1441.17C792.678 1443.55 793.989 1445.73 796.081 1446.85L800.386 1449.05C802.394 1450.32 804.935 1450.39 807.013 1449.24C809.09 1448.08 810.372 1445.89 810.357 1443.51C810.342 1441.14 809.031 1438.96 806.939 1437.83Z" fill="#1A73E8"/>
<path d="M792.9 1417.27H803.868C806.286 1417.42 808.59 1416.22 809.846 1414.15C811.103 1412.08 811.103 1409.48 809.846 1407.41C808.59 1405.34 806.286 1404.14 803.868 1404.3H792.9C790.483 1404.14 788.178 1405.34 786.922 1407.41C785.665 1409.48 785.665 1412.08 786.922 1414.15C788.178 1416.22 790.483 1417.42 792.9 1417.27Z" fill="#1A73E8"/>
<path d="M840.527 1417.27V1419.43C840.527 1423.02 843.437 1425.93 847.026 1425.93C850.615 1425.93 853.525 1423.02 853.525 1419.43V1417.27C853.525 1413.68 850.615 1410.77 847.026 1410.77C843.437 1410.77 840.527 1413.68 840.527 1417.27Z" fill="#1A73E8"/>
<path d="M838.389 1454.01H834.029C831.611 1453.85 829.307 1455.05 828.051 1457.12C826.794 1459.19 826.794 1461.79 828.051 1463.86C829.307 1465.94 831.611 1467.14 834.029 1466.98H838.361C841.779 1466.76 844.438 1463.92 844.438 1460.49C844.438 1457.07 841.779 1454.23 838.361 1454.01H838.389Z" fill="#1A73E8"/>
<path d="M749.74 1445.37V1447.54C749.963 1450.96 752.8 1453.61 756.225 1453.61C759.651 1453.61 762.488 1450.96 762.71 1447.54V1445.37C762.867 1442.95 761.667 1440.65 759.596 1439.39C757.524 1438.14 754.926 1438.14 752.855 1439.39C750.784 1440.65 749.583 1442.95 749.74 1445.37Z" fill="#1A73E8"/>
<path d="M748.808 1511.73L753.113 1509.54C756.191 1507.72 757.232 1503.77 755.444 1500.68C753.576 1497.66 749.669 1496.63 746.559 1498.35L742.254 1500.54C739.189 1502.36 738.151 1506.3 739.924 1509.4C741.791 1512.42 745.698 1513.44 748.808 1511.73Z" fill="#1A73E8"/>
<path d="M770.195 1481.32C776.516 1484.16 783.525 1485.12 790.376 1484.06C793.805 1483.08 795.815 1479.53 794.901 1476.08C793.867 1472.69 790.367 1470.69 786.921 1471.53C783.471 1472.01 779.955 1471.55 776.748 1470.19C773.644 1468.51 769.766 1469.53 767.892 1472.52C766.111 1475.61 767.135 1479.56 770.195 1481.4V1481.32Z" fill="#1A73E8"/>
<path d="M816.508 1493.19L818.647 1495.36C821.205 1497.76 825.208 1497.7 827.689 1495.22C830.17 1492.73 830.234 1488.73 827.833 1486.17L825.666 1484.01C823.089 1481.74 819.197 1481.87 816.775 1484.3C814.354 1486.73 814.237 1490.62 816.508 1493.19Z" fill="#1A73E8"/>
<path d="M788.65 1529.69H799.454C801.871 1529.85 804.175 1528.65 805.432 1526.57C806.688 1524.5 806.688 1521.91 805.432 1519.83C804.175 1517.76 801.871 1516.56 799.454 1516.72H788.65C785.088 1516.75 782.209 1519.63 782.179 1523.19C782.237 1526.74 785.096 1529.62 788.65 1529.69Z" fill="#1A73E8"/>
<path d="M857.831 1512.39V1514.55C858.054 1517.97 860.891 1520.63 864.316 1520.63C867.741 1520.63 870.579 1517.97 870.801 1514.55V1512.39C870.958 1509.97 869.758 1507.66 867.687 1506.41C865.615 1505.15 863.017 1505.15 860.946 1506.41C858.874 1507.66 857.674 1509.97 857.831 1512.39Z" fill="#1A73E8"/>
<path d="M842.694 1568.54H844.998C847.415 1568.7 849.719 1567.5 850.976 1565.43C852.232 1563.36 852.232 1560.76 850.976 1558.69C849.719 1556.62 847.415 1555.42 844.998 1555.57H842.832C839.414 1555.8 836.755 1558.63 836.755 1562.06C836.755 1565.48 839.414 1568.32 842.832 1568.54H842.694Z" fill="#1A73E8"/>
<path d="M866.496 1583.73H859.998C857.58 1583.58 855.276 1584.78 854.019 1586.85C852.763 1588.92 852.763 1591.52 854.019 1593.59C855.276 1595.66 857.58 1596.86 859.998 1596.7H866.496C869.914 1596.48 872.573 1593.65 872.573 1590.22C872.573 1586.79 869.914 1583.96 866.496 1583.73Z" fill="#1A73E8"/>
<path d="M809.625 1621.41L807.432 1617.11C805.601 1614.04 801.649 1613 798.547 1614.77C795.528 1616.64 794.502 1620.55 796.217 1623.66L798.41 1627.96C800.25 1631.02 804.191 1632.05 807.295 1630.29C810.314 1628.43 811.34 1624.52 809.625 1621.41Z" fill="#1A73E8"/>
<path d="M799.452 1585.9C807.815 1585.9 807.815 1572.93 799.452 1572.93C791.089 1572.93 791.089 1585.9 799.452 1585.9Z" fill="#1A73E8"/>
<path d="M734.603 1542.66V1544.83C734.825 1548.24 737.662 1550.9 741.088 1550.9C744.513 1550.9 747.35 1548.24 747.573 1544.83V1542.66C747.73 1540.24 746.529 1537.94 744.458 1536.68C742.387 1535.42 739.788 1535.42 737.717 1536.68C735.646 1537.94 734.445 1540.24 734.603 1542.66Z" fill="#1A73E8"/>
<path d="M738.058 1606.93L742.363 1604.74C745.429 1602.92 746.466 1598.97 744.694 1595.88C742.826 1592.86 738.919 1591.84 735.809 1593.55L731.504 1595.74C728.435 1597.58 727.398 1601.53 729.174 1604.63C731.041 1607.65 734.957 1608.67 738.058 1606.93Z" fill="#1A73E8"/>
<path d="M760.544 1570.76V1572.93C760.766 1576.35 763.604 1579.01 767.029 1579.01C770.454 1579.01 773.292 1576.35 773.514 1572.93V1570.76C773.671 1568.35 772.471 1566.04 770.399 1564.79C768.328 1563.53 765.73 1563.53 763.659 1564.79C761.587 1566.04 760.387 1568.35 760.544 1570.76Z" fill="#1A73E8"/>
<path d="M768.029 1632.35L772.362 1630.19C775.44 1628.37 776.481 1624.42 774.693 1621.33C772.834 1618.3 768.916 1617.27 765.808 1619L761.503 1621.16C758.434 1622.99 757.397 1626.95 759.173 1630.05C761.03 1633.07 764.937 1634.08 768.029 1632.35Z" fill="#1A73E8"/>
<path d="M847.027 1622.64C855.253 1622.64 855.39 1609.68 847.027 1609.68C838.664 1609.68 838.664 1622.64 847.027 1622.64Z" fill="#1A73E8"/>
<path d="M1600.81 248.086C1593.38 248.086 1590.34 256.066 1587.1 261.468L1571.56 286.502C1567.14 293.604 1578.36 300.213 1582.77 293.056L1593.74 275.178L1598.92 266.952L1601.88 262.18C1604.21 259.438 1603.86 259 1600.81 261.166C1609.04 261.166 1609.18 248.278 1600.81 248.196V248.086Z" fill="white"/>
<path d="M1613.21 267.007L1600.4 285.845C1595.69 292.782 1606.93 299.281 1611.59 292.398L1624.42 273.561C1629.11 266.623 1617.87 260.125 1613.21 267.007Z" fill="white"/>
<path d="M1573.28 40.8711C1534.56 110.739 1512.12 188.455 1507.64 268.214C1507.15 276.44 1520.12 276.44 1520.61 268.214C1525.01 190.749 1546.84 115.277 1584.47 47.4245C1588.53 40.1033 1577.34 33.5498 1573.28 40.8711Z" fill="white"/>
<path d="M1512.63 299.747L1515.37 298.293C1518.45 296.472 1519.49 292.508 1517.7 289.409C1515.85 286.393 1511.95 285.367 1508.85 287.078L1505.94 288.532C1502.88 290.371 1501.86 294.321 1503.64 297.416C1505.49 300.432 1509.39 301.458 1512.49 299.747H1512.63Z" fill="white"/>
<path d="M1507.59 341.782C1511.39 388.049 1516.38 434.171 1522.56 480.145C1523.63 488.372 1536.62 488.372 1535.53 480.145C1529.37 434.171 1524.38 388.049 1520.55 341.782C1519.87 333.556 1506.84 333.556 1507.59 341.782Z" fill="white"/>
<path d="M1493.98 584.452L1468.89 611.571C1462.42 618.591 1454.42 625.473 1455.18 635.811C1455.87 644.037 1468.89 644.037 1468.15 635.811C1467.41 627.585 1480.14 618.399 1485.13 612.97L1503.06 593.529C1508.71 587.386 1499.55 578.201 1493.87 584.343L1493.98 584.452Z" fill="white"/>
<path d="M1473.75 667.893L1476.68 665.151C1479.18 662.611 1479.18 658.533 1476.68 655.992C1474.11 653.531 1470.06 653.531 1467.5 655.992L1464.59 658.734C1462.08 661.284 1462.08 665.371 1464.59 667.92C1467.15 670.379 1471.19 670.379 1473.75 667.92V667.893Z" fill="white"/>
<path d="M1599.06 589.251C1591.55 621.717 1606.98 651.632 1610.03 683.577C1610.8 691.803 1623.74 691.803 1623 683.577C1620.26 653.415 1604.63 623.252 1611.67 592.706C1613.56 584.48 1601.06 581.107 1599.17 589.251H1599.06Z" fill="white"/>
<path d="M943.08 710.751C976.479 704.582 1011.63 704.417 1045.61 704.993C1081.1 705.625 1116.51 708.666 1151.59 714.096C1159.81 715.358 1163.27 702.854 1155.01 701.593C1085.31 690.871 1009.44 685.333 939.626 698.247C931.399 699.756 934.909 712.259 943.08 710.751Z" fill="white"/>
<path d="M1173.52 722.953C1181.75 722.953 1181.89 709.983 1173.52 709.983C1165.16 709.983 1165.3 722.953 1173.52 722.953Z" fill="white"/>
<path d="M1290.99 300.898C1298.48 292.974 1305.88 309.673 1307.74 314.608C1310.68 322.341 1323.24 318.996 1320.25 311.181C1317.07 302.79 1313.31 293.522 1305 289.025C1297.54 284.587 1288.03 285.712 1281.8 291.767C1276.07 297.827 1285.23 307.013 1290.99 300.926V300.898Z" fill="white"/>
<path d="M296.837 725.421C308.518 721.253 321.515 714.453 333.8 712.396C345.481 710.477 345.837 723.501 353.57 729.863C367.444 741.27 386.063 736.06 400.568 728.958C404.709 726.956 414.278 719.498 419.214 721.774C420.914 722.569 424.342 730.494 426.234 732.413C431.591 737.768 438.592 741.167 446.114 742.065C453.935 742.73 461.766 740.907 468.489 736.855C477.4 732.057 486.668 722.076 497.664 724.132C505.89 725.64 509.318 713.164 501.119 711.628C481.047 707.872 471.669 725.75 453.736 729.013C436.489 732.139 436.27 717.688 426.179 710.065C420.421 705.706 414.69 707.652 408.657 710.34C397.36 715.358 386.364 724.05 373.395 723.639C358.697 723.118 358.944 711.135 350.444 703.073C344.494 697.452 337.83 697.589 330.345 699.865C317.868 703.485 305.666 708.557 293.382 712.917C285.567 715.659 288.94 728.245 296.837 725.421Z" fill="white"/>
<path d="M304.816 815.058L306.982 814.373C310.228 813.255 312.044 809.806 311.13 806.497C310.216 803.189 306.886 801.162 303.527 801.869L301.361 802.554C298.995 803.053 297.101 804.823 296.445 807.151C295.789 809.478 296.48 811.977 298.237 813.638C299.995 815.298 302.53 815.845 304.816 815.058Z" fill="white"/>
<path d="M326.752 813.029H328.177C331.744 812.999 334.631 810.124 334.676 806.558C334.617 802.993 331.742 800.118 328.177 800.059H326.752C324.334 799.902 322.03 801.102 320.773 803.173C319.517 805.245 319.517 807.843 320.773 809.914C322.03 811.986 324.334 813.186 326.752 813.029Z" fill="white"/>
<path d="M354.803 811.74C363.029 811.74 363.029 798.771 354.803 798.771C346.577 798.771 346.44 811.74 354.803 811.74Z" fill="white"/>
<path d="M379.317 812.316C387.543 812.316 387.543 799.346 379.317 799.346C371.091 799.346 370.954 812.316 379.317 812.316Z" fill="white"/>
<path d="M363.441 823.86H362.728C360.311 823.703 358.006 824.903 356.75 826.974C355.494 829.046 355.494 831.644 356.75 833.715C358.006 835.787 360.311 836.987 362.728 836.83H363.441C365.859 836.987 368.163 835.787 369.419 833.715C370.676 831.644 370.676 829.046 369.419 826.974C368.163 824.903 365.859 823.703 363.441 823.86Z" fill="white"/>
<path d="M341.121 836.83C349.347 836.83 349.347 823.86 341.121 823.86C332.894 823.86 332.757 836.83 341.121 836.83Z" fill="white"/>
<path d="M316.607 836.83C324.833 836.83 324.833 823.86 316.607 823.86C308.381 823.86 308.244 836.83 316.607 836.83Z" fill="white"/>
<path d="M293.546 837.543C301.772 837.543 301.91 824.573 293.546 824.573C285.183 824.573 285.32 837.543 293.546 837.543Z" fill="white"/>
<path d="M294.258 860.603H295.712C299.13 860.381 301.788 857.543 301.788 854.118C301.788 850.693 299.13 847.856 295.712 847.633H294.258C290.84 847.856 288.182 850.693 288.182 854.118C288.182 857.543 290.84 860.381 294.258 860.603Z" fill="white"/>
<path d="M324.531 858.355H325.244C327.661 858.513 329.966 857.312 331.222 855.241C332.478 853.169 332.478 850.571 331.222 848.5C329.966 846.429 327.661 845.228 325.244 845.385H324.531C322.113 845.228 319.809 846.429 318.553 848.5C317.296 850.571 317.296 853.169 318.553 855.241C319.809 857.312 322.113 858.513 324.531 858.355Z" fill="white"/>
<path d="M355.05 861.591L355.79 860.878C358.192 858.319 358.128 854.317 355.647 851.836C353.166 849.354 349.163 849.291 346.605 851.692L345.892 852.405C344.074 854.002 343.294 856.477 343.867 858.828C344.44 861.178 346.272 863.016 348.622 863.596C350.971 864.177 353.448 863.404 355.05 861.591Z" fill="white"/>
<path d="M371.091 872.23L369.638 871.517C367.639 870.346 365.168 870.331 363.155 871.476C361.142 872.621 359.893 874.754 359.878 877.07C359.863 879.386 361.086 881.534 363.084 882.704L364.537 883.445C367.62 885.104 371.463 884.024 373.229 881.001C374.995 877.979 374.05 874.1 371.091 872.23Z" fill="white"/>
<path d="M337.501 872.86H336.788C334.37 872.703 332.066 873.903 330.81 875.975C329.553 878.046 329.553 880.644 330.81 882.716C332.066 884.787 334.37 885.987 336.788 885.83H337.501C339.918 885.987 342.222 884.787 343.479 882.716C344.735 880.644 344.735 878.046 343.479 875.975C342.222 873.903 339.918 872.703 337.501 872.86Z" fill="white"/>
<path d="M313.728 871.407H313.043C309.624 871.63 306.966 874.467 306.966 877.892C306.966 881.318 309.624 884.155 313.043 884.377H313.783C317.201 884.155 319.86 881.318 319.86 877.892C319.86 874.467 317.201 871.63 313.783 871.407L313.728 871.407Z" fill="white"/>
<path d="M293.08 885.364L293.793 884.651C296.298 882.101 296.298 878.015 293.793 875.465C291.235 873.007 287.192 873.007 284.634 875.465L283.921 876.205C281.392 878.734 281.392 882.835 283.921 885.364C286.45 887.893 290.551 887.893 293.08 885.364Z" fill="white"/>
<path d="M542.113 242.904C544.678 231.862 549.913 221.618 557.359 213.071C562.843 206.819 553.684 197.606 548.173 203.912C539.154 214.092 532.779 226.334 529.609 239.559C527.635 247.785 540.139 251.13 542.113 243.014V242.904Z" fill="#1A73E8"/>
<path d="M571.7 288.367L638.14 252.721C645.488 248.772 638.935 237.557 631.586 241.533L565.146 277.18C557.798 281.129 564.351 292.316 571.7 288.367Z" fill="#1A73E8"/>
<path d="M579.02 357.961C592.798 357.619 606.456 355.301 619.575 351.078C627.499 348.528 624.127 335.997 616.147 338.574C604.114 342.461 591.58 344.585 578.938 344.881C570.712 345.073 570.575 358.043 578.938 357.851L579.02 357.961Z" fill="#1A73E8"/>
<path d="M106.979 355.849C95.7114 390.059 96.3103 427.069 108.679 460.897C111.421 468.684 124.034 465.339 121.182 457.469C109.514 425.885 108.914 391.274 119.482 359.304C122.224 351.352 109.556 347.952 106.979 355.849Z" fill="#1A73E8"/>
<path d="M47.5037 345.594C27.5417 383.379 36.042 425.963 45.5843 465.531C47.5586 473.62 60.0623 470.192 58.088 462.076C49.4506 426.21 40.5389 386.56 58.6913 352.12C62.585 344.744 51.3974 338.19 47.5037 345.594Z" fill="#1A73E8"/>
</svg>
