<svg width="204" height="175" viewBox="0 0 204 175" fill="none" xmlns="http://www.w3.org/2000/svg">
<path d="M44.0837 144.084C44.0837 144.084 42.9596 151.151 46.6279 151.151C50.2962 151.151 55.997 154.187 57.0924 155.043C58.1877 155.9 59.8953 161.466 63.2589 156.745C66.6225 152.025 76.7275 137.225 72.72 137.883C68.7125 138.542 49.2469 138.961 49.2469 138.961C49.2469 138.961 45.9725 139.099 45.1991 141.695" fill="#5B5B5B"/>
<path d="M60.8327 103.874C60.8327 103.874 56.9258 104.527 58.6479 110.722C60.3699 116.917 59.4643 120.637 65.1766 121.201C70.8889 121.764 83.5986 122.698 85.3235 124.719C87.0484 126.74 89.1126 127.143 88.3709 129.739C87.6292 132.335 83.981 132.309 85.7116 138.487C87.4423 144.665 88.3536 155.526 90.412 156.926C92.4704 158.326 97.6451 159.531 101.451 158.14C105.258 156.748 109.167 155.397 108.874 151.654C108.581 147.911 105.974 127.574 105.574 125.602C105.174 123.63 100.871 108.065 94.1464 104.676C87.4222 101.287 75.8624 98.0035 73.2492 96.7702C70.636 95.5369 69.7218 94.0478 67.4046 97.4774" fill="#5B5B5B"/>
<path d="M163.945 18.8017C161.746 16.9331 158.376 17.1975 155.427 17.5396C138.231 19.5327 120.91 20.2275 103.61 19.6182C101.535 19.5463 99.3183 19.4859 97.5359 20.4806C95.0463 21.8807 94.2327 24.8418 93.6405 27.501L88.0432 52.5811C87.7557 53.8633 87.4682 55.2317 87.9886 56.4535C88.1708 56.885 88.5594 57.1946 89.0206 57.2757C89.1414 56.1804 89.2765 55.088 89.3857 54.6539C89.633 53.6592 92.6429 45.7246 93.8648 47.4668C95.0866 49.2089 97.1708 50.5084 97.9125 49.1687C98.6542 47.829 100.425 42.821 101.417 46.7136C102.409 50.6061 104.404 54.7775 103.196 57.5603C103.077 57.846 102.988 58.1439 102.932 58.4487L126.146 61.8467L151.885 60.9412C153.391 60.8865 155.018 60.7917 156.171 59.8861C157.016 59.222 157.465 58.2244 157.867 57.2642C161.947 47.5635 164.633 37.3339 165.845 26.88C166.173 24.0282 166.216 20.7307 163.945 18.8017Z" fill="#CBCBCB"/>
<path d="M172.82 154.581C170.671 152.159 169.017 149.339 167.953 146.281C167.188 144.082 166.803 141.428 168.254 139.605C169.706 137.783 173.469 138.306 173.507 140.632C172.765 136.144 172.02 131.619 172.219 127.077C172.265 125.976 172.4 124.794 173.124 123.961C174.409 122.48 176.974 122.908 178.345 124.311C179.716 125.714 180.199 127.735 180.628 129.65C179.554 125.134 179.562 120.429 180.651 115.917C181.657 111.763 184.675 107.171 188.927 107.637C192.843 108.066 194.907 112.478 195.718 116.334C197.492 124.897 196.824 133.786 193.792 141.989C194.653 140.181 195.809 138.53 197.213 137.101C197.773 136.527 198.604 135.952 199.311 136.334C199.653 136.562 199.91 136.896 200.042 137.285C201.813 141.396 201.329 146.13 198.762 149.797C198.291 148.213 200.487 146.81 201.965 147.557C203.442 148.305 203.894 150.3 203.402 151.87C202.911 153.439 201.746 154.707 200.605 155.894" fill="#CBCBCB"/>
<path d="M85.8668 55.9333C83.8544 56.8763 83.1559 53.8951 83.2795 52.564C83.429 50.8391 83.9292 49.1142 84.2828 47.4267L86.3326 37.5947L88.3823 27.7627C88.9803 24.8879 89.423 21.9354 90.3027 19.1382C91.2025 16.2864 92.8901 14.136 96.0352 13.7824C99.1802 13.4288 102.472 13.8629 105.617 13.9232C112.216 14.0516 118.814 13.9913 125.41 13.7421C132.007 13.493 138.591 13.0522 145.16 12.4197C148.498 12.1006 151.822 11.7039 155.151 11.3186C157.606 11.0311 160.564 10.6948 162.723 12.1811C165.092 13.8054 165.29 16.9476 165.146 19.5551C164.983 22.6081 164.488 25.6698 163.996 28.6798C162.955 34.9282 161.476 41.0956 159.569 47.1363C158.543 50.382 157.58 53.9181 155.993 56.9395C155.105 58.6328 153.653 59.1187 151.839 59.2566C150.025 59.3946 148.191 59.4033 146.377 59.4723L123.476 60.3347C122.406 60.375 122.4 62.0424 123.476 62.0021L146.661 61.1253C149.536 61.0189 153.535 61.5479 155.953 59.6476C156.835 58.9519 157.373 57.9917 157.81 56.9769C158.563 55.2347 159.195 53.4293 159.822 51.6383C162.187 44.9038 164.014 37.992 165.284 30.9682C165.894 27.6046 166.403 24.2066 166.722 20.8027C166.966 18.2527 167.009 15.444 165.75 13.124C162.657 7.41459 154.429 9.77196 149.372 10.3211C141.779 11.1433 134.165 11.7125 126.532 12.0287C118.996 12.3392 111.456 12.4024 103.912 12.2185C100.718 12.1408 97.0586 11.5055 93.9624 12.5059C91.4757 13.3195 89.9376 15.3434 89.0234 17.7065C87.6521 21.2713 87.1893 25.2731 86.4131 28.996L83.7768 41.6454L82.4314 48.1051C82.0634 49.8617 81.4798 51.7418 81.5689 53.5673C81.7098 56.1719 84.0097 58.6386 86.7005 57.3823C87.6722 56.928 86.827 55.4906 85.8582 55.9448L85.8668 55.9333Z" fill="#5B5B5B"/>
<path d="M37.6266 25.4139C37.6266 25.4139 34.5505 17.6374 37.6927 15.2312C40.8349 12.825 42.7208 10.9362 43.7902 12.3851C44.8597 13.834 45.104 9.92424 45.8458 8.3862C46.5875 6.84816 51.3942 3.6542 55.3845 4.99963C59.3748 6.34506 62.6579 7.74511 62.1001 9.3349C61.5424 10.9247 63.2817 11.5802 61.7322 12.1177C60.1826 12.6553 60.2574 13.3453 59.8204 12.3851C59.3834 11.4249 58.7021 11.4824 56.9714 12.0976C55.2408 12.7128 55.0539 13.3079 54.7434 15.0415C54.4329 16.775 55.1488 18.4913 53.7142 19.2502C52.2797 20.0092 51.8571 19.6383 51.3597 20.6877C50.8624 21.737 50.342 23.3325 51.0291 24.356C51.7162 25.3794 52.4665 26.2735 51.8283 28.0415C51.1901 29.8095 51.8944 32.6413 49.9827 33.0495C48.0709 33.4577 40.8924 34.9095 40.5877 32.8339C40.2829 30.7582 39.6533 28.0415 39.6533 28.0415" fill="#5B5B5B"/>
<path d="M0.515661 127.847C-0.191551 105.136 2.57405 81.3381 8.19149 59.3081C8.41573 58.4284 8.67447 57.4998 9.34143 56.8846C9.93077 56.3355 10.7472 56.1228 11.5292 55.9388C22.8907 53.3131 34.7224 53.5105 45.9899 56.5138C47.045 56.8013 48.1432 57.1319 48.9137 57.9052C50.0291 59.0264 50.1843 60.757 50.2591 62.3353C51.2365 82.5397 50.2792 103.299 56.9086 122.42C57.1127 122.995 57.3398 123.61 57.8084 124.006C58.3518 124.464 59.105 124.553 59.8208 124.625L73.7724 126.002C76.5811 126.289 79.6256 126.663 81.638 128.644C85.1884 132.145 83.613 135.848 79.3956 138.507C75.1782 141.166 69.3337 141.382 64.3516 141.75C49.1666 142.842 36.4368 142.561 20.9041 142.109C16.2583 141.974 11.992 141.721 7.83789 139.634C3.68374 137.547 -0.174302 133.022 0.650778 128.463" fill="#CBCBCB"/>
<path d="M58.3234 11.4705L61.7502 20.5292L62.6299 22.8607C62.8283 23.3839 63.4521 24.3872 63.4148 24.9334C63.4148 24.9162 63.7914 24.8414 63.2538 24.9334C63.0443 24.9572 62.8381 25.0035 62.6386 25.0714C62.2939 25.2069 62.0113 25.4649 61.8451 25.7959C61.3506 26.7791 61.6496 28.2683 61.6439 29.3262L61.6237 34.0956L61.5806 44.1978C61.5806 45.2701 63.2423 45.273 63.248 44.1978L63.2911 34.3744L63.3113 29.6051C63.3113 28.826 63.133 27.8284 63.3113 27.0809C63.4838 26.4111 63.754 26.6698 64.3203 26.4082C65.0477 26.0719 65.223 25.4078 65.0649 24.6603C64.7544 23.1999 63.9725 21.7337 63.4435 20.3481L59.9161 11.0221C59.5395 10.0274 57.9267 10.4471 58.3062 11.4648L58.3234 11.4705Z" fill="#191919"/>
<path d="M57.6217 20.0956C57.29 20.475 57.154 20.9873 57.2537 21.4812C57.3417 21.914 57.6092 22.2891 57.9897 22.5133C58.3844 22.7237 58.8749 22.585 59.101 22.1991C59.3272 21.8131 59.2085 21.3175 58.832 21.0759C58.7371 21.0184 58.832 21.0759 58.8723 21.1133C58.7688 21.0241 58.9125 21.1506 58.901 21.1621C58.8895 21.1736 58.8493 21.0701 58.8464 21.0701C58.8435 21.0701 58.9183 21.2685 58.8723 21.0931C58.8435 20.981 58.9068 21.2656 58.8723 21.1535V21.1018C58.8723 21.0558 58.8723 21.0673 58.8723 21.1334C58.8723 21.1995 58.8723 21.211 58.8723 21.1679C58.8723 21.1248 58.8723 21.1334 58.8723 21.1909C58.8723 21.2484 58.8406 21.2599 58.8723 21.2196C58.9039 21.1794 58.8866 21.1851 58.8176 21.28C59.1298 20.948 59.1298 20.4304 58.8176 20.0984C58.5158 19.811 57.9322 19.7362 57.639 20.0984L57.6217 20.0956Z" fill="#191919"/>
<path d="M53.1483 19.2069C51.4435 18.9453 50.2878 20.262 49.986 21.8575C49.6917 23.5422 50.2379 25.2644 51.4493 26.4716C52.1996 27.2421 53.3783 26.0605 52.6308 25.2901C52.0405 24.7082 51.6689 23.9406 51.5786 23.1167C51.5211 22.5245 51.6965 20.6616 52.7056 20.8168C53.7146 20.972 54.2091 19.3794 53.1483 19.2098V19.2069Z" fill="#191919"/>
<path d="M59.0996 9.53627C58.1538 11.3934 55.6642 11.0484 54.4682 12.7446C53.83 13.6473 53.9738 14.8432 53.7783 15.8868C53.508 17.3242 53.0049 18.7013 52.5852 20.0927C52.2747 21.1248 53.8846 21.5646 54.1951 20.5383C54.5688 19.2992 54.9943 18.0688 55.2847 16.801C55.575 15.5332 55.3106 13.8945 56.5439 13.1442C58.1538 12.1639 59.5969 12.2271 60.5399 10.3728C61.0257 9.4184 59.5883 8.57032 59.1025 9.53052L59.0996 9.53627Z" fill="#191919"/>
<path d="M61.931 10.8468L59.7462 12.7413C58.9354 13.4457 60.1199 14.6215 60.9277 13.92L63.1097 12.0255C63.9233 11.3212 62.7389 10.1453 61.931 10.8468Z" fill="#191919"/>
<path d="M40.3754 29.338C38.9006 26.42 37.282 23.2577 37.0837 19.943C36.8853 16.6283 39.1938 14.1933 42.2124 13.1871C43.2272 12.8536 42.7874 11.2408 41.7697 11.5801C38.6533 12.6121 35.8561 15.0299 35.445 18.4366C34.9707 22.4987 37.144 26.6759 38.9236 30.1803C39.4094 31.1376 40.8497 30.2953 40.361 29.338H40.3754Z" fill="#191919"/>
<path d="M43.1698 7.74802C43.3799 8.99004 43.7299 10.2043 44.2134 11.3675C44.6188 12.3478 46.2258 11.9194 45.8233 10.9247C45.3424 9.76032 44.9952 8.54511 44.7884 7.30242C44.613 6.24735 43.006 6.69583 43.1785 7.74802H43.1698Z" fill="#191919"/>
<path d="M45.9754 10.4761C46.2629 8.69652 47.6112 7.40284 48.9365 6.28165C50.3509 5.08572 52.3001 5.08284 54.0307 5.49107C56.8711 6.16379 59.5418 7.71908 62.5202 7.73058C63.5953 7.73058 63.5953 6.06604 62.5202 6.06317C58.8432 6.04592 55.6522 3.49306 51.935 3.59943C49.983 3.65692 48.672 4.24627 47.2461 5.56582C45.9093 6.80488 44.6587 8.17043 44.3713 10.0333C44.2045 11.0826 45.8087 11.534 45.9783 10.4761H45.9754Z" fill="#191919"/>
<path d="M38.8202 29.758C38.9668 31.23 39.2198 32.9204 40.4847 33.8863C42.1263 35.1254 45.1247 34.4124 47.0164 34.3377C49.1064 34.2572 50.4949 34.4268 51.3085 32.2649C52.0646 30.2525 52.4182 28.128 53.1139 26.1041C53.4618 25.0835 51.8519 24.6466 51.504 25.6585C51.0699 26.9263 50.7594 28.2229 50.4087 29.5137C50.2362 30.1576 50.058 30.8016 49.8337 31.4312C49.4542 32.5179 48.8793 32.5955 47.8041 32.6386C46.3034 32.6961 44.8027 32.7622 43.3021 32.814C42.3304 32.8485 41.4967 32.814 40.9792 31.9142C40.6256 31.2932 40.5537 30.4537 40.4847 29.758C40.3784 28.7001 38.7081 28.6886 38.8144 29.758H38.8202Z" fill="#191919"/>
<path d="M58.8754 51.546C65.6888 49.8786 71.9099 54.211 75.446 59.7422C78.2691 64.1522 79.7927 69.0969 82.0581 73.7829C82.5267 74.7489 83.9641 73.9037 83.4955 72.9406C80.8909 67.5531 79.2494 61.8121 75.5466 56.9996C71.5218 51.7703 65.1109 48.3003 58.4298 49.9361C57.3862 50.192 57.8289 51.8019 58.8725 51.546H58.8754Z" fill="#191919"/>
<path d="M81.6236 69.1803C83.061 64.7013 85.381 57.4538 91.2831 57.6234C94.0056 57.7011 96.2134 59.7997 97.3375 62.1427C98.6743 64.9284 98.7749 68.1799 98.7951 71.2042C98.8382 81.8411 95.4401 96.2786 82.6959 97.3998C76.2707 97.9747 70.4031 95.12 65.7775 90.8394C64.9898 90.112 63.8053 91.2878 64.5959 92.0209C69.2014 96.2786 74.9741 99.2598 81.3793 99.1534C87.4854 99.0355 92.8039 96.0457 95.9403 90.7905C99.4908 84.8396 100.54 77.5174 100.46 70.6925C100.385 65.0923 99.0768 57.221 92.3382 56.0739C85.0102 54.8262 81.776 63.261 80.0137 68.7491C79.686 69.7754 81.2959 70.2124 81.6236 69.1947V69.1803Z" fill="#191919"/>
<path d="M5.46589 124.306C4.89613 103.973 6.83987 83.6487 11.2529 63.793C11.7915 61.3513 12.3665 58.9192 12.9779 56.4966C13.2883 55.2777 13.5327 54.0358 14.8034 53.5039C15.9332 53.0296 17.2815 52.8715 18.4832 52.6415C28.4573 50.7409 38.7241 51.0144 48.5828 53.4436C49.6379 53.7023 50.851 53.915 51.794 54.4785C52.9296 55.157 53.2975 56.3558 53.447 57.5977C53.7345 60.0097 53.7 62.4849 53.7834 64.9228C54.1197 74.8899 54.2117 84.88 55.2208 94.8212C55.6817 99.6371 56.4217 104.422 57.4373 109.152C57.9682 111.565 58.594 113.953 59.3146 116.316C59.7947 117.883 60.177 120.341 61.6806 121.296C62.3562 121.73 63.1467 121.825 63.9287 121.911C65.323 122.063 66.7202 122.198 68.1145 122.325L75.9283 123.098C78.1965 123.322 80.5798 123.411 82.7359 124.214C84.7483 124.961 86.8815 126.821 86.8728 129.141C86.8728 131.309 84.9639 133.013 83.2908 134.106C81.4422 135.31 79.3379 135.992 77.1904 136.432C72.7401 137.337 68.0656 137.435 63.5406 137.682C53.8208 138.214 44.0894 138.197 34.3581 137.97C29.4306 137.86 24.4054 137.97 19.5037 137.395C14.8781 136.843 10.1835 135.066 7.33454 131.197C6.04661 129.446 5.23877 127.336 5.56938 125.142C5.7275 124.093 4.13196 123.639 3.95947 124.699C3.32988 128.874 5.68438 132.611 8.87833 135.115C12.6156 138.044 17.3304 138.99 21.9675 139.278C32.5297 139.927 43.2413 139.953 53.8121 139.723C59.1478 139.608 64.472 139.324 69.7963 138.95C74.2436 138.64 78.944 138.335 82.9688 136.233C86.1311 134.589 89.6097 131.254 88.2298 127.35C86.7492 123.156 82.2501 122.086 78.3259 121.672C75.4827 121.385 72.6337 121.097 69.7905 120.827L65.6047 120.413C64.1299 120.269 62.5315 120.439 61.8933 118.832C59.9384 113.907 58.8661 108.482 57.9979 103.267C56.2011 92.4609 55.9424 81.4733 55.629 70.546C55.5514 67.8753 55.4738 65.2017 55.3703 62.5309C55.2841 60.2886 55.4738 57.7271 54.7148 55.5796C54.0277 53.6419 52.415 52.7593 50.5262 52.2304C47.9625 51.5186 45.3579 50.9637 42.7267 50.5687C34.8879 49.3558 26.9027 49.4442 19.0926 50.8303C17.0803 51.1839 14.2054 51.3305 12.7134 52.906C11.2213 54.4814 11.0172 57.4223 10.5429 59.4204C9.8989 62.1265 9.30189 64.8404 8.75183 67.5619C7.67664 72.8785 6.77107 78.2247 6.03511 83.6007C4.53093 94.4287 3.74343 105.344 3.67773 116.276C3.67773 118.953 3.70648 121.629 3.7841 124.306C3.8186 125.375 5.48601 125.381 5.45439 124.306H5.46589Z" fill="#191919"/>
<path d="M43.7906 40.8951C47.2863 41.1467 50.7549 41.69 54.1602 42.5193C57.3915 43.3128 60.7493 44.2126 63.4948 46.1618C64.3716 46.7856 65.2053 45.3396 64.3371 44.7244C61.4795 42.6947 57.9665 41.7403 54.6029 40.9123C51.0522 40.0515 47.4353 39.4908 43.7906 39.2363C42.7183 39.1586 42.724 40.8261 43.7906 40.9037V40.8951Z" fill="#191919"/>
<path d="M35.9941 44.7154C32.5097 45.4163 29.4246 47.4216 27.3695 50.3213C26.7428 51.1838 28.1888 52.0261 28.8069 51.1637C30.6435 48.6337 33.3786 46.9025 36.4512 46.3253C37.5033 46.1154 37.0577 44.5084 36.0084 44.7154H35.9941Z" fill="#191919"/>
<path d="M91.3264 47.7454C89.3719 50.296 88.2282 53.3747 88.0433 56.5827C87.9743 57.655 89.6446 57.6493 89.7136 56.5827C89.9068 53.6719 90.9705 50.8864 92.7667 48.5877C93.4193 47.7253 91.9704 46.9031 91.3293 47.7454H91.3264Z" fill="#191919"/>
<path d="M98.4618 46.5757C97.6739 47.9976 96.4534 49.1315 94.9775 49.8127C94.0058 50.2698 94.851 51.7073 95.8198 51.2502C97.5496 50.4272 98.9782 49.083 99.9049 47.4065C100.428 46.4664 98.9879 45.6241 98.4675 46.5642L98.4618 46.5757Z" fill="#191919"/>
<path d="M100.092 50.4508L99.4045 51.3133C99.2554 51.4743 99.1687 51.6833 99.1602 51.9026C99.1669 52.1181 99.2541 52.3232 99.4045 52.4776C99.692 52.765 100.296 52.8427 100.586 52.4776L101.273 51.6151C101.423 51.4532 101.509 51.2432 101.518 51.0229C101.514 50.8024 101.427 50.5916 101.273 50.4336C100.971 50.1461 100.382 50.0685 100.092 50.4336V50.4508Z" fill="#191919"/>
<path d="M100.698 54.237C100.615 54.4239 100.519 54.6045 100.411 54.7775L100.327 54.8983C100.327 54.8983 100.23 55.0305 100.287 54.9586C100.345 54.8868 100.247 55.0018 100.238 55.0161L100.117 55.1512C99.792 55.4775 99.7926 56.0059 100.119 56.3314C100.445 56.6568 100.974 56.6562 101.299 56.3299C101.643 55.9591 101.929 55.5373 102.144 55.0794C102.369 54.6805 102.243 54.1757 101.857 53.9294C101.489 53.7368 100.908 53.8058 100.707 54.2313L100.698 54.237Z" fill="#191919"/>
<path d="M101.368 57.8074C100.969 59.1706 100.088 60.3424 98.8898 61.1049C97.9871 61.6798 98.8237 63.1173 99.7322 62.5423C101.299 61.552 102.452 60.0253 102.975 58.2473C103.283 57.2152 101.673 56.7753 101.368 57.8045V57.8074Z" fill="#191919"/>
<path d="M95.7046 48.1539C94.8221 47.7373 94.2791 46.8285 94.3305 45.854C94.3822 44.8047 95.1297 44.2096 96.0295 43.7841C98.1396 42.7837 100.529 42.1512 102.791 41.605C105.152 41.0268 107.556 40.6356 109.978 40.4349C110.818 40.3688 111.64 40.179 112.307 40.9121C112.635 41.2686 112.767 41.9068 112.942 42.3496C113.356 43.3874 113.736 44.4424 114.046 45.5119C115.228 49.5827 115.38 54.4038 112.476 57.8248C110.016 60.7255 105.289 61.473 102.622 58.3998C101.917 57.5862 100.741 58.7707 101.443 59.5785C103.855 62.3613 108.138 62.7408 111.269 60.9728C114.891 58.9345 116.567 54.559 116.533 50.5716C116.51 48.013 115.88 45.4918 115.012 43.097C114.397 41.4009 113.862 39.0895 111.792 38.7474C109.507 38.3736 106.695 39.0837 104.447 39.5236C101.816 40.0405 99.2312 40.7722 96.7195 41.7113C94.8106 42.4358 92.7982 43.3816 92.6746 45.6815C92.5636 47.4565 93.6081 49.101 95.2619 49.7551C96.2537 50.1691 96.685 48.5535 95.7075 48.1452L95.7046 48.1539Z" fill="#191919"/>
<path d="M57.0525 27.6132C57.1628 28.7975 57.9992 29.7876 59.1483 30.0942C60.1919 30.353 60.6346 28.7459 59.5939 28.4843C59.3598 28.4326 59.1477 28.3089 58.9873 28.1307C58.8584 27.9819 58.7668 27.8045 58.7199 27.6132C58.705 27.1591 58.3404 26.7944 57.8862 26.7795C57.478 26.7795 56.995 27.1648 57.0525 27.6132Z" fill="#191919"/>
<path d="M68.0749 94.2865C65.0863 98.2568 61.5169 101.754 57.4868 104.662C56.6244 105.286 57.4581 106.735 58.3292 106.099C62.5942 103.029 66.3696 99.3301 69.5267 95.1288C70.1735 94.2664 68.7246 93.4384 68.0893 94.2865H68.0749Z" fill="#191919"/>
<path d="M68.9196 95.4161C73.6027 98.7796 79.0908 99.7973 84.5386 101.278C89.8743 102.715 94.4166 105.107 97.8894 109.5C104.326 117.639 105.338 128.1 106.198 138.056C106.669 143.501 107 149.009 108.063 154.382C108.273 155.434 109.88 154.989 109.673 153.936C107.71 144.03 108.187 133.781 106.091 123.891C104.004 114.051 98.5104 104.463 88.6899 100.829C82.3164 98.472 75.4311 98.0494 69.7619 93.9758C68.8995 93.3462 68.0543 94.7951 68.9196 95.4132V95.4161Z" fill="#191919"/>
<path d="M83.8084 134.552C85.0187 138.387 85.358 142.288 85.9387 146.238C86.3814 149.259 86.712 152.473 87.8332 155.337C88.5749 157.234 89.7565 158.465 91.7602 159.017C93.7546 159.533 95.8214 159.713 97.875 159.548C102.199 159.247 106.323 157.612 109.679 154.868C110.516 154.193 109.328 153.017 108.5 153.69C105.288 156.285 101.321 157.768 97.1937 157.916C95.2762 157.982 92.7463 157.953 91.0358 156.97C89.5984 156.15 89.1211 154.23 88.7675 152.724C87.3157 146.569 87.3301 140.155 85.4155 134.106C85.0935 133.086 83.4836 133.531 83.8084 134.552Z" fill="#191919"/>
<path d="M92.9129 159.034C93.4483 161.147 94.0961 163.231 94.8534 165.275C95.3996 166.744 95.943 168.414 97.1533 169.487C99.5193 171.582 104.096 169.895 106.583 168.817C109.65 167.489 113.336 165.105 114.451 161.759C114.816 160.661 114.808 159.201 113.876 158.378C112.626 157.292 110.041 157.786 108.515 157.766L109.32 158.378L108.897 155.906C108.713 154.851 107.106 155.299 107.287 156.352L107.71 158.812C107.811 159.173 108.14 159.423 108.515 159.425C109.423 159.439 112.491 159.034 112.979 160C113.554 161.124 111.95 162.961 111.277 163.665C109.369 165.678 106.787 167.115 104.165 167.943C102.88 168.366 101.547 168.628 100.198 168.725C98.6856 168.811 97.8749 168.052 97.2395 166.75C96.0005 164.2 95.2271 161.331 94.5228 158.597C94.2555 157.556 92.6455 157.996 92.9129 159.04V159.034Z" fill="#191919"/>
<path d="M20.3521 171.948C20.8954 173.672 22.652 174.052 24.2877 174.104C27.3408 174.201 30.4112 174.147 33.4642 174.153C39.6739 174.17 45.9008 174.273 52.1076 174.098C53.6083 174.055 54.925 173.371 55.3418 171.83C55.7162 170.46 55.106 169.011 53.8641 168.322C51.5068 166.974 48.721 166.342 46.286 165.108C45.1365 164.546 44.021 163.916 42.9455 163.222C41.3356 162.159 40.8842 161.012 40.7548 159.129C40.3064 152.505 39.8694 145.88 39.4439 139.255C39.3749 138.188 37.7046 138.18 37.7765 139.255L38.777 154.434C38.9293 156.734 38.7195 159.428 39.4353 161.621C40.0103 163.395 41.6202 164.395 43.1438 165.287C45.1674 166.468 47.2824 167.485 49.4685 168.328C50.7449 168.823 54.6691 169.547 53.6255 171.646C53.1627 172.574 52.1191 172.419 51.2423 172.428L46.93 172.456C44.2468 172.47 41.5703 172.478 38.9006 172.482C35.9376 172.482 32.9736 172.477 30.0087 172.465L25.6964 172.439C24.7391 172.439 22.3242 172.727 21.9361 171.496C21.617 170.476 20.0042 170.921 20.3262 171.939L20.3521 171.948Z" fill="#191919"/>
<path d="M46.1566 152.375C49.6711 152.376 53.1087 153.404 56.0461 155.334C58.0211 156.639 60.7148 160.405 63.2619 158.016C64.4464 156.903 65.3606 155.337 66.2805 154.011C67.3212 152.513 68.3111 150.979 69.2502 149.412C71.2118 146.132 72.9503 142.725 74.4537 139.212C74.8706 138.237 73.436 137.386 73.0163 138.369C70.3642 144.611 66.9519 150.501 62.8566 155.906C62.6467 156.193 62.3909 156.645 62.0861 156.831C61.1691 157.406 60.5481 156.831 59.9444 156.349C59.3407 155.866 58.7944 155.311 58.1907 154.831C57.1005 153.968 55.9185 153.229 54.6662 152.626C52.0076 151.36 49.1012 150.7 46.1566 150.694C45.0843 150.694 45.0814 152.358 46.1566 152.364V152.375Z" fill="#191919"/>
<path d="M45.6507 151.231C43.8202 147.47 44.434 142.977 47.206 139.844C47.9189 139.045 46.7431 137.863 46.0273 138.665C42.74 142.344 42.0218 147.653 44.2133 152.074C44.6905 153.037 46.1308 152.191 45.6507 151.231Z" fill="#191919"/>
<path d="M44.9638 151.536C44.0055 153.469 42.9253 155.338 41.7296 157.134C40.7464 158.605 39.7575 160.051 39.8638 161.897C39.9242 162.967 41.5887 162.972 41.5312 161.897C41.4278 160.054 42.7991 158.574 43.7391 157.108C44.7121 155.58 45.6017 154 46.4041 152.376C46.8813 151.418 45.4439 150.573 44.9667 151.536H44.9638Z" fill="#191919"/>
<path d="M58.4007 157.159C57.4769 158.439 56.5713 159.731 55.6839 161.034C55.109 161.897 53.7779 163.193 53.9303 164.32C54.0654 165.329 55.4424 166.206 56.0778 166.908C56.5838 167.46 57.5152 168.236 57.6244 168.983C57.8631 170.441 56.1324 170.619 55.1348 170.631C54.0625 170.631 54.0596 172.309 55.1348 172.298C56.5263 172.298 58.0672 172.039 58.9066 170.786C59.7461 169.532 59.2516 168.198 58.438 167.106C57.9129 166.427 57.3454 165.782 56.739 165.174C56.5924 165.022 55.7041 164.312 55.6638 164.107C55.6379 163.993 56.2388 163.222 56.2388 163.196C57.4002 161.443 58.5981 159.718 59.8323 158.021C60.4619 157.159 59.0159 156.314 58.3949 157.179L58.4007 157.159Z" fill="#191919"/>
<path d="M54.9019 23.5969H56.3393V25.0344H54.9019V23.5969Z" fill="#CBCBCB"/>
<path d="M107.647 83.2038H146.862C155.863 83.2038 164.911 82.9451 173.906 83.4683C175.489 83.5251 177.068 83.6787 178.632 83.9283C179.047 83.9749 179.453 84.0784 179.84 84.2359C179.917 84.2761 180.075 84.3998 179.779 84.1353C179.912 84.2875 180.026 84.4555 180.118 84.6355C180.245 84.9374 180.156 85.5813 180.038 86.1419C179.831 86.9928 179.566 87.8285 179.245 88.643C178.879 89.632 178.445 89.9971 177.448 90.2874C176.7 90.5059 175.941 90.6784 175.188 90.8624C172.67 91.4719 170.126 92.0468 167.768 93.1623C162.657 95.5628 161.412 101.327 159.581 106.191C157.315 112.207 155.015 118.212 152.681 124.205C150.011 131.078 147.299 137.931 144.545 144.766C143.204 148.099 141.85 151.427 140.486 154.75C139.163 157.973 138.005 161.46 135.625 164.085C134.906 164.878 136.082 166.063 136.806 165.266C138.655 163.225 139.784 160.781 140.831 158.263C142.165 155.058 143.467 151.844 144.772 148.627C147.365 142.231 149.922 135.82 152.442 129.394C154.934 123.054 157.382 116.702 159.788 110.337C160.963 107.232 162.087 104.11 163.295 101.016C164.399 98.1674 165.767 95.925 168.613 94.5911C171.33 93.3233 174.343 92.8202 177.224 92.0756C178.299 91.7881 179.452 91.561 180.167 90.6382C180.829 89.7757 181.03 88.5309 181.372 87.519C181.869 86.0586 182.286 84.2646 181.053 83.0716C180.374 82.4132 179.204 82.327 178.322 82.2091C170.427 81.0879 162.168 81.5422 154.228 81.5422H107.655C106.583 81.5422 106.58 83.2125 107.655 83.2125L107.647 83.2038Z" fill="#191919"/>
<path d="M122.72 61.2777C121.11 66.3163 119.744 71.4211 118.623 76.5919C118.557 76.8426 118.609 77.1099 118.766 77.3165C118.923 77.5232 119.166 77.6461 119.425 77.6499C120.46 77.5924 126.17 77.2532 125.75 79.2569C125.531 80.3062 127.138 80.7547 127.357 79.7025C128.202 75.6375 121.875 75.8445 119.419 75.9796L120.224 77.0375C121.346 71.8628 122.712 66.7581 124.324 61.7233C124.652 60.6969 123.042 60.2571 122.714 61.2777H122.72Z" fill="#5B5B5B"/>
<path d="M52.1938 161.184L52.4353 161.434C52.6459 161.645 52.953 161.728 53.2411 161.651C53.5292 161.574 53.7544 161.35 53.8319 161.062C53.9094 160.774 53.8274 160.467 53.6169 160.255L53.3725 160.002C53.0451 159.682 52.5213 159.682 52.1938 160.002C51.8817 160.334 51.8817 160.852 52.1938 161.184Z" fill="#5B5B5B"/>
<path d="M54.0884 158.346L54.7007 158.723C54.9582 158.888 55.2854 158.899 55.5534 158.751C55.8213 158.604 55.9868 158.321 55.9847 158.015C55.9825 157.71 55.813 157.429 55.5431 157.286L54.9307 156.909C54.6733 156.744 54.346 156.733 54.0781 156.88C53.8101 157.028 53.6446 157.311 53.6467 157.616C53.6489 157.922 53.8184 158.202 54.0884 158.346Z" fill="#5B5B5B"/>
<path d="M106.163 160.578C107.239 160.578 107.239 158.907 106.163 158.907C105.088 158.907 105.088 160.578 106.163 160.578Z" fill="#5B5B5B"/>
<path d="M170.071 152.051C167.685 149.308 165.537 145.815 164.896 142.185C164.623 140.632 164.681 138.312 166.394 137.602C167.372 137.197 169.22 137.355 169.332 138.692L170.971 138.47C170.226 133.968 169.37 129.305 169.735 124.723C169.818 123.682 170.074 122.466 171.172 122.058C171.989 121.753 172.98 121.986 173.705 122.411C175.571 123.504 176.048 125.996 176.488 127.931L178.098 127.488C176.899 122.265 176.775 115.903 179.291 111.013C180.216 109.213 181.616 107.364 183.623 106.715C185.894 105.982 188.016 107.201 189.321 109.015C192.092 112.887 192.443 118.588 192.506 123.176C192.575 128.845 191.607 134.48 189.652 139.801C189.33 140.687 190.758 141.293 191.175 140.445C191.929 138.854 192.922 137.387 194.119 136.096C194.507 135.69 194.749 135.282 195.367 135.354C195.985 135.426 195.988 135.702 196.229 136.363C196.477 137.05 196.661 137.758 196.778 138.479C197.272 141.615 196.53 144.82 194.709 147.42L196.232 147.618C196.051 146.664 197.31 146.045 198.104 146.284C199.032 146.572 199.403 147.744 199.423 148.584C199.469 150.519 197.925 152.06 196.689 153.362C195.95 154.141 197.129 155.323 197.871 154.541C200.013 152.284 202.741 148.486 199.952 145.565C197.96 143.475 194.053 145.065 194.625 148.055C194.769 148.82 195.775 148.794 196.149 148.253C198.682 144.577 199.282 139.904 197.762 135.708C197.126 134.029 195.913 132.732 194.093 133.882C192.164 135.101 190.718 137.619 189.738 139.597L191.262 140.241C193.02 135.432 193.999 130.373 194.162 125.255C194.3 120.629 193.99 115.48 192.297 111.139C191.06 107.957 188.614 104.691 184.822 104.814C181.03 104.938 178.538 108.287 177.241 111.461C175.162 116.555 175.266 122.633 176.476 127.914C176.715 128.96 178.322 128.518 178.086 127.471C177.551 125.128 176.861 122.429 174.694 121.054C173.026 119.996 170.603 119.864 169.186 121.414C167.504 123.251 167.944 126.683 168.07 128.932C168.257 132.278 168.809 135.593 169.355 138.896C169.505 139.816 171.08 139.612 170.994 138.674C170.85 136.978 169.574 135.929 167.918 135.754C166 135.513 164.172 136.636 163.519 138.456C162.556 140.879 163.378 143.631 164.321 145.93C165.432 148.601 166.974 151.071 168.887 153.241C169.591 154.052 170.767 152.867 170.065 152.062L170.071 152.051Z" fill="#5B5B5B"/>
<path d="M167.09 164.246L164.603 158.048C164.367 157.545 164.159 157.028 163.982 156.501C163.796 155.802 163.583 155.394 164.388 155.207C165.342 154.986 166.578 155.245 167.55 155.265L181.119 155.57L194.686 155.857C195.643 155.88 197.167 155.633 198.078 155.935C199.145 156.288 198.653 157.444 198.386 158.235C197.641 160.425 196.853 162.604 196.086 164.786C195.729 165.804 197.342 166.224 197.696 165.232L199.168 161.052C199.587 159.856 200.154 158.637 200.343 157.378C200.565 155.886 200.039 154.529 198.42 154.296C195.764 153.914 192.849 154.161 190.164 154.103L181.401 153.905L172.639 153.71C169.913 153.649 167.099 153.373 164.379 153.537C162.623 153.646 161.591 154.687 162.16 156.426C163.077 159.238 164.382 161.958 165.48 164.7C165.874 165.686 167.493 165.255 167.09 164.257V164.246Z" fill="#5B5B5B"/>
<path d="M73.6662 0.000298018C72.5532 0.0264965 71.5817 0.761757 71.2542 1.82583C71.132 2.27039 71.3932 2.72989 71.8378 2.85215C72.2824 2.9744 72.7419 2.71312 72.8641 2.26855C72.9199 2.0966 73.0261 1.94537 73.1689 1.83445C73.1545 1.83445 73.4563 1.69646 73.3586 1.72808C73.4562 1.68814 73.5607 1.66763 73.6662 1.66771C74.7356 1.64184 74.7414 -0.0255756 73.6662 0.000298018Z" fill="#5B5B5B"/>
<path d="M72.266 11.5854L73.3757 11.2088C73.7957 11.0663 74.0315 10.6208 73.9132 10.1934C73.7949 9.76595 73.3635 9.50512 72.9301 9.59889L71.8117 9.97837C71.5247 10.058 71.3019 10.2847 71.2273 10.5731C71.1527 10.8615 71.2376 11.1678 71.4501 11.3766C71.6625 11.5854 71.9703 11.665 72.2573 11.5854H72.266Z" fill="#5B5B5B"/>
<path d="M72.3092 19.1409L74.8736 18.3043C75.8913 17.9708 75.4486 16.3609 74.4309 16.6944L71.8665 17.531C70.8488 17.8616 71.2915 19.4743 72.3092 19.1409Z" fill="#5B5B5B"/>
<path d="M134.457 28.0273C137.131 27.7518 139.82 27.6424 142.507 27.6996C143.582 27.7226 143.582 26.0552 142.507 26.0322C139.82 25.9755 137.131 26.084 134.457 26.357C133.4 26.4663 133.388 28.1366 134.457 28.0273Z" fill="white"/>
<path d="M133.909 33.0124C136.137 32.8834 138.372 32.9344 140.593 33.1648C141.659 33.2769 141.654 31.6066 140.593 31.4974C138.373 31.2655 136.137 31.2146 133.909 31.345C132.842 31.4054 132.836 33.0699 133.909 33.0124Z" fill="white"/>
<path d="M133.063 38.8254H134.731C135.803 38.8254 135.806 37.158 134.731 37.158H133.063C131.988 37.158 131.985 38.8254 133.063 38.8254Z" fill="white"/>
<path d="M98.4417 27.3C97.7431 28.677 97.0043 30.4479 97.8265 31.94C98.2663 32.7334 99.1518 33.0209 99.6549 33.7396C100.271 34.6445 100.209 35.8484 99.5054 36.6864C98.8183 37.5028 99.9912 38.6987 100.687 37.865C101.741 36.6786 102.027 34.9947 101.423 33.5269C101.117 32.852 100.64 32.2685 100.04 31.8336C98.709 30.7383 99.192 29.5079 99.8849 28.1423C100.368 27.1879 98.9304 26.3427 98.4474 27.3H98.4417Z" fill="white"/>
<path d="M103.435 27.2659C102.63 28.6056 103.197 29.928 104.119 31.0434C104.818 31.8915 105.456 32.5556 105.313 33.7199C105.209 34.6866 104.601 35.526 103.714 35.9249C102.751 36.4021 103.596 37.8396 104.556 37.3623C105.982 36.6551 106.915 35.2341 106.997 33.6452C107.048 32.8958 106.892 32.147 106.546 31.4804C106.04 30.5288 104.16 29.2955 104.876 28.1025C105.43 27.1796 103.987 26.3402 103.438 27.2601L103.435 27.2659Z" fill="white"/>
<path d="M110.732 24.5576C109.441 25.5292 108.668 27.0903 109.07 28.7261C109.297 29.6489 109.892 30.3245 110.419 31.0834C111.433 32.5467 111.143 33.9209 110.646 35.5279C110.327 36.5543 111.936 36.9941 112.253 35.9707C112.762 34.3263 113.176 32.5726 112.322 30.9627C111.497 29.4045 109.447 27.602 111.574 26.0007C112.437 25.3625 111.592 23.9136 110.732 24.5633V24.5576Z" fill="white"/>
</svg>
