<svg width="285" height="245" viewBox="0 0 285 245" fill="none" xmlns="http://www.w3.org/2000/svg">
<path d="M61.2638 202.678C61.2638 202.678 59.6871 212.59 64.8325 212.59C69.9778 212.59 77.9741 216.848 79.5105 218.05C81.0468 219.251 83.4421 227.058 88.16 220.437C92.878 213.816 107.052 193.057 101.431 193.98C95.8095 194.903 68.506 195.492 68.506 195.492C68.506 195.492 63.9131 195.686 62.8284 199.327" fill="#3F79E4"/>
<path d="M84.7567 146.277C84.7567 146.277 79.2766 147.192 81.692 155.882C84.1075 164.572 82.8373 169.79 90.8497 170.58C98.8621 171.371 116.689 172.681 119.109 175.516C121.528 178.351 124.424 178.915 123.383 182.557C122.343 186.198 117.226 186.162 119.653 194.827C122.081 203.493 123.359 218.727 126.246 220.691C129.133 222.655 136.392 224.345 141.731 222.393C147.07 220.441 152.554 218.546 152.142 213.296C151.731 208.046 148.074 179.52 147.513 176.754C146.953 173.988 140.916 152.156 131.484 147.402C122.053 142.648 105.838 138.043 102.173 136.313C98.5072 134.583 97.2249 132.494 93.9748 137.305" fill="#3F79E4"/>
<path d="M229.387 26.9495C226.303 24.3285 221.577 24.6994 217.439 25.1793C193.32 27.9749 169.025 28.9494 144.759 28.0947C141.848 27.9939 138.739 27.9092 136.239 29.3045C132.746 31.2683 131.605 35.4216 130.775 39.1516L122.923 74.3305C122.52 76.1289 122.117 78.0484 122.847 79.7621C123.102 80.3673 123.648 80.8016 124.295 80.9154C124.464 79.3791 124.653 77.8467 124.807 77.2378C125.153 75.8426 129.375 64.7131 131.089 67.1568C132.803 69.6004 135.726 71.4231 136.767 69.544C137.807 67.6649 140.291 60.6404 141.682 66.1003C143.073 71.5602 145.872 77.4112 144.178 81.3146C144.01 81.7153 143.886 82.1331 143.807 82.5606L176.369 87.327L212.471 86.0567C214.584 85.9801 216.867 85.8471 218.484 84.5768C219.669 83.6454 220.298 82.2461 220.863 80.8993C226.586 67.2924 230.353 52.9438 232.053 38.2806C232.513 34.2805 232.573 29.6553 229.387 26.9495Z" fill="#C9DBFF"/>
<path d="M241.836 217.401C238.821 214.003 236.502 210.048 235.009 205.759C233.936 202.674 233.396 198.952 235.432 196.396C237.469 193.839 242.747 194.573 242.799 197.835C241.759 191.541 240.715 185.194 240.993 178.822C241.057 177.278 241.247 175.621 242.263 174.451C244.066 172.375 247.663 172.975 249.586 174.943C251.509 176.911 252.187 179.746 252.788 182.431C251.282 176.097 251.293 169.497 252.82 163.169C254.231 157.342 258.465 150.902 264.429 151.555C269.921 152.156 272.817 158.346 273.954 163.753C276.442 175.765 275.506 188.233 271.252 199.739C272.461 197.203 274.082 194.887 276.051 192.883C276.837 192.077 278.002 191.27 278.994 191.807C279.474 192.126 279.834 192.596 280.019 193.142C282.503 198.907 281.824 205.548 278.224 210.691C277.563 208.469 280.644 206.501 282.716 207.549C284.789 208.598 285.422 211.396 284.733 213.598C284.043 215.8 282.41 217.578 280.809 219.243" fill="#C9DBFF"/>
<path d="M119.871 79.0324C117.048 80.3551 116.068 76.1734 116.242 74.3064C116.451 71.887 117.153 69.4675 117.649 67.1005L120.524 53.3096L123.399 39.5187C124.238 35.4863 124.859 31.345 126.093 27.4215C127.355 23.4213 129.722 20.4051 134.134 19.9091C138.545 19.4131 143.162 20.022 147.574 20.1067C156.829 20.2868 166.084 20.2021 175.337 19.8526C184.59 19.5032 193.824 18.8848 203.04 17.9977C207.721 17.5501 212.383 16.9936 217.052 16.4533C220.496 16.0501 224.645 15.5783 227.674 17.663C230.996 19.9413 231.275 24.3488 231.073 28.0062C230.843 32.2886 230.15 36.5831 229.46 40.8051C228 49.5694 225.925 58.2202 223.25 66.6932C221.81 71.2458 220.46 76.2057 218.234 80.4438C216.988 82.8189 214.951 83.5004 212.407 83.6939C209.862 83.8875 207.29 83.8996 204.745 83.9963L172.623 85.2061C171.123 85.2625 171.115 87.6013 172.623 87.5449L205.144 86.315C209.177 86.1658 214.786 86.9077 218.177 84.2423C219.415 83.2665 220.169 81.9196 220.782 80.4962C221.839 78.0525 222.726 75.5202 223.605 73.008C226.923 63.5618 229.484 53.8669 231.266 44.0149C232.121 39.297 232.835 34.5306 233.283 29.7563C233.625 26.1795 233.686 22.2398 231.92 18.9857C227.581 10.9773 216.04 14.2839 208.947 15.054C198.296 16.2073 187.617 17.0057 176.909 17.4493C166.339 17.8848 155.763 17.9735 145.182 17.7154C140.702 17.6066 135.569 16.7154 131.226 18.1187C127.738 19.2599 125.581 22.0987 124.298 25.4133C122.375 30.4135 121.726 36.0267 120.637 41.2486L116.939 58.9913L115.052 68.0521C114.536 70.516 113.717 73.1532 113.842 75.7137C114.04 79.3671 117.266 82.8269 121.04 81.0648C122.403 80.4276 121.218 78.4114 119.859 79.0486L119.871 79.0324Z" fill="#3F79E4"/>
<path d="M52.2069 36.2242C52.2069 36.2242 47.8922 25.3165 52.2996 21.9413C56.707 18.5662 59.3523 15.9169 60.8524 17.9492C62.3524 19.9816 62.6952 14.4975 63.7356 12.3401C64.7759 10.1828 71.5181 5.70277 77.1151 7.58994C82.7121 9.47712 87.3172 11.4409 86.5349 13.6708C85.7526 15.9008 88.1922 16.8202 86.0187 17.5742C83.8452 18.3283 83.9501 19.2961 83.3372 17.9492C82.7242 16.6024 81.7685 16.6831 79.341 17.546C76.9135 18.4089 76.6514 19.2436 76.2159 21.6752C75.7804 24.1067 76.7845 26.5141 74.7723 27.5787C72.7601 28.6432 72.1673 28.123 71.4697 29.5949C70.7721 31.0667 70.0423 33.3047 71.006 34.7402C71.9698 36.1758 73.0222 37.4299 72.127 39.9098C71.2318 42.3897 72.2198 46.3617 69.5382 46.9343C66.8566 47.5069 56.7877 49.5432 56.3603 46.6318C55.9328 43.7204 55.0497 39.9098 55.0497 39.9098" fill="#3F79E4"/>
<path d="M0.152438 179.903C-0.839537 148.047 3.03965 114.667 10.919 83.7663C11.2335 82.5324 11.5964 81.2299 12.532 80.367C13.3586 79.5968 14.5038 79.2984 15.6006 79.0403C31.5369 75.3573 48.1327 75.6342 63.9373 79.8468C65.4172 80.25 66.9575 80.7137 68.0382 81.7985C69.6028 83.3711 69.8206 85.7986 69.9254 88.0124C71.2964 116.352 69.9536 145.47 79.2524 172.29C79.5387 173.096 79.8572 173.959 80.5145 174.516C81.2767 175.157 82.3332 175.282 83.3372 175.383L102.907 177.314C106.846 177.718 111.117 178.242 113.939 181.02C118.919 185.932 116.71 191.125 110.794 194.855C104.878 198.585 96.6805 198.888 89.6923 199.404C68.3931 200.936 50.5375 200.541 28.7504 199.908C22.234 199.719 16.2499 199.364 10.423 196.436C4.59617 193.509 -0.815342 187.162 0.341962 180.766" fill="#C9DBFF"/>
<path d="M81.2365 16.6665L86.0432 29.3727L87.2771 32.643C87.5553 33.3769 88.4304 34.7842 88.3779 35.5504C88.3779 35.5262 88.9062 35.4213 88.1521 35.5504C87.8584 35.5837 87.5691 35.6486 87.2892 35.7439C86.8057 35.934 86.4094 36.2958 86.1762 36.7601C85.4827 38.1392 85.902 40.228 85.894 41.7119L85.8657 48.4017L85.8053 62.5716C85.8053 64.0757 88.136 64.0797 88.1441 62.5716L88.2045 48.7928L88.2328 42.103C88.2328 41.0103 87.9828 39.611 88.2328 38.5626C88.4747 37.623 88.8538 37.9859 89.6481 37.619C90.6684 37.1472 90.9143 36.2157 90.6925 35.1673C90.257 33.1188 89.1602 31.0623 88.4183 29.1187L83.4705 16.0375C82.9422 14.6423 80.68 15.231 81.2123 16.6585L81.2365 16.6665Z" fill="#192939"/>
<path d="M80.2525 28.7641C79.7872 29.2963 79.5964 30.0149 79.7364 30.7078C79.8598 31.3148 80.2349 31.8409 80.7686 32.1554C81.3224 32.4505 82.0103 32.2559 82.3275 31.7146C82.6447 31.1733 82.4782 30.4781 81.9501 30.1392C81.8171 30.0585 81.9501 30.1392 82.0066 30.1916C81.8614 30.0666 82.063 30.244 82.0469 30.2602C82.0308 30.2763 81.9743 30.1311 81.9703 30.1311C81.9663 30.1311 82.0711 30.4094 82.0066 30.1634C81.9663 30.0061 82.055 30.4053 82.0066 30.2481V30.1755C82.0066 30.111 82.0066 30.1271 82.0066 30.2198C82.0066 30.3126 82.0066 30.3287 82.0066 30.2682C82.0066 30.2077 82.0066 30.2198 82.0066 30.3005C82.0066 30.3811 81.9622 30.3973 82.0066 30.3408C82.051 30.2844 82.0268 30.2924 81.93 30.4255C82.3678 29.9598 82.3678 29.2338 81.93 28.7682C81.5066 28.3649 80.688 28.2601 80.2767 28.7682L80.2525 28.7641Z" fill="#192939"/>
<path d="M73.978 27.5179C71.5868 27.151 69.9658 28.9978 69.5424 31.2358C69.1296 33.5988 69.8957 36.0146 71.5949 37.7078C72.6473 38.7885 74.3006 37.1312 73.2522 36.0505C72.4242 35.2344 71.9029 34.1577 71.7763 33.002C71.6957 32.1713 71.9417 29.5583 73.357 29.7761C74.7724 29.9938 75.466 27.7598 73.978 27.5219V27.5179Z" fill="#192939"/>
<path d="M82.3253 13.953C80.9986 16.558 77.5065 16.0741 75.829 18.4532C74.9338 19.7194 75.1355 21.3969 74.8613 22.8606C74.4822 24.8769 73.7765 26.8084 73.1878 28.7601C72.7523 30.2077 75.0105 30.8247 75.446 29.3851C75.9702 27.6471 76.567 25.9213 76.9742 24.143C77.3815 22.3647 77.0105 20.0662 78.7404 19.0137C80.9986 17.6387 83.0229 17.7274 84.3455 15.1265C85.027 13.7877 83.0108 12.5981 82.3293 13.945L82.3253 13.953Z" fill="#192939"/>
<path d="M86.297 15.7915L83.2323 18.4488C82.0952 19.4368 83.7565 21.086 84.8896 20.1021L87.9503 17.4448C89.0914 16.4568 87.4301 14.8076 86.297 15.7915Z" fill="#192939"/>
<path d="M56.062 41.728C53.9934 37.6351 51.7232 33.1995 51.4449 28.5501C51.1667 23.9007 54.4047 20.4852 58.6388 19.0739C60.0622 18.6061 59.4452 16.3439 58.0178 16.8198C53.6466 18.2674 49.7231 21.6587 49.1464 26.4371C48.4811 32.1349 51.5296 37.994 54.0257 42.9095C54.7071 44.2523 56.7274 43.0708 56.0419 41.728H56.062Z" fill="#192939"/>
<path d="M59.9816 11.445C60.2762 13.1871 60.7673 14.8903 61.4454 16.5218C62.014 17.8969 64.2681 17.296 63.7036 15.9008C63.0291 14.2675 62.542 12.563 62.2519 10.82C62.0059 9.34006 59.7518 9.96911 59.9937 11.445H59.9816Z" fill="#192939"/>
<path d="M63.917 15.2717C64.3203 12.7756 66.2115 10.961 68.0704 9.38837C70.0544 7.71088 72.7883 7.70685 75.2159 8.27945C79.1999 9.22304 82.946 11.4046 87.1236 11.4207C88.6317 11.4207 88.6317 9.08593 87.1236 9.0819C81.9661 9.05771 77.4901 5.47692 72.2762 5.62612C69.5382 5.70677 67.6994 6.53341 65.6993 8.38429C63.8243 10.1223 62.0702 12.0377 61.6669 14.6507C61.433 16.1225 63.6831 16.7556 63.921 15.2717H63.917Z" fill="#192939"/>
<path d="M53.8801 42.317C54.0858 44.3816 54.4406 46.7526 56.2149 48.1075C58.5174 49.8455 62.7232 48.8455 65.3766 48.7406C68.3081 48.6277 70.2558 48.8656 71.397 45.8332C72.4575 43.0106 72.9535 40.0306 73.9293 37.1918C74.4173 35.7603 72.1591 35.1473 71.6712 36.5668C71.0623 38.3451 70.6268 40.1637 70.1348 41.9742C69.8929 42.8775 69.6429 43.7807 69.3283 44.6638C68.7961 46.1881 67.9896 46.297 66.4815 46.3575C64.3765 46.4381 62.2716 46.5309 60.1667 46.6034C58.8037 46.6518 57.6343 46.6034 56.9085 45.3413C56.4125 44.4703 56.3117 43.2928 56.2149 42.317C56.0657 40.8331 53.7229 40.8169 53.8721 42.317H53.8801Z" fill="#192939"/>
<path d="M82.0107 72.8788C91.5675 70.54 100.294 76.6169 105.254 84.3752C109.213 90.561 111.351 97.4967 114.528 104.07C115.185 105.424 117.202 104.239 116.544 102.888C112.891 95.3313 110.588 87.2786 105.395 80.5283C99.7493 73.1933 90.757 68.3262 81.3856 70.6207C79.9219 70.9795 80.5429 73.2377 82.0066 72.8788H82.0107Z" fill="#192939"/>
<path d="M113.919 97.6137C115.935 91.3312 119.189 81.1654 127.468 81.4033C131.287 81.5122 134.384 84.4559 135.96 87.7423C137.835 91.6497 137.976 96.2104 138.005 100.452C138.065 115.372 133.299 135.623 115.423 137.196C106.411 138.002 98.1805 133.998 91.6923 127.994C90.5874 126.974 88.9261 128.623 90.035 129.651C96.4949 135.623 104.592 139.805 113.576 139.656C122.141 139.49 129.601 135.297 134 127.925C138.98 119.578 140.452 109.308 140.339 99.7347C140.235 91.8796 138.4 80.8388 128.948 79.2299C118.669 77.4798 114.133 89.3109 111.661 97.0088C111.201 98.4484 113.459 99.0613 113.919 97.6338V97.6137Z" fill="#192939"/>
<path d="M7.09606 174.935C6.29688 146.416 9.02328 117.907 15.2133 90.0568C15.9687 86.6319 16.7752 83.2205 17.6328 79.8225C18.0683 78.1128 18.411 76.3708 20.1934 75.6248C21.7781 74.9594 23.6693 74.7376 25.3549 74.4151C39.3451 71.7491 53.7459 72.1329 67.5743 75.5401C69.0542 75.903 70.7559 76.2014 72.0785 76.9918C73.6713 77.9434 74.1874 79.6249 74.3971 81.3669C74.8004 84.7501 74.752 88.2221 74.8689 91.6415C75.3407 105.622 75.4698 119.635 76.8851 133.579C77.5316 140.334 78.5696 147.046 79.9941 153.68C80.7388 157.065 81.6165 160.414 82.6273 163.729C83.3007 165.927 83.837 169.374 85.946 170.713C86.8936 171.322 88.0025 171.455 89.0993 171.576C91.0551 171.79 93.0148 171.979 94.9705 172.157L105.931 173.242C109.112 173.556 112.455 173.681 115.479 174.806C118.302 175.855 121.294 178.464 121.282 181.718C121.282 184.758 118.605 187.149 116.258 188.682C113.665 190.371 110.713 191.327 107.701 191.944C101.459 193.214 94.902 193.351 88.555 193.698C74.9213 194.444 61.2716 194.42 47.6219 194.101C40.7103 193.948 33.6616 194.101 26.7864 193.295C20.2982 192.521 13.7133 190.029 9.71713 184.601C7.9106 182.145 6.77749 179.185 7.24122 176.109C7.46301 174.637 5.22501 174 4.98307 175.488C4.09997 181.343 7.40252 186.585 11.8825 190.097C17.1247 194.206 23.7379 195.533 30.2421 195.936C45.0573 196.847 60.0821 196.884 74.9093 196.561C82.3934 196.4 89.8615 196.001 97.3295 195.476C103.568 195.041 110.161 194.613 115.806 191.666C120.242 189.359 125.121 184.682 123.185 179.206C121.109 173.322 114.798 171.822 109.294 171.241C105.306 170.838 101.31 170.435 97.3214 170.056L91.4502 169.475C89.3816 169.274 87.1396 169.512 86.2444 167.257C83.5023 160.35 81.9982 152.741 80.7805 145.426C78.2602 130.268 77.8973 114.856 77.4577 99.529C77.3489 95.7828 77.24 92.0327 77.0948 88.2866C76.9739 85.1413 77.24 81.5484 76.1754 78.5362C75.2117 75.8183 72.9495 74.5804 70.3002 73.8384C66.7043 72.8401 63.0508 72.0617 59.3602 71.5077C48.3651 69.8064 37.1646 69.9304 26.2097 71.8746C23.387 72.3706 19.3546 72.5763 17.2618 74.786C15.169 76.9958 14.8827 81.121 14.2173 83.9235C13.314 87.7193 12.4766 91.5259 11.7051 95.3433C10.197 102.801 8.92677 110.3 7.89447 117.84C5.78463 133.028 4.68003 148.339 4.58789 163.673C4.58789 167.427 4.62821 171.181 4.73709 174.935C4.78548 176.435 7.12428 176.443 7.07993 174.935H7.09606Z" fill="#192939"/>
<path d="M60.8526 57.9388C65.7559 58.2917 70.6211 59.0538 75.3975 60.2171C79.93 61.3301 84.6398 62.5922 88.4908 65.3262C89.7207 66.2012 90.8901 64.1729 89.6723 63.31C85.6641 60.4631 80.7364 59.1243 76.0185 57.963C71.0381 56.7555 65.9649 55.9691 60.8526 55.6121C59.3485 55.5032 59.3566 57.842 60.8526 57.9509V57.9388Z" fill="#192939"/>
<path d="M49.9166 63.2977C45.0292 64.2808 40.7019 67.0936 37.8193 71.161C36.9402 72.3707 38.9685 73.5522 39.8355 72.3425C42.4116 68.7938 46.248 66.3655 50.5577 65.5559C52.0336 65.2615 51.4086 63.0074 49.9367 63.2977H49.9166Z" fill="#192939"/>
<path d="M127.528 67.5478C124.787 71.1254 123.183 75.4437 122.923 79.9434C122.827 81.4475 125.169 81.4395 125.266 79.9434C125.537 75.8606 127.029 71.9535 129.549 68.7293C130.464 67.5196 128.432 66.3663 127.532 67.5478H127.528Z" fill="#192939"/>
<path d="M137.537 65.9065C136.432 67.901 134.72 69.4915 132.65 70.447C131.287 71.0882 132.473 73.1044 133.832 72.4632C136.258 71.3089 138.262 69.4235 139.562 67.0719C140.295 65.7533 138.275 64.5718 137.545 65.8904L137.537 65.9065Z" fill="#192939"/>
<path d="M139.824 71.3423L138.86 72.552C138.651 72.7778 138.529 73.071 138.517 73.3786C138.527 73.6809 138.649 73.9686 138.86 74.1851C139.263 74.5884 140.11 74.6972 140.517 74.1851L141.481 72.9754C141.691 72.7483 141.812 72.4537 141.824 72.1447C141.819 71.8355 141.697 71.5397 141.481 71.3181C141.058 70.9149 140.231 70.806 139.824 71.3181V71.3423Z" fill="#192939"/>
<path d="M140.674 76.6532C140.558 76.9153 140.424 77.1686 140.271 77.4113L140.154 77.5807C140.154 77.5807 140.017 77.7662 140.098 77.6654C140.178 77.5645 140.041 77.7258 140.029 77.746L139.86 77.9355C139.403 78.3932 139.404 79.1343 139.862 79.5908C140.32 80.0474 141.061 80.0465 141.517 79.5888C142 79.0687 142.4 78.477 142.703 77.8347C143.018 77.2752 142.841 76.5672 142.299 76.2218C141.783 75.9516 140.969 76.0484 140.687 76.6452L140.674 76.6532Z" fill="#192939"/>
<path d="M141.614 81.6615C141.054 83.5736 139.819 85.2173 138.138 86.2867C136.872 87.0932 138.045 89.1094 139.319 88.3029C141.517 86.9139 143.134 84.7724 143.868 82.2784C144.299 80.8308 142.041 80.2138 141.614 81.6575V81.6615Z" fill="#192939"/>
<path d="M133.67 68.1202C132.432 67.536 131.671 66.2612 131.743 64.8943C131.815 63.4225 132.864 62.5877 134.126 61.9909C137.086 60.5877 140.437 59.7005 143.61 58.9344C146.922 58.1234 150.293 57.5746 153.691 57.2932C154.869 57.2004 156.022 56.9343 156.957 57.9626C157.417 58.4626 157.603 59.3578 157.849 59.9788C158.429 61.4345 158.961 62.9144 159.397 64.4144C161.054 70.1243 161.268 76.8867 157.195 81.6853C153.744 85.754 147.114 86.8024 143.372 82.4918C142.384 81.3506 140.735 83.0119 141.719 84.1451C145.102 88.0484 151.11 88.5807 155.502 86.1008C160.583 83.2418 162.933 77.1044 162.885 71.5115C162.853 67.9226 161.97 64.3862 160.752 61.0272C159.889 58.6481 159.139 55.406 156.236 54.9261C153.03 54.4019 149.086 55.3979 145.933 56.0149C142.242 56.74 138.617 57.7663 135.094 59.0836C132.416 60.0997 129.593 61.4264 129.42 64.6523C129.264 67.142 130.729 69.4488 133.049 70.3663C134.44 70.9469 135.045 68.6807 133.674 68.1081L133.67 68.1202Z" fill="#192939"/>
<path d="M79.4543 39.3091C79.609 40.9701 80.7821 42.3589 82.394 42.789C83.8577 43.1519 84.4787 40.8978 83.019 40.5309C82.6906 40.4583 82.3931 40.2849 82.1681 40.0349C81.9874 39.8261 81.8588 39.5773 81.7931 39.3091C81.7722 38.6721 81.2607 38.1605 80.6237 38.1396C80.0511 38.1396 79.3737 38.68 79.4543 39.3091Z" fill="#192939"/>
<path d="M94.9144 132.829C90.7224 138.398 85.7158 143.304 80.063 147.382C78.8532 148.257 80.0226 150.289 81.2445 149.398C87.2269 145.091 92.5224 139.903 96.9507 134.01C97.858 132.8 95.8257 131.639 94.9345 132.829H94.9144Z" fill="#192939"/>
<path d="M96.0996 134.413C102.668 139.131 110.366 140.559 118.008 142.635C125.492 144.652 131.863 148.007 136.734 154.168C145.763 165.584 147.182 180.258 148.388 194.222C149.049 201.859 149.513 209.586 151.005 217.122C151.299 218.598 153.554 217.973 153.263 216.497C150.509 202.601 151.178 188.226 148.239 174.354C145.311 160.551 137.605 147.103 123.831 142.006C114.891 138.7 105.233 138.107 97.2811 132.393C96.0714 131.51 94.8858 133.542 96.0996 134.409V134.413Z" fill="#192939"/>
<path d="M116.984 189.307C118.681 194.686 119.157 200.158 119.972 205.699C120.593 209.937 121.056 214.445 122.629 218.461C123.669 221.123 125.327 222.849 128.137 223.623C130.935 224.348 133.834 224.6 136.714 224.369C142.78 223.946 148.564 221.652 153.271 217.804C154.445 216.856 152.78 215.207 151.618 216.151C147.113 219.792 141.548 221.872 135.759 222.078C133.069 222.171 129.521 222.131 127.121 220.752C125.105 219.602 124.436 216.909 123.94 214.796C121.903 206.162 121.923 197.166 119.238 188.682C118.786 187.25 116.528 187.875 116.984 189.307Z" fill="#192939"/>
<path d="M129.754 223.647C130.505 226.612 131.414 229.534 132.476 232.402C133.242 234.462 134.004 236.805 135.702 238.309C139.021 241.249 145.44 238.882 148.928 237.369C153.231 235.507 158.401 232.164 159.965 227.47C160.477 225.93 160.465 223.881 159.159 222.728C157.405 221.204 153.779 221.897 151.638 221.869L152.767 222.728L152.175 219.26C151.916 217.78 149.662 218.409 149.916 219.885L150.509 223.337C150.651 223.843 151.112 224.194 151.638 224.196C152.912 224.216 157.215 223.647 157.901 225.002C158.707 226.579 156.457 229.155 155.513 230.143C152.836 232.966 149.215 234.982 145.537 236.144C143.734 236.736 141.865 237.105 139.972 237.24C137.851 237.361 136.714 236.297 135.823 234.47C134.085 230.893 133 226.869 132.012 223.034C131.637 221.575 129.379 222.191 129.754 223.655V223.647Z" fill="#192939"/>
<path d="M27.976 241.761C28.7381 244.18 31.2019 244.712 33.4963 244.785C37.7788 244.922 42.0854 244.845 46.3678 244.853C55.0779 244.878 63.8121 245.023 72.5181 244.777C74.623 244.716 76.4698 243.757 77.0545 241.595C77.5797 239.674 76.7238 237.642 74.9819 236.676C71.6753 234.784 67.7679 233.897 64.3524 232.167C62.74 231.378 61.1754 230.495 59.6667 229.522C57.4086 228.03 56.7755 226.421 56.594 223.78C55.965 214.489 55.3521 205.197 54.7553 195.904C54.6585 194.408 52.3156 194.396 52.4165 195.904L53.8197 217.195C54.0335 220.421 53.7391 224.199 54.7432 227.276C55.5496 229.764 57.8078 231.167 59.945 232.417C62.7834 234.074 65.75 235.501 68.8163 236.684C70.6067 237.377 76.111 238.393 74.6472 241.337C73.998 242.64 72.5342 242.422 71.3043 242.434L65.2557 242.474C61.4921 242.493 57.7379 242.505 53.9931 242.511C49.8371 242.511 45.6796 242.503 41.5209 242.486L35.4722 242.45C34.1294 242.45 30.7422 242.853 30.1978 241.127C29.7502 239.696 27.488 240.321 27.9397 241.748L27.976 241.761Z" fill="#192939"/>
<path d="M64.1711 214.308C69.1007 214.308 73.9224 215.751 78.0426 218.457C80.8129 220.288 84.5913 225.57 88.164 222.219C89.8253 220.659 91.1076 218.461 92.398 216.602C93.8577 214.5 95.2462 212.349 96.5635 210.15C99.3149 205.551 101.753 200.771 103.862 195.843C104.447 194.476 102.435 193.283 101.846 194.662C98.126 203.416 93.3397 211.678 87.5954 219.26C87.301 219.663 86.9422 220.296 86.5147 220.558C85.2284 221.364 84.3574 220.558 83.5106 219.88C82.6638 219.203 81.8976 218.425 81.0508 217.751C79.5216 216.542 77.8637 215.505 76.107 214.659C72.378 212.883 68.3012 211.958 64.1711 211.949C62.667 211.949 62.663 214.283 64.1711 214.292V214.308Z" fill="#192939"/>
<path d="M63.4616 212.703C60.8941 207.427 61.7549 201.125 65.6431 196.731C66.6432 195.61 64.9939 193.952 63.9898 195.077C59.3789 200.238 58.3715 207.684 61.4454 213.885C62.1148 215.235 64.135 214.05 63.4616 212.703Z" fill="#192939"/>
<path d="M62.4976 213.131C61.1535 215.841 59.6382 218.464 57.9611 220.982C56.582 223.046 55.1949 225.075 55.3441 227.663C55.4287 229.164 57.7635 229.172 57.6829 227.663C57.5377 225.079 59.4612 223.002 60.7798 220.945C62.1445 218.802 63.3923 216.586 64.5178 214.308C65.1872 212.965 63.171 211.78 62.5016 213.131H62.4976Z" fill="#192939"/>
<path d="M81.3449 221.018C80.0492 222.813 78.779 224.625 77.5343 226.453C76.7278 227.663 74.8608 229.482 75.0745 231.062C75.2641 232.478 77.1956 233.708 78.0868 234.692C78.7965 235.466 80.103 236.555 80.2562 237.603C80.5909 239.647 78.1634 239.897 76.7641 239.914C75.26 239.914 75.256 242.268 76.7641 242.252C78.7158 242.252 80.8772 241.889 82.0547 240.131C83.2321 238.373 82.5385 236.502 81.3974 234.97C80.6608 234.017 79.8648 233.112 79.0142 232.26C78.8086 232.046 77.5625 231.05 77.5061 230.764C77.4698 230.603 78.3126 229.522 78.3126 229.486C79.9417 227.026 81.6218 224.607 83.3531 222.227C84.2362 221.018 82.2079 219.832 81.3369 221.046L81.3449 221.018Z" fill="#192939"/>
<path d="M76.4375 33.6758H78.4537V35.692H76.4375V33.6758Z" fill="#C9DBFF"/>
<path d="M150.42 117.284H205.426C218.052 117.284 230.742 116.921 243.359 117.655C245.58 117.734 247.794 117.95 249.989 118.3C250.57 118.365 251.14 118.51 251.682 118.731C251.791 118.788 252.013 118.961 251.598 118.59C251.784 118.804 251.944 119.039 252.074 119.292C252.251 119.715 252.126 120.618 251.961 121.405C251.67 122.598 251.298 123.77 250.848 124.913C250.336 126.3 249.727 126.812 248.327 127.219C247.279 127.526 246.214 127.768 245.158 128.026C241.626 128.881 238.057 129.687 234.75 131.252C227.581 134.619 225.835 142.704 223.266 149.527C220.088 157.965 216.862 166.388 213.588 174.794C209.843 184.434 206.039 194.047 202.176 203.634C200.295 208.309 198.397 212.977 196.483 217.638C194.628 222.159 193.003 227.05 189.664 230.732C188.656 231.845 190.305 233.506 191.321 232.389C193.914 229.526 195.499 226.098 196.966 222.566C198.837 218.07 200.664 213.562 202.495 209.049C206.132 200.079 209.718 191.086 213.253 182.072C216.748 173.18 220.182 164.269 223.556 155.342C225.205 150.987 226.782 146.607 228.476 142.268C230.024 138.272 231.944 135.127 235.936 133.256C239.746 131.478 243.972 130.772 248.013 129.728C249.521 129.324 251.138 129.006 252.142 127.711C253.07 126.502 253.352 124.756 253.832 123.336C254.529 121.288 255.114 118.772 253.384 117.098C252.432 116.175 250.791 116.054 249.553 115.888C238.48 114.316 226.895 114.953 215.758 114.953H150.432C148.928 114.953 148.924 117.296 150.432 117.296L150.42 117.284Z" fill="#192939"/>
<path d="M171.562 86.5284C169.304 93.5959 167.389 100.756 165.816 108.009C165.723 108.361 165.797 108.736 166.017 109.025C166.237 109.315 166.578 109.488 166.941 109.493C168.393 109.412 176.401 108.937 175.813 111.747C175.506 113.219 177.76 113.848 178.067 112.372C179.252 106.67 170.377 106.961 166.933 107.15L168.062 108.634C169.635 101.376 171.552 94.2155 173.813 87.1534C174.272 85.7138 172.014 85.0969 171.554 86.5284H171.562Z" fill="#3F79E4"/>
<path d="M72.6389 226.663L72.9777 227.014C73.273 227.31 73.7038 227.426 74.1079 227.318C74.5119 227.21 74.8278 226.895 74.9365 226.492C75.0453 226.088 74.9303 225.657 74.635 225.361L74.2922 225.006C73.8329 224.556 73.0983 224.556 72.6389 225.006C72.2011 225.471 72.2011 226.197 72.6389 226.663Z" fill="#3F79E4"/>
<path d="M75.2962 222.683L76.1551 223.211C76.5163 223.443 76.9753 223.458 77.3511 223.251C77.7269 223.044 77.9591 222.648 77.9561 222.219C77.9531 221.79 77.7153 221.397 77.3366 221.195L76.4777 220.667C76.1166 220.435 75.6576 220.42 75.2818 220.627C74.906 220.834 74.6738 221.23 74.6768 221.659C74.6798 222.088 74.9176 222.481 75.2962 222.683Z" fill="#3F79E4"/>
<path d="M148.34 225.813C149.848 225.813 149.848 223.47 148.34 223.47C146.831 223.47 146.831 225.813 148.34 225.813Z" fill="#3F79E4"/>
<path d="M237.981 213.852C234.634 210.005 231.621 205.106 230.722 200.013C230.339 197.836 230.42 194.581 232.823 193.585C234.194 193.017 236.787 193.239 236.944 195.114L239.243 194.803C238.198 188.488 236.997 181.948 237.509 175.52C237.626 174.06 237.985 172.355 239.525 171.782C240.67 171.355 242.061 171.681 243.078 172.278C245.695 173.81 246.364 177.306 246.981 180.02L249.239 179.399C247.558 172.072 247.384 163.149 250.913 156.289C252.211 153.765 254.175 151.172 256.989 150.261C260.175 149.233 263.151 150.943 264.982 153.487C268.869 158.919 269.361 166.915 269.45 173.351C269.545 181.303 268.188 189.206 265.445 196.67C264.994 197.912 266.998 198.763 267.583 197.573C268.64 195.341 270.033 193.284 271.712 191.472C272.256 190.904 272.595 190.331 273.462 190.432C274.329 190.533 274.333 190.92 274.672 191.847C275.019 192.811 275.276 193.804 275.442 194.815C276.133 199.214 275.093 203.709 272.538 207.356L274.676 207.634C274.422 206.296 276.188 205.429 277.301 205.763C278.603 206.167 279.123 207.812 279.152 208.989C279.216 211.703 277.051 213.864 275.317 215.691C274.28 216.784 275.934 218.441 276.974 217.344C279.978 214.179 283.805 208.852 279.894 204.755C277.099 201.824 271.619 204.054 272.421 208.247C272.623 209.32 274.034 209.284 274.559 208.525C278.111 203.37 278.954 196.815 276.821 190.928C275.93 188.573 274.228 186.754 271.675 188.367C268.97 190.077 266.941 193.61 265.566 196.384L267.704 197.287C270.17 190.541 271.543 183.445 271.772 176.266C271.966 169.778 271.53 162.556 269.155 156.467C267.421 152.003 263.99 147.422 258.671 147.596C253.352 147.769 249.856 152.467 248.037 156.919C245.122 164.064 245.267 172.589 246.965 179.996C247.299 181.464 249.554 180.843 249.223 179.375C248.473 176.089 247.505 172.302 244.465 170.375C242.126 168.891 238.727 168.705 236.739 170.879C234.38 173.456 234.997 178.27 235.174 181.424C235.436 186.117 236.21 190.767 236.976 195.4C237.186 196.69 239.396 196.404 239.275 195.089C239.073 192.71 237.283 191.238 234.96 190.993C232.27 190.656 229.706 192.231 228.791 194.783C227.44 198.182 228.593 202.041 229.916 205.267C231.473 209.013 233.637 212.478 236.319 215.522C237.307 216.659 238.956 214.998 237.972 213.868L237.981 213.852Z" fill="#3F79E4"/>
<path d="M233.799 230.958L230.311 222.264C229.979 221.558 229.688 220.834 229.44 220.095C229.178 219.115 228.879 218.542 230.009 218.28C231.347 217.969 233.081 218.332 234.444 218.361L253.477 218.788L272.506 219.191C273.849 219.224 275.986 218.877 277.264 219.3C278.761 219.796 278.071 221.417 277.696 222.526C276.652 225.599 275.547 228.655 274.47 231.716C273.97 233.143 276.232 233.732 276.728 232.341L278.793 226.478C279.381 224.8 280.176 223.091 280.442 221.324C280.753 219.232 280.015 217.328 277.744 217.002C274.018 216.465 269.93 216.812 266.163 216.732L253.872 216.453L241.582 216.179C237.759 216.094 233.811 215.707 229.996 215.937C227.533 216.09 226.085 217.55 226.883 219.99C228.17 223.933 230 227.748 231.541 231.595C232.093 232.978 234.364 232.373 233.799 230.974V230.958Z" fill="#3F79E4"/>
<path d="M102.757 0.577566C101.196 0.614314 99.8331 1.64563 99.3738 3.13815C99.2023 3.76173 99.5688 4.40625 100.192 4.57773C100.816 4.74921 101.46 4.38272 101.632 3.75915C101.71 3.51796 101.859 3.30584 102.059 3.15025C102.039 3.15025 102.463 2.9567 102.325 3.00105C102.462 2.94502 102.609 2.91626 102.757 2.91637C104.257 2.88008 104.265 0.541275 102.757 0.577566Z" fill="#3F79E4"/>
<path d="M100.793 16.8278L102.35 16.2995C102.939 16.0997 103.269 15.4748 103.104 14.8753C102.938 14.2757 102.333 13.9098 101.725 14.0414L100.156 14.5737C99.7533 14.6853 99.4408 15.0033 99.3361 15.4078C99.2315 15.8124 99.3506 16.242 99.6486 16.5349C99.9467 16.8278 100.378 16.9394 100.781 16.8278H100.793Z" fill="#3F79E4"/>
<path d="M100.854 27.4252L104.451 26.2517C105.878 25.784 105.257 23.5258 103.83 23.9936L100.233 25.167C98.8051 25.6307 99.4261 27.8929 100.854 27.4252Z" fill="#3F79E4"/>
<path d="M188.027 39.8898C191.777 39.5034 195.548 39.3499 199.317 39.4301C200.826 39.4624 200.826 37.1236 199.317 37.0913C195.548 37.0117 191.777 37.1639 188.027 37.547C186.543 37.7002 186.527 40.043 188.027 39.8898Z" fill="white"/>
<path d="M187.257 46.8819C190.383 46.7009 193.518 46.7724 196.632 47.0956C198.128 47.2528 198.12 44.91 196.632 44.7568C193.518 44.4316 190.383 44.3601 187.257 44.5431C185.761 44.6277 185.753 46.9625 187.257 46.8819Z" fill="white"/>
<path d="M186.072 55.0356H188.41C189.914 55.0356 189.918 52.6968 188.41 52.6968H186.072C184.563 52.6968 184.559 55.0356 186.072 55.0356Z" fill="white"/>
<path d="M137.509 38.8695C136.529 40.801 135.493 43.2849 136.646 45.3778C137.263 46.4907 138.505 46.894 139.211 47.9021C140.074 49.1713 139.989 50.86 139.001 52.0353C138.037 53.1805 139.682 54.858 140.658 53.6886C142.137 52.0245 142.538 49.6625 141.691 47.6037C141.261 46.657 140.593 45.8385 139.751 45.2286C137.884 43.6922 138.561 41.9663 139.533 40.051C140.211 38.7122 138.194 37.5267 137.517 38.8695H137.509Z" fill="white"/>
<path d="M144.513 38.8211C143.384 40.7003 144.178 42.5552 145.473 44.1197C146.452 45.3093 147.348 46.2408 147.146 47.8739C147.001 49.2299 146.148 50.4073 144.904 50.9668C143.553 51.6362 144.739 53.6524 146.085 52.983C148.085 51.991 149.393 49.9979 149.509 47.7691C149.58 46.7181 149.361 45.6676 148.876 44.7327C148.166 43.3979 145.529 41.668 146.533 39.9946C147.311 38.7002 145.287 37.5227 144.517 38.8131L144.513 38.8211Z" fill="white"/>
<path d="M154.748 35.0226C152.937 36.3856 151.852 38.5752 152.417 40.8696C152.736 42.164 153.57 43.1116 154.308 44.1762C155.732 46.2287 155.324 48.1562 154.627 50.4103C154.179 51.8499 156.437 52.4668 156.881 51.0313C157.595 48.7247 158.175 46.265 156.978 44.0068C155.82 41.8212 152.945 39.2929 155.929 37.0469C157.139 36.1517 155.953 34.1193 154.748 35.0307V35.0226Z" fill="white"/>
</svg>
