<svg width="378" height="508" viewBox="0 0 378 508" fill="none" xmlns="http://www.w3.org/2000/svg">
<path d="M17.2144 487.077C17.2144 487.077 29.0844 489.771 31.2531 487.077C33.4218 484.382 49.9371 477.208 57.9895 491.048C66.0418 504.888 50.7456 506.229 41.4228 506.088C32.1001 505.947 3.82378 502.552 2.79718 498.754C1.77059 494.956 3.30407 488.758 3.87511 487.109C4.44615 485.46 9.70745 484.356 11.2153 484.754" fill="#BAD5F8"/>
<path d="M169.877 487.52L186.662 483.734C186.662 483.734 198.089 469.907 204.993 474.347C211.897 478.787 216.542 474.989 216.542 480.494C216.542 485.999 218.634 493.852 210.017 495.553C201.4 497.253 178.982 501.558 175.081 500.519C171.18 499.479 157.43 493.031 163.14 490.4" fill="#BAD5F8"/>
<path d="M211.853 442.035V422.35L210.044 424.159H308.751C311.073 424.159 311.08 420.547 308.751 420.547H210.044C209.054 420.561 208.254 421.36 208.241 422.35V442.035C208.241 444.358 211.853 444.364 211.853 442.035Z" fill="#1A73E8"/>
<path d="M176.909 461.713V442.035L175.106 443.85H273.806C276.129 443.85 276.135 440.238 273.806 440.238H175.106C174.112 440.252 173.31 441.054 173.296 442.048V461.726C173.296 464.049 176.909 464.055 176.909 461.726V461.713Z" fill="#1A73E8"/>
<path d="M141.974 481.392V461.713L140.164 463.516H238.865C241.194 463.516 241.194 459.904 238.865 459.904H140.164C139.172 459.918 138.372 460.721 138.361 461.713V481.392C138.361 483.721 141.974 483.721 141.974 481.392Z" fill="#1A73E8"/>
<path d="M43.5931 255.856C43.5931 255.856 24.7295 248.342 24.3445 252.526C23.9595 256.709 21.0722 302.919 22.2015 311.555C23.3307 320.191 30.164 348.891 31.5884 352.843C33.0128 356.796 34.2704 358.849 44.6518 355.352C55.0333 351.855 96.9568 344.444 98.548 344.444C100.139 344.444 105.131 342.455 105.555 345.856C105.978 349.257 110.861 349.526 117.444 347.37C124.027 345.214 157.975 342.879 161.806 345.529C165.636 348.179 167.272 343.604 164.436 336.822C161.6 330.04 132.355 267.463 130.847 265.602C129.339 263.741 115.942 259.596 114.903 260.174C113.864 260.751 53.519 258.422 53.519 258.422" fill="#1A73E8"/>
<path d="M213.436 200.791C213.436 200.791 208.431 195.479 212.833 193.432C217.235 191.385 224.613 190.455 226.852 195.415C229.092 200.374 230.798 199.38 232.775 199.598C234.751 199.816 239.319 195.248 240.346 200.791C241.372 206.335 243.381 211.699 240.346 214.907C237.311 218.115 237.138 216.19 233.769 216.293C230.401 216.396 229.778 215.241 228.232 219.636C226.686 224.031 221.816 227.181 217.632 224.551C213.449 221.92 209.041 218.577 210.042 214.118C211.043 209.659 209.766 207.33 211.12 207.24C212.474 207.15 214.238 208.177 214.091 205.912C213.943 203.647 213.436 200.791 213.436 200.791Z" fill="#1A73E8"/>
<path d="M52.4592 85.5883C52.4592 85.5883 49.7709 90.362 52.4592 101.424C55.1476 112.485 61.057 126.569 65.3366 125.08C69.6162 123.592 71.8619 118.247 72.1185 116.38C72.3752 114.513 70.8995 111.022 68.6794 109.136C66.4594 107.249 64.9131 99.5564 68.7308 98.2283C72.5484 96.9001 75.6795 95.8927 76.8409 91.1704C78.0022 86.4481 79.4908 83.471 86.709 81.9952C93.9273 80.5195 100.369 82.4572 101.036 89.9706C101.704 97.484 104.886 95.1036 107.119 92.3959C109.352 89.6883 117.385 85.3381 113.311 79.8779C109.236 74.4177 90.116 66.5386 84.1105 66.8594C78.1049 67.1802 69.8729 72.634 69.8729 72.634C69.8729 72.634 69.0131 79.5057 65.9012 81.9824C62.7894 84.459 58.5675 78.9283 56.2769 81.9824C53.9863 85.0365 52.4592 85.5883 52.4592 85.5883Z" fill="#1A73E8"/>
<path d="M375.528 422.35H255.776V47.8035H360.027C368.588 47.8035 375.528 54.7437 375.528 63.305V422.35Z" fill="#BAD5F8"/>
<path d="M23.8867 252.006C55.2912 261.969 88.4182 265.322 121.182 261.855C123.473 261.611 123.492 258.005 121.182 258.236C88.7449 261.693 55.9432 258.385 24.8491 248.522C22.6227 247.816 21.6731 251.307 23.8867 252.006Z" fill="#192939"/>
<path d="M22.3411 259.705C18.4462 281.346 18.4462 303.509 22.3411 325.15C24.3144 336.076 27.2913 346.796 31.2339 357.174C33.223 362.384 35.9755 367.44 37.5218 372.791C39.2799 378.899 37.201 384.494 35.2248 390.249L11.0742 460.59L5.08143 478.023C3.36189 483.015 0.808232 488.289 0.102448 493.563C-0.462179 497.747 1.31511 500.923 5.23542 502.546C10.1952 504.612 15.8863 505.6 21.1669 506.447C27.3749 507.457 33.6579 507.933 39.9472 507.872C45.7218 507.814 52.5999 507.872 58.1179 505.979C61.9676 504.657 63.7962 500.987 63.2958 497.086C62.6542 492.023 58.4772 488.835 54.6018 486.063L55.4359 488.103C63.2894 463.542 77.8927 441.643 88.5564 418.295C99.3553 394.897 104.689 369.348 104.154 343.584C103.808 328.519 101.626 313.556 99.5859 298.671C99.2715 296.374 95.7875 297.349 96.1019 299.627C99.7014 325.901 102.608 351.759 97.738 378.078C95.3207 390.995 91.3367 403.57 85.8745 415.523C80.5297 427.348 74.3253 438.782 68.3838 450.299C62.205 462.233 56.0519 474.328 51.9519 487.16C51.746 487.948 52.0827 488.778 52.7796 489.2C56.0519 491.542 61.7623 495.841 59.3306 500.608C58.0858 503.014 54.7173 503.124 52.3561 503.432C49.6185 503.782 46.8638 504.024 44.092 504.157C33.7776 504.67 23.4435 503.676 13.4161 501.205C10.9715 500.602 8.20613 500.121 5.95404 498.953C3.02824 497.432 3.43247 494.462 4.22808 491.748C5.7423 486.615 7.68 481.629 9.41238 476.586L20.1531 445.326L30.695 414.67C34.1726 404.558 38.4329 394.401 41.0636 384.039C43.6301 374.016 38.4586 365.836 34.9746 356.77C23.2144 326.168 20.0569 292.93 25.8443 260.661C26.255 258.39 22.7709 257.414 22.3603 259.699L22.3411 259.705Z" fill="#192939"/>
<path d="M36.823 360.44C56.8505 351.824 78.3102 347.021 100.1 346.279C102.416 346.196 102.429 342.583 100.1 342.66C77.6762 343.444 55.597 348.414 35.0008 357.315C32.8706 358.232 34.7056 361.344 36.823 360.433V360.44Z" fill="#192939"/>
<path d="M123.301 230.139C128.254 227.618 137.738 224.872 141.048 230.884C142.486 233.489 143.044 236.742 143.647 239.616C144.409 243.146 144.892 246.731 145.091 250.338C145.245 253.546 145.033 257.042 142.704 259.481C140.856 261.406 138.155 262.272 135.646 262.881C132.765 263.581 129.307 264.678 126.811 262.567C123.885 260.09 123.763 255.843 123.603 252.301C123.494 249.985 119.875 249.972 119.99 252.301C120.35 260 123.044 268.662 132.464 267.187C140.124 265.987 147.535 263.151 148.613 254.521C149.184 249.895 148.356 244.98 147.516 240.437C146.74 236.267 145.938 231.455 143.467 227.862C138.681 220.964 127.748 223.832 121.511 227.002C119.439 228.06 121.261 231.179 123.333 230.126L123.301 230.139Z" fill="#1A73E8"/>
<path d="M148.073 242.497C157.402 240.18 166.731 237.871 175.984 235.272C180.507 233.989 185.018 232.667 189.49 231.23C190.658 230.851 191.819 230.473 192.987 230.081C193.68 229.85 195.957 228.657 196.464 228.894L196.901 228.734L196.856 230.498L196.753 234.618C196.695 236.94 200.308 236.94 200.365 234.618C200.442 231.621 201.944 224.666 196.856 225.109C194.456 225.314 191.973 226.623 189.695 227.367C186.975 228.253 184.243 229.108 181.502 229.934C170.138 233.321 158.621 236.177 147.117 239.032C144.859 239.59 145.834 243.074 148.073 242.516V242.497Z" fill="#1A73E8"/>
<path d="M182.957 232.289C183.199 233.907 183.285 235.544 183.213 237.178C183.136 239.507 186.749 239.501 186.832 237.178C186.887 235.22 186.758 233.261 186.447 231.327C186.181 230.362 185.189 229.79 184.221 230.043C183.267 230.324 182.702 231.304 182.937 232.27L182.957 232.289Z" fill="#1A73E8"/>
<path d="M171.043 236.158C171.444 237.205 171.63 238.322 171.589 239.443C171.512 241.772 175.131 241.766 175.201 239.443C175.262 238.001 175.044 236.561 174.56 235.202C174.282 234.246 173.299 233.679 172.333 233.919C171.371 234.185 170.8 235.172 171.05 236.139L171.043 236.158Z" fill="#1A73E8"/>
<path d="M98.548 88.9889C100.641 96.261 103.916 103.139 108.243 109.348L108.525 107.16C107.037 108.759 105.199 109.993 103.155 110.766C102.387 111.006 101.857 111.707 101.833 112.511L100.582 142.93C100.486 145.253 104.104 145.253 104.201 142.93L105.445 112.536L104.117 114.275C106.756 113.319 109.139 111.767 111.079 109.739C111.652 109.155 111.767 108.261 111.361 107.551C107.194 101.605 104.039 95.0095 102.026 88.0329C101.384 85.8 97.8935 86.7496 98.5416 88.9889H98.548Z" fill="#192939"/>
<path d="M74.6589 97.2461C70.0393 94.8528 64.8036 98.5293 64.7587 103.611C64.7074 108.847 69.5388 114.519 75.0632 113.133C77.3217 112.562 76.3464 109.078 74.1071 109.649C71.284 110.361 68.8458 107.082 68.4416 104.612C68.0374 102.142 70.097 98.9464 72.8367 100.364C74.9027 101.436 76.7314 98.3176 74.6589 97.2461Z" fill="#192939"/>
<path d="M75.411 98.8506C76.9258 96.5252 78.0325 93.9582 78.6833 91.2602C79.049 89.8936 79.3249 88.5077 79.6907 87.1282C80.3323 84.5938 81.3525 84.3949 83.8548 84.1639C87.2103 83.8657 90.5792 83.7437 93.9475 83.7982C97.1171 83.8495 101.313 83.4838 103.572 86.1401C105.08 87.9238 107.627 85.3509 106.138 83.5736C104.002 81.052 100.896 80.5195 97.7523 80.3077C92.9167 80.0126 88.0652 80.1092 83.2452 80.5965C80.0371 80.9045 77.6631 81.2381 76.6109 84.6194C75.2955 88.8991 74.8913 93.2108 72.312 97.0156C71.0288 98.9404 74.1278 100.756 75.4303 98.8378L75.411 98.8506Z" fill="#192939"/>
<path d="M69.5073 76.4516C72.2983 71.3956 76.9437 68.3736 82.7889 68.688C88.634 69.0024 94.3894 71.3122 99.6443 73.5964C101.954 74.6037 104.193 75.733 106.439 76.8558C108.204 77.7348 110.513 78.6203 111.572 80.4104C114.902 86.185 106.696 90.6763 102.698 92.7167C100.626 93.769 102.455 96.8937 104.521 95.835C109.968 93.0632 116.583 88.8413 115.749 81.7193C115.056 75.8485 108.21 73.5515 103.609 71.4084C96.9944 68.3158 89.6221 65.2489 82.2371 65.0307C75.4038 64.8382 69.6677 68.7008 66.4083 74.6037C65.2854 76.6441 68.4037 78.4534 69.533 76.4259L69.5073 76.4516Z" fill="#192939"/>
<path d="M58.348 77.6321L58.7137 82.47L60.5231 80.6606C53.6449 79.9035 50.039 86.4993 49.237 92.383C48.2039 99.9542 50.4304 107.551 53.9914 114.198C55.8369 117.565 57.9413 120.782 60.2857 123.822C61.7614 125.747 63.4938 128.115 66.1693 128.16C72.4957 128.256 74.087 117.207 74.2923 112.761C74.4014 110.432 70.789 110.438 70.68 112.761C70.5941 115.254 70.1178 117.717 69.2684 120.063C68.9989 120.794 68.3765 122.892 67.6194 123.489C65.393 125.234 64.4113 123.341 63.404 122.026C60.5905 118.434 58.1504 114.564 56.1216 110.477C53.8297 105.91 52.6304 100.874 52.6183 95.7644C52.6825 90.965 54.2865 83.5735 60.5423 84.2729C61.5377 84.2694 62.3447 83.4653 62.3517 82.47L61.986 77.6321C61.8127 75.3287 58.194 75.3095 58.3672 77.6321H58.348Z" fill="#192939"/>
<path d="M83.9943 98.0805C82.6265 98.1143 81.5257 99.2151 81.4919 100.583C81.511 101.634 82.0009 102.621 82.8265 103.271C83.5352 103.98 84.6843 103.98 85.393 103.271C86.1017 102.563 86.1017 101.413 85.393 100.705L85.0273 100.345C84.899 100.198 84.9182 100.217 85.0786 100.416C84.9845 100.241 84.9845 100.273 85.0786 100.512C85.0273 100.301 85.0273 100.352 85.0786 100.673C85.0852 100.857 85.0336 101.039 84.931 101.192C85.0273 101.032 84.9888 101.077 84.822 101.321C84.5961 101.549 84.2899 101.681 83.9686 101.686C84.6396 101.726 85.2774 101.391 85.625 100.816C85.9726 100.241 85.9726 99.52 85.625 98.9447C85.2774 98.3694 84.6396 98.0341 83.9686 98.0741L83.9943 98.0805Z" fill="#192939"/>
<path d="M95.2601 97.5157C93.8973 97.5527 92.8012 98.6488 92.7642 100.012C92.7832 101.063 93.2731 102.049 94.0988 102.7C94.5573 103.158 95.2255 103.338 95.8517 103.17C96.478 103.002 96.9672 102.513 97.135 101.886C97.3028 101.26 97.1237 100.592 96.6653 100.134L96.2996 99.7742C96.1712 99.6266 96.1905 99.6459 96.3509 99.8448C96.2568 99.6694 96.2568 99.7015 96.3509 99.941C96.2996 99.7293 96.2996 99.7806 96.3509 100.101C96.3575 100.286 96.3058 100.468 96.2033 100.621C96.2996 100.461 96.2611 100.506 96.0942 100.749C95.8684 100.978 95.5621 101.109 95.2409 101.115C95.9119 101.155 96.5497 100.82 96.8973 100.245C97.2448 99.6693 97.2448 98.9487 96.8973 98.3734C96.5497 97.7981 95.9119 97.4629 95.2409 97.5029L95.2601 97.5157Z" fill="#192939"/>
<path d="M84.4242 114.115C87.2024 116.232 90.6992 116.386 94.0485 116.117C96.3519 115.931 96.3712 112.312 94.0485 112.504C91.2639 112.729 88.5562 112.755 86.24 110.997C84.3857 109.585 82.5891 112.723 84.4178 114.115H84.4242Z" fill="#192939"/>
<path d="M196.78 210.364C197.97 208.444 198.912 206.381 199.584 204.224C200.373 201.529 200.553 198.084 203.915 197.416C206.95 196.82 209.921 199.341 211.698 201.542C212.198 202.184 214.483 204.885 212.609 205.219C212.109 205.302 210.729 204.686 210.043 204.667C208.984 204.635 207.842 205.867 208.297 206.951C209.366 209.292 209.566 211.937 208.862 214.413C208.252 216.659 211.736 217.621 212.346 215.375C213.248 212.275 213.048 208.958 211.781 205.988L210.043 208.279C212.025 208.337 213.385 209.896 215.374 208.709C216.824 207.836 217.062 206.142 216.901 204.564C216.491 200.471 212.872 196.813 209.369 194.94C206.071 193.195 201.721 193.118 199.026 196.011C197.912 197.361 197.128 198.951 196.735 200.657C196.049 203.402 195.002 206.045 193.623 208.516C192.436 210.525 195.548 212.366 196.748 210.345L196.78 210.364Z" fill="#192939"/>
<path d="M211.607 198.033C213.14 194.824 216.169 192.669 219.845 193.143C224.016 193.682 225.902 196.993 227.506 200.458C227.828 201.016 228.427 201.357 229.072 201.35L236.181 201.401C238.51 201.401 238.51 197.808 236.181 197.789L229.065 197.737L230.624 198.636C228.404 193.843 225.241 189.884 219.608 189.473C214.873 189.214 210.461 191.876 208.482 196.185C207.487 198.276 210.599 200.111 211.607 198.007V198.033Z" fill="#192939"/>
<path d="M211.876 222.825C214.545 226.386 219.832 227.522 224.066 226.347C226.205 225.637 227.983 224.123 229.026 222.126C229.597 221.125 229.86 219.495 230.54 218.603L230.412 218.18H232.337L235.494 218.115C237.816 218.07 237.829 214.458 235.494 214.503C233.665 214.535 231.002 214.086 229.225 214.798C227.852 215.356 227.582 216.383 227.082 217.679C226.055 220.342 224.881 222.876 221.641 223.062C219.376 223.197 216.508 222.998 215.026 221.035C213.646 219.193 210.535 220.99 211.901 222.857L211.876 222.825Z" fill="#192939"/>
<path d="M238.111 199.463C237.797 200.413 238.753 201.67 239.01 202.626C239.387 204.059 239.575 205.534 239.568 207.015C239.568 207.573 238.836 214.991 237.688 214.715C235.423 214.214 234.48 217.698 236.732 218.199C243.071 219.604 243.507 207.888 242.962 204.032C242.616 201.581 241.891 197.583 239.35 196.332C238.451 195.881 237.398 195.859 236.481 196.27C235.564 196.682 234.881 197.485 234.621 198.456C233.89 200.67 237.38 201.619 238.111 199.418V199.463Z" fill="#192939"/>
<path d="M52.4204 141.095C40.6659 141.095 31.4009 148.974 25.145 158.278C18.2733 168.492 12.2099 180.587 9.21358 192.566C6.42894 203.711 7.13472 215.363 13.1275 225.346C18.5299 234.361 27.1662 241.194 36.829 245.153C49.963 250.536 64.4187 250.722 78.3098 248.721C80.6004 248.393 79.5931 244.909 77.3474 245.237C56.5909 248.233 33.0755 245.185 19.1972 227.791C4.05494 208.805 13.8974 185.335 24.2789 166.676C30.2203 156 38.9912 144.675 52.4204 144.707C54.7431 144.707 54.7495 141.101 52.4204 141.095V141.095Z" fill="#192939"/>
<path d="M47.9796 210.3C61.6675 211.806 75.2721 213.981 88.7932 216.825C94.7923 218.108 101.164 220.412 107.355 220.117C110.563 219.963 113.688 218.898 116.909 218.75C119.944 218.615 125.654 220.585 123.325 224.698C122.183 226.725 125.301 228.548 126.444 226.52C129.196 221.631 125.443 216.466 120.419 215.42C117.211 214.778 114.041 215.42 110.871 216.017C106.001 216.896 101.69 216.017 96.9482 214.926C80.7923 211.233 64.4355 208.482 47.9604 206.688C45.6505 206.431 45.6634 210.05 47.9604 210.3H47.9796Z" fill="#192939"/>
<path d="M120.586 230.89C123.273 236.147 127.186 240.681 131.994 244.107C133.88 245.468 135.69 242.336 133.816 240.983C129.54 237.878 126.072 233.792 123.704 229.068C122.645 226.995 119.527 228.824 120.586 230.89Z" fill="#192939"/>
<path d="M119.63 247.797L120.913 249.08C121.622 249.789 122.771 249.789 123.48 249.08C124.189 248.371 124.189 247.222 123.48 246.513L122.197 245.23C121.488 244.521 120.339 244.521 119.63 245.23C118.921 245.939 118.921 247.088 119.63 247.797Z" fill="#192939"/>
<path d="M112.104 251.948L113.605 253.808C114.314 254.517 115.463 254.517 116.172 253.808C116.853 253.088 116.853 251.962 116.172 251.242L114.67 249.388C113.962 248.679 112.813 248.679 112.104 249.388C111.42 250.106 111.42 251.235 112.104 251.954V251.948Z" fill="#192939"/>
<path d="M77.8283 248.797C80.2254 248.585 82.6036 248.196 84.9439 247.636C87.1639 247.103 89.8523 246.167 92.1365 246.661C94.8377 247.251 96.2044 250.786 98.0907 252.692C99.8882 254.481 101.989 255.936 104.295 256.991C106.387 257.973 108.222 254.854 106.117 253.873C103.208 252.565 100.691 250.519 98.8158 247.938C97.2951 245.82 96.044 243.761 93.3235 243.164C88.3188 242.073 82.7881 244.729 77.8347 245.172C75.5377 245.378 75.5121 249.022 77.8347 248.791L77.8283 248.797Z" fill="#192939"/>
<path d="M14.6282 181.941C26.5109 189.15 39.6485 194.05 53.3501 196.383C55.6279 196.768 56.6031 193.291 54.3125 192.899C40.9194 190.635 28.0752 185.859 16.4569 178.822C14.4678 177.616 12.6456 180.747 14.6346 181.941H14.6282Z" fill="#192939"/>
<path d="M65.6494 145.939C69.9483 150.36 76.9548 152.131 82.7294 153.696C89.1456 155.441 95.7158 155.814 101.978 153.138C104.108 152.227 102.267 149.115 100.149 150.02C94.4839 152.451 88.3244 151.566 82.5818 149.891C77.7825 148.493 71.8154 147.075 68.2288 143.385C66.6055 141.717 64.0518 144.271 65.6623 145.952L65.6494 145.939Z" fill="#192939"/>
<path d="M116.178 183.314C118.241 194.35 119.074 205.581 118.661 216.8C118.577 219.123 122.19 219.123 122.273 216.8C122.682 205.256 121.806 193.702 119.662 182.351C119.238 180.067 115.754 181.036 116.178 183.314Z" fill="#192939"/>
<path d="M5.87002 485.094C13.791 487.414 21.8453 489.253 29.9886 490.599C30.9518 490.827 31.9258 490.264 32.2086 489.316C34.3195 483.708 40.6203 482.091 45.4645 485.338C47.3894 486.621 49.2116 483.503 47.2867 482.213C40.3636 477.574 31.6055 480.692 28.7246 488.353L30.951 487.07C22.8089 485.718 14.755 483.879 6.83246 481.565C4.59961 480.923 3.62435 484.394 5.87002 485.049V485.094Z" fill="#192939"/>
<path d="M131.84 276.516C160.764 323.226 178.884 375.531 190.087 429.093C193.263 444.306 195.9 459.622 198.145 474.995C198.286 475.951 199.525 476.503 200.365 476.278C205.12 474.892 218.331 479.274 216.278 485.973C215.514 488.501 213.711 489.277 211.626 490.464C208.365 492.409 204.928 494.042 201.36 495.341C194.387 497.819 187.003 498.938 179.609 498.639C172.249 498.331 164.428 497.176 160.79 489.996C157.075 482.662 154.502 474.546 151.461 466.898L142.189 443.664C136.306 428.907 130.243 414.246 124.571 399.425C118.372 383.224 112.932 366.683 109.775 349.532C109.351 347.248 105.867 348.249 106.284 350.495C109.576 368.402 115.395 385.662 121.946 402.613C128.767 420.265 135.972 437.781 142.985 455.361L153.925 482.765C156.761 489.874 158.994 497.137 166.757 500.089C174.033 502.841 182.746 502.764 190.343 501.725C198.15 500.649 205.677 498.079 212.511 494.154C214.994 492.723 217.336 491.703 218.761 489.117C220.583 485.806 220.416 482.495 218.055 479.493C214.135 474.501 205.62 470.978 199.396 472.781L201.617 474.065C193.692 419.764 180.565 365.874 157.261 315.988C150.64 301.799 143.188 288.012 134.946 274.7C133.727 272.724 130.595 274.539 131.827 276.522L131.84 276.516Z" fill="#192939"/>
<path d="M108.51 351.784C128.099 346.965 147.649 345.291 167.674 348.088C169.952 348.403 170.933 344.925 168.636 344.604C147.925 341.71 127.816 343.321 107.547 348.294C105.289 348.852 106.264 352.336 108.51 351.784Z" fill="#192939"/>
<path d="M159.129 492.139C168.42 489.666 177.768 487.446 187.175 485.479C187.804 485.316 188.295 484.825 188.458 484.196C189.247 481.026 191.711 478.546 194.874 477.734C197.113 477.093 196.157 473.628 193.912 474.25C189.529 475.409 186.113 478.844 184.98 483.233L186.264 481.95C176.853 483.913 167.507 486.133 158.225 488.61C155.979 489.207 156.941 492.697 159.181 492.094L159.129 492.139Z" fill="#192939"/>
<path d="M111.199 145.958C116.165 143.77 121.632 146.061 125.315 149.603C128.998 153.144 130.775 158.149 131.872 163.077C132.969 168.004 133.463 173.169 134.394 178.219C135.481 183.934 137.028 189.551 139.02 195.017C140.476 199.014 141.907 203.358 145.975 205.404C150.396 207.612 156.087 208.189 160.912 209.074C172.504 211.197 184.263 212.271 196.047 212.283C198.376 212.283 198.376 208.677 196.047 208.67C183.334 208.666 170.652 207.393 158.191 204.872C155.458 204.314 152.699 203.749 149.998 203.005C146.52 202.049 144.865 200.117 143.582 196.858C141.414 191.453 139.714 185.872 138.5 180.176C136.338 170.308 136.633 158.784 130.582 150.212C125.847 143.494 117.288 139.356 109.409 142.846C107.285 143.783 109.12 146.895 111.231 145.965L111.199 145.958Z" fill="#192939"/>
<path d="M121.349 197.981C128.096 196.798 134.462 194.02 139.917 189.878C141.752 188.485 139.95 185.348 138.095 186.753C132.9 190.718 126.825 193.375 120.386 194.497C118.102 194.901 119.071 198.385 121.349 197.981Z" fill="#192939"/>
<path d="M375.529 420.547H255.777L257.58 422.35V53.5069C257.58 51.9414 257.907 49.978 257.58 48.4381C257.56 48.2247 257.56 48.0099 257.58 47.7965L255.777 49.6059H356.223C357.506 49.6059 358.789 49.5674 360.021 49.6059C367.545 49.7128 373.617 55.7876 373.72 63.3109C373.765 64.8829 373.72 66.4613 373.72 68.0332V397.686C373.72 405.552 373.579 413.431 373.72 421.304V422.35C373.72 424.679 377.339 424.679 377.339 422.35V71.4852C377.339 68.9764 377.339 66.4677 377.339 63.9654C377.268 54.572 370.531 46.5967 360.907 45.9999C356.364 45.7305 351.738 45.9999 347.189 45.9999H255.777C254.784 46.0137 253.982 46.8158 253.968 47.8093V407.118C253.968 411.962 253.692 416.902 253.968 421.74V422.382C253.982 423.375 254.784 424.177 255.777 424.191H375.529C377.852 424.159 377.858 420.547 375.529 420.547Z" fill="#1A73E8"/>
<path d="M77.084 103.708H80.6193V107.243H77.084V103.708Z" fill="#BAD5F8"/>
<path d="M69.3397 201.96C68.0565 189.884 77.8091 178.913 90.2951 180.286C96.5702 180.979 100.478 186.413 102.229 192.091C104.199 198.476 103.513 205.232 102.345 211.699C101.928 213.971 105.412 214.946 105.829 212.662C107.24 204.918 107.972 196.762 105.059 189.256C102.601 182.903 97.7892 177.475 90.7314 176.705C76.2949 175.121 64.2324 187.709 65.7081 201.96C65.9455 204.25 69.5579 204.276 69.3205 201.96H69.3397Z" fill="#1A73E8"/>
<path d="M81.3579 197.879L81.6466 197.032C81.9037 196.065 81.3298 195.072 80.3634 194.812C79.3982 194.569 78.415 195.138 78.1433 196.095L77.8546 196.948C77.5975 197.916 78.1714 198.909 79.1379 199.168C80.103 199.411 81.0862 198.843 81.3579 197.885V197.879Z" fill="#1A73E8"/>
<path d="M94.3243 202.042C96.6534 202.042 96.6534 198.43 94.3243 198.43C91.9952 198.43 91.9952 202.042 94.3243 202.042Z" fill="#1A73E8"/>
<path d="M96.0937 200.715L96.3761 199.868C96.6298 198.9 96.0578 197.907 95.0928 197.641C94.1281 197.403 93.1473 197.969 92.8728 198.925L92.5905 199.772C92.3331 200.74 92.9064 201.735 93.8737 201.998C94.84 202.237 95.8228 201.671 96.1002 200.715H96.0937Z" fill="#1A73E8"/>
<path d="M123.89 87.8789C125.864 87.1495 127.687 86.0619 129.266 84.6708C131.024 83.1437 128.464 80.5965 126.7 82.1043C125.585 83.0777 124.302 83.8408 122.914 84.3564C121.963 84.6393 121.399 85.6176 121.631 86.5828C121.897 87.5479 122.889 88.1198 123.858 87.8661L123.89 87.8789Z" fill="#1A73E8"/>
<path d="M123.666 97.843C125.029 98.735 126.827 98.5645 127.997 97.4324C128.702 96.722 128.702 95.5763 127.997 94.8659C127.28 94.1782 126.148 94.1782 125.431 94.8659C125.29 94.9942 125.322 94.975 125.527 94.8018C125.356 94.8916 125.395 94.8787 125.643 94.7633C125.57 94.7905 125.494 94.812 125.418 94.8274C125.681 94.7953 125.745 94.7889 125.604 94.7953C125.136 94.7376 125.931 94.8723 125.566 94.7953C125.38 94.7376 125.418 94.7504 125.675 94.8467L125.482 94.7183C124.622 94.2199 123.521 94.5059 123.012 95.36C122.532 96.2226 122.814 97.3104 123.654 97.8302L123.666 97.843Z" fill="#1A73E8"/>
<path d="M120.632 77.5617L123.584 72.0309C124.675 69.9777 121.556 68.1491 120.459 70.2023L117.508 75.7395C116.417 77.7862 119.535 79.5892 120.632 77.5617Z" fill="#1A73E8"/>
<path d="M201.232 175.653C201.584 177.894 202.664 179.957 204.305 181.524C205.98 183.141 208.54 180.587 206.872 178.957C205.689 177.819 204.931 176.312 204.722 174.684C204.581 173.715 203.362 173.183 202.502 173.401C201.545 173.672 200.977 174.656 201.219 175.621L201.232 175.653Z" fill="#1A73E8"/>
<path d="M214.052 167.697C213.359 170.775 213.115 173.936 213.327 177.084C213.487 179.394 217.106 179.407 216.939 177.084C216.726 174.263 216.921 171.425 217.517 168.659C218.017 166.388 214.533 165.451 214.033 167.697H214.052Z" fill="#1A73E8"/>
<path d="M226.909 171.7C225.602 174.467 224.701 177.408 224.234 180.433C223.893 182.704 227.377 183.686 227.724 181.389C228.108 178.67 228.886 176.022 230.034 173.529C231.009 171.431 227.891 169.596 226.909 171.7Z" fill="#1A73E8"/>
<path d="M53.4407 267.68C52.3243 274.244 48.1024 279.473 42.655 283.118C40.6532 284.459 38.6385 285.537 38.2022 288.116C37.6504 291.363 38.523 295.277 38.8438 298.53C40.3325 313.613 43.1233 328.539 47.1849 343.142C47.8265 345.374 51.2977 344.425 50.6689 342.179C46.6798 327.899 43.932 313.302 42.4561 298.549C42.1674 295.617 40.82 290.798 42.3278 288.238C43.611 286.012 47.0116 284.555 48.9686 282.739C53.0236 278.973 55.9943 274.148 56.9247 268.662C57.3161 266.384 53.8321 265.409 53.4407 267.7V267.68Z" fill="#BAD5F8"/>
<path fill-rule="evenodd" clip-rule="evenodd" d="M257.716 18.5026C257.716 5.99216 245.367 -2.77495 233.556 1.35047L139.109 34.3403C138.17 34.6682 137.675 35.6951 138.003 36.6338C138.331 37.5726 139.358 38.0677 140.297 37.7398L234.743 4.74999C244.213 1.44222 254.115 8.47171 254.115 18.5026V24.7991C254.114 24.8239 254.113 24.8488 254.113 24.8741V422.352C254.113 424.682 257.726 424.675 257.726 422.352V24.8741C257.726 24.8022 257.722 24.7325 257.716 24.6651V18.5026Z" fill="#1A73E8"/>
<path d="M268.725 143.969V215.298C268.725 217.621 272.338 217.628 272.338 215.298V143.969C272.338 141.64 268.725 141.64 268.725 143.969Z" fill="white"/>
<path d="M268.724 124.862V125.503C268.684 126.174 269.019 126.812 269.594 127.16C270.17 127.507 270.89 127.507 271.466 127.16C272.041 126.812 272.376 126.174 272.336 125.503V124.862C272.329 123.868 271.527 123.063 270.533 123.052C269.541 123.069 268.741 123.87 268.724 124.862Z" fill="white"/>
<path d="M282.736 96.2005V167.53C282.736 169.859 286.349 169.859 286.349 167.53V96.2005C286.349 93.8714 282.736 93.8714 282.736 96.2005Z" fill="white"/>
</svg>
