<svg width="1359" height="1474" viewBox="0 0 1359 1474" fill="none" xmlns="http://www.w3.org/2000/svg">
<circle cx="659.795" cy="814.5" r="659.5" fill="#BAD5F8"/>
<path d="M269.896 1349.48C250.696 1384.68 261.896 1409.15 269.896 1416.98C481.396 1473.98 811.396 1426.48 840.896 1422.48C870.396 1418.48 878.396 1403.48 863.396 1389.48C851.396 1378.28 828.73 1252.82 818.896 1191.48L896.896 1095.48L968.396 978.982L1008.4 836.982L1023.4 787.982L1061.9 753.982C1070.56 748.149 1085 731.882 1073.4 713.482C1061.8 695.082 1023.23 703.816 1005.4 710.482C988.896 703.316 950.096 693.282 926.896 710.482C903.696 727.682 909.896 757.982 915.896 770.982C881.896 838.582 783.73 941.816 738.896 984.982L698.896 907.982L665.396 914.482L630.396 899.982L611.396 866.982L597.896 832.482H574.896L545.396 862.482L501.396 889.982L505.396 914.482L517.396 959.982L509.896 1040.48C507.496 1064.88 492.23 1057.32 484.896 1050.48C447.396 1015.98 435.896 744.982 452.896 711.982C469.896 678.982 462.896 652.482 426.896 638.982C390.896 625.482 388.396 648.982 384.896 669.482C382.096 685.882 355.396 698.316 342.396 702.482C275.896 984.482 343.896 1117.98 352.896 1153.98C361.896 1189.98 293.896 1305.48 269.896 1349.48Z" fill="#F1F1F1"/>
<path d="M333.504 612.068C367.101 632.732 415.537 643.941 415.537 643.941L1033.86 744.184C1059.17 747.701 1092.61 749.899 1126.51 712.968C1209.49 622.572 994.985 169.987 921.763 71.9432C863.186 -6.4922 760.813 32.3737 659.611 128.219C505.255 274.405 401.075 371.352 333.504 456.428C265.331 542.261 299.906 591.404 333.504 612.068Z" fill="#1A73E8"/>
<path d="M445.211 835.41C445.211 835.41 420.83 840.774 437.092 872.665C453.354 904.556 482.441 942.688 491.462 950.417C500.483 958.146 524.913 958.633 517.843 934.935C513.302 919.936 507.721 905.271 501.142 891.048C501.142 891.048 518.989 867.423 540.371 857.548C561.753 847.674 596.448 817.49 602.251 847.162C608.053 876.834 618.196 900.801 630.119 904.751C642.041 908.7 668.275 905.945 667.446 925.621C666.617 945.297 627.827 967.24 622.926 976.822C618.025 986.403 613.442 991.572 636.823 1006.08C660.205 1020.59 703.506 1047.26 721.231 1041.12C738.957 1034.97 741.248 1003.76 738.152 973.286C735.056 942.81 742.638 911.553 729.765 891.268C716.891 870.983 691.925 870.763 691.925 870.763C691.925 870.763 680.832 811.59 667.544 804.349C654.256 797.107 558.657 790.134 525.23 804.349" fill="#1A73E8"/>
<path d="M577.722 832.461C555.486 842.799 531.397 851.649 510.308 864.157C494.996 873.324 490.656 887.977 498.653 903.996C504.212 915.138 510.625 923.842 510.844 936.886C511.112 948.955 507.772 960.853 505.505 972.58C500.829 996.726 500.705 1021.53 505.139 1045.72C506.724 1054.55 520.182 1050.82 518.597 1042.02C514.542 1018.88 514.948 995.177 519.792 972.19C523.279 954.904 527.765 936.423 522.011 919.088C519.353 911.115 514.136 904.459 510.625 896.998C504.481 883.808 514.014 877.493 524.936 872.3C544.71 862.743 564.775 853.746 584.671 844.481C592.814 840.702 585.719 828.682 577.649 832.437L577.722 832.461Z" fill="#192939"/>
<path d="M337.565 690.903C318.694 768.07 311.648 848.382 312.77 927.694C313.891 1006.42 322.766 1086.9 348.708 1161.61C351.633 1170.02 365.092 1166.48 362.142 1157.9C336.59 1084.27 327.813 1005.28 326.716 927.694C325.594 849.674 332.421 770.606 351.097 694.609C353.218 685.905 339.784 682.175 337.663 690.903H337.565Z" fill="#192939"/>
<path d="M1009.05 791.402C990.136 907.359 942.129 1016.63 869.516 1108.99C857.472 1124.26 844.777 1138.99 831.433 1153.2C820.388 1164.95 808.685 1176.11 807.198 1193.06C805.515 1212.03 811.879 1232.85 814.219 1251.57C815.999 1265.93 817.511 1280.32 819.608 1294.63C821.641 1308.83 824.523 1322.9 828.239 1336.76C830.677 1345.42 833.115 1353.98 836.041 1362.48C839.015 1371.41 844.769 1382.67 843.672 1392.33C842.209 1405.27 826.288 1405.76 816.243 1407.59C804.703 1409.65 793.146 1411.6 781.573 1413.42C759.028 1416.93 736.411 1419.91 713.72 1422.36C668.663 1427.24 623.452 1430.03 578.087 1430.73C476.298 1432.32 374.615 1423.46 274.638 1404.27C265.86 1402.59 262.106 1416.03 270.932 1417.71C452.915 1452.73 639.809 1453.76 822.168 1420.76C837.308 1418 853.863 1414.44 857.033 1396.79C860.129 1379.72 849.938 1361.34 845.135 1345.44C835.821 1314.7 832.042 1283.49 828.068 1251.72C827.044 1243.65 825.996 1235.58 824.825 1227.53C823.045 1215.34 818.34 1200.89 821.875 1188.67C824.703 1178.92 833.115 1171.6 839.82 1164.53C847.183 1156.73 854.367 1148.76 861.373 1140.61C945.667 1042.38 1001.33 922.867 1022.29 795.132C1023.75 786.355 1010.32 782.576 1008.85 791.426L1009.05 791.402Z" fill="#192939"/>
<path d="M483.314 1052.36C496.64 1084.92 513.76 1115.79 534.32 1144.35C535.442 1146.17 537.33 1147.39 539.456 1147.67C541.582 1147.94 543.718 1147.24 545.267 1145.76L605.586 1090.83L633.966 1065.01L649.911 1050.38C653.91 1046.75 664.93 1040.31 661.419 1034.26C665.93 1042.02 677.974 1035.02 673.464 1027.24C669.27 1019.93 661.809 1021.88 656.031 1026C641.402 1036.36 628.48 1051.09 615.217 1063.13L535.417 1135.81L546.364 1137.23C526.411 1109.72 509.758 1079.97 496.748 1048.58C493.384 1040.38 479.877 1043.97 483.314 1052.28V1052.36Z" fill="#192939"/>
<path d="M930.128 750.637C923.911 744.737 917.937 736.228 917.767 727.231C917.767 716.747 928.031 713.237 936.15 709.457C943.465 705.971 954.68 700.388 963.165 702.704C970.967 704.825 972.161 712.603 966.285 717.771C963.847 720.015 959.654 720.917 956.533 721.965C953.903 722.789 951.992 725.066 951.636 727.799C951.28 730.531 952.544 733.222 954.875 734.692C965.599 741.443 970.896 754.226 968.09 766.583C966.188 775.311 979.646 779.066 981.548 770.289C985.875 751.851 977.984 732.705 961.921 722.672L960.288 735.399C972.673 731.206 987.936 723.208 985.108 707.531C982.133 691.05 963.847 686.417 949.731 689.635C935.614 692.854 910.818 701.509 905.259 716.138C899.359 731.62 909.233 750.101 920.254 760.609C926.763 766.778 936.638 756.952 930.006 750.735L930.128 750.637Z" fill="#192939"/>
<path d="M513.381 959.243C487.368 940.214 466.113 915.421 451.282 886.806C447.414 879.403 444.034 871.756 441.164 863.912C439.726 859.913 436.849 853.94 438.214 849.795C439.579 845.65 444.87 843.212 448.186 841.652C464.79 833.85 482.978 828.364 500.435 822.854C534.886 811.955 571.58 801.228 607.713 798.326C638.75 795.888 681.612 806.47 684.928 844.017C685.708 852.867 699.557 852.965 698.874 844.017C695.558 806.47 660.254 785.843 625.462 784.039C602.446 782.844 579.138 788.111 556.829 793.133C533.569 798.399 510.594 804.771 487.903 812.248C476.948 815.856 466.082 819.725 455.305 823.853C447.43 826.852 438.238 829.559 431.899 835.288C417.904 847.723 426.487 865.716 432.655 879.979C448.641 916.416 474.08 947.915 506.335 971.214C513.65 976.529 520.525 964.436 513.357 959.169L513.381 959.243Z" fill="#192939"/>
<path d="M721.595 852.478L706.723 873.154C704.455 876.299 706.308 880.809 709.161 882.687C730.836 896.633 732.689 923.647 732.128 947.053C731.567 971.02 730.324 995.011 729.397 1018.98L729.007 1028.73C727.715 1033.29 725.106 1035.07 721.205 1034.02C715.963 1035.19 707.918 1032.24 702.724 1030.9C691.304 1027.8 680.277 1023.4 669.858 1017.78C659.911 1012.54 650.353 1006.57 641.015 1000.4C637.846 998.327 628.825 994.328 627.094 991.013C623.29 983.698 629.849 979.261 634.408 976.018C646.33 967.558 661.422 963.535 670.614 951.491C679.419 940.088 678.898 924.043 669.371 913.236C665.134 908.023 659.411 904.222 652.962 902.338C649.33 901.664 645.627 901.451 641.942 901.704C635.408 901.558 634.969 899.656 631.555 894.219C618.902 874.202 607.174 853.185 607.564 828.853C607.564 819.88 593.716 819.88 593.618 828.853C593.374 848.358 599.665 866.229 608.783 883.199C615.293 895.389 623.412 917.332 639.869 916.162C650.036 915.406 660.569 918.43 662.812 930.279C664.86 941.055 655.498 947.882 647.452 952.636C635.261 959.683 619.901 965.242 613.318 978.554C605.37 994.402 618.975 1002.42 630.385 1010.1C647.159 1021.29 664.519 1031.9 683.292 1039.24C696.434 1044.36 721.205 1053.55 734.834 1045.53C740.003 1042.46 741.929 1037.41 742.685 1031.75C744.319 1019.68 743.734 1006.91 744.197 994.743C745.757 954.124 756.558 896.73 716.11 870.691L718.548 880.224L733.542 859.5C738.809 852.186 726.715 845.261 721.522 852.478H721.595Z" fill="#192939"/>
<path d="M1023.02 776.31C1033.58 772.824 1042.04 766.558 1050.38 759.244C1059.27 751.539 1069.61 744.054 1076.05 734.107C1080.92 726.548 1068.88 719.478 1064 727.06C1058.86 735.009 1049.99 741.08 1042.94 747.248C1035.89 753.416 1028.55 759.707 1019.31 762.779C1010.85 765.583 1014.44 779.066 1023.02 776.213V776.31Z" fill="#192939"/>
<path d="M451.526 701.777C463.717 690.367 469.154 673.714 463.961 657.549C458.767 641.385 444.748 632.9 429.388 627.097C416.393 622.221 401.691 621.221 393.767 634.972C386.843 646.943 393.157 661.792 405.348 667.034L408.883 654.038C396.327 653.039 386.575 660.329 382.454 671.91C379.431 680.37 392.889 684.101 395.888 675.616C397.851 670.303 403.287 667.111 408.883 667.985C415.539 668.497 418.636 657.72 412.394 654.989C401.13 650.113 404.617 635.85 417.271 637.679C424.92 639.187 432.196 642.195 438.677 646.529C455.305 657.549 455.744 678.664 441.798 691.927C435.24 698.095 445.114 707.921 451.551 701.679L451.526 701.777Z" fill="#192939"/>
<path d="M548.734 883.173V883.515L548.49 881.662C548.515 881.995 548.515 882.329 548.49 882.661L548.734 880.808C548.734 881.125 548.564 881.467 548.515 881.784C549.027 880.711 549.149 880.418 548.905 880.906L548.661 881.345L549.344 880.467C549.193 880.634 549.03 880.789 548.856 880.93L549.758 880.248C549.124 880.613 549.393 880.516 550.514 880.004C548.792 880.546 547.316 881.676 546.345 883.198C545.402 884.785 545.128 886.682 545.586 888.47C546.043 890.259 547.194 891.792 548.783 892.731C550.392 893.71 552.339 893.966 554.147 893.438C560.037 891.574 563.485 885.476 562.046 879.468C561.558 877.725 560.413 876.239 558.852 875.323C555.538 873.37 551.269 874.459 549.295 877.761C548.439 879.412 548.198 881.312 548.612 883.125L548.734 883.173Z" fill="#192939"/>
<path d="M589.373 890.244V890.585L589.129 888.732C589.153 889.065 589.153 889.399 589.129 889.732L589.373 887.879C589.373 888.196 589.202 888.537 589.178 888.854C589.665 887.782 589.787 887.489 589.543 887.977C589.476 888.123 589.394 888.261 589.3 888.391L589.982 887.538L589.519 888.001L590.397 887.318C589.787 887.66 590.031 887.587 591.153 887.075C589.438 887.617 587.97 888.749 587.008 890.268C585.058 893.576 586.147 897.837 589.446 899.802C591.056 900.777 593.002 901.034 594.81 900.509C597.594 899.565 599.952 897.665 601.466 895.145C602.892 892.516 603.333 889.464 602.709 886.538C602.224 884.788 601.079 883.293 599.515 882.369C597.887 881.445 595.96 881.2 594.152 881.686C592.399 882.167 590.903 883.313 589.982 884.88C589.131 886.532 588.881 888.428 589.275 890.244H589.373Z" fill="#192939"/>
<path d="M186.084 343.743C207.255 300.533 245.709 268.288 291.948 254.971C300.554 252.533 296.824 239.05 288.242 241.537C238.501 255.77 197.049 290.284 174.04 336.624C170.09 344.645 182.11 351.74 186.084 343.67V343.743Z" fill="#192939"/>
<path d="M149.657 234.929C159.734 221.432 173.693 211.334 189.667 205.989C198.127 203.136 194.543 189.653 185.961 192.554C166.581 199.038 149.695 211.383 137.637 227.883C132.273 235.197 144.366 242.048 149.657 234.929Z" fill="#192939"/>
<path d="M1194.32 242.365C1227.57 247.061 1258.14 263.211 1280.75 288.031C1286.82 294.663 1296.65 284.789 1290.5 278.279C1266.25 251.642 1233.5 234.237 1197.86 229.029C1189.08 227.736 1185.27 241.219 1194.15 242.463L1194.32 242.365Z" fill="#192939"/>
<path d="M1271.71 168.54C1301.77 172.568 1328.53 189.64 1344.85 215.205C1349.73 222.739 1361.75 215.766 1356.89 208.159C1338.79 179.405 1309.01 160.011 1275.39 155.081C1266.61 153.838 1262.81 167.272 1271.68 168.54H1271.71Z" fill="#192939"/>
<path d="M541.418 1131.13H540.37C537.878 1131.13 535.576 1132.46 534.331 1134.62C533.085 1136.78 533.085 1139.43 534.331 1141.59C535.576 1143.75 537.878 1145.08 540.37 1145.08H541.418C545.269 1145.08 548.391 1141.96 548.391 1138.1C548.391 1134.25 545.269 1131.13 541.418 1131.13V1131.13Z" fill="#192939"/>
<path d="M530.229 1139.23C541.054 1156.83 559.779 1170.07 565.85 1190.43C572.75 1213.49 564.241 1239.19 559.828 1261.84C550.508 1310.14 544.447 1359.01 541.688 1408.13C541.176 1417.08 555.122 1417.05 555.634 1408.13C558.835 1354.19 565.94 1300.56 576.894 1247.65C581.088 1227.22 585.379 1205.15 578.65 1184.79C571.726 1163.78 553.537 1150.66 542.273 1132.28C537.567 1124.65 525.499 1131.64 530.229 1139.3V1139.23Z" fill="#192939"/>
<path d="M524.373 1199.81H522.813C518.962 1199.81 515.84 1202.93 515.84 1206.79C515.84 1210.64 518.962 1213.76 522.813 1213.76H524.373C528.224 1213.76 531.346 1210.64 531.346 1206.79C531.346 1202.93 528.224 1199.81 524.373 1199.81Z" fill="#192939"/>
<path d="M373.795 656C373.795 656 343.668 649.296 308.886 627.276C274.104 605.255 238.31 552.887 308.886 461.419C378.839 370.759 486.692 267.448 646.489 111.667C751.259 9.52952 857.241 -31.8876 917.883 51.6965C993.686 156.177 1204.83 629.749 1129.85 734.8C1108.29 765 1083.5 773.248 1057.29 769.5" stroke="#192939" stroke-width="14" stroke-linecap="round"/>
<path d="M492.295 685L747.295 727.5" stroke="#192939" stroke-width="14" stroke-linecap="round"/>
<path d="M715.424 455.243C725.266 358.441 755.406 164.001 797.228 160.652C839.05 157.303 764.594 388.148 722.138 503.989" stroke="#192939" stroke-width="14" stroke-linecap="round"/>
<path d="M682.467 601C653.674 580.147 686.123 532.116 716.745 549.858C746.367 567.02 728.981 601 703.578 601" stroke="#192939" stroke-width="14" stroke-linecap="round" stroke-linejoin="round"/>
<path d="M548.295 933.944C554.795 928 578.295 924.5 586.295 945.001" stroke="#192939" stroke-width="14" stroke-linecap="round"/>
</svg>
