<svg width="208" height="221" viewBox="0 0 208 221" fill="none" xmlns="http://www.w3.org/2000/svg">
<path d="M25.646 71.9874C25.646 71.9874 27.8491 72.3551 26.8519 74.6542C25.8547 76.9534 24.0492 80.7267 22.5651 79.0239C21.0809 77.3211 17.1121 71.6031 16.6383 66.2594C16.1646 60.9158 14.1338 52.077 18.1357 48.413C22.1377 44.7489 23.8008 44.2553 25.4241 44.4673C27.0474 44.6794 26.7823 39.7134 28.9722 38.0304C31.162 36.3475 47.5773 33.4752 54.9285 37.666C62.2798 41.8568 63.542 36.0692 63.6248 43.8313C63.7076 51.5933 60.4676 56.0856 58.1486 54.6909C55.8296 53.2961 56.797 51.5006 58.3607 50.1158C62.4189 46.5147 53.6332 46.6571 50.105 46.1635C46.5768 45.6699 31.8345 44.0963 32.0763 49.0822C32.3182 54.068 31.4568 63.8443 28.6409 62.8737C25.8249 61.903 21.6606 62.9234 22.5783 67.1406C23.496 71.3579 25.646 71.9874 25.646 71.9874Z" fill="#5B5B5B"/>
<path d="M149.874 150.107C147.153 149.975 141.78 148.324 139.875 141.468C137.97 134.611 131.508 85.1459 131.508 78.7518C131.508 73.7565 131.508 67.7323 139.603 65.5556C140.085 65.4258 140.607 65.2833 141.167 65.1305L141.227 65.1143C144.331 64.2679 149.535 62.8485 154.976 61.7958C155.652 61.665 156.331 61.54 157.017 61.4206C167.529 59.5908 178.138 63.0461 186.793 69.2852C196.208 76.0726 202.769 86.147 204.517 97.6214C206.38 109.855 207.969 123.104 207.829 128.476C208.441 131.333 207.747 137.686 200.074 140.243C190.483 143.44 158.309 150.515 149.874 150.107Z" fill="#CBCBCB"/>
<path fill-rule="evenodd" clip-rule="evenodd" d="M195.161 117.753C195.26 118.308 194.89 118.838 194.336 118.937L179.847 121.522C179.292 121.621 178.762 121.251 178.663 120.696C178.564 120.142 178.934 119.612 179.489 119.513L193.977 116.928C194.532 116.829 195.062 117.198 195.161 117.753Z" fill="#5B5B5B"/>
<path fill-rule="evenodd" clip-rule="evenodd" d="M196.865 124.305C196.952 124.862 196.571 125.384 196.014 125.471L174.247 128.872C173.691 128.959 173.169 128.578 173.082 128.021C172.995 127.464 173.376 126.943 173.932 126.856L195.699 123.455C196.256 123.368 196.778 123.748 196.865 124.305Z" fill="#5B5B5B"/>
<path fill-rule="evenodd" clip-rule="evenodd" d="M166.27 56.7413C168.709 56.5571 171.118 57.2671 173.089 58.6876L195.343 74.7305C197.487 76.2758 198.986 78.5691 199.475 81.1848C200.783 88.1762 202.256 97.54 203.378 106.11C204.485 114.565 205.262 122.336 205.178 126.275C205.498 127.899 205.441 130.367 204.31 132.794C203.132 135.321 200.818 137.738 196.724 139.103C191.867 140.721 181.376 143.299 171.073 145.418C165.913 146.478 160.782 147.428 156.406 148.087C152.059 148.742 148.374 149.124 146.152 149.017C143.141 148.871 137.277 147.041 135.219 139.632C134.723 137.846 133.953 133.4 133.082 127.721C132.207 122.01 131.22 114.977 130.293 107.961C129.365 100.945 128.497 93.9417 127.861 88.2899C127.228 82.6702 126.815 78.3124 126.815 76.643L126.815 76.5528C126.815 74.1147 126.814 71.1853 127.907 68.5919C129.053 65.8685 131.347 63.6225 135.665 62.4615C136.083 62.349 136.531 62.2268 137.01 62.096C137.081 62.0766 137.153 62.0571 137.226 62.0373L137.292 62.0191C140.396 61.1728 145.631 59.7452 151.109 58.6853C155.659 57.8049 160.33 57.1902 166.27 56.7413ZM171.895 60.3429C170.302 59.1942 168.367 58.6294 166.424 58.7762C160.811 59.2003 156.369 59.772 152.095 60.5746C152.072 60.7151 152.053 60.8872 152.039 61.0946C152 61.6737 152.006 62.4657 152.074 63.4965C152.21 65.5554 152.583 68.4793 153.26 72.3875C153.322 72.7431 153.381 73.0868 153.439 73.4191C154.327 78.553 154.744 80.9612 155.33 82.6559C155.811 84.0489 155.052 85.8541 153.347 86.0943L141.293 87.7937C139.948 87.9833 138.717 87.0108 138.59 85.6583L136.591 64.3249C136.456 64.3615 136.324 64.3973 136.195 64.4321C132.418 65.4478 130.664 67.3022 129.787 69.3839C128.869 71.5635 128.855 74.1035 128.855 76.643C128.855 78.1706 129.25 82.3938 129.888 88.0615C130.523 93.697 131.39 100.687 132.316 107.694C133.242 114.701 134.227 121.719 135.099 127.412C135.977 133.136 136.729 137.444 137.185 139.086C138.936 145.39 143.82 146.861 146.25 146.979C148.245 147.075 151.745 146.726 156.102 146.07C160.431 145.417 165.524 144.475 170.662 143.419C180.952 141.303 191.344 138.745 196.078 137.167C199.657 135.974 201.526 133.935 202.46 131.932C203.412 129.89 203.423 127.817 203.158 126.581L203.132 126.462L203.135 126.34C203.233 122.627 202.476 114.943 201.355 106.375C200.237 97.8362 198.769 88.5097 197.469 81.56C197.08 79.4776 195.884 77.6355 194.15 76.3859L171.895 60.3429ZM138.59 63.7806L140.622 85.4679C140.64 85.6612 140.816 85.8001 141.008 85.773L153.063 84.0736C153.173 84.0581 153.281 83.991 153.359 83.8448C153.441 83.6911 153.461 83.4955 153.401 83.3225C152.759 81.4644 152.313 78.8864 151.46 73.9537C151.393 73.5628 151.323 73.1572 151.25 72.7359C150.566 68.7944 150.18 65.7914 150.038 63.6306C149.968 62.5678 149.955 61.6873 150.001 60.9883C145.575 61.9035 141.423 63.0104 138.59 63.7806Z" fill="#5B5B5B"/>
<path fill-rule="evenodd" clip-rule="evenodd" d="M34.5853 5.06538C31.2483 1.73471 26.1015 4.36541 26.6561 8.86048C26.7252 9.41974 26.3277 9.92907 25.7685 9.99808C25.2092 10.0671 24.6999 9.66966 24.6309 9.11039C23.8419 2.71631 31.2974 -1.09945 36.0269 3.62104C37.4254 5.01685 37.9807 6.46213 37.8748 7.95592C37.7746 9.36916 37.0873 10.678 36.3625 11.8423C36.0634 12.3226 35.7657 12.769 35.4752 13.2045C35.0072 13.906 34.5583 14.5791 34.1535 15.3199C33.5273 16.4662 33.1492 17.5489 33.1962 18.653C33.2202 19.216 32.7833 19.6918 32.2203 19.7158C31.6573 19.7398 31.1814 19.3029 31.1574 18.7399C31.0877 17.1031 31.6565 15.6342 32.3627 14.3415C32.8006 13.5401 33.3512 12.7115 33.8601 11.9457C34.1375 11.5282 34.4025 11.1294 34.6301 10.7638C35.3309 9.63797 35.7768 8.69282 35.8392 7.81163C35.896 7.01099 35.6434 6.12141 34.5853 5.06538Z" fill="#5B5B5B"/>
<circle cx="32.9787" cy="23.8532" r="1.26221" transform="rotate(10.0871 32.9787 23.8532)" fill="#5B5B5B"/>
<path fill-rule="evenodd" clip-rule="evenodd" d="M52.6951 16.5509C51.7851 14.1132 48.632 14.2495 47.8796 16.6286C47.7097 17.1659 47.1364 17.4637 46.5991 17.2938C46.0618 17.1239 45.764 16.5506 45.9339 16.0133C47.2632 11.8098 53.0088 11.5564 54.6069 15.8372C55.0729 17.0855 55.0205 18.1749 54.5071 19.115C54.0324 19.9842 53.2277 20.5959 52.5012 21.077C52.1822 21.2883 51.8871 21.4703 51.6051 21.6444C51.1669 21.9148 50.7602 22.1657 50.3445 22.4763C49.7108 22.9498 49.273 23.42 49.0482 23.9725C48.8358 24.4944 48.2405 24.7454 47.7185 24.533C47.1966 24.3206 46.9456 23.7253 47.158 23.2033C47.5838 22.1569 48.3558 21.4149 49.123 20.8416C49.5942 20.4896 50.1583 20.1393 50.6602 19.8277C50.9227 19.6646 51.1683 19.5122 51.3745 19.3756C52.0633 18.9195 52.4971 18.538 52.7161 18.137C52.8964 17.8067 52.9929 17.3486 52.6951 16.5509Z" fill="#5B5B5B"/>
<circle cx="46.7202" cy="26.7662" r="1.00236" transform="rotate(34.6703 46.7202 26.7662)" fill="#5B5B5B"/>
<path fill-rule="evenodd" clip-rule="evenodd" d="M12.0373 26.7409C9.69299 26.1156 8.09585 28.5812 9.49712 30.4377C9.8366 30.8875 9.74719 31.5273 9.29742 31.8668C8.84764 32.2063 8.20783 32.1169 7.86834 31.6671C5.31436 28.2834 8.31798 23.6369 12.5632 24.7692C13.7989 25.0988 14.6276 25.7477 15.0809 26.6789C15.4989 27.5375 15.5289 28.5089 15.5015 29.3382C15.4894 29.7054 15.4678 30.0356 15.4473 30.3503C15.4155 30.8369 15.3862 31.2863 15.3979 31.7781C15.4156 32.526 15.5382 33.1139 15.8355 33.5815C16.1379 34.057 15.9975 34.6876 15.522 34.99C15.0465 35.2924 14.4159 35.152 14.1135 34.6765C13.53 33.7589 13.3795 32.7412 13.3578 31.8265C13.3445 31.2655 13.3841 30.6301 13.4191 30.0679C13.4373 29.7755 13.4543 29.5029 13.462 29.2708C13.4879 28.4867 13.4306 27.9511 13.2461 27.5721C13.097 27.2657 12.8083 26.9465 12.0373 26.7409Z" fill="#5B5B5B"/>
<path d="M18.2392 36.5566C18.4664 37.1835 18.1424 37.8759 17.5155 38.1031C16.8886 38.3303 16.1962 38.0063 15.969 37.3794C15.7418 36.7526 16.0658 36.0602 16.6927 35.833C17.3196 35.6058 18.0119 35.9298 18.2392 36.5566Z" fill="#5B5B5B"/>
<path d="M55.651 51.7788C56.0866 56.2218 57.7091 60.4658 60.3486 64.0662C61.7036 65.8982 63.3302 67.3029 64.9867 68.8334C67.1997 70.8808 64.4003 72.4776 62.936 73.879C59.4244 77.1918 59.8815 82.8734 59.4774 87.3193L57.8507 105.116C57.7414 106.335 59.6463 106.329 59.759 105.116C60.2956 99.1794 60.8345 93.2438 61.3756 87.3093C61.634 84.4868 61.6539 81.5085 62.2801 78.7389C62.8466 76.241 64.5063 75.1776 66.1892 73.4847C67.203 72.461 68.0676 71.1922 67.7595 69.6815C67.3388 67.6044 64.8376 66.3223 63.4859 64.8713C60.15 61.2602 58.07 56.668 57.5559 51.7788C57.43 50.5729 55.5251 50.5596 55.651 51.7788Z" fill="#191919"/>
<path d="M43.383 62.8241C43.2406 61.8965 42.091 61.499 41.3158 61.8932C40.6267 62.2411 40.1265 63.1157 39.9542 63.8445C39.7488 64.6893 40.1033 65.7163 40.9845 66.0144C41.373 66.1521 41.8011 66.1235 42.1678 65.9354C42.5346 65.7473 42.8076 65.4164 42.9225 65.0206C43.2538 63.8379 41.4152 63.3343 41.0839 64.5137C41.1436 64.2935 41.3703 64.1631 41.5907 64.2222C41.763 64.2421 41.8326 64.2951 41.7995 64.3779C41.7729 64.3944 41.8392 64.1791 41.8624 64.1294C41.8856 64.0797 42.1738 63.6921 42.1539 63.6192C42.0545 63.2383 41.6835 64.2454 41.5444 63.3376C41.6206 63.8478 42.2633 64.1294 42.7171 64.0002C43.2096 63.8414 43.4978 63.3313 43.3797 62.8275L43.383 62.8241Z" fill="#191919"/>
<path d="M54.1037 62.8638C53.9646 61.9329 52.815 61.5387 52.0398 61.9296C51.3507 62.2774 50.8505 63.152 50.6749 63.8809C50.4728 64.729 50.824 65.7527 51.7052 66.0508C52.0937 66.1895 52.5222 66.1613 52.8892 65.9731C53.2562 65.7849 53.5291 65.4533 53.6432 65.0569C53.9745 63.8709 52.1359 63.3674 51.8079 64.5501C51.9205 64.2983 52.0895 64.1989 52.3148 64.2552C52.4837 64.2784 52.5533 64.3281 52.5235 64.4143C52.497 64.4143 52.5632 64.2122 52.5831 64.1625C52.603 64.1128 52.8945 63.7285 52.8746 63.6523C52.7786 63.2713 52.4042 64.2784 52.2684 63.374C52.3446 63.8809 52.984 64.1625 53.4378 64.0366C53.9365 63.8875 54.2288 63.3716 54.1004 62.8671L54.1037 62.8638Z" fill="#191919"/>
<path d="M52.3641 77.9663C49.2723 75.5206 45.4641 74.1558 41.5226 74.0808C40.2981 74.0476 40.4386 75.9473 41.6565 75.981C45.0984 76.0678 48.4189 77.2709 51.1175 79.4091C52.0774 80.1651 53.3314 78.7317 52.3644 77.9696L52.3641 77.9663Z" fill="#191919"/>
<path d="M31.4305 64.444C30.2578 62.5755 28.3694 61.1709 26.0769 61.2371C23.968 61.2803 22.1199 62.6597 21.4787 64.6693C19.8222 69.7678 25.1559 73.7697 29.6184 74.3064C30.8342 74.4555 30.8243 72.5473 29.6184 72.4015C26.6368 72.0404 23.0258 69.7048 23.1119 66.3323C23.155 64.6129 24.3178 63.2215 26.0769 63.142C27.6903 63.0658 28.9724 64.1094 29.7873 65.4047C30.4499 66.4416 32.0865 65.4842 31.4438 64.444H31.4305Z" fill="#191919"/>
<path d="M31.0294 64.1392C32.0917 60.6659 32.7433 57.0801 32.9707 53.4551C33.0259 52.5209 33.0524 51.5834 33.0502 50.6425C33.0193 50.2269 33.0116 49.81 33.027 49.3936C33.1065 48.6217 33.2059 48.3831 33.8354 48.1214C34.5874 47.8067 35.7403 47.8133 36.5387 47.6907C37.4464 47.5483 38.3508 47.4125 39.2618 47.2833C46.6761 46.2463 54.3089 45.8322 61.4945 48.3036C62.654 48.7045 63.151 46.8625 62.0014 46.465C54.1863 43.7749 45.8843 44.4011 37.8439 45.5771C36.1643 45.8223 33.8354 45.7925 32.3114 46.571C30.8604 47.323 31.1254 48.9364 31.142 50.3178C31.178 54.8254 30.5199 59.3117 29.1907 63.619C28.8329 64.7951 30.6716 65.2987 31.0294 64.1259V64.1392Z" fill="#191919"/>
<path d="M62.6573 52.1303C61.0185 51.5167 59.2786 51.2177 57.529 51.2491C56.3032 51.2656 56.2999 53.1738 57.529 53.154C59.107 53.1289 60.6754 53.4044 62.1504 53.9656C63.3 54.3996 63.8069 52.5576 62.6573 52.1303Z" fill="#191919"/>
<path d="M22.1012 44.2818C13.2194 47.6344 13.7561 59.7297 15.5417 67.2996C16.5356 71.4705 18.192 76.2112 20.8788 79.6036C21.8263 80.7929 23.3535 81.5913 24.7085 80.508C25.4174 79.9415 25.8183 78.9874 26.2489 78.2122C26.9678 76.9235 27.6702 75.6315 28.3327 74.3063C28.8959 73.2164 27.2527 72.2524 26.6763 73.3423C25.8613 74.9225 25.1126 76.9865 23.9697 78.3514C23.0686 79.428 22.5717 78.7754 21.9588 77.8379C21.4883 77.1256 21.0709 76.3703 20.6701 75.6182C18.969 72.4083 17.7564 68.9625 17.0723 65.3947C15.8763 59.2228 15.343 48.8535 22.5948 46.1138C23.7312 45.6864 23.2375 43.8412 22.088 44.2785L22.1012 44.2818Z" fill="#191919"/>
<path d="M26.0797 67.9624C26.2694 68.0545 26.4531 68.1585 26.6297 68.2738C26.7191 68.3301 26.8052 68.3931 26.8881 68.456C26.7059 68.3169 26.9676 68.5289 26.9974 68.5554C27.2377 68.7963 27.5882 68.8906 27.9169 68.803C28.2456 68.7153 28.5026 68.459 28.5911 68.1305C28.6795 67.802 28.586 67.4512 28.3457 67.2104C27.9536 66.8563 27.5157 66.5566 27.0438 66.3192C26.5901 66.0626 26.0149 66.2086 25.7385 66.6505C25.4786 67.1027 25.6254 67.6795 26.0698 67.9525L26.0797 67.9624Z" fill="#191919"/>
<path d="M23.7612 38.2856C24.1082 39.6971 24.6536 41.0524 25.3812 42.3107C25.9908 43.3742 27.6406 42.4167 27.0377 41.35C26.3947 40.2337 25.915 39.0311 25.6131 37.7787C25.3216 36.5894 23.4863 37.0929 23.7745 38.2856H23.7612Z" fill="#191919"/>
<path d="M27.8888 41.9166C29.8433 35.3571 38.7417 36.1257 44.0556 36.573C50.3037 37.0997 56.4855 38.6004 61.9252 41.8007C62.9853 42.4235 63.9428 40.777 62.8859 40.1442C56.6511 36.4769 49.5086 34.953 42.3461 34.5322C36.3664 34.1811 28.124 34.4262 26.0468 41.3965C25.6956 42.5726 27.5343 43.0761 27.8854 41.9034L27.8888 41.9166Z" fill="#191919"/>
<path d="M23.8238 84.3213C23.5016 84.415 23.2292 84.6315 23.0652 84.9243C22.8905 85.2257 22.8532 85.5874 22.9625 85.9181C23.0373 86.1533 23.192 86.3549 23.3998 86.4879C23.6234 86.6137 23.8869 86.6481 24.1352 86.584C24.3747 86.5177 24.5791 86.3609 24.7051 86.1467C24.838 85.9256 24.8728 85.6591 24.8011 85.4112C24.7885 85.3876 24.7806 85.3617 24.7779 85.335L24.8111 85.5901C24.8079 85.5637 24.8079 85.537 24.8111 85.5106L24.7779 85.7624C24.8011 85.6299 24.6951 85.9016 24.6653 85.9413C24.5798 86.0477 24.4644 86.1261 24.334 86.1666C24.6619 86.076 24.9165 85.8175 25.002 85.4883C25.0875 85.1591 24.9909 84.8093 24.7486 84.5706C24.5062 84.3319 24.155 84.2407 23.8271 84.3312L23.8238 84.3213Z" fill="#191919"/>
<path d="M23.9897 91.2021C24.851 95.9572 25.4761 100.742 25.8648 105.557C25.9642 106.773 27.8691 106.783 27.7697 105.557C27.3677 100.574 26.7206 95.6204 25.8283 90.6953C25.6097 89.4927 23.7744 90.0029 23.9897 91.2021Z" fill="#191919"/>
<path d="M25.3977 106.935C34.7083 105.341 44.2041 105.14 53.5737 106.339L52.6229 105.385C52.5399 109.64 54.6204 113.648 58.1488 116.029C59.1426 116.728 60.1133 115.078 59.1095 114.373C56.1631 112.337 54.4435 108.951 54.5378 105.371C54.5157 104.854 54.1007 104.441 53.5836 104.421C44.0428 103.217 34.3759 103.441 24.9008 105.083C23.6949 105.292 24.2051 107.131 25.4077 106.922L25.3977 106.935Z" fill="#191919"/>
<path d="M27.4149 170.522C30.3965 168.004 33.6431 165.834 36.7373 163.459C39.676 161.194 42.433 158.703 44.983 156.009C50.0981 150.625 54.5009 144.616 58.9369 138.676C59.6723 137.682 58.0192 136.744 57.2804 137.715C52.8213 143.678 48.392 149.711 43.214 155.088C38.0359 160.464 31.7481 164.364 26.0533 169.174C25.1157 169.966 26.4707 171.307 27.4016 170.522H27.4149Z" fill="#191919"/>
<path d="M56.3991 143.237C60.6749 146.696 65.0435 150.033 69.5048 153.249C71.7775 154.879 74.0567 156.522 76.4022 158.042C78.221 159.225 80.0928 159.699 82.0341 158.46C84.1312 157.135 85.8406 154.938 87.5666 153.179C89.5212 151.191 91.4548 149.177 93.3675 147.137C97.1927 143.068 100.933 138.922 104.588 134.697C108.784 129.838 112.86 124.888 116.816 119.848C117.565 118.894 116.226 117.529 115.468 118.5C107.353 128.834 98.7542 138.756 89.6703 148.266C87.4617 150.583 85.2189 152.873 82.9418 155.137C81.5239 156.542 80.1524 157.973 78.0686 156.837C76.664 156.071 75.3587 155.041 74.0468 154.127C68.4635 150.251 63.0304 146.171 57.7474 141.889C56.8033 141.124 55.4284 142.462 56.3991 143.234V143.237Z" fill="#191919"/>
<path d="M121.547 106.441C116.717 107.846 113.798 113.249 115.372 118.036C115.753 119.199 117.595 118.699 117.211 117.533C115.962 113.72 118.178 109.393 122.054 108.257C123.227 107.925 122.717 106.077 121.547 106.418V106.441Z" fill="#191919"/>
<path d="M139.784 107.909C137.79 108.892 135.701 109.669 133.549 110.228C132.578 110.48 131.597 110.685 130.608 110.844C129.998 110.944 129.387 111.023 128.776 111.083C128.524 111.106 127.47 111.05 127.689 111.235L127.934 112.163L128 112.007L127.338 112.67L127.517 112.63L126.44 112.193L126.5 112.305C127.073 113.392 128.716 112.428 128.156 111.345L128.097 111.232C127.873 110.865 127.436 110.687 127.02 110.795C126.577 110.884 126.224 111.218 126.112 111.656C126.013 111.986 126.106 112.344 126.354 112.584C127.812 113.809 131.24 112.71 132.9 112.345C135.624 111.731 138.263 110.791 140.762 109.546C141.861 109.006 140.897 107.363 139.798 107.889L139.784 107.909Z" fill="#191919"/>
<path d="M141.301 113.634C140.551 114.197 139.696 114.606 138.787 114.839C137.598 115.141 138.101 116.98 139.291 116.678C140.366 116.41 141.379 115.934 142.272 115.277C142.704 114.994 142.847 114.429 142.603 113.975C142.333 113.527 141.753 113.38 141.301 113.643V113.634Z" fill="#191919"/>
<path d="M140.533 119.332C140.004 119.9 139.325 120.306 138.575 120.505C137.392 120.836 137.892 122.665 139.082 122.343C140.148 122.057 141.116 121.484 141.881 120.687C142.726 119.796 141.381 118.448 140.533 119.339V119.332Z" fill="#191919"/>
<path d="M140.726 124.517C137.448 125.985 134.106 127.289 130.701 128.429C129.545 128.817 130.038 130.659 131.208 130.264C134.77 129.067 138.264 127.7 141.69 126.163C142.806 125.663 141.839 124.02 140.726 124.507V124.517Z" fill="#191919"/>
<path d="M34.1835 173.11C40.9716 177.307 47.6305 181.723 54.5378 185.725C62.2237 190.184 70.6748 194.305 79.5699 195.481C83.9395 196.058 88.5146 195.786 92.6723 194.276C97.0784 192.675 100.408 189.747 103.273 186.096C109.34 178.281 114.674 169.924 119.208 161.13C124.38 151.202 128.577 140.797 131.741 130.059C132.089 128.879 130.25 128.376 129.902 129.552C124.463 148.014 115.938 165.421 104.688 181.037C101.981 184.791 99.1953 188.75 95.0807 191.085C91.1484 193.325 86.5136 194.067 82.0346 193.815C73.1694 193.325 64.536 189.223 56.9198 184.9C49.4956 180.686 42.3895 175.955 35.1343 171.463C34.0874 170.817 33.13 172.457 34.1736 173.12L34.1835 173.11Z" fill="#191919"/>
<path d="M59.02 102.761C61.3854 102.522 64.7281 102.317 66.9146 103.423C68.2133 104.086 67.8157 105.855 67.8091 107.114L67.7859 111.079C67.7859 112.305 69.6875 112.308 69.6941 111.079C69.6941 109.257 69.7029 107.436 69.7206 105.616C69.7206 104.417 69.9094 103.039 68.8394 102.221C67.6964 101.349 65.8147 101.157 64.4432 100.962C62.6461 100.71 60.8249 100.677 59.02 100.866C57.8108 100.988 57.7976 102.897 59.02 102.771V102.761Z" fill="#191919"/>
<path d="M81.5871 130.414C85.7878 135.5 88.5289 141.632 89.5181 148.154C89.7036 149.36 91.5423 148.846 91.3534 147.647C90.2829 140.804 87.372 134.381 82.9321 129.065C82.1503 128.121 80.8086 129.476 81.5871 130.414Z" fill="#191919"/>
<path d="M69.1042 110.125C83.3495 110.079 95.0042 119.189 105.566 127.664C106.513 128.426 107.885 127.084 106.914 126.315C95.9384 117.513 83.8829 108.171 69.1042 108.217C67.8784 108.217 67.8751 110.129 69.1042 110.125Z" fill="#191919"/>
<path d="M110.383 178.602C118.628 180.666 127.742 181.488 134.626 175.551C137.681 172.901 139.927 169.449 141.858 165.944C144.233 161.583 146.293 157.058 148.023 152.404C148.454 151.254 146.615 150.748 146.185 151.897C144.595 156.153 142.722 160.298 140.579 164.304C138.797 167.617 136.786 170.903 134.033 173.52C127.633 179.606 118.814 178.748 110.889 176.764C109.7 176.465 109.193 178.301 110.383 178.602Z" fill="#191919"/>
<path d="M12.9744 130.881C9.29932 153.938 6.0262 177.053 3.15504 200.226C2.3467 206.831 1.5737 213.447 0.836029 220.073C0.700202 221.289 2.6051 221.279 2.74093 220.073C5.36252 196.936 8.39159 173.85 11.8281 150.814C12.7955 144.334 13.796 137.859 14.8296 131.387C15.0218 130.188 13.1732 129.671 12.991 130.881H12.9744Z" fill="#191919"/>
<path d="M106.208 202.717L103.084 188.412C102.822 187.216 100.987 187.723 101.249 188.919L104.373 203.22C104.635 204.419 106.47 203.913 106.208 202.717Z" fill="#191919"/>
<path d="M66.9939 118.434L64.6749 119.915C63.6446 120.577 64.602 122.234 65.6356 121.571L67.9547 120.09C68.9817 119.428 68.0275 117.771 66.9906 118.434H66.9939Z" fill="#5B5B5B"/>
<path d="M68.7498 127.219L71.1317 124.957C72.0229 124.109 70.6746 122.764 69.7834 123.608L67.4014 125.874C66.5103 126.719 67.8586 128.064 68.7498 127.219Z" fill="#5B5B5B"/>
</svg>
