<svg width="1727" height="1693" viewBox="0 0 1727 1693" fill="none" xmlns="http://www.w3.org/2000/svg">
<circle cx="846.795" cy="846.5" r="846.5" fill="#BAD5F8"/>
<path d="M661.795 1309.5C396.195 1417.5 120.128 1305.5 15.2949 1236L56.7949 1140L147.295 985.5L196.332 904.481C201.937 895.222 206.001 885.114 208.366 874.552L248.795 694L222.795 634L192.295 555V496L269.795 475L326.795 417L419.795 407.5L466.795 482L477.295 543.5L500.795 579.5L506.295 603L500.795 620L477.295 633.5L448.295 952.5C499.895 971.3 612.795 1074.67 662.795 1124C699.595 1106 769.462 982.167 799.795 922.5L795.795 890.5L772.295 817.5L750.795 758L746.795 715C753.795 692.167 776.495 644 811.295 634C846.095 624 874.128 638.167 883.795 646.5C890.128 639.667 906.295 626.1 920.295 626.5C934.295 626.9 940.128 634.333 941.295 638C946.462 650.333 964.395 677.5 994.795 687.5C1025.19 697.5 1022.13 736.333 1016.79 754.5C997.195 785.7 976.628 876.5 968.795 918L997.295 1016L1039.79 1106.5C1086.59 1011.3 1195.29 906.167 1243.79 865.5L1238.29 637.5C1161.79 620 1233.79 573 1256.79 519.5V499V425L1296.79 384.5L1463.29 445.5L1526.79 508L1510.79 626.5L1519.29 813.5C1552.49 819.5 1574.79 850.667 1581.79 865.5C1654.19 963.9 1704.96 1152.83 1721.29 1235C1655.44 1316.92 1557.29 1333.5 1486.29 1294.5C1356.29 1270 1213.79 1275.5 1132.29 1296C1118.79 1334.33 1073.89 1416.1 1010.29 1404.5C946.695 1392.9 890.462 1269.67 870.295 1209.5C866.795 1223.5 847.295 1262 797.295 1304C747.295 1346 686.128 1325.17 661.795 1309.5Z" fill="white"/>
<path d="M657.795 1318C392.195 1426 116.128 1314 11.2949 1244.5L52.7949 1148.5L143.295 994L170.128 949.666C189.039 918.423 223.571 899.553 259.923 903.058C373.492 914.01 435.099 939.708 447.295 957.5C498.895 976.3 609.795 1075.17 659.795 1124.5C670.295 1154.67 683.795 1242 657.795 1318Z" fill="#1A73E8"/>
<path d="M1103.99 1010.23C1103.99 1010.23 1072.8 1033.98 1095.08 1069.71C1117.35 1105.44 1165.38 1171.73 1155.22 1199.44C1145.06 1227.15 1128.73 1298.99 1128.73 1298.99C1128.73 1298.99 1486.32 1281.99 1486.32 1298.99V1225.01C1486.31 1206.81 1496.79 1190.23 1513.23 1182.42L1681.76 1102.38C1681.76 1102.38 1613.8 870.542 1561.61 845.638C1509.42 820.734 1474.54 880.298 1432.41 902.707C1390.29 925.116 1315.56 965.947 1292.08 959.71C1268.6 953.473 1257.69 940.353 1260.58 922.777C1263.48 905.202 1268.33 828.708 1223.47 881.791" fill="#1A73E8"/>
<path d="M1240.65 469.473C1240.65 469.473 1215.23 361.192 1281.48 359.633C1347.72 358.074 1468.28 375.471 1485.12 395.274C1501.96 415.077 1497.5 430.558 1503.74 437.842C1509.98 445.126 1541.61 438.934 1550.23 449.314C1558.85 459.694 1568.27 469.651 1566.8 493.687C1565.33 517.722 1545.15 611.145 1534.26 621.436C1523.36 631.727 1500.84 621.971 1498.62 600.609C1496.39 579.246 1492.09 570.67 1499.02 560.513C1505.95 550.355 1502.05 499.278 1492.2 496.315C1482.36 493.352 1469.61 495.981 1464.96 503.532C1460.3 511.084 1458.43 514.893 1458.43 514.893C1458.43 514.893 1453.2 477.025 1442.84 474.641C1432.48 472.258 1344.4 454.215 1333.42 446.084C1322.44 437.954 1296.07 414.898 1292.75 415.144C1289.43 415.389 1282.7 457.756 1281.61 461.432C1280.52 465.107 1268.58 498.699 1268.58 498.699C1268.58 498.699 1261.45 521.954 1254.77 499.5C1248.09 477.047 1240.65 469.473 1240.65 469.473Z" fill="#1A73E8"/>
<path d="M228.563 586.976C228.563 586.976 249.168 599.695 256.452 622.995C263.736 646.296 276.656 689.554 277.68 722.812C278.705 756.069 289.598 785.183 239.812 783.512C190.027 781.841 122.243 784.069 87.3594 755.066C52.4761 726.064 36.7942 680.622 39.8905 663.737C42.9868 646.852 81.8351 545.187 81.8351 545.187C81.8351 545.187 151.602 418.908 174.79 403.382C197.979 387.856 258.011 355.468 274.183 383.802C290.355 412.137 302.406 352.928 317.197 347.694C331.988 342.459 389.815 341.011 418.505 355.713C447.196 370.415 520.972 411.736 527.009 419.844C533.046 427.952 539.216 455.93 534.36 468.293C529.504 480.656 497.293 534.072 487.581 536.3C477.869 538.527 466.264 536.121 454.725 516.096C443.187 496.07 403.492 440.983 403.492 440.983C403.492 440.983 386.05 422.628 374.734 443.211C363.418 463.793 334.817 501.773 317.42 513.155C300.023 524.538 273.314 551.269 268.859 530.241C264.404 509.213 222.081 509.391 217.114 523.558C212.146 537.725 207.223 556.414 213.26 566.683C217.716 573.911 222.839 580.705 228.563 586.976Z" fill="#1A73E8"/>
<path d="M265.651 366.828C206.599 362.551 158.128 402.825 126.519 448.757C90.6332 500.904 66.3753 562.785 45.1246 622.06C34.8557 650.706 29.2645 678.751 41.4492 707.709C51.4508 731.454 70.0285 751.146 91.7916 764.622C117.809 780.75 148.371 787.766 178.443 791.353C193.835 793.179 209.428 794.249 224.932 794.605C237.027 794.872 249.769 794.293 261.04 789.415C292.226 775.938 284.964 736.377 281.689 709.223C277.148 671.601 267.635 634.748 253.4 599.628C250.793 593.191 240.213 595.997 242.863 602.524C254.087 630.106 262.381 658.791 267.611 688.106C270.291 703.3 272.084 718.636 272.98 734.038C273.782 747.648 275.853 764.979 264.225 774.891C246.271 790.172 211.566 783.512 190.271 781.574C161.313 778.99 131.932 773.555 105.936 760.034C84.2848 748.784 65.3284 731.231 54.213 709.335C39.9122 681.179 45.4365 653.423 55.6609 624.911C74.4613 572.408 96.0016 519.214 124.915 471.367C155.009 421.537 202.634 373.132 265.651 377.699C272.668 378.189 272.646 367.274 265.651 366.761V366.828Z" fill="#192939"/>
<path d="M409.661 452.232L469.805 545.254C479.094 559.622 490.365 573.9 497.404 589.538C500.612 596.688 502.55 605.13 498.585 612.459C493.885 621.035 487.068 618.696 479.606 622.127C467.911 627.473 469.716 644.402 468.825 654.961L464.013 712.565L454.724 823.34L444.166 949.642C443.564 956.636 454.502 956.592 455.081 949.642C461.511 872.836 467.941 796.031 474.371 719.225L479.005 663.826C479.829 653.958 477.958 636.561 488.427 631.193C493.15 628.787 497.605 629.5 502.06 625.668C525.182 605.776 502.06 575.014 490.053 556.481L419.128 446.73C415.341 440.827 405.874 446.307 409.706 452.232H409.661Z" fill="#192939"/>
<path d="M1284.22 423.185C1278.01 463.399 1263.95 501.999 1242.85 536.79C1232.58 553.652 1217.46 568.243 1208.68 585.796C1202.78 597.602 1202.27 613.685 1213.14 622.974C1217.72 626.916 1223.36 628.141 1229.26 628.631C1235.17 629.122 1243.43 627.785 1246.75 635.18C1248.69 639.636 1247.62 646.63 1247.71 651.352C1247.97 669.173 1248.35 686.993 1248.84 704.813C1249.89 744.107 1251.23 783.379 1252.45 822.672C1253.81 864.996 1255.12 907.319 1255.66 949.509C1255.66 956.525 1266.8 956.548 1266.57 949.509C1265.62 873.772 1262.43 798.236 1260.27 722.611C1259.74 704.197 1259.28 685.775 1258.89 667.346C1258.67 654.872 1262.34 634.067 1252.85 624.199C1241.54 612.437 1213.67 624.622 1215.43 600.832C1216.28 589.249 1225.79 579.692 1232.52 571.027C1238.13 563.766 1243.45 556.281 1248.42 548.574C1272.21 511.39 1288.02 469.671 1294.84 426.059C1295.93 419.176 1285.4 416.213 1284.31 423.141L1284.22 423.185Z" fill="#192939"/>
<path d="M1309.36 524.716L1309.08 524.917H1306.18C1308.41 525.229 1304.24 523.625 1304.91 523.335C1304.87 523.921 1304.87 524.509 1304.91 525.095C1304.91 525.518 1304.64 526.944 1304.91 526.676L1314.04 532L1314.18 531.443L1312.77 533.871L1313.15 533.47L1310.75 534.874L1311.3 534.762L1307.09 524.783C1307.84 524.711 1308.6 524.779 1309.32 524.984C1306.05 523.424 1300.54 525.206 1301.1 529.706C1302.26 539.329 1314.71 540.309 1318.36 531.688C1321.64 523.981 1316.52 512.665 1306.89 515.338C1300.21 517.232 1303.02 527.768 1309.81 525.875C1309.81 525.875 1307.92 525.429 1308.32 525.162C1308.72 524.894 1308.5 527.189 1308.5 526.966C1308.5 527.634 1308.21 527.167 1308.5 527.256C1308.79 527.345 1309.52 526.855 1309.97 526.899C1311.19 527.011 1311.84 528.748 1311.95 529.706L1303.73 534.428C1306.52 535.98 1309.93 535.895 1312.64 534.206C1314.94 532.787 1315.86 529.902 1314.81 527.411C1313.76 524.92 1311.05 523.568 1308.43 524.226C1305.99 524.746 1304.08 526.646 1303.55 529.082C1302.46 534.161 1308.76 538.616 1312.68 534.406C1315.71 530.72 1316.77 525.802 1315.54 521.197C1315.16 518.614 1313.54 516.377 1311.21 515.203C1308.88 514.028 1306.12 514.062 1303.82 515.294C1297.65 518.68 1303.15 528.102 1309.34 524.716H1309.36Z" fill="#192939"/>
<path d="M1387.64 524.716L1387.37 524.917H1384.45C1386.68 525.229 1382.54 523.625 1383.18 523.335C1383.13 523.921 1383.13 524.51 1383.18 525.095C1383.18 525.518 1382.92 526.944 1383.18 526.677L1392.32 532V531.443L1390.91 533.871L1391.32 533.471L1388.91 534.874L1389.44 534.763L1385.26 524.783C1386.01 524.712 1386.76 524.78 1387.48 524.984C1384.19 523.424 1378.71 525.206 1379.26 529.706C1380.42 539.329 1392.87 540.309 1396.53 531.688C1399.8 523.981 1394.68 512.665 1385.06 515.338C1378.37 517.232 1381.18 527.768 1387.97 525.875C1387.97 525.875 1386.06 525.429 1386.48 525.162C1386.9 524.894 1386.66 527.189 1386.66 526.966C1386.66 527.634 1386.37 527.167 1386.66 527.256C1386.95 527.345 1387.68 526.855 1388.13 526.899C1389.36 527.011 1390 528.748 1390.11 529.706L1381.89 534.428C1384.68 535.98 1388.09 535.895 1390.8 534.206C1393.1 532.787 1394.03 529.902 1392.98 527.411C1391.93 524.92 1389.22 523.568 1386.59 524.226C1384.15 524.746 1382.25 526.646 1381.71 529.082C1380.62 534.161 1386.93 538.616 1390.85 534.406C1393.88 530.723 1394.93 525.798 1393.68 521.197C1393.3 518.615 1391.69 516.377 1389.37 515.202C1387.04 514.026 1384.28 514.061 1381.98 515.294C1375.81 518.68 1381.31 528.102 1387.48 524.716H1387.64Z" fill="#192939"/>
<path d="M1268.27 402.357C1315.45 454.593 1385.93 470.342 1452.08 483.796L1448.07 478.539L1452.24 516.407C1452.77 521.107 1459.95 524.694 1462.42 519.17C1465.78 511.685 1470.55 500.837 1479.55 498.943C1491.78 496.36 1498.53 510.081 1500.49 519.749C1503.45 534.317 1504.45 560.067 1487.75 566.727C1481.29 569.289 1484.09 579.87 1490.64 577.264C1516.41 566.995 1517.51 528.904 1507.91 506.807C1503.07 495.669 1492.31 486.313 1479.42 487.962C1465.89 489.677 1458.1 502.285 1453 513.645L1463.18 516.407L1458.99 478.539C1458.94 476.094 1457.32 473.958 1454.98 473.26C1390.69 460.184 1321.91 445.46 1276 394.628C1271.27 389.393 1263.57 397.145 1268.27 402.357Z" fill="#192939"/>
<path d="M1326.45 626.693C1353.59 627.712 1380.38 620.219 1403.05 605.264C1408.89 601.433 1403.43 591.899 1397.53 595.842C1376.52 609.788 1351.65 616.756 1326.45 615.756C1319.41 615.511 1319.43 626.426 1326.45 626.693Z" fill="#192939"/>
<path d="M1478.43 523.58C1474.63 527.16 1473.04 532.515 1474.29 537.591C1475.11 540.467 1478.08 542.165 1480.97 541.423C1483.82 540.561 1485.49 537.626 1484.78 534.74C1484.65 534.094 1484.63 534.094 1484.78 534.74C1484.78 534.406 1484.78 534.072 1484.78 533.738C1484.78 534.829 1484.78 533.292 1485.01 532.958C1485.23 532.624 1485.01 532.646 1485.01 533.092C1485.16 532.78 1485.32 532.49 1485.5 532.201C1485.67 531.911 1485.87 531.644 1485.5 532.201L1486.21 531.488C1488.34 529.35 1488.34 525.896 1486.21 523.758C1484.05 521.693 1480.66 521.693 1478.5 523.758L1478.43 523.58Z" fill="#192939"/>
<path d="M386.161 436.328C410.332 453.059 437.126 465.64 465.439 473.55C472.122 475.443 475.107 464.907 468.335 463.014C440.948 455.331 415.04 443.119 391.685 426.883C385.894 422.873 380.414 432.34 386.161 436.328Z" fill="#192939"/>
<path d="M378.164 426.259C358.863 478.713 317.309 519.917 264.693 538.772L271.375 545.455C275.181 531.599 269.027 516.937 256.473 509.948C243.308 502.508 226.624 506.673 216.066 516.742C203.859 528.392 201.097 546.479 205.752 562.25C211.232 580.828 226.223 594.171 242.685 603.259C248.833 606.667 254.357 597.223 248.187 593.814C227.738 582.543 205.151 558.174 217.514 532.958C222.236 523.357 232.683 516.162 243.598 517.209C249.472 517.819 254.778 520.987 258.101 525.869C261.424 530.75 262.426 536.848 260.839 542.536C260.378 544.413 260.931 546.394 262.298 547.761C263.664 549.127 265.645 549.68 267.522 549.219C323.765 529.205 368.163 485.166 388.633 429.088C391.039 422.405 380.48 419.621 378.097 426.17L378.164 426.259Z" fill="#192939"/>
<path d="M231.659 547.348C233.262 549.387 234.237 551.848 234.466 554.432C235.268 557.322 238.252 559.023 241.148 558.241C243.984 557.37 245.653 554.442 244.957 551.558C244.448 548.053 243.103 544.722 241.037 541.846C239.471 539.306 236.187 538.443 233.575 539.886C230.991 541.43 230.12 544.758 231.614 547.37L231.659 547.348Z" fill="#192939"/>
<path d="M351.523 621.459C363.572 639.454 381.427 652.773 402.11 659.193C408.793 661.287 411.711 650.751 405.028 648.657C387.042 643.101 371.495 631.563 360.968 615.957C357.047 610.165 347.602 615.622 351.523 621.459Z" fill="#192939"/>
<path d="M1259.76 508.188C1246.53 477.894 1235.61 441.161 1238.86 407.748C1242.67 368.722 1280.23 364.334 1312.24 363.198C1347.44 361.855 1382.67 365.325 1416.93 373.511C1446.14 380.528 1481.53 389.638 1497.12 417.795C1500.55 423.92 1510 418.418 1506.55 412.27C1489.24 381.441 1451.86 370.704 1419.67 362.975C1379.1 353.154 1337.22 349.875 1295.62 353.263C1264.44 355.914 1234.23 366.873 1228.55 401.4C1222.47 438.332 1235.54 480.366 1250.16 513.779C1252.96 520.217 1262.36 514.67 1259.58 508.277L1259.76 508.188Z" fill="#192939"/>
<path d="M1509.58 396.143C1508.23 403.743 1504.89 410.849 1499.89 416.726C1495.3 422.027 1503.01 429.779 1507.59 424.455C1513.96 417.253 1518.28 408.477 1520.11 399.039C1521.4 392.178 1510.87 389.238 1509.58 396.143Z" fill="#192939"/>
<path d="M1534.17 423.052L1522.01 437.598C1519.95 439.764 1519.95 443.161 1522.01 445.327C1524.15 447.427 1527.57 447.427 1529.71 445.327L1541.9 430.781C1543.94 428.611 1543.94 425.222 1541.9 423.052C1539.75 420.949 1536.32 420.949 1534.17 423.052Z" fill="#192939"/>
<path d="M1530.34 445.817C1577.38 453.68 1560.05 527.969 1552.61 558.508C1547.85 578.267 1542.23 601.99 1531.12 619.231C1521.49 634.133 1512.16 616.758 1507.39 607.247C1502.55 597.438 1499.63 586.791 1498.8 575.883C1498.19 568.933 1487.28 568.866 1487.86 575.883C1488.82 588.707 1492.24 601.225 1497.95 612.749C1502.52 621.793 1510 635.804 1521.34 636.962C1530.92 637.942 1537.93 629.79 1542.05 622.105C1549.16 608.851 1553.95 593.703 1558.27 579.38C1569.7 541.624 1594.05 445.461 1533.19 435.281C1526.31 434.145 1523.34 444.659 1530.27 445.817H1530.34Z" fill="#192939"/>
<path d="M296.302 339.318C295.356 350.016 292.864 360.52 288.906 370.504C286.345 377.053 296.903 379.904 299.443 373.4C303.679 362.446 306.305 350.936 307.239 339.229C307.818 332.235 296.903 332.279 296.302 339.229V339.318Z" fill="#192939"/>
<path d="M303.898 368.811C320.649 335.843 367.472 346.313 395.784 354.956C426.034 364.2 454.034 379.459 481.032 395.653C493.818 403.338 508.23 410.533 519.524 420.334C532.488 431.472 534.292 447.577 530.038 463.415C522.308 492.373 500.367 517.655 478.47 536.923C473.191 541.601 480.943 549.286 486.2 544.653C510.703 523.001 536.164 492.818 542.044 459.628C544.472 445.906 542.935 431.538 534.382 420.156C523.623 405.833 504.911 397.234 489.831 388.168C457.175 368.388 422.893 349.766 385.493 340.766C354.508 333.304 311.494 329.517 294.364 363.198C291.179 369.457 300.601 375.004 303.809 368.722L303.898 368.811Z" fill="#192939"/>
<path d="M357.069 550.244L356.801 550.445H353.906C356.133 550.734 351.968 549.13 352.614 548.841C352.62 549.429 352.657 550.016 352.725 550.601C352.725 551.046 352.458 552.472 352.725 552.182L361.858 557.506L361.969 556.971L360.566 559.377L360.967 558.976L358.561 560.379L359.118 560.268L354.908 550.289C355.658 550.214 356.415 550.29 357.135 550.511C353.839 548.93 348.359 550.712 348.916 555.212C350.074 564.857 362.526 565.815 366.179 557.194C369.454 549.487 364.33 538.193 354.707 540.866C348.025 542.737 350.832 553.274 357.626 551.402C357.514 551.402 355.71 550.957 356.133 550.667C356.556 550.378 356.311 552.694 356.311 552.494C356.311 553.162 356.022 552.672 356.311 552.761C356.601 552.85 357.336 552.36 357.781 552.405C359.007 552.538 359.653 554.254 359.764 555.212L351.544 559.934C354.332 561.495 357.749 561.41 360.454 559.711C362.756 558.292 363.679 555.407 362.628 552.917C361.577 550.426 358.867 549.073 356.244 549.732C353.797 550.25 351.884 552.162 351.366 554.61C350.275 559.667 356.579 564.122 360.499 559.912C363.529 556.228 364.584 551.304 363.328 546.702C362.955 544.12 361.346 541.883 359.017 540.707C356.688 539.532 353.932 539.566 351.633 540.799C345.463 544.185 350.965 553.608 357.135 550.244H357.069Z" fill="#192939"/>
<path d="M435.367 550.244L435.1 550.445H432.182C434.298 550.734 430.244 549.13 430.912 548.841C430.87 549.427 430.87 550.015 430.912 550.601C430.912 551.046 430.667 552.472 430.912 552.182L440.178 557.461V556.927L438.775 559.333L439.176 558.932L436.77 560.335L437.305 560.224L433.095 550.244C433.845 550.168 434.603 550.243 435.322 550.467C432.048 548.885 426.568 550.667 427.103 555.167C428.283 564.812 440.713 565.77 444.389 557.15C447.663 549.442 442.54 538.149 432.917 540.822C426.234 542.693 429.018 553.229 435.812 551.358C435.812 551.358 433.919 550.912 434.342 550.623C434.766 550.333 434.521 552.65 434.521 552.449C434.521 553.118 434.231 552.628 434.521 552.717C434.81 552.806 435.545 552.316 435.991 552.36C437.216 552.494 437.862 554.209 437.973 555.167L429.754 559.889C432.541 561.451 435.958 561.365 438.664 559.667C440.965 558.248 441.888 555.363 440.837 552.872C439.786 550.381 437.076 549.029 434.454 549.687C432.006 550.206 430.094 552.118 429.575 554.566C428.484 559.622 434.788 564.077 438.708 559.867C441.738 556.184 442.793 551.259 441.537 546.658C441.154 544.081 439.544 541.851 437.219 540.678C434.893 539.504 432.143 539.533 429.843 540.755C423.672 544.141 429.174 553.563 435.345 550.2L435.367 550.244Z" fill="#192939"/>
<path d="M1242.2 954.766C1325.05 973.9 1401.41 929.862 1468.32 886.469C1474.2 882.66 1468.75 873.104 1462.82 877.024C1398.62 918.657 1324.71 962.629 1245.12 944.229C1238.28 942.648 1235.37 953.139 1242.2 954.766Z" fill="#192939"/>
<path d="M1577.74 866.599C1646.23 980.374 1693.06 1105.85 1715.85 1236.68C1717.05 1243.61 1727.56 1240.67 1726.36 1233.79C1703.4 1102.03 1656.23 975.673 1587.25 861.097C1583.62 855.083 1574.17 860.563 1577.83 866.599H1577.74Z" fill="#192939"/>
<path d="M142.067 980.048C116.406 1020.14 92.2223 1061.16 69.5162 1103.1C58.3637 1123.74 47.5898 1144.59 37.1946 1165.65C31.997 1176.16 26.9034 1186.73 21.9137 1197.34C19.6861 1202.36 17.2358 1207.35 14.9415 1212.38C13.4713 1215.54 9.43946 1229.15 5.49671 1229.91L10.8205 1231.31L10.1077 1235.77L3.4251 1234.92L4.24929 1235.59C9.70676 1240.05 17.4809 1232.25 11.9789 1227.86L11.1547 1227.19C9.35936 1225.46 6.6417 1225.12 4.47204 1226.35C0.261995 1229.31 -1.63141 1235.41 2.95732 1239.04C10.5532 1245.01 16.3226 1234.81 19.0847 1229.2C32.4499 1201.09 45.3474 1172.93 59.5145 1145.24C87.537 1090.58 118.158 1037.35 151.378 985.55C155.187 979.625 145.72 974.145 141.934 980.048H142.067Z" fill="#192939"/>
<path d="M296.235 913.356C370.323 921.152 438.931 949.442 500.01 991.565C557.77 1031.39 608.091 1080.8 657.965 1129.83C662.999 1134.75 670.729 1127.04 665.695 1122.1C614.239 1071.53 562.248 1020.72 502.394 980.004C440.424 937.836 370.969 910.304 296.235 902.441C289.241 901.706 289.307 912.643 296.235 913.356Z" fill="#192939"/>
<path d="M669.37 1130.63C719.978 1070.52 763.57 1004.83 799.302 934.851C808.212 917.476 816.551 899.849 824.317 881.969C831.936 864.594 840.311 846.885 844.922 828.508C849.689 809.418 847.016 791.687 843.408 772.82C839.732 753.462 837.304 730.496 854.768 716.842C860.292 712.542 852.54 704.857 847.038 709.134C815.43 733.637 837.616 775.248 837.037 807.146C836.658 828.909 826.411 849.915 817.991 869.517C810.314 887.441 802.109 905.135 793.377 922.599C757.499 994.372 713.282 1061.66 661.64 1123.08C657.185 1128.45 664.826 1136.2 669.37 1130.81V1130.63Z" fill="#192939"/>
<path d="M901.568 656.876C895.524 675.142 888.634 693.081 880.897 710.694C878.068 717.064 887.579 722.633 890.319 716.196C898.487 697.737 905.749 678.929 912.105 659.772C914.332 653.089 903.751 650.216 901.568 656.876Z" fill="#192939"/>
<path d="M934.938 680.956L927.876 700.447C925.493 707.13 936.029 709.936 938.413 703.365L945.474 683.852C947.857 677.169 937.299 674.385 934.938 680.956Z" fill="#192939"/>
<path d="M964.096 705.236L959.351 717.421C958.607 720.312 960.293 723.271 963.16 724.103C966.051 724.797 968.981 723.117 969.843 720.272L974.587 708.11C975.332 705.219 973.645 702.26 970.778 701.427C967.892 700.719 964.957 702.392 964.096 705.236Z" fill="#192939"/>
<path d="M1012.66 746.335C993.923 779.079 983.832 815.388 976.147 852.031C968.039 890.813 961.022 929.728 951.109 968.108C930.468 1048.12 901.919 1125.88 865.884 1200.24C847.64 1237.8 827.681 1275.71 794.135 1301.88C788.61 1306.2 796.362 1313.89 801.864 1309.61C830.354 1287.34 849.556 1256.55 865.839 1224.79C883.993 1189.37 900.143 1152.88 914.689 1115.84C944.738 1039.37 966.034 960.513 981.693 879.942C990.269 835.815 999.514 791.286 1022.08 751.859C1025.58 745.733 1016.15 740.231 1012.66 746.335Z" fill="#192939"/>
<path d="M1044.62 1105.15C1103.63 1012.06 1173.95 924.938 1261.74 857.444C1267.24 853.212 1261.74 843.722 1256.22 847.999C1166.87 916.719 1095.28 1004.84 1035.2 1099.71C1031.41 1105.68 1040.86 1111.16 1044.62 1105.24V1105.15Z" fill="#192939"/>
<path d="M743.125 714.058C738.669 750.032 755.822 783.111 767.293 816.168C779.438 851.294 788.384 887.445 794.024 924.181C795.071 931.109 805.607 928.169 804.538 921.263C799.156 885.925 790.696 851.125 779.255 817.259C767.939 783.846 749.562 750.322 754.106 714.058C754.975 707.108 744.06 707.152 743.191 714.058H743.125Z" fill="#192939"/>
<path d="M769.854 677.548L772.973 706.506C773.708 713.434 784.645 713.501 783.888 706.506L780.792 677.548C780.034 670.62 769.119 670.554 769.854 677.548Z" fill="#192939"/>
<path d="M805.963 655.651V684.787C805.963 691.826 816.9 691.826 816.9 684.787V655.651C816.9 648.634 805.963 648.612 805.963 655.651Z" fill="#192939"/>
<path d="M842.94 652.287C844.921 658.045 845.679 664.152 845.168 670.219C844.633 677.236 855.571 677.214 856.083 670.219C856.619 663.165 855.701 656.077 853.388 649.392C851.16 642.709 840.557 645.627 842.851 652.287H842.94Z" fill="#192939"/>
<path d="M963.874 924.181C973.14 955.857 982.451 987.555 993.723 1018.61C1004.57 1048.54 1016.78 1078.95 1035.2 1105.15C1039.21 1110.85 1048.56 1105.39 1044.62 1099.62C1008.09 1047.65 991.985 981.429 974.41 921.263C972.45 914.58 961.891 917.409 963.874 924.181Z" fill="#192939"/>
<path d="M865.104 1208.06C871.726 1243.01 885.063 1276.35 904.375 1306.23C908.184 1312.11 917.741 1306.63 913.82 1300.7C895.008 1271.63 882.04 1239.17 875.64 1205.14C874.348 1198.26 863.812 1201.18 865.104 1208.06Z" fill="#192939"/>
<path d="M654.824 1125.48C670.97 1183.29 672.113 1244.27 658.143 1302.64C656.495 1309.48 667.053 1312.4 668.68 1305.56C683.128 1245.28 681.986 1182.31 665.361 1122.59C663.467 1115.91 652.931 1118.69 654.824 1125.48Z" fill="#192939"/>
<path d="M1056.45 1155.87C1055.87 1134.1 1048.27 1114.12 1040.03 1094.23C1037.38 1087.82 1026.82 1090.62 1029.52 1097.13C1037.34 1116.08 1044.98 1135.11 1045.54 1155.87C1045.71 1162.88 1056.67 1162.91 1056.45 1155.87Z" fill="#192939"/>
<path d="M1075.29 1049.88C1102.78 1090.43 1127.87 1132.54 1150.45 1176C1153.7 1182.24 1163.13 1176.72 1159.9 1170.48C1137.29 1127.02 1112.19 1084.91 1084.72 1044.36C1080.8 1038.57 1071.35 1044.02 1075.29 1049.88Z" fill="#192939"/>
<path d="M1164.93 1085.5C1153.45 1158.09 1139.62 1230.26 1123.43 1302.02C1121.87 1308.85 1132.34 1311.77 1133.97 1304.91C1150.16 1233.22 1163.99 1161.04 1175.47 1088.4C1176.54 1081.51 1166.02 1078.55 1164.93 1085.5Z" fill="#192939"/>
<path d="M831.223 871.233C846.162 874.663 860.938 878.732 875.551 883.44C878.442 884.184 881.401 882.497 882.233 879.63C886.132 865.842 896.356 849.336 912.929 851.43C926.606 853.123 936.162 865.886 936.251 879.385C936.251 890.189 930.749 901.817 920.658 906.606C909.253 911.748 895.81 907.319 889.696 896.404C886.288 890.234 876.865 895.736 880.251 901.906C888.605 916.636 906.298 923.284 922.285 917.699C938.902 911.796 948.414 893.441 947.01 876.4C945.585 858.803 932.42 842.609 914.399 840.492C892.124 837.886 877.177 857.4 871.697 876.735L878.38 872.926C863.767 868.203 848.998 864.127 834.074 860.696C827.213 859.115 824.295 869.606 831.156 871.233H831.223Z" fill="#192939"/>
<path d="M938.324 901.193C946.298 905.514 957.837 905.447 963.784 912.776C965.557 914.548 968.3 914.905 970.467 913.645L970.868 913.422C972.57 912.467 973.607 910.651 973.563 908.7C973.514 907.275 973.083 905.891 972.316 904.69C968.329 898.965 958.951 904.423 962.893 910.192L962.648 908.7L965.366 903.977L964.965 904.2L971.648 905.046C964.609 896.381 953.137 896.715 943.982 891.681C937.789 888.34 932.265 897.762 938.457 901.104L938.324 901.193Z" fill="#192939"/>
<path d="M906.915 864.684L905.912 872.101C905.307 874.745 905.03 877.453 905.088 880.165C905.756 885.712 911.57 886.848 916.003 888.251C922.686 890.479 925.515 879.987 918.899 877.715C916.85 877.024 914.778 876.378 912.773 875.487L915.179 876.913L914.555 876.378L915.959 878.784C915.936 877.062 916.153 875.345 916.604 873.683L917.451 867.513C918.124 864.632 916.463 861.719 913.642 860.83C911.102 860.139 907.316 861.699 906.959 864.661L906.915 864.684Z" fill="#192939"/>
<path d="M768.317 528.504C772.547 543.689 778.7 558.271 786.628 571.896C790.169 577.977 799.614 572.497 796.072 566.394C788.586 553.585 782.769 539.871 778.764 525.585C776.871 518.903 766.335 521.71 768.25 528.481L768.317 528.504Z" fill="#1A73E8"/>
<path d="M861.406 488.876L857.129 547.104C856.617 554.12 867.554 554.076 868.066 547.104L872.321 488.876C872.833 481.881 861.896 481.903 861.384 488.876H861.406Z" fill="#1A73E8"/>
<path d="M950.842 522.244L936.475 556.905C933.779 563.387 944.338 566.216 946.989 559.8L961.423 525.14C964.119 518.658 953.538 515.829 950.887 522.244H950.842Z" fill="#1A73E8"/>
<path d="M996.596 601.166L1005.77 595.82C1007.46 594.833 1008.49 593.023 1008.47 591.072C1008.46 589.121 1007.41 587.325 1005.71 586.361C1004.01 585.396 1001.93 585.41 1000.25 586.397L991.094 591.743C988.578 593.301 987.762 596.58 989.254 599.135C990.746 601.69 994.003 602.591 996.596 601.166Z" fill="#1A73E8"/>
<path d="M205.396 993.146H204.282C197.243 993.146 197.243 1004.08 204.282 1004.08H205.396C212.435 1004.08 212.457 993.146 205.396 993.146H204.282C197.243 993.146 197.243 1004.08 204.282 1004.08H205.396C212.435 1004.08 212.457 993.146 205.396 993.146Z" fill="white"/>
<path d="M260.015 985.862C267.054 985.862 267.054 974.947 260.015 974.947C252.976 974.947 252.976 985.862 260.015 985.862Z" fill="white"/>
<path d="M252.53 1032.97L250.704 1034.8C248.569 1036.94 248.569 1040.4 250.704 1042.53C252.838 1044.67 256.299 1044.67 258.433 1042.53L260.238 1040.7C262.34 1038.56 262.34 1035.12 260.238 1032.97C258.084 1030.91 254.685 1030.91 252.53 1032.97Z" fill="white"/>
<path d="M190.851 1058.66C197.867 1058.66 197.89 1047.72 190.851 1047.72C183.812 1047.72 183.812 1058.66 190.851 1058.66Z" fill="white"/>
<path d="M326.864 1021.77L323.233 1025.4C321.852 1026.78 321.311 1028.79 321.812 1030.67C322.314 1032.55 323.783 1034.03 325.666 1034.53C327.549 1035.04 329.559 1034.51 330.94 1033.13L334.593 1029.48C336.721 1027.34 336.716 1023.89 334.582 1021.76C332.448 1019.63 328.992 1019.63 326.864 1021.77Z" fill="white"/>
<path d="M285.521 1098.75C292.537 1098.75 292.56 1087.82 285.521 1087.82C278.481 1087.82 278.481 1098.75 285.521 1098.75Z" fill="white"/>
<path d="M219.964 1115.13C227.003 1115.13 227.003 1104.21 219.964 1104.21C212.925 1104.21 212.925 1115.13 219.964 1115.13Z" fill="white"/>
<path d="M143.515 1116.95C150.532 1116.95 150.554 1106.04 143.515 1106.04C136.476 1106.04 136.454 1116.95 143.515 1116.95Z" fill="white"/>
<path d="M186.974 1167.81L185.148 1169.61C183.013 1171.75 183.013 1175.21 185.148 1177.34C187.282 1179.48 190.743 1179.48 192.877 1177.34L194.704 1175.51C196.804 1173.37 196.804 1169.95 194.704 1167.81C192.547 1165.73 189.131 1165.73 186.974 1167.81Z" fill="white"/>
<path d="M152.38 1162.97C159.419 1162.97 159.442 1152.06 152.38 1152.06C145.319 1152.06 145.341 1162.97 152.38 1162.97Z" fill="white"/>
<path d="M150.599 1221.27C157.615 1221.27 157.638 1210.33 150.599 1210.33C143.56 1210.33 143.56 1221.27 150.599 1221.27Z" fill="white"/>
<path d="M251.149 1200.49L249.323 1198.66C247.942 1197.28 245.929 1196.74 244.043 1197.24C242.157 1197.75 240.684 1199.22 240.179 1201.11C239.673 1202.99 240.212 1205.01 241.593 1206.39L243.42 1208.21C245.554 1210.35 249.015 1210.35 251.149 1208.21C253.284 1206.08 253.284 1202.62 251.149 1200.49Z" fill="white"/>
<path d="M289.151 1155.18C296.19 1155.18 296.19 1144.26 289.151 1144.26C282.112 1144.26 282.112 1155.18 289.151 1155.18Z" fill="white"/>
<path d="M318.288 1215.28C325.305 1215.28 325.327 1204.34 318.288 1204.34C311.249 1204.34 311.249 1215.28 318.288 1215.28Z" fill="white"/>
<path d="M349.228 1136.98H351.077C354.091 1136.98 356.535 1134.53 356.535 1131.52C356.535 1128.51 354.091 1126.06 351.077 1126.06H349.25C346.236 1126.06 343.793 1128.51 343.793 1131.52C343.793 1134.53 346.236 1136.98 349.25 1136.98H349.228Z" fill="white"/>
<path d="M402.021 1202.51C409.06 1202.51 409.082 1191.6 402.021 1191.6C394.96 1191.6 394.982 1202.51 402.021 1202.51Z" fill="white"/>
<path d="M416.367 1097.15L418.193 1098.98C419.574 1100.36 421.586 1100.9 423.473 1100.39C425.359 1099.89 426.832 1098.41 427.337 1096.53C427.843 1094.64 427.303 1092.63 425.923 1091.25L424.096 1089.42C421.944 1087.33 418.519 1087.33 416.367 1089.42C414.31 1091.59 414.31 1094.98 416.367 1097.15Z" fill="white"/>
<path d="M351.077 1075.07C358.116 1075.07 358.116 1064.16 351.077 1064.16C344.038 1064.16 344.038 1075.07 351.077 1075.07Z" fill="white"/>
<path d="M318.288 973.121H323.745C326.759 973.121 329.203 970.677 329.203 967.663C329.203 964.649 326.759 962.206 323.745 962.206H318.288C315.273 962.206 312.83 964.649 312.83 967.663C312.83 970.677 315.273 973.121 318.288 973.121Z" fill="white"/>
<path d="M411.221 1013.17C418.26 1013.17 418.26 1002.26 411.221 1002.26C404.182 1002.26 404.182 1013.17 411.221 1013.17Z" fill="white"/>
<path d="M374.934 995.195L376.761 993.369C378.864 991.221 378.864 987.787 376.761 985.639C374.595 983.583 371.198 983.583 369.031 985.639L367.227 987.466C365.093 989.594 365.088 993.05 367.216 995.184C369.344 997.318 372.8 997.323 374.934 995.195Z" fill="white"/>
<path d="M400.216 1056.88C407.233 1056.88 407.255 1045.96 400.216 1045.96C393.177 1045.96 393.177 1056.88 400.216 1056.88Z" fill="white"/>
<path d="M469.137 1038.9L470.941 1040.7C473.075 1042.84 476.536 1042.84 478.67 1040.7C480.805 1038.57 480.805 1035.11 478.67 1032.97L476.844 1031.17C474.704 1029.07 471.277 1029.07 469.137 1031.17C467.057 1033.33 467.057 1036.74 469.137 1038.9Z" fill="white"/>
<path d="M476.243 1105.59L472.567 1109.18C471.186 1110.55 470.645 1112.56 471.147 1114.45C471.649 1116.33 473.118 1117.81 475.001 1118.31C476.883 1118.82 478.894 1118.28 480.274 1116.91L483.972 1113.32C486.075 1111.17 486.075 1107.74 483.972 1105.59C481.81 1103.52 478.404 1103.52 476.243 1105.59Z" fill="white"/>
<path d="M412.958 1149.72C419.975 1149.72 419.997 1138.8 412.958 1138.8C405.919 1138.8 405.919 1149.72 412.958 1149.72Z" fill="white"/>
<path d="M483.95 1191.6C490.989 1191.6 491.012 1180.68 483.95 1180.68C476.889 1180.68 476.911 1191.6 483.95 1191.6Z" fill="white"/>
<path d="M469.404 1240.76H471.208C473.246 1240.89 475.186 1239.88 476.244 1238.13C477.302 1236.38 477.302 1234.2 476.244 1232.45C475.186 1230.7 473.246 1229.69 471.208 1229.82H469.404C467.367 1229.69 465.427 1230.7 464.369 1232.45C463.311 1234.2 463.311 1236.38 464.369 1238.13C465.427 1239.88 467.367 1240.89 469.404 1240.76Z" fill="white"/>
<path d="M396.564 1266.24C403.603 1266.24 403.603 1255.33 396.564 1255.33C389.524 1255.33 389.524 1266.24 396.564 1266.24Z" fill="white"/>
<path d="M270.73 1251.45L268.903 1253.28C267.522 1254.66 266.983 1256.67 267.489 1258.56C267.994 1260.44 269.467 1261.92 271.353 1262.42C273.24 1262.93 275.252 1262.39 276.633 1261.01L278.459 1259.18C280.594 1257.05 280.594 1253.59 278.459 1251.45C276.325 1249.32 272.864 1249.32 270.73 1251.45Z" fill="white"/>
<path d="M176.282 1244.39C183.299 1244.39 183.321 1233.48 176.282 1233.48C169.243 1233.48 169.243 1244.39 176.282 1244.39Z" fill="white"/>
<path d="M540.619 1266.47L542.446 1264.64C543.822 1263.26 544.358 1261.25 543.851 1259.36C543.343 1257.48 541.87 1256.01 539.986 1255.51C538.102 1255.01 536.093 1255.55 534.716 1256.93L532.889 1258.74C530.755 1260.87 530.755 1264.33 532.889 1266.47C535.024 1268.6 538.485 1268.6 540.619 1266.47Z" fill="white"/>
<path d="M549.507 1184.31V1182.49C549.322 1179.6 546.929 1177.36 544.038 1177.36C541.147 1177.36 538.754 1179.6 538.569 1182.49V1184.31C538.754 1187.2 541.147 1189.44 544.038 1189.44C546.929 1189.44 549.322 1187.2 549.507 1184.31Z" fill="white"/>
<path d="M516.516 1088.04L518.321 1089.87C520.455 1092 523.916 1092 526.05 1089.87C528.185 1087.73 528.185 1084.27 526.05 1082.14L524.224 1080.33C522.066 1078.39 518.767 1078.48 516.715 1080.53C514.663 1082.58 514.575 1085.88 516.516 1088.04Z" fill="white"/>
<path d="M598.668 1142.44V1144.26C598.668 1146.21 599.709 1148.01 601.397 1148.99C603.086 1149.96 605.166 1149.96 606.855 1148.99C608.543 1148.01 609.583 1146.21 609.583 1144.26V1142.44C609.583 1139.42 607.14 1136.98 604.126 1136.98C601.112 1136.98 598.668 1139.42 598.668 1142.44Z" fill="white"/>
<path d="M609.472 1224.59L611.299 1226.41C613.451 1228.5 616.876 1228.5 619.029 1226.41C621.085 1224.25 621.085 1220.85 619.029 1218.68L617.202 1216.86C615.068 1214.72 611.607 1214.72 609.472 1216.86C607.338 1218.99 607.338 1222.45 609.472 1224.59Z" fill="white"/>
<path d="M616.867 1278.98C623.884 1278.98 623.906 1268.07 616.867 1268.07C609.828 1268.07 609.828 1278.98 616.867 1278.98Z" fill="white"/>
<path d="M562.248 1115.13H564.074C567.088 1115.13 569.532 1112.68 569.532 1109.67C569.532 1106.65 567.088 1104.21 564.074 1104.21H562.248C559.233 1104.21 556.79 1106.65 556.79 1109.67C556.79 1112.68 559.233 1115.13 562.248 1115.13Z" fill="white"/>
<path d="M1207.32 1172.89C1204.59 1142.12 1215.25 1111.66 1236.57 1089.31C1259.18 1065.38 1301.43 1044.98 1330.44 1069.82C1357.35 1092.85 1365.32 1134.91 1357.17 1168.1C1348.7 1200.96 1325.21 1227.89 1293.79 1240.74C1275.02 1248.38 1251.27 1252.23 1233.65 1240.05C1218.19 1229.47 1210.73 1210.2 1204.22 1193.45C1201.71 1186.96 1191.13 1189.79 1193.69 1196.36C1200.37 1213.29 1207.39 1231.2 1221.02 1243.81C1235.61 1257.31 1255.06 1260.65 1274.26 1257.58C1312.33 1251.5 1346.34 1224.3 1361.64 1189.1C1377.79 1151.9 1373.67 1104.99 1348.28 1072.76C1336.79 1058.12 1320.9 1047.97 1301.95 1047.48C1282.41 1046.99 1262.3 1055.18 1246.57 1066.34C1212.87 1090.31 1192.62 1131.45 1196.52 1172.89C1197.19 1179.84 1208.1 1179.9 1207.45 1172.89H1207.32Z" fill="white"/>
<path d="M1208.12 1204.03L1241.25 1182.78L1257.8 1172.15C1264.79 1167.7 1268.62 1164.33 1276.69 1168.59C1297.67 1179.72 1316.78 1198.79 1333.56 1215.37C1338.55 1220.33 1346.28 1212.6 1341.29 1207.64C1331.02 1197.4 1320.2 1187.73 1308.87 1178.68C1299.01 1170.84 1287.11 1159.32 1275.22 1154.98C1264.08 1150.94 1253.54 1161.93 1244.92 1167.45L1202.6 1194.6C1196.7 1198.39 1202.15 1207.97 1208.1 1204.05L1208.12 1204.03Z" fill="white"/>
<path d="M1273.59 1165.27C1278.27 1130.78 1285.29 1096.65 1294.6 1063.11C1296.47 1056.32 1285.93 1053.42 1284.06 1060.22C1274.75 1093.77 1267.73 1127.93 1263.05 1162.44C1262.12 1169.3 1272.65 1172.28 1273.59 1165.33V1165.27Z" fill="white"/>
<path d="M1324.29 623.842C1325.16 646.496 1340.68 667.012 1365.14 661.821C1389.6 656.631 1402.48 632.552 1400.25 608.984C1399.6 602.057 1388.67 601.99 1389.31 608.984C1390.8 624.889 1385.32 641.128 1370.22 648.612C1350.8 658.257 1335.96 643.177 1335.2 623.842C1334.94 616.825 1324.07 616.781 1324.29 623.842Z" fill="#192939"/>
<path d="M1327.99 640.459C1337.16 648.523 1347.81 649.369 1359.55 647.565C1364.55 647.057 1369.47 645.919 1374.19 644.179C1380.4 641.595 1385.17 636.851 1391.83 635.269C1398.49 633.688 1395.75 623.018 1388.91 624.733C1381.56 626.559 1376.24 631.66 1369.31 634.356C1359.35 638.232 1344.38 640.392 1335.72 632.797C1330.44 628.186 1322.69 635.893 1327.99 640.526V640.459Z" fill="#192939"/>
<path d="M1341.69 652.867C1355.69 657.676 1371.17 655.168 1382.94 646.184C1388.44 641.974 1382.94 632.485 1377.44 636.762C1368.19 644.194 1355.74 646.302 1344.56 642.33C1337.88 640.103 1335.03 650.617 1341.66 652.867H1341.69Z" fill="#192939"/>
</svg>
