<svg width="1702" height="2412" viewBox="0 0 1702 2412" fill="none" xmlns="http://www.w3.org/2000/svg">
<path d="M507.208 1233.65C507.208 1233.65 445.397 1209.22 485.956 1166.32C526.516 1123.42 567.223 1079.36 576.556 1056.09C585.889 1032.82 629.281 1056.09 660.285 1071.66C691.29 1087.22 698.111 1039.12 706.657 1050.95C715.202 1062.77 724.191 1091.63 775.733 1076.63C827.276 1061.63 865.718 1003.39 890.049 1018.93C914.379 1034.47 1019.8 964.753 1033.13 986.917C1046.45 1009.08 1120.87 1102.32 1147.42 1115.61C1173.97 1128.91 1200.93 1120.79 1166.01 1152.21C1131.09 1183.63 1036.97 1216.98 1062.24 1248.35C1087.5 1279.72 1085.34 1293.17 1085.34 1293.17C1085.34 1293.17 899.702 1432.41 849.711 1439.5C799.72 1446.59 604.852 1505.99 619.283 1447.28C633.714 1388.57 622.607 1306.64 611.525 1284.75C600.444 1262.85 540.749 1252.12 536.735 1247.56" fill="#BAD5F8"/>
<path d="M704.464 839.208C704.464 839.208 667.524 797.171 695.106 775.943C722.687 754.715 794.35 756.389 808.904 776.78C823.458 797.171 867.613 798.944 864.485 826.944C861.358 854.944 910.856 841.128 919.18 884.889C927.504 928.65 923.564 940.471 899.085 958.079C874.607 975.686 850.522 992.211 837.199 973.741C823.876 955.271 830.92 953.868 843.848 937.934C856.777 922.001 863.549 906.61 856.629 896.217C849.709 885.825 833.358 873.34 827.078 880.826C820.798 888.312 812.795 920.671 807.82 903.408C802.846 886.145 807.672 862.085 789.006 851.274C770.339 840.464 727.44 823.398 727.44 823.398C727.44 823.398 725.125 858.761 718.131 854.599C711.137 850.437 704.464 839.208 704.464 839.208Z" fill="#1A73E8"/>
<path d="M453.302 2058.16C452.341 2063.09 423.479 2261.23 423.479 2261.23C423.479 2261.23 505.707 2255.96 519.522 2254.41C533.337 2252.86 680.332 2250.37 690.281 2221.43C700.23 2192.5 738.056 2011 738.056 2011C738.056 2011 825.11 1805 853.405 1775.52C881.701 1746.05 969.149 1689.33 1007.79 1670.64C1046.43 1651.95 1246.27 1573.98 1216.86 1617.72C1187.46 1661.46 1158.84 1748.61 1165.96 1751.59C1173.08 1754.57 1199.48 1767.13 1206.28 1750.26C1213.07 1733.39 1250.6 1702.9 1271.78 1708.12C1292.96 1713.34 1354.97 1724.5 1354.97 1724.5V1747.7C1354.97 1747.7 1384.96 1760.77 1401.61 1747.7C1418.26 1734.62 1476.62 1664.51 1495.56 1597.06C1514.5 1529.61 1547.28 1381.33 1427.25 1323.83C1307.22 1266.33 1072.63 1299.87 1026.85 1339.69C981.068 1379.51 784.796 1451.25 758.126 1455.68C731.456 1460.11 684.247 1450.53 656.961 1501.68C629.675 1552.83 533.387 1771.29 520.458 1810.49" fill="#1A73E8"/>
<path d="M719.93 836.523C703.234 855.658 685.921 874.374 669.841 894.001C658.882 907.349 651.001 925.227 666.368 938.55C675.258 946.258 680.479 951.11 682.498 963.176C684.37 974.308 685.109 985.66 686.857 996.816C691.057 1022.91 697.458 1048.61 705.992 1073.63C709.07 1082.71 723.55 1078.82 720.448 1069.66C712.909 1047.59 707.032 1024.98 702.864 1002.04C699.638 983.936 700.599 962.881 693.014 945.84C690.387 939.89 686.243 934.735 680.996 930.891C673.83 925.252 670.259 920.351 675.603 911.19C678.254 907.077 681.27 903.211 684.616 899.641C699.663 881.984 715.128 864.647 730.397 847.162C736.701 839.947 726.161 829.308 719.807 836.573L719.93 836.523Z" fill="#192939"/>
<path d="M721.973 802.811C735.907 826.815 757.722 845.254 783.712 854.994C792.109 858.195 792.552 862.382 793.119 870.484C794.143 884.309 797.36 897.884 802.649 910.698C805.112 916.904 815.282 918.677 817.105 910.698C818.804 903.31 821.267 894.593 829.418 892.376C836.072 890.552 843.125 893.393 846.656 899.321C854.044 912.668 845.056 933.034 829.984 935.398C820.479 936.901 824.517 951.332 833.949 949.854C859.807 945.791 874.115 907.324 856.753 887.279C849.194 878.923 837.743 875.25 826.734 877.65C812.253 880.827 805.555 893.214 802.477 906.709H816.932C811.236 892.368 808.094 877.141 807.648 861.717C807.156 851.866 803.683 846.596 794.375 843.001C769.133 833.15 748.915 818.793 734.73 795.25C729.805 787 716.802 794.511 721.801 802.811H721.973Z" fill="#192939"/>
<path d="M692.841 828.939C696.806 840.317 705.646 847.581 715.004 854.551C718.23 857.013 723.353 855.092 725.249 851.866C727.226 848.282 726.046 843.776 722.565 841.622C716.605 837.214 709.784 832.215 707.272 824.95C704.144 815.887 689.664 819.778 692.816 828.939H692.841Z" fill="#192939"/>
<path d="M779.253 773.923C796.069 776.579 812.023 783.16 825.821 793.132C840.326 803.795 858.771 821.945 856.481 841.326C855.373 850.881 870.345 850.807 871.478 841.326C873.941 819.408 856.702 799.239 840.868 786.015C824.36 772.197 804.47 763.025 783.242 759.443C773.81 757.842 769.772 772.273 779.253 773.899V773.923Z" fill="#192939"/>
<path d="M877.784 833.027C877.917 839.996 876.713 846.926 874.238 853.442C872.391 858.367 877.045 862.48 881.453 862.923C897.543 864.521 911.315 875.149 916.94 890.308C923.416 908.088 917.531 926.385 905.833 940.373C896.204 951.898 883.669 964.039 869.608 969.58C852.369 976.327 829.344 967.56 835.796 945.938C838.554 936.679 824.099 932.714 821.34 941.949C818.163 951.817 819.594 962.592 825.239 971.288C830.883 979.984 840.141 985.678 850.449 986.793C875.888 990.192 897.805 971.427 913.787 953.843C930.583 935.349 939.645 910.92 931.272 886.318C923.884 864.352 904.011 850.216 881.355 847.975L888.57 857.456C891.485 849.667 892.873 841.39 892.658 833.076C892.486 823.447 877.513 823.398 877.685 833.076L877.784 833.027Z" fill="#192939"/>
<path d="M323.446 766.388C291.605 920.623 340.685 1083.18 453.966 1192.74C483.631 1221.39 516.981 1245.97 553.136 1265.81C561.607 1270.46 569.167 1257.53 560.696 1252.88C431.999 1182.08 344.108 1050.43 330.44 903.828C326.29 859.224 328.779 814.251 337.828 770.378C339.774 760.971 325.318 756.932 323.372 766.388H323.446Z" fill="#192939"/>
<path d="M644.524 1474.3C803.314 1472.25 956.238 1413.98 1076.12 1309.84C1083.51 1303.49 1072.77 1292.92 1065.53 1299.23C948.504 1400.69 799.305 1457.41 644.425 1459.3C634.796 1459.3 634.772 1474.39 644.425 1474.27L644.524 1474.3Z" fill="#192939"/>
<path d="M696.608 1074.04C715.176 1096.01 756.031 1093.6 780.78 1086.36C810.652 1077.66 835.648 1057.62 855.004 1033.78C861.037 1026.39 850.497 1015.7 844.415 1023.19C828.457 1042.89 808.805 1060.13 784.794 1069.24C763.739 1077.2 723.918 1083.23 707.197 1063.43C700.966 1056.04 690.426 1066.71 696.608 1074.02V1074.04Z" fill="#192939"/>
<path d="M557.862 1062.47C534.344 1110.22 495.804 1147.04 457.535 1183.02C450.492 1189.64 461.106 1200.25 468.124 1193.6C507.255 1156.79 546.756 1118.86 570.816 1070.03C575.052 1061.41 562.147 1053.8 557.862 1062.47Z" fill="#192939"/>
<path d="M1135.97 1115.94C1089.22 1083.71 1057.95 1036.06 1027.89 988.948C1022.7 980.797 1035.84 973.789 1041.09 981.867C1069.73 1026.73 1099.36 1072.57 1144 1103.29C1151.93 1108.73 1143.95 1121.43 1135.97 1115.94Z" fill="#192939"/>
<path d="M668.387 1466.22C558.878 1656.85 482.128 1864.5 441.333 2080.52C430.054 2140.33 421.607 2200.61 415.992 2261.35C416.071 2265.4 419.333 2268.66 423.38 2268.74C484.678 2266.56 545.755 2260.18 606.181 2249.65C620.349 2247.19 634.452 2244.49 648.489 2241.55C661.344 2238.87 676.415 2237.54 688.236 2231.7C697.963 2226.78 702.199 2218.28 704.637 2208.11C708.183 2193.33 710.646 2178.11 713.872 2163.22C726.677 2104.26 742.134 2045.98 760.243 1988.37C775.487 1939.78 792.134 1891.32 815.923 1846.15C841.707 1797.17 876.331 1752.79 924.279 1724.1C932.553 1719.18 925.017 1706.2 916.718 1711.15C835.452 1759.64 792.577 1847.97 762.287 1934.07C743.202 1988.39 727.145 2043.9 713.207 2099.75C706.016 2128.66 699.449 2157.72 693.506 2186.91C690.797 2200.35 691.043 2215.55 675.799 2220.25C661.147 2224.81 645.361 2227.15 630.315 2230.1C562.036 2243.52 492.799 2251.48 423.257 2253.91L430.645 2261.3C451.02 2045.12 507.395 1833.86 597.439 1636.26C622.738 1580.84 650.599 1526.7 681.02 1473.85C685.822 1465.48 672.894 1457.92 668.067 1466.29L668.387 1466.22Z" fill="#192939"/>
<path d="M1064.26 1321.54C1118.86 1304.22 1175.61 1294.55 1232.87 1292.8C1281.43 1291.2 1330.44 1294.28 1376.89 1309.55C1421.36 1324.15 1462.22 1350.99 1485.96 1392.22C1512.38 1438.12 1515.33 1494.74 1503.91 1545.56C1489.95 1607.62 1456.26 1662.79 1421.11 1714.94C1415.7 1722.95 1428.67 1730.46 1434.04 1722.5C1495.66 1630.92 1555.89 1515.18 1508.41 1403.91C1467.34 1307.62 1356.52 1277.85 1260.65 1277.36C1192.71 1276.7 1125.09 1286.73 1060.27 1307.08C1051.13 1309.99 1055.05 1324.47 1064.26 1321.54Z" fill="#192939"/>
<path d="M975.083 1699.68C1049.13 1648.18 1137.89 1627.77 1224.55 1608.36C1233.95 1606.24 1229.96 1591.81 1220.56 1593.91C1132.74 1613.61 1042.56 1634.56 967.522 1686.75C959.642 1692.21 967.128 1705.22 975.083 1699.68Z" fill="#192939"/>
<path d="M1348.84 1768.83C1372.26 1762.62 1394.65 1753.06 1415.33 1740.43C1423.63 1735.51 1416.12 1722.6 1407.77 1727.5C1388.18 1739.46 1366.96 1748.52 1344.77 1754.39C1335.44 1756.86 1339.38 1771.21 1348.76 1768.83H1348.84Z" fill="#192939"/>
<path d="M1239.35 1540.79C1211.44 1609.99 1184.57 1679.57 1158.75 1749.54C1157.22 1753.68 1160.49 1757.33 1163.97 1758.75C1175.31 1763.6 1187.03 1767.53 1199.01 1770.5C1208.39 1772.72 1212.41 1758.19 1203 1756.05C1191.02 1753.08 1179.31 1749.16 1167.96 1744.32L1173.18 1753.53C1199.05 1683.56 1225.93 1613.98 1253.8 1544.78C1257.4 1535.84 1242.92 1531.95 1239.35 1540.79Z" fill="#192939"/>
<path d="M331.302 707.605C330.686 700.907 329.258 693.544 330.44 686.845C330.744 683.807 332.165 680.989 334.429 678.94C336.892 677.29 340.488 676.945 340.266 680.836C339.699 690.465 354.672 690.441 355.239 680.836C356.15 665.814 338.714 658.402 326.943 665.913C312.758 675 315.024 693.297 316.329 707.605C317.191 717.136 332.188 717.209 331.302 707.605Z" fill="#192939"/>
<path d="M363.266 654.462C367.659 656.493 370.608 660.742 370.974 665.568C371.117 669.635 374.416 672.88 378.485 672.956C382.532 672.877 385.795 669.615 385.873 665.568C385.223 654.124 377.885 644.141 367.157 640.104C363.414 638.578 358.932 641.754 357.947 645.325C356.93 649.299 359.236 653.367 363.168 654.535L363.266 654.462Z" fill="#192939"/>
<path d="M391.562 630.057C396.623 634.221 399.973 640.104 400.969 646.581C402.083 650.557 406.196 652.889 410.18 651.802C414.103 650.623 416.404 646.564 415.4 642.592C413.824 633.572 409.136 625.39 402.151 619.468C399.185 616.647 394.528 616.647 391.562 619.468C388.664 622.403 388.664 627.122 391.562 630.057Z" fill="#192939"/>
<path d="M416.607 697.951C413.209 687.928 424.636 683.865 432.442 686.574C439.608 689.037 448.794 696.72 449.04 704.994C449.385 715.731 437.441 726.666 434.265 737.009C431.408 746.243 445.863 750.184 448.72 740.973C452.611 728.389 464.185 719.081 464.013 705.068C463.89 692.755 454.704 681.895 444.558 675.911C434.412 669.927 421.656 668.227 411.658 674.95C402.715 680.782 398.822 691.904 402.176 702.039C405.23 711.126 419.71 707.235 416.607 698.05V697.951Z" fill="#192939"/>
<path d="M438.131 573.687C451.035 578.859 439.534 619.566 437.983 630.328C436.604 639.76 451.035 643.848 452.414 634.317C454.729 618.409 459.235 601.318 458.94 585.188C458.743 573.072 453.473 563.861 442.096 559.306C433.156 555.735 429.265 570.215 438.131 573.761V573.687Z" fill="#192939"/>
<path d="M445.271 639.809C454.9 639.809 454.925 624.811 445.271 624.811C435.618 624.811 435.618 639.809 445.271 639.809Z" fill="#192939"/>
<path d="M458.102 2264.06C452.044 2277.8 451.33 2291.99 449.68 2306.71C448.67 2315.63 446.995 2324.74 441.504 2332.08C436.012 2339.42 427.196 2344.1 419.34 2349.07C408.381 2355.97 396.709 2364.76 393.285 2377.96C390.601 2388.2 393.581 2400.71 402.348 2407.19C414.661 2416.23 432.663 2409.23 445.863 2406.38C465.843 2402.04 485.7 2397.21 505.434 2391.87C525.923 2386.35 546.264 2380.3 566.457 2373.72C582.686 2368.43 602.855 2364.39 616.867 2354.27C630.264 2344.64 632.924 2328.53 633.909 2313.09C635.059 2289.54 639.282 2266.25 646.468 2243.79C649.547 2234.63 635.066 2230.69 632.037 2239.8C625.359 2259.66 621.181 2280.28 619.601 2301.17C618.961 2309.86 619.232 2318.8 617.138 2327.32C614.183 2339.05 606.672 2343.75 595.984 2347.84C556.459 2362.93 515.112 2374.41 474.06 2384.48C463.372 2387.09 452.651 2389.56 441.898 2391.87C434.288 2393.52 419.414 2399.78 412.149 2395.76C402.176 2390.27 409.12 2376.8 414.464 2371.14C420.793 2364.56 429.461 2360.64 436.948 2355.65C449.384 2347.37 458.274 2337.3 462.141 2322.62C466.549 2305.8 463.988 2287.6 471.129 2271.45C474.971 2262.73 462.067 2255.1 458.176 2263.89L458.102 2264.06Z" fill="#192939"/>
<path d="M1205.83 1731.34L1182.61 1789.07C1175.22 1807.76 1165.37 1826.72 1159.78 1846.08C1149.39 1881.71 1203.42 1879.13 1223.61 1875.78C1260.8 1869.6 1299.26 1864.67 1335.51 1854.06C1355.41 1848.22 1410.7 1830.93 1397.08 1801.01C1390.38 1786.41 1373.69 1784.07 1359.48 1786.56C1357.49 1787.15 1355.47 1787.58 1353.42 1787.84C1351.31 1788.91 1348.74 1788.17 1347.53 1786.14C1343.71 1785.55 1342.85 1784.09 1344.95 1781.8C1344.95 1777.67 1350.86 1770.33 1352.78 1766.58L1370.56 1731.89C1374.97 1723.32 1362.04 1715.73 1357.63 1724.33L1341.99 1754.74C1337.58 1763.36 1331.16 1772.54 1328.42 1781.83C1324.19 1796.31 1337.85 1804.66 1350.59 1803.47C1360.58 1802.54 1379.74 1794.19 1381.37 1809.21C1382.23 1817.24 1376.96 1819.06 1370.66 1822.88C1367.21 1825 1363.64 1826.94 1360.02 1828.77C1342.26 1837.56 1322.78 1842.43 1303.38 1846.35C1283.97 1850.26 1263.97 1853.49 1244.27 1856.96C1225.14 1860.31 1202.19 1867.55 1183 1861.3C1167.07 1856.1 1178.47 1838.69 1182.54 1828.57L1195.22 1797.49L1220.24 1735.31C1223.83 1726.37 1209.35 1722.48 1205.78 1731.34H1205.83Z" fill="#192939"/>
<path d="M1210.36 1740.11C1231.49 1724.08 1260.97 1722.87 1286.56 1721.15C1300.28 1719.88 1314.1 1720.49 1327.66 1722.97C1333.1 1724.06 1338.44 1725.6 1343.61 1727.6C1345.78 1728.44 1360.63 1734.23 1361.54 1737.08L1363.46 1729.69L1362.4 1730.7L1371.49 1729.52L1370.41 1728.96C1361.91 1724.38 1354.35 1737.3 1362.85 1741.88L1363.93 1742.48C1366.89 1744.11 1370.56 1743.63 1372.99 1741.29L1374.05 1740.28C1376.01 1738.37 1376.75 1735.52 1375.97 1732.9C1372.65 1722.36 1357.01 1716.54 1347.6 1712.95C1331.89 1707.46 1315.28 1704.97 1298.65 1705.61C1280.61 1706.19 1262.63 1707.99 1244.84 1711C1229.42 1713.32 1215.29 1717.65 1202.8 1727.18C1195.22 1732.92 1202.68 1745.95 1210.36 1740.11Z" fill="#192939"/>
<path d="M1386.77 1128.24C1395.32 1142.88 1405.91 1155.22 1423.1 1144.44C1427.63 1141.56 1431.83 1138.19 1435.62 1134.39C1437.24 1132.8 1442.19 1128.08 1442.34 1125.47C1442.75 1119.16 1434.66 1122.84 1436.19 1117.8L1435.26 1110.4L1436.31 1111.53C1442.92 1118.54 1430.95 1127.54 1424.37 1120.57L1423.32 1119.44C1421.7 1117.34 1421.33 1114.51 1422.36 1112.06C1425.99 1100.23 1445.72 1104.8 1452.31 1111.16C1462.7 1121.18 1455.98 1134.82 1447.51 1143.59C1438.17 1153.23 1425.5 1163.25 1411.58 1164.22C1393.91 1165.41 1382.82 1151.02 1374.77 1137.28C1369.98 1129.05 1381.97 1119.95 1386.71 1128.24L1386.77 1128.24Z" fill="#192939"/>
<path d="M1491.65 1103.74C1489.77 1106.67 1492.38 1104.5 1490.79 1104.02C1489.2 1103.55 1489.64 1103.25 1488.03 1103.28C1484.61 1103.35 1481.05 1105.71 1478.19 1107.19C1474.37 1108.76 1470 1106.94 1468.41 1103.13C1466.93 1099.31 1468.72 1095 1472.48 1093.35C1480.27 1089.15 1489.79 1085.63 1498.08 1090.65C1501.85 1092.75 1504.58 1096.32 1505.62 1100.52C1506.66 1104.71 1505.91 1109.14 1503.56 1112.76C1500.99 1116 1496.3 1116.58 1493.02 1114.07C1489.85 1111.46 1489.28 1106.82 1491.74 1103.54L1491.65 1103.74Z" fill="#192939"/>
<path d="M1510.14 1073.93C1506.71 1070.27 1501.46 1068.95 1496.71 1070.56C1487.66 1073.81 1481.91 1059.99 1490.99 1056.72C1500.7 1053.03 1511.66 1055.12 1519.34 1062.12C1522.51 1064.71 1523.09 1069.34 1520.65 1072.64C1518.09 1075.87 1513.41 1076.44 1510.14 1073.93Z" fill="#192939"/>
<path d="M1499.01 1030.8C1487.24 1019.01 1475.26 1038.48 1463.09 1039.48C1452.03 1040.43 1438.19 1028.42 1429.05 1023.21C1420.78 1018.53 1426.42 1004.63 1434.79 1009.38C1441.62 1013.29 1449.3 1019.38 1456.65 1021.85C1465.43 1024.8 1470.75 1018.27 1478.3 1014.98C1488.41 1010.61 1500.18 1010.91 1508.24 1018.98C1514.96 1025.72 1505.83 1037.63 1499.01 1030.8Z" fill="#192939"/>
<path d="M758.765 903.04C759.307 903.557 759.11 903.286 758.199 902.202C758.312 902.375 758.411 902.556 758.495 902.744L757.731 900.946C757.85 901.23 757.933 901.528 757.977 901.833L757.707 899.838C757.756 900.247 757.756 900.66 757.707 901.069L757.977 899.075C757.927 899.376 757.853 899.672 757.756 899.961L758.495 898.164C758.347 898.508 757.83 899.222 758.642 898.164C759.455 897.105 758.864 897.868 758.642 898.164L770.389 899.666L769.7 898.262C768.716 896.527 767.073 895.262 765.144 894.757C763.215 894.251 761.163 894.547 759.455 895.578C755.963 897.724 754.78 902.239 756.771 905.822L757.46 907.226C758.587 909.24 760.63 910.574 762.927 910.797C765.23 911.111 767.551 910.358 769.232 908.753C771.442 906.636 772.703 903.717 772.731 900.657C772.759 897.597 771.55 894.656 769.379 892.499C767.488 890.603 764.728 889.861 762.141 890.551C759.553 891.241 757.53 893.259 756.834 895.845C756.137 898.432 756.874 901.193 758.765 903.089V903.04Z" fill="#192939"/>
<path d="M722.958 890.184C723.5 890.726 723.303 890.43 722.392 889.371C722.5 889.538 722.598 889.711 722.687 889.888L721.924 888.115C722.029 888.396 722.111 888.684 722.17 888.977L721.899 886.983C721.949 887.392 721.949 887.805 721.899 888.214L722.17 886.219C722.114 886.521 722.032 886.818 721.924 887.106L722.687 885.308C722.54 885.653 722.023 886.392 722.835 885.308C723.648 884.224 723.057 884.988 722.835 885.308L734.582 886.81L733.892 885.406C731.788 881.859 727.222 880.662 723.648 882.722C720.167 884.877 718.986 889.382 720.964 892.967L721.653 894.37C722.787 896.382 724.824 897.722 727.12 897.966C729.426 898.266 731.744 897.505 733.424 895.897C735.615 893.761 736.85 890.83 736.85 887.771C736.85 884.711 735.615 881.781 733.424 879.644C730.5 876.72 725.759 876.72 722.835 879.644C719.911 882.568 719.911 887.309 722.835 890.233L722.958 890.184Z" fill="#192939"/>
<path d="M714.338 946.308C725.142 951.148 736.426 954.838 748.002 957.316C759.872 959.779 771.471 959.262 783.366 960.493C778.194 959.951 780.558 957.686 779.007 962.389C777.948 965.566 778.194 968.817 776.175 971.747C772.358 977.337 765.019 979.357 758.641 979.455C750.071 979.455 743.594 977.19 740.294 968.94C737.649 962.265 736.8 955.014 737.832 947.909C739.137 938.477 724.706 934.414 723.376 943.92C721.357 958.695 723.08 981.179 737.241 990.119C750.588 998.541 773.761 995.389 784.769 984.578C792.157 977.387 800.826 953.943 789.103 946.949C782.233 942.836 769.796 945.446 762.015 944.486C748.17 942.735 734.65 938.994 721.874 933.38C713.131 929.562 705.497 942.467 714.313 946.308H714.338Z" fill="#192939"/>
<path d="M729.114 971.402C734.625 976.731 741.407 980.562 748.816 982.533C752.988 983.852 757.241 984.905 761.547 985.685C766.67 986.522 771.915 985.956 776.889 987.507C786.1 990.413 790.04 975.957 780.879 973.076C773.491 970.614 765.438 971.426 757.804 969.456C751.081 967.708 744.654 965.861 739.655 960.812C732.882 953.942 722.416 964.531 729.065 971.402H729.114Z" fill="#192939"/>
<path d="M780.977 1194.49C767.422 1239.76 749.199 1283.51 726.602 1325.01C725.18 1327.65 725.442 1330.88 727.271 1333.26C729.101 1335.64 732.156 1336.72 735.073 1336.02C791.065 1326.27 844.86 1306.58 893.913 1277.88C896.16 1276.5 897.53 1274.05 897.53 1271.41C897.53 1268.78 896.16 1266.33 893.913 1264.95C862.957 1243.7 834.096 1219.54 807.721 1192.82C800.949 1185.95 790.359 1196.54 797.132 1203.41C824.423 1231.01 854.282 1255.94 886.303 1277.88V1264.95C838.341 1292.94 785.755 1312.12 731.035 1321.59L739.506 1332.57C762.702 1289.93 781.427 1245 795.383 1198.51C798.166 1189.25 783.71 1185.28 780.927 1194.52L780.977 1194.49Z" fill="#1A73E8"/>
<path d="M478.37 2340.33C483.486 2340.4 488.547 2339.27 493.146 2337.03C496.705 2334.93 497.904 2330.36 495.83 2326.78C493.676 2323.3 489.17 2322.12 485.585 2324.1C484.182 2324.74 485.955 2324.1 484.551 2324.47C483.689 2324.72 482.852 2324.99 481.965 2325.16C481.596 2325.16 481.227 2325.31 480.857 2325.38C481.448 2325.38 481.497 2325.38 480.857 2325.38C480.217 2325.38 479.084 2325.38 478.198 2325.38C474.108 2325.41 470.78 2328.68 470.687 2332.77C470.83 2336.84 474.129 2340.08 478.198 2340.16L478.37 2340.33Z" fill="#1A73E8"/>
<path d="M486.521 2308.14C487.21 2307.77 487.038 2307.82 485.954 2308.29L486.816 2308.04C486.816 2308.22 484.797 2308.27 486.644 2308.04C488.491 2307.82 484.92 2307.77 486.472 2308.04C487.21 2308.31 487.038 2308.22 485.954 2307.8L486.718 2308.27C490.288 2310.35 494.875 2309.15 496.962 2305.58C499.05 2302.01 497.848 2297.42 494.278 2295.34C489.608 2292.42 483.704 2292.35 478.961 2295.14C475.39 2297.23 474.189 2301.81 476.276 2305.38C478.364 2308.95 482.951 2310.16 486.521 2308.07V2308.14Z" fill="#1A73E8"/>
<path d="M1288.43 1789.91H1292.86C1296.99 1789.91 1300.34 1786.56 1300.34 1782.42C1300.34 1778.29 1296.99 1774.93 1292.86 1774.93H1288.43C1284.29 1774.93 1280.94 1778.29 1280.94 1782.42C1280.94 1786.56 1284.29 1789.91 1288.43 1789.91Z" fill="#1A73E8"/>
<path d="M1301.58 1751.22C1300.59 1751.93 1300.34 1752.13 1300.84 1751.83C1301.33 1751.54 1301.03 1751.66 1299.9 1752.2C1300.28 1752.13 1300.65 1752.03 1301.01 1751.91L1299.02 1752.18C1299.52 1752.14 1300.02 1752.14 1300.52 1752.18L1298.55 1751.93C1298.92 1751.99 1299.29 1752.07 1299.66 1752.18C1299.66 1752.33 1297.76 1751.14 1299.19 1752.18C1302.77 1754.23 1307.33 1753.03 1309.46 1749.49C1311.43 1745.9 1310.24 1741.38 1306.75 1739.23C1304.55 1737.81 1301.97 1737.12 1299.36 1737.26C1296.25 1737.45 1293.3 1738.67 1290.96 1740.73C1289.55 1742.13 1288.76 1744.03 1288.77 1746.02C1288.78 1748.01 1289.57 1749.91 1290.96 1751.32C1292.37 1752.72 1294.27 1753.51 1296.26 1753.51C1298.22 1753.4 1300.09 1752.63 1301.55 1751.32L1301.58 1751.22Z" fill="#1A73E8"/>
<path d="M340.832 837.238C371.123 838.371 399.394 828.324 426.778 816.331C432.368 813.868 440.175 811.873 444.509 807.391C448.499 803.303 448.154 797.787 449.262 792.419L450.173 788.552C450.592 784.193 451.207 783.504 451.996 786.508C454.236 788.035 456.404 795.743 457.339 798.427C458.965 803.18 464.506 819.926 458.866 823.054L469.111 825.738L462.314 814.533C457.389 806.308 444.361 813.819 449.385 822.093L456.182 833.298C458.312 836.812 462.847 838.001 466.426 835.983C490.831 822.463 463.964 754.716 441.8 772.693C435.742 777.618 436.727 785.794 434.117 792.394C433.948 793.996 433.668 795.584 433.28 797.147L425.276 800.767C419.809 803.23 414.317 805.692 408.776 807.884C386.957 816.725 364.572 823.201 340.832 822.315C331.179 821.97 331.204 836.943 340.832 837.288V837.238Z" fill="#1A73E8"/>
<path d="M1558.59 1322.93L1629.33 1285.04C1637.8 1280.49 1631.13 1267.06 1622.62 1271.62L1551.99 1309.58C1543.48 1314.14 1550.17 1327.54 1558.68 1322.98L1558.59 1322.93Z" fill="#1A73E8"/>
<path d="M1591.74 1395.38L1693.12 1374.2C1702.56 1372.22 1699.5 1357.54 1690.05 1359.54L1588.66 1380.73C1579.22 1382.71 1582.29 1397.36 1591.74 1395.38Z" fill="#1A73E8"/>
<path d="M1592.75 1491.8C1611.71 1485.34 1631.65 1482.25 1651.67 1482.67C1661.27 1482.88 1662.07 1467.93 1652.41 1467.71C1631.09 1467.14 1609.84 1470.32 1589.62 1477.1C1580.65 1480.07 1583.57 1494.86 1592.69 1491.76L1592.75 1491.8Z" fill="#1A73E8"/>
<path d="M203.713 1050.92C223.91 1099.8 254.331 1143.79 292.934 1179.94C299.952 1186.51 310.591 1175.95 303.523 1169.35C266.683 1135.08 237.575 1093.34 218.144 1046.93C214.499 1038.16 199.994 1042.01 203.713 1050.92Z" fill="#1A73E8"/>
<path d="M137.739 1165.95C155.669 1205.49 187.69 1236.93 227.551 1254.14C236.318 1257.93 243.952 1245.03 235.112 1241.21C197.56 1225.21 167.417 1195.65 150.693 1158.41C146.703 1149.65 133.799 1157.26 137.739 1165.97V1165.95Z" fill="#1A73E8"/>
<circle cx="256.5" cy="256.5" r="256.5" fill="#BAD5F8"/>
<path fill-rule="evenodd" clip-rule="evenodd" d="M236.274 113.24H278.049V236.36H401V278.192H278.049V401.337H236.274V278.192H113.296V236.36H236.274V113.24Z" fill="#1A73E8"/>
<path d="M778.935 922.963H789.819V933.847H778.935V922.963Z" fill="#BAD5F8"/>
<path d="M614.948 2191.83C644.721 2133.74 652.38 2068.82 667.525 2006.15C683.335 1940.79 708.233 1877.67 733.031 1815.3C756.722 1755.65 786.372 1700.64 835.871 1658.48C881.207 1619.81 936.247 1593.54 992.395 1574.62C1009.07 1568.59 1026.2 1563.89 1043.62 1560.59C1063.93 1557.21 1083.56 1560.34 1103.93 1560.93C1119.59 1561.37 1134.59 1559.23 1148.55 1551.84C1163.18 1544.11 1180.91 1527.41 1197.8 1539.14C1205.73 1544.63 1213.24 1531.75 1205.36 1526.18C1177.41 1506.83 1153.25 1537.73 1127.57 1544.11C1111.29 1548.17 1093.98 1545.12 1077.53 1544.11C1060.26 1543.18 1042.94 1544.78 1026.13 1548.86C965.338 1563.4 907.71 1588.92 856.089 1624.17C804.374 1659.88 765.883 1706.74 739.089 1763.43C724.683 1793.9 712.911 1825.56 700.869 1857.01C688.162 1890.26 675.726 1923.5 665.309 1957.66C642.431 2032.38 638.023 2113.96 602.019 2184.22C597.611 2192.79 610.54 2200.38 614.948 2191.78V2191.83Z" fill="#BAD5F8"/>
<path d="M1265.6 1497.4C1277.32 1481.04 1297.61 1497.84 1301.75 1511.16C1306.97 1528.05 1303.15 1546.99 1298.33 1563.49C1287.62 1600.14 1270.48 1635.43 1256.02 1670.74C1252.38 1679.65 1266.86 1683.52 1270.48 1674.7C1281.16 1648.58 1292.07 1622.5 1302.49 1596.25C1311.48 1573.71 1320.1 1549.46 1318.94 1524.83C1318.1 1507.37 1311.55 1488.23 1294.78 1480.13C1279.83 1472.87 1262.32 1476.34 1252.62 1489.98C1247.01 1497.84 1260.01 1505.32 1265.55 1497.54L1265.6 1497.4Z" fill="#BAD5F8"/>
<path d="M910.5 1021C991.5 977.001 1242 901.001 1434 1017.5" stroke="#192939" stroke-width="14.9" stroke-linecap="round"/>
</svg>
