<svg width="373" height="421" viewBox="0 0 373 421" fill="none" xmlns="http://www.w3.org/2000/svg">
<path d="M141.045 136.772C141.045 136.772 135.095 138.081 139.064 145.864C143.032 153.648 150.131 162.954 152.333 164.84C154.535 166.727 160.497 166.846 158.771 161.062C157.663 157.401 156.301 153.822 154.695 150.351C154.695 150.351 159.051 144.585 164.27 142.175C169.488 139.765 177.955 132.399 179.372 139.64C180.788 146.882 183.263 152.731 186.173 153.695C189.083 154.659 195.485 153.987 195.283 158.789C195.081 163.591 185.614 168.946 184.418 171.285C183.222 173.623 182.103 174.885 187.809 178.425C193.516 181.966 204.084 188.475 208.41 186.976C212.736 185.476 213.295 177.86 212.539 170.422C211.784 162.984 213.634 155.355 210.492 150.405C207.351 145.454 201.257 145.4 201.257 145.4C201.257 145.4 198.55 130.959 195.307 129.191C192.064 127.424 168.732 125.722 160.574 129.191" fill="#5B5B5B"/>
<path d="M44.8376 320.361C44.8376 320.361 39.4822 338.289 45.391 355.563C51.2997 372.837 58.0951 387.529 58.0951 387.529C58.0951 387.529 59.6839 391.516 64.7834 390.349C69.8829 389.183 76.9699 386.779 79.0347 389.856C81.0995 392.932 79.1775 395.627 89.079 393.711C98.9805 391.795 109.507 394.723 108.561 382.81C107.615 370.898 103.711 353.147 103.711 353.147C103.711 353.147 99.8731 344.847 109.9 346.435C119.926 348.024 140.062 345.114 144.513 344.281C148.964 343.448 163.007 335.564 165.744 342.401C168.481 349.238 192.521 401.102 232.228 394.128C271.936 387.154 280.046 366.244 280.046 366.244C280.046 366.244 293.024 340.866 293.202 340.396C293.381 339.926 293.298 336.361 289.686 331.994C286.074 327.626 285.163 322.473 286.115 320.361C287.068 318.248 284.812 317.588 280.76 314.749C276.708 311.911 270.269 304.842 262.962 312.256C255.655 319.67 248.467 326.061 248.086 318.141C247.705 310.221 241.095 278.779 234.287 277.678C227.48 276.577 177.193 286.604 160.746 283.843C144.299 281.082 110.227 279.279 110.227 279.279C110.227 279.279 83.3725 279.13 74.8158 284.497C66.2591 289.865 46.7298 309.715 44.8376 320.361Z" fill="#5B5B5B"/>
<path d="M204.583 129.084C187.326 116.957 136.909 85.6165 119.67 73.4895C105.217 63.3262 18.5129 11.3492 3.30957 2.38791" fill="#CBCBCB"/>
<path d="M1.63184 1.74502C18.537 21.2327 38.3222 37.9772 58.024 54.6324C68.0267 63.088 78.0353 71.5495 88.5735 79.3267C100.581 88.1928 115.16 96.5115 129.673 93.0126" fill="#CBCBCB"/>
<path d="M3.30957 2.34048C32.7582 3.41751 61.9748 7.82083 90.9891 12.9679C184.887 29.6524 277.212 54.2235 366.982 86.42C372.658 88.4551 372.605 96.5 366.91 98.4875C336.242 109.198 303.092 111.209 269.918 110.644" fill="#CBCBCB"/>
<path d="M302.883 19.2752L301.515 37.4062L302.883 19.2752Z" fill="#CBCBCB"/>
<path d="M329.101 28.3795C328.263 32.2933 326.212 35.8432 323.24 38.5249L329.101 28.3795Z" fill="#CBCBCB"/>
<path d="M355.122 40.8932L348.273 49.9438L355.122 40.8932Z" fill="#CBCBCB"/>
<path d="M205.464 127.585C177.265 107.794 147.53 90.1925 118.98 70.9131C108.311 63.7072 97.2196 57.0843 86.253 50.3544C70.9168 40.9567 55.5369 31.6324 40.1134 22.3814C28.153 15.1814 16.1986 7.97546 4.17282 0.888504C2.28058 -0.230176 0.566858 2.71529 2.45314 3.82206C28.04 18.9183 53.5018 34.3478 78.8745 49.8486C90.8824 57.1855 102.938 64.4748 114.72 72.1806C127.126 80.291 139.372 88.6216 151.845 96.6725C169.196 107.836 186.833 118.689 203.72 130.524C205.505 131.786 207.219 128.835 205.44 127.585H205.464Z" fill="#5B5B5B"/>
<path d="M0.429776 2.93528C14.7703 19.3942 31.0804 33.931 47.6702 48.0633C56.1258 55.2693 64.5813 62.4812 73.1975 69.4848C81.4032 76.1553 89.7516 82.9745 98.9629 88.2049C108.484 93.6079 119.194 97.0829 130.125 94.6432C132.261 94.1672 131.357 90.8885 129.221 91.3646C119.022 93.6317 108.989 90.0733 100.23 85.0095C91.1202 79.7553 82.861 73.0015 74.7387 66.3728C58.6726 53.2818 42.7671 39.8934 27.5756 25.8206C18.8852 17.8445 10.6262 9.41067 2.83375 0.555107C1.39375 -1.09911 -1.00428 1.31676 0.453578 2.93528H0.429776Z" fill="#5B5B5B"/>
<path d="M3.31001 4.05376C36.0374 5.3093 68.4493 10.5338 100.623 16.4485C131.625 22.149 162.448 28.7084 193.093 36.1266C224.095 43.636 254.868 52.0102 285.414 61.2493C300.314 65.7597 315.15 70.4744 329.923 75.3934C337.488 77.9164 345.035 80.4949 352.564 83.129C356.135 84.3786 359.717 85.6401 363.311 86.9134C366.232 87.9548 369.767 88.9663 369.499 92.7746C369.214 96.8804 364.352 97.6004 361.204 98.5941C357.166 99.8596 353.086 100.992 348.964 101.992C340.306 104.078 331.531 105.652 322.687 106.705C305.193 108.823 287.58 109.228 269.949 108.942C267.753 108.906 267.753 112.31 269.949 112.346C302.253 112.869 336.153 111.447 366.845 100.308C371.088 98.7667 373.891 94.8573 372.617 90.2278C370.993 84.3191 363.222 83.2658 358.336 81.5343C342.381 75.925 326.353 70.5518 310.251 65.4146C246.56 45.1029 181.724 28.5736 116.082 15.913C78.8566 8.7308 41.2678 2.10202 3.31001 0.656071C1.12025 0.572765 1.1262 3.97046 3.31001 4.05376Z" fill="#5B5B5B"/>
<path d="M301.182 19.275L299.814 37.4059C299.653 39.5897 303.057 39.5838 303.217 37.4059L304.586 19.275C304.747 17.0912 301.343 17.1031 301.182 19.275Z" fill="#5B5B5B"/>
<path d="M327.448 27.9271C326.641 31.5386 324.75 34.817 322.027 37.3229C320.42 38.8164 322.83 41.2204 324.437 39.703C327.582 36.7873 329.775 32.9899 330.726 28.8078C331.22 26.6775 327.936 25.7671 327.448 27.9033V27.9271Z" fill="#5B5B5B"/>
<path d="M353.629 40.0364L346.774 49.0692C345.447 50.8127 348.404 52.5145 349.713 50.7888L356.604 41.7502C357.931 40.0067 354.973 38.3108 353.664 40.0364H353.629Z" fill="#5B5B5B"/>
<path d="M173.385 136.052C167.958 138.575 162.079 140.735 156.932 143.788C153.195 146.025 152.136 149.601 154.088 153.511C155.445 156.23 157.01 158.354 157.063 161.538C157.129 164.483 156.313 167.387 155.76 170.249C154.619 176.142 154.589 182.196 155.671 188.1C156.058 190.254 159.342 189.344 158.955 187.196C157.966 181.549 158.065 175.764 159.247 170.154C160.098 165.935 161.193 161.425 159.788 157.194C159.14 155.248 157.866 153.624 157.01 151.803C155.51 148.584 157.837 147.042 160.503 145.775C165.328 143.442 170.226 141.247 175.081 138.986C177.069 138.063 175.337 135.13 173.367 136.046L173.385 136.052Z" fill="#191919"/>
<path d="M114.773 101.504C110.167 120.337 108.448 139.938 108.721 159.294C108.995 178.508 111.161 198.151 117.492 216.383C118.206 218.436 121.491 217.573 120.771 215.478C114.535 197.508 112.393 178.229 112.125 159.294C111.851 140.253 113.517 120.956 118.075 102.408C118.593 100.284 115.314 99.3736 114.797 101.504H114.773Z" fill="#191919"/>
<path d="M278.654 126.032C274.038 154.332 262.321 181 244.6 203.542C241.66 207.267 238.562 210.863 235.305 214.33C232.61 217.198 229.753 219.923 229.39 224.059C228.98 228.688 230.533 233.77 231.104 238.34C231.539 241.845 231.908 245.355 232.419 248.848C232.916 252.315 233.619 255.748 234.526 259.131C235.121 261.243 235.716 263.332 236.43 265.408C237.156 267.586 238.56 270.335 238.292 272.692C237.935 275.851 234.05 275.97 231.598 276.417C228.782 276.92 225.961 277.395 223.137 277.839C217.634 278.696 212.114 279.424 206.577 280.023C195.58 281.213 184.546 281.893 173.474 282.064C148.632 282.452 123.816 280.289 99.4153 275.607C97.2732 275.197 96.3568 278.476 98.5109 278.886C142.925 287.433 188.538 287.686 233.044 279.63C236.739 278.957 240.78 278.089 241.553 273.781C242.309 269.615 239.822 265.129 238.649 261.249C236.376 253.746 235.454 246.129 234.484 238.376C234.234 236.406 233.978 234.436 233.693 232.473C233.258 229.498 232.11 225.969 232.973 222.988C233.663 220.608 235.716 218.822 237.352 217.097C239.149 215.193 240.903 213.247 242.612 211.26C263.185 187.285 276.771 158.116 281.885 126.942C282.242 124.8 278.963 123.878 278.606 126.038L278.654 126.032Z" fill="#191919"/>
<path d="M251.597 108.401C236.644 107.711 221.964 103.688 207.016 102.843C204.833 102.718 204.839 106.122 207.016 106.247C221.964 107.092 236.644 111.114 251.597 111.805C253.787 111.906 253.787 108.502 251.597 108.401Z" fill="#191919"/>
<path d="M103.652 276.411C84.3961 275.393 65.4499 284.783 53.5848 299.814C39.5715 317.564 38.7087 340.086 45.1887 361.103C49.3183 374.468 55.7626 386.994 62.2902 399.311L62.8853 396.984C58.72 398.877 54.1976 401.06 51.9781 405.315C50.193 408.802 50.193 413.175 53.0135 416.121C60.1897 423.595 72.5547 418.561 80.7068 416.026L98.2844 410.557C102.337 409.302 107.865 408.504 110.185 404.476C112.25 400.906 111.375 396.49 110.78 392.64C110.084 388.029 109.453 383.405 108.829 378.782C107.365 367.94 106.014 357.081 104.36 346.263L102.717 348.417C110.917 347.971 119.123 348.227 127.322 347.893C137.301 347.495 147.131 345.662 156.86 343.496C158.997 343.02 158.092 339.741 155.956 340.217C146.322 342.359 136.611 344.162 126.733 344.513C118.724 344.799 110.721 344.579 102.717 345.019C102.192 345.033 101.702 345.284 101.383 345.701C101.064 346.118 100.951 346.657 101.075 347.167C103.36 362.073 105.068 377.062 107.264 391.974C107.763 395.372 109.186 400.227 106.889 403.226C105.377 405.208 102.384 405.72 100.117 406.428L92.9766 408.647L79.2727 412.92C74.9944 414.252 70.6803 415.841 66.2116 416.389C61.7428 416.936 53.7157 415.954 54.1679 409.754C54.5547 404.399 60.3742 401.834 64.6168 399.912C65.4797 399.519 65.6225 398.323 65.2119 397.585C54.638 377.628 43.1953 355.742 44.5639 332.458C45.6826 313.25 57.155 296.303 73.8162 286.943C82.8771 281.783 93.2186 279.307 103.634 279.803C105.824 279.922 105.818 276.518 103.634 276.405L103.652 276.411Z" fill="#191919"/>
<path d="M160.473 326.734C163.388 351.767 178.812 374.599 200.811 386.887C212.902 393.64 227.26 397.514 241.083 395.063C254.733 392.635 267.045 384.453 276.042 374.099C287.056 361.431 293.613 345.692 298.558 329.828L296.059 330.846C302.093 333.648 310.161 335.767 314.089 328.638C317.332 322.741 315.041 315.958 310.602 311.441C304.824 305.568 296.434 301.796 288.942 298.684C285.521 297.261 280.118 294.173 276.363 295.452C273.096 296.565 270.972 300.974 268.901 303.462C262.991 310.581 255.858 316.588 247.837 321.2C245.939 322.289 247.652 325.234 249.556 324.139C256.237 320.332 262.327 315.571 267.634 310.007C270.176 307.266 272.575 304.396 274.822 301.409C276.083 299.772 277.03 298.434 279.475 298.826C280.527 299.077 281.554 299.419 282.546 299.85C284.926 300.695 287.306 301.635 289.597 302.641C296.809 305.812 306.657 309.977 310.745 317.118C312.53 320.236 312.887 324.413 310.792 327.501C307.674 332.095 301.813 329.763 297.779 327.888C297.32 327.634 296.771 327.601 296.285 327.799C295.8 327.996 295.43 328.403 295.279 328.906C287.312 354.457 273.305 382.228 245.641 390.463C220.798 397.853 193.962 383.007 179.038 363.537C170.769 352.848 165.531 340.129 163.876 326.716C163.626 324.562 160.223 324.538 160.473 326.716V326.734Z" fill="#191919"/>
<path d="M239.012 293.708C245.061 309.413 247.739 326.213 246.873 343.02C246.76 345.209 250.163 345.203 250.276 343.02C251.158 325.907 248.437 308.799 242.291 292.804C241.517 290.781 238.227 291.662 239.012 293.708Z" fill="#191919"/>
<path d="M99.9156 339.575C100.439 343.327 101.005 347.076 101.611 350.821C101.957 352.975 105.241 352.059 104.89 349.916C104.283 346.176 103.72 342.427 103.2 338.67C102.903 336.51 99.63 337.426 99.9156 339.575Z" fill="#191919"/>
<path d="M61.0343 392.95C64.6343 392.129 68.2284 391.219 71.8463 390.481C73.8813 390.07 76.1782 389.624 77.9157 391.135C79.1415 392.206 79.7365 393.985 80.2959 395.467C80.5808 396.346 81.4894 396.862 82.3904 396.657C91.0225 395.122 99.6288 393.444 108.209 391.623C110.351 391.171 109.447 387.886 107.305 388.344C98.7243 390.165 90.118 391.841 81.4859 393.373L83.5805 394.563C82.2476 390.903 80.3554 387.333 76.1365 386.738C73.8337 386.428 71.5249 387.047 69.2995 387.553L60.1299 389.654C57.9937 390.142 58.8981 393.42 61.0343 392.932V392.95Z" fill="#191919"/>
<path d="M294.381 334.874L290.257 330.113C289.067 328.691 287.229 327.138 286.824 325.228C286.181 322.175 290.733 320.604 288.383 317.248C286.598 314.731 282.635 313.083 280.005 311.685C276.391 309.8 272.639 308.19 268.782 306.871C266.711 306.151 265.807 309.436 267.878 310.15C271.797 311.489 275.6 313.146 279.249 315.106C280.891 316.005 282.885 316.891 284.307 318.129C286.36 319.914 284.563 320.075 283.712 321.818C282.522 324.341 283.557 327.108 285.098 329.203C287.175 332.035 289.686 334.618 291.977 337.278C293.411 338.944 295.809 336.528 294.357 334.897L294.381 334.874Z" fill="#191919"/>
<path d="M150.344 189.719C153.596 197.666 157.775 205.202 162.792 212.17C163.066 212.616 163.527 212.914 164.046 212.981C164.565 213.048 165.086 212.877 165.464 212.515L180.185 199.109L187.112 192.807L191.003 189.237C191.979 188.35 194.669 186.779 193.812 185.304C194.913 187.196 197.852 185.488 196.751 183.59C195.728 181.805 193.907 182.281 192.497 183.287C188.927 185.815 185.773 189.41 182.536 192.349L163.06 210.087L165.732 210.432C160.862 203.72 156.798 196.458 153.623 188.797C152.802 186.797 149.505 187.672 150.344 189.701V189.719Z" fill="#191919"/>
<path d="M259.392 116.082C257.875 114.642 256.417 112.566 256.375 110.37C256.375 107.811 258.88 106.954 260.862 106.032C262.647 105.181 265.384 103.819 267.455 104.384C269.359 104.901 269.651 106.8 268.217 108.061C267.621 108.609 266.598 108.829 265.836 109.085C265.195 109.286 264.728 109.841 264.641 110.508C264.554 111.175 264.863 111.832 265.432 112.191C268.049 113.838 269.342 116.958 268.657 119.974C268.193 122.104 271.477 123.021 271.941 120.878C272.998 116.379 271.072 111.706 267.151 109.257L266.753 112.363C269.776 111.34 273.501 109.388 272.81 105.562C272.084 101.54 267.621 100.409 264.176 101.194C260.731 101.98 254.679 104.092 253.323 107.662C251.883 111.441 254.293 115.951 256.982 118.516C258.571 120.022 260.981 117.624 259.362 116.106L259.392 116.082Z" fill="#191919"/>
<path d="M157.682 166.994C151.333 162.35 146.146 156.299 142.526 149.316C141.582 147.509 140.757 145.642 140.057 143.728C139.706 142.752 139.004 141.294 139.337 140.283C139.67 139.271 140.962 138.676 141.771 138.295C145.823 136.391 150.262 135.052 154.523 133.708C162.93 131.048 171.886 128.43 180.704 127.721C188.279 127.126 198.74 129.709 199.549 138.873C199.74 141.033 203.12 141.056 202.953 138.873C202.144 129.709 193.528 124.675 185.036 124.235C179.419 123.943 173.731 125.228 168.286 126.454C162.609 127.739 157.002 129.294 151.464 131.119C148.79 132 146.138 132.944 143.508 133.952C141.586 134.683 139.343 135.344 137.796 136.742C134.38 139.777 136.475 144.168 137.98 147.649C141.882 156.542 148.09 164.23 155.963 169.916C157.748 171.213 159.426 168.262 157.676 166.976L157.682 166.994Z" fill="#191919"/>
<path d="M208.498 140.938L204.868 145.984C204.315 146.751 204.767 147.852 205.463 148.31C210.753 151.714 211.206 158.307 211.069 164.019C210.932 169.869 210.628 175.724 210.402 181.573L210.307 183.953C209.992 185.066 209.355 185.5 208.403 185.245C207.124 185.53 205.16 184.81 203.893 184.483C201.105 183.726 198.414 182.651 195.871 181.282C193.444 180.002 191.111 178.544 188.832 177.039C188.058 176.533 185.857 175.557 185.434 174.748C184.506 172.963 186.107 171.88 187.219 171.088C190.129 169.024 193.813 168.042 196.056 165.102C198.205 162.32 198.077 158.403 195.752 155.766C194.718 154.494 193.322 153.566 191.748 153.106C190.861 152.942 189.958 152.89 189.058 152.952C187.463 152.916 187.356 152.452 186.523 151.125C183.435 146.239 180.573 141.11 180.668 135.172C180.668 132.982 177.288 132.982 177.264 135.172C177.205 139.932 178.74 144.294 180.966 148.435C182.554 151.41 184.536 156.766 188.552 156.48C191.034 156.296 193.604 157.034 194.152 159.925C194.652 162.556 192.367 164.222 190.403 165.382C187.428 167.102 183.679 168.458 182.072 171.707C180.132 175.575 183.453 177.533 186.238 179.407C190.332 182.138 194.568 184.727 199.15 186.518C202.357 187.767 208.403 190.011 211.729 188.053C212.991 187.303 213.461 186.072 213.645 184.691C214.044 181.746 213.901 178.628 214.014 175.658C214.395 165.745 217.031 151.738 207.159 145.383L207.754 147.709L211.414 142.651C212.699 140.866 209.748 139.176 208.48 140.938H208.498Z" fill="#191919"/>
<path d="M282.063 122.349C284.64 121.498 286.705 119.969 288.74 118.183C290.912 116.303 293.435 114.476 295.005 112.049C296.196 110.204 293.256 108.478 292.066 110.329C290.81 112.269 288.644 113.75 286.925 115.256C285.205 116.761 283.414 118.296 281.159 119.046C279.094 119.731 279.969 123.021 282.063 122.325V122.349Z" fill="#191919"/>
<path d="M142.586 104.158C145.561 101.373 146.888 97.309 145.621 93.3639C144.353 89.4187 140.932 87.348 137.183 85.9318C134.011 84.7417 130.423 84.4977 128.489 87.8538C126.799 90.7754 128.341 94.3993 131.316 95.6786L132.179 92.507C129.114 92.2631 126.734 94.0422 125.728 96.8687C124.99 98.9335 128.275 99.8439 129.007 97.7731C129.486 96.4766 130.813 95.6975 132.179 95.9107C133.803 96.0356 134.559 93.4055 133.035 92.7391C130.286 91.549 131.137 88.068 134.226 88.5143C136.093 88.8825 137.868 89.6166 139.45 90.6743C143.508 93.3639 143.615 98.517 140.212 101.754C138.611 103.259 141.021 105.657 142.592 104.134L142.586 104.158Z" fill="#191919"/>
<path d="M166.31 148.429V148.513L166.251 148.06C166.256 148.142 166.256 148.223 166.251 148.304L166.31 147.852C166.31 147.93 166.268 148.013 166.256 148.09C166.381 147.828 166.411 147.757 166.352 147.876L166.292 147.983L166.459 147.769C166.422 147.81 166.382 147.847 166.34 147.882L166.56 147.715C166.405 147.805 166.471 147.781 166.744 147.656C166.324 147.788 165.964 148.064 165.727 148.435C165.497 148.823 165.43 149.286 165.542 149.722C165.653 150.159 165.934 150.533 166.322 150.762C166.715 151.001 167.19 151.063 167.631 150.934C169.069 150.48 169.91 148.991 169.559 147.525C169.44 147.1 169.16 146.737 168.779 146.513C167.971 146.037 166.929 146.303 166.447 147.108C166.238 147.511 166.179 147.975 166.28 148.417L166.31 148.429Z" fill="#191919"/>
<path d="M176.229 150.155V150.238L176.169 149.786C176.175 149.867 176.175 149.949 176.169 150.03L176.229 149.578C176.229 149.655 176.187 149.738 176.181 149.816C176.3 149.554 176.33 149.482 176.271 149.601C176.254 149.637 176.234 149.671 176.211 149.703L176.378 149.494L176.265 149.607L176.479 149.441C176.33 149.524 176.39 149.506 176.663 149.381C176.245 149.514 175.887 149.79 175.652 150.161C175.176 150.968 175.442 152.008 176.247 152.487C176.64 152.725 177.115 152.788 177.556 152.66C178.235 152.43 178.811 151.966 179.18 151.351C179.528 150.709 179.636 149.964 179.484 149.25C179.365 148.823 179.086 148.458 178.704 148.233C178.307 148.007 177.836 147.947 177.395 148.066C176.967 148.183 176.602 148.463 176.378 148.846C176.17 149.249 176.109 149.712 176.205 150.155H176.229Z" fill="#191919"/>
<path d="M166.47 160.247C168.217 161.203 170.186 161.679 172.176 161.627C173.551 161.627 175.027 161.246 176.383 161.377C177.96 161.526 177.841 162.567 177.389 164.055C176.723 166.275 174.265 169.464 171.599 168.518C168.933 167.572 170.35 162.567 170.713 160.526C171.099 158.384 167.821 157.462 167.434 159.622C166.803 163.133 165.458 168.274 168.797 170.856C171.825 173.201 175.878 171.838 178.234 169.25C180.329 166.953 182.489 162.056 180.21 159.2C179.055 157.754 177.234 157.92 175.544 158.009C173.033 158.164 170.475 158.604 168.184 157.295C166.274 156.218 164.56 159.158 166.47 160.235V160.247Z" fill="#191919"/>
<path d="M168.202 166.304C170.398 167.953 174.224 168.089 176.842 167.893L175.652 164.989C174.706 165.805 173.272 166.852 171.951 166.935L173.141 167.435C172.792 167.103 172.523 166.696 172.355 166.245C171.76 164.87 170.136 164.567 169.243 165.834C168.64 166.686 168.464 167.769 168.767 168.768C169.148 170.303 171.796 170.476 172.046 168.768L172.147 168.101L169.648 169.119L169.987 169.363C171.772 170.636 173.474 167.685 171.707 166.423L171.368 166.185C170.912 165.919 170.359 165.878 169.869 166.076C169.38 166.275 169.01 166.688 168.868 167.197L168.767 167.863H172.046L172.183 167.554L169.071 167.149C169.749 168.78 170.618 170.672 172.7 170.285C174.704 169.809 176.549 168.82 178.056 167.417C179.139 166.483 178.3 164.4 176.866 164.513C174.789 164.68 171.683 164.698 169.939 163.395C168.196 162.091 166.488 165.031 168.226 166.328L168.202 166.304Z" fill="#191919"/>
<path d="M31.4619 285.741C36.6289 275.195 46.0137 267.325 57.2986 264.076C59.3991 263.48 58.4887 260.19 56.3942 260.797C44.2545 264.271 34.1378 272.694 28.5224 284.003C27.5584 285.961 30.492 287.693 31.4619 285.723V285.741Z" fill="#191919"/>
<path d="M22.5717 259.185C25.0311 255.89 28.4379 253.426 32.3363 252.121C34.4011 251.425 33.5264 248.135 31.4319 248.843C26.7021 250.425 22.5808 253.438 19.6381 257.465C18.329 259.25 21.2804 260.922 22.5717 259.185Z" fill="#191919"/>
<path d="M277.529 261C285.643 262.146 293.104 266.087 298.623 272.145C300.105 273.763 302.503 271.353 301.003 269.764C295.083 263.264 287.092 259.016 278.392 257.745C276.25 257.429 275.321 260.72 277.487 261.023L277.529 261Z" fill="#191919"/>
<path d="M296.416 242.981C303.753 243.964 310.284 248.131 314.267 254.37C315.457 256.209 318.391 254.507 317.207 252.651C312.788 245.633 305.52 240.9 297.315 239.697C295.172 239.393 294.244 242.672 296.41 242.981H296.416Z" fill="#191919"/>
<path d="M164.525 208.945H164.269C163.661 208.945 163.099 209.269 162.795 209.796C162.491 210.322 162.491 210.971 162.795 211.498C163.099 212.024 163.661 212.349 164.269 212.349H164.525C165.464 212.349 166.226 211.587 166.226 210.647C166.226 209.707 165.464 208.945 164.525 208.945V208.945Z" fill="#191919"/>
<path d="M161.794 210.921C164.436 215.217 169.006 218.448 170.487 223.417C172.171 229.046 170.095 235.317 169.017 240.845C166.743 252.633 165.264 264.561 164.59 276.548C164.465 278.732 167.869 278.726 167.994 276.548C168.775 263.384 170.509 250.295 173.183 237.382C174.206 232.396 175.254 227.011 173.611 222.042C171.921 216.913 167.482 213.711 164.733 209.225C163.585 207.362 160.639 209.07 161.794 210.938V210.921Z" fill="#191919"/>
<path d="M160.365 225.707H159.984C159.044 225.707 158.282 226.469 158.282 227.409C158.282 228.349 159.044 229.111 159.984 229.111H160.365C161.305 229.111 162.067 228.349 162.067 227.409C162.067 226.469 161.305 225.707 160.365 225.707Z" fill="#191919"/>
<path d="M180.906 155.82H182.483V157.397H180.906V155.82Z" fill="#CBCBCB"/>
<path d="M149.75 322.819L118.397 324.735L102.141 325.728C98.2849 325.966 94.2505 326.109 90.7279 327.876C82.8376 331.828 82.7662 341.39 84.2538 348.899C86.3246 359.366 88.8356 369.767 91.0908 380.193C91.5609 382.329 94.8396 381.424 94.3695 379.288C92.3623 370.14 90.3589 360.993 88.3596 351.845C86.5745 343.693 84.6882 332.208 95.4644 329.828C99.5047 328.936 103.837 329.019 107.96 328.769L121.896 327.918L149.762 326.216C151.94 326.085 151.958 322.682 149.762 322.813L149.75 322.819Z" fill="#CBCBCB"/>
<path d="M91.9644 386.476C94.1541 386.476 94.1541 383.072 91.9644 383.072C89.7746 383.072 89.7687 386.476 91.9644 386.476Z" fill="#CBCBCB"/>
<path d="M70.3354 400.733C71.2952 401.768 72.536 402.5 73.9056 402.84C74.8126 403.089 75.7504 402.557 76.0002 401.65C76.2499 400.743 75.7171 399.805 74.8101 399.555C74.5805 399.502 74.354 399.437 74.1317 399.359C74.2983 399.418 74.1317 399.359 74.0484 399.323C73.9651 399.287 73.7866 399.192 73.6616 399.115L73.3641 398.924C73.1202 398.77 73.5069 399.055 73.2808 398.877C73.0679 398.709 72.8689 398.523 72.6858 398.323C72.0083 397.822 71.0664 397.893 70.4706 398.488C69.8749 399.084 69.8047 400.026 70.3056 400.703L70.3354 400.733Z" fill="#CBCBCB"/>
<path d="M300.373 316.945C299.571 317.282 298.693 317.395 297.832 317.273C296.895 317.279 296.136 318.037 296.13 318.974C296.152 319.905 296.901 320.654 297.832 320.676C299.298 320.805 300.772 320.529 302.092 319.879C302.894 319.397 303.16 318.36 302.687 317.552C302.196 316.764 301.171 316.501 300.361 316.957L300.373 316.945Z" fill="#CBCBCB"/>
<path d="M205.547 300.046C208.668 304.318 213.182 307.365 218.31 308.663L217.061 307.02C216.423 318.099 216.865 329.213 218.382 340.206C219.53 348.536 221.137 357.361 225.963 364.448C230.521 371.142 237.863 375.04 246.045 373.968C254.656 372.832 261.659 366.828 265.462 359.194C268.02 354.082 268.853 348.316 271.412 343.217C274.125 337.861 278.237 333.387 282.26 328.995C283.741 327.383 281.337 324.967 279.879 326.585C274.018 332.982 268.716 339.385 265.991 347.751C263.266 356.117 260.332 364.412 251.918 368.673C243.927 372.713 234.662 370.589 229.366 363.395C224.767 357.123 223.142 349.114 221.994 341.586C220.291 330.142 219.778 318.552 220.464 307.002C220.457 306.239 219.949 305.571 219.215 305.36C214.937 304.319 211.152 301.827 208.504 298.309C207.207 296.577 204.249 298.273 205.565 300.029L205.547 300.046Z" fill="#CBCBCB"/>
<path d="M187.809 225.975H210.492C212.682 225.975 212.688 222.572 210.492 222.572H187.809C185.619 222.572 185.619 225.975 187.809 225.975Z" fill="#CBCBCB"/>
</svg>
