<svg width="605" height="1014" viewBox="0 0 605 1014" fill="none" xmlns="http://www.w3.org/2000/svg">
<path d="M344.696 417.225C344.696 417.225 433.84 428.744 442.846 420.886C451.853 413.029 501.148 404.918 503.487 412.561C505.825 420.205 457.318 472.935 457.318 472.935C457.318 472.935 489.87 532.239 491.941 529.366C497.627 521.441 504.16 514.159 511.424 507.651C521.594 498.738 545.032 476.77 545.032 476.77C545.032 476.77 543.094 585.704 542.52 594.136C541.945 602.568 534.502 818.778 530.092 832.716C525.683 846.653 523.197 920.59 517.678 927.779C512.159 934.968 512.721 935.797 494.16 935.797C475.599 935.797 388.593 933.231 375.484 933.993C362.375 934.754 311.343 944.603 310.955 902.978C310.568 861.352 295.588 762.668 294.292 740.312C292.995 717.956 287.944 607.432 287.944 607.432C287.944 607.432 288.412 478.413 290.403 469.634C292.394 460.855 301.24 441.438 309.672 437.951C318.104 434.463 318.118 430.267 318.118 430.267C318.118 430.267 312.064 418.307 319.454 415.221" fill="#1A73E8"/>
<path d="M472.191 935.837C472.191 935.837 418.619 928.501 421.92 944.523C425.22 960.545 428.788 972.331 421.773 978.785C414.757 985.239 389.141 1003.84 405.657 1006.97C422.174 1010.09 503.74 1008.92 507.375 1000.07C511.01 991.226 510.248 980.749 510.208 969.672C510.168 958.594 514.938 936.652 503.406 938.069" fill="#BAD5F8"/>
<path d="M344.83 935.864C344.83 935.864 326.763 925.988 328.193 944.536C329.046 955.886 328.813 967.292 327.498 978.598C327.498 978.598 288.559 1001.42 297.432 1005.2C306.305 1008.99 379.079 1010.55 387.912 1007.56C396.745 1004.56 404.669 1005.8 405.658 982.78C406.647 959.756 411.243 932.322 402.558 930.665C393.872 929.008 378.825 933.779 371.823 934.126C364.821 934.474 351.966 934.126 351.966 934.126" fill="#BAD5F8"/>
<path d="M237.099 342.3C237.099 342.3 220.222 330.914 225.847 311.231C231.473 291.547 231.767 297.708 237.099 288.741C242.431 279.775 249.82 252.889 256.502 238.31C263.183 223.731 280.408 198.382 313.868 197.714C347.329 197.045 352.794 188.36 352.794 188.36C352.794 188.36 337.774 203.794 343.44 214.484C349.106 225.174 399.564 233.312 418.446 219.401C437.328 205.491 439.051 189.736 445.519 181.865C451.987 173.995 488.841 175.184 495.817 176.774C502.792 178.364 562.471 207.509 582.034 285.387C601.597 363.266 600.475 359.03 600.448 370.415C600.421 381.8 605.018 390.967 589.383 387.439C573.749 383.911 541.21 389.711 531.576 394.735C521.941 399.76 518.641 418.174 506.547 413.63C494.454 409.087 491.407 410.664 481.532 414.793C471.657 418.922 419.381 424.975 389.328 420.405C359.275 415.835 319.588 415.274 319.588 415.274C319.588 415.274 295.895 406.214 290.898 417.212C285.9 428.209 286.715 426.485 281.637 430.294C276.559 434.102 285.285 437.697 274.034 438.004C262.782 438.312 255.085 444.552 258.506 432.298C261.927 420.045 262.221 387.426 259.121 380.116" fill="#BAD5F8"/>
<path d="M394.498 359.297C377.487 344.504 359.754 327.627 356.093 305.378C355.171 299.712 355.318 293.592 358.204 288.634C362.708 280.924 373.197 278.078 381.723 280.724C390.248 283.369 396.81 290.492 400.818 298.483C404.52 290.291 411.816 283.597 420.569 281.525C429.321 279.454 439.277 282.487 444.715 289.663C448.315 294.809 450.028 301.039 449.566 307.302C449.112 317.819 444.221 327.774 437.539 335.912C430.858 344.05 422.426 350.611 413.901 356.731C408.743 360.46 402.235 364.255 396.409 361.689" fill="white"/>
<path d="M292.126 84.103C292.126 84.103 284.109 93.0026 290.242 102.57C296.376 112.138 301.494 110.802 295.587 121.278C289.681 131.755 276.799 169.786 289.347 185.661C301.895 201.536 320.335 216.716 332.709 202.097C345.083 187.478 350.428 188.039 346.486 164.681C344.015 148.481 342.755 132.12 342.718 115.733L327.925 100.005C327.925 100.005 327.525 86.5083 341.088 76.9405C354.651 67.3727 355.386 56.4552 355.587 49.1458C355.787 41.8363 365.675 41.1281 374.294 49.1458C382.914 57.1635 409.626 67.6399 411.51 68.8961C413.394 70.1522 415.92 75.8982 415.973 78.9449C416.027 81.9916 425.434 69.9918 434.307 76.0184C443.18 82.0451 443.741 84.0362 440.654 91.5995C437.568 99.1629 444.877 98.8689 440.654 101.448C436.432 104.027 424.753 112.579 430.592 125.715C436.432 138.851 452.467 131.541 457.812 104.254C463.157 76.9672 470.654 65.2346 454.672 46.2193C438.69 27.204 417.924 34.8074 412.298 31.4266C406.673 28.0459 408.29 22.5136 397.506 15.5783C386.722 8.64301 342.718 3.55177 323.636 29.4489C304.554 55.3461 302.897 66.0097 302.897 66.0097" fill="#1A73E8"/>
<path d="M160.809 216.622L151.455 179.58L146.925 161.754C145.816 157.345 145.589 150.971 142.649 147.336C137.691 141.055 124.422 148.846 118.81 150.997C108.547 154.926 97.6965 159.095 88.289 164.855C80.1511 169.839 78.6143 177.242 80.4985 186.235C83.1186 197.639 86.489 208.857 90.5874 219.816C94.3468 230.506 98.574 241 103.269 251.299C106.676 258.795 110.284 271.637 118.569 275.151C127.643 279 140.364 272.479 148.462 268.47C156.56 264.461 167.384 259.45 168.145 249.388C168.52 244.51 160.929 244.537 160.555 249.388C160.154 254.586 151.616 258.274 147.727 260.332C143.245 262.722 138.569 264.729 133.749 266.332C126.814 268.63 121.242 270.074 117.246 262.844C114.894 258.568 112.89 254.078 110.846 249.655C101.569 229.627 94.1305 208.798 88.6231 187.424C86.8058 180.329 86.0441 175.117 93.0328 170.881C97.5667 168.335 102.247 166.059 107.05 164.066C112.333 161.688 117.678 159.487 123.086 157.465C125.384 156.61 127.683 155.781 130.008 154.993C131.023 154.632 136.569 152.387 136.823 152.494C137.785 152.908 139.95 165.322 140.538 167.621L144.72 184.231L153.406 218.72C154.609 223.451 161.932 221.393 160.729 216.702L160.809 216.622Z" fill="#1A73E8"/>
<path d="M111.246 172.244L110.404 173.58C109.345 175.392 109.955 177.72 111.767 178.779C113.579 179.838 115.906 179.227 116.965 177.416L117.807 176.079C118.85 174.272 118.256 171.962 116.47 170.881C114.658 169.875 112.375 170.462 111.272 172.217L111.246 172.244Z" fill="#1A73E8"/>
<path d="M352.9 58.7133L336.504 76.3389C331.694 81.5103 325.694 86.6015 321.725 92.3743C314.322 103.278 333.257 112.419 340.687 116.321L338.803 113.047C339.975 141.168 344.005 169.098 350.829 196.404C352.018 201.148 359.341 199.077 358.152 194.386C351.473 167.744 347.528 140.49 346.379 113.047C346.369 111.697 345.655 110.451 344.495 109.759C340.152 107.501 334.74 104.962 331.293 101.408C325.734 95.6883 332.629 91.6126 336.638 87.2162L358.219 64.005C361.546 60.4371 356.188 55.0519 352.874 58.6598L352.9 58.7133Z" fill="#192939"/>
<path d="M358.939 46.8337C370.006 54.7449 381.93 61.3836 394.484 66.6241C397.156 67.7466 399.887 68.8022 402.675 69.7911C405.415 70.7799 409.864 71.1274 411.281 73.9202C412.203 75.6707 411.535 78.7709 411.896 80.7486C412.278 82.9831 413.262 85.0711 414.742 86.7886C416.599 89.1806 420.314 87.5369 421.076 85.1049C423.949 76.085 435.775 77.9558 438.701 85.9067C441.788 94.3386 435.267 101.942 427.677 104.615C423.107 106.245 425.005 113.581 429.695 111.937C443.325 107.087 452.786 91.4923 443.058 78.3433C439.343 73.2756 433.1 70.7191 426.898 71.7256C420.695 72.732 415.581 77.1315 413.66 83.1138L419.994 81.4435C417.321 77.9558 419.766 72.0895 416.613 68.2276C413.459 64.3658 406.898 63.3769 402.368 61.6798C388.257 56.3092 374.906 49.1217 362.654 40.2993C358.645 37.4664 354.876 44.0409 358.832 46.8604L358.939 46.8337Z" fill="#192939"/>
<path d="M359.02 86.6149C359.434 86.7218 359.421 86.6951 359.02 86.508C359.381 86.7352 359.381 86.7085 359.02 86.508C359.314 86.8154 359.301 86.802 359.02 86.508C358.74 86.214 358.846 86.067 358.927 86.3343C359.007 86.6016 358.927 86.5347 358.927 86.0938C358.927 85.6528 359.007 85.5726 358.927 86.0136C358.97 85.7762 359.104 85.5651 359.301 85.4256C358.993 85.7196 359.007 85.7196 359.301 85.4256H363.123C363.906 85.8377 364.349 86.6945 364.233 87.5718C364.116 88.4491 363.465 89.1607 362.601 89.3543C364.624 88.7971 365.811 86.7061 365.254 84.684C364.697 82.6618 362.606 81.4743 360.584 82.0315C358.547 82.6943 357.07 84.466 356.785 86.589C356.5 88.7119 357.457 90.8103 359.247 91.9868C360.423 92.6953 361.894 92.6953 363.069 91.9868C365.562 90.4359 366.834 87.5036 366.263 84.6239C365.686 82.0068 363.642 79.9628 361.025 79.3856C359.717 79.0252 358.316 79.39 357.349 80.3426C356.383 81.2952 355.999 82.691 356.34 84.004C356.682 85.3171 357.699 86.348 359.007 86.7085L359.02 86.6149Z" fill="#192939"/>
<path d="M386.121 86.1339C386.535 86.2408 386.535 86.2141 386.121 86.027C386.482 86.2542 386.482 86.2274 386.121 86.027C386.415 86.3343 386.401 86.321 386.121 86.027C385.84 85.733 385.947 85.586 386.027 85.8533C386.107 86.1205 386.027 86.0537 386.027 85.6128C386.027 85.1718 386.107 85.0916 386.027 85.5326C386.07 85.2952 386.205 85.0841 386.401 84.9446C386.094 85.2386 386.107 85.2386 386.401 84.9446H390.237C391.02 85.3588 391.461 86.2178 391.342 87.0957C391.222 87.9735 390.567 88.6834 389.702 88.8733C391.724 88.3161 392.912 86.2251 392.355 84.203C391.797 82.1808 389.706 80.9933 387.684 81.5504C385.647 82.2133 384.171 83.985 383.886 86.1079C383.601 88.2309 384.558 90.3293 386.348 91.5058C387.528 92.2137 389.003 92.2137 390.183 91.5058C392.667 89.9471 393.936 87.0213 393.377 84.1428C392.792 81.5254 390.744 79.4832 388.125 78.9046C386.817 78.5442 385.416 78.909 384.45 79.8616C383.484 80.8142 383.099 82.2099 383.441 83.523C383.783 84.8361 384.799 85.867 386.107 86.2274L386.121 86.1339Z" fill="#192939"/>
<path d="M346.165 179.393C344.321 201.121 317.89 210.983 301.948 196.765C283.453 180.208 287.836 153.469 295.266 132.704C298.714 123.122 302.522 116.668 295.173 108.29C290.549 103.011 289.934 98.802 292.5 92.1339C294.785 86.134 298.313 80.4548 301.44 74.8691C312.237 55.64 324.264 34.5802 342.771 21.7385C359.996 9.71193 387.844 6.49149 401.888 25.2796C404.775 29.1549 411.376 25.3732 408.449 21.4579C395.087 3.59175 370.285 0.424757 350.508 8.77653C326.081 19.0793 310.821 43.5199 298.046 65.5018C292.139 75.6709 281.93 89.301 283.28 101.795C283.529 104.282 284.338 106.68 285.645 108.811C286.981 110.976 290.055 112.82 290.99 114.984C292.954 119.301 290.709 123.189 289.199 127.158C287.569 131.447 286.059 135.804 284.79 140.227C278.175 163.224 279.578 191.58 301.52 206.052C322.981 220.19 351.564 204.221 353.635 179.447C354.049 174.569 346.459 174.596 346.045 179.447L346.165 179.393Z" fill="#192939"/>
<path d="M412.726 13.3198C415.513 18.3477 417.676 23.6967 419.167 29.2483C419.646 30.8795 421.129 32.0106 422.828 32.0411C447.763 33.7516 462.917 59.1143 461.46 82.3389C460.632 95.1939 455.634 107.514 448.726 118.272C445.772 122.868 438.383 135.095 434.401 124.953C432.276 119.608 432.663 113.234 432.116 107.581C431.648 102.757 424.098 102.717 424.526 107.581C425.367 116.334 426.249 143.167 442.218 136.392C449.394 133.345 454.512 123.75 458.133 117.323C462.518 109.746 465.721 101.545 467.634 93.0024C474.075 62.455 456.797 26.7762 422.882 24.451L426.543 27.2305C424.859 21.049 422.441 15.0913 419.341 9.48466C416.976 5.20855 410.414 9.03033 412.78 13.3198H412.726Z" fill="#192939"/>
<path d="M371.649 116.321C377.704 114.612 384.148 114.903 390.023 117.149C394.62 118.833 396.598 111.497 392.041 109.826C384.845 107.198 377.002 106.908 369.632 108.998C364.928 110.334 366.959 117.63 371.649 116.321Z" fill="#192939"/>
<path d="M348.704 222.088C364.905 230.493 383.503 233.074 401.38 229.397C410.112 227.747 418.412 224.322 425.767 219.335C432.97 214.163 438.074 206.841 443.032 199.638C445.811 195.629 439.237 191.794 436.484 195.803C431.887 202.484 427.13 209.379 420.288 213.909C413.885 217.919 406.787 220.692 399.362 222.088C383.481 225.264 366.991 222.955 352.592 215.54C348.263 213.308 344.414 219.856 348.771 222.088H348.704Z" fill="#192939"/>
<path d="M476.987 180.743C505.049 175.251 529.503 194.533 544.496 216.342C560.103 239.058 571.408 265.41 580.054 291.494C588.793 317.912 595.582 346.121 596.517 374.036C596.985 388.094 595.622 402.419 590.29 415.568C584.851 429.011 575.056 439.929 565.328 450.392C542.661 474.797 518.298 497.57 492.421 518.542C488.626 521.616 494.038 526.961 497.766 523.887C522.998 503.453 546.791 481.302 568.976 457.594C579.453 446.369 590.063 434.771 596.343 420.552C601.836 408.098 603.987 394.482 604.174 380.932C604.588 350.959 597.292 320.091 588.139 291.735C579.052 263.673 566.999 234.836 549.814 210.676C532.629 186.516 505.85 167.353 474.982 173.393C470.185 174.329 472.216 181.652 477 180.716L476.987 180.743Z" fill="#192939"/>
<path d="M463.517 493.567C474.102 512.249 486.587 529.79 500.773 545.909C504.007 549.584 509.352 544.199 506.118 540.564C492.375 524.925 480.284 507.909 470.038 489.785C467.633 485.536 461.072 489.358 463.491 493.62L463.517 493.567Z" fill="#192939"/>
<path d="M300.276 413.336C332.213 422.584 365.5 423.813 398.533 424.388C430.216 424.949 462.568 425.724 492.928 415.247C497.512 413.671 495.601 406.334 490.91 407.924C461.165 418.174 429.561 417.278 398.533 416.797C366.155 416.236 333.603 415.087 302.321 406.014C297.617 404.677 295.639 411.987 300.303 413.336H300.276Z" fill="#192939"/>
<path d="M107.424 274.456C115.442 282.22 124.274 287.819 128.003 298.95C131.25 308.639 133.027 318.848 136.02 328.629C141.655 347.315 149.393 365.301 159.085 382.241C174.839 409.341 208.046 453.893 244.968 438.953C249.444 437.149 247.493 429.799 242.95 431.63C224.028 439.287 204.932 426.86 191.984 413.617C178.772 399.79 167.762 384.016 159.338 366.847C150.971 349.908 144.397 332.142 139.722 313.837C137.45 305.244 136.114 295.944 131.544 288.167C126.974 280.389 119.223 275.298 112.836 269.098C109.321 265.704 103.936 271.062 107.491 274.443L107.424 274.456Z" fill="#192939"/>
<path d="M174.693 238.283C177.245 220.444 157.321 207.402 142.742 219.281C136.876 224.052 132.88 232.925 136.368 240.248C139.709 247.263 148.969 248.265 153.299 241.798C155.971 237.789 149.45 233.914 146.751 237.976C144.76 240.956 142.742 233.9 142.849 232.631C143.069 231.29 143.55 230.005 144.265 228.849C146.28 225.41 149.697 223.024 153.619 222.315C161.503 220.885 168.546 228.408 167.423 236.185C166.742 240.969 174.105 243.041 174.746 238.217L174.693 238.283Z" fill="#192939"/>
<path d="M246.091 280.764C257.543 252.942 261.605 209.072 296.763 200.587C301.52 199.437 299.435 192.115 294.745 193.264C256.166 202.618 251.383 248.145 238.768 278.786C236.911 283.303 244.26 285.267 246.091 280.804V280.764Z" fill="#192939"/>
<path d="M311.875 279.347C306.61 303.454 302.338 327.743 299.06 352.215C297.456 364.268 296.098 376.353 294.984 388.468C294.476 394.067 290.04 409.475 298.579 411.439C303.336 412.535 305.367 405.212 300.597 404.116C301.572 404.343 302.213 392.557 302.347 391.074C302.801 385.88 303.305 380.691 303.857 375.506C305.015 364.602 306.383 353.729 307.959 342.888C310.971 322.255 314.717 301.766 319.198 281.418C320.24 276.648 312.917 274.617 311.875 279.401V279.347Z" fill="#192939"/>
<path d="M225.901 335.017C249.127 359.651 259.994 393.453 255.473 427.007C254.698 432.352 251.892 439.702 257.878 443.176C262.382 445.782 270.814 445.514 275.491 443.51C277.822 442.578 279.813 440.955 281.197 438.86C282.533 436.762 283.335 434.196 285.366 432.539C286.341 431.737 287.958 431.43 289.027 430.668C294.372 426.753 294.199 418.815 299.29 414.994C303.165 412.094 299.383 405.506 295.468 408.446C290.591 412.094 289.802 416.998 286.675 421.876C284.765 424.869 282.199 425.069 279.633 427.034C277.953 428.478 276.654 430.313 275.852 432.379C273.566 436.713 268.406 438.662 263.825 436.922C260.471 435.492 262.555 430.722 262.996 427.461C263.996 420.287 264.309 413.034 263.932 405.8C262.39 377.343 250.809 350.355 231.246 329.632C227.879 326.077 222.52 331.449 225.901 334.977V335.017Z" fill="#192939"/>
<path d="M496.737 376.99C495.615 384.419 494.492 391.849 493.37 399.279C492.702 403.755 491.646 408.553 493.904 412.749C498.274 420.9 509.098 418.227 514.63 412.962C519.494 408.339 522.1 403.034 528.942 400.869C535.783 398.704 543.641 397.662 550.763 396.286C566.291 393.279 581.912 391.074 597.774 391.114C602.651 391.114 602.665 383.537 597.774 383.524C574.522 383.524 550.469 387.533 527.993 393.279C523.898 394.189 520.103 396.13 516.969 398.918C513.668 401.965 511.463 406.428 507.615 408.873C498.795 414.539 500.425 402.793 501.214 397.582L504.02 379.007C504.742 374.223 497.432 372.166 496.697 376.99H496.737Z" fill="#192939"/>
<path d="M312.691 416.223C310.475 421.619 310.389 427.656 312.451 433.113L315.123 428.45C284.095 439.14 284.723 479.229 284.389 506.195C283.948 538.092 284.228 570.016 284.896 601.913C286.433 675.676 289.841 749.545 297.003 823.001C300.33 856.996 304.339 891.058 311.114 924.559C312.076 929.343 319.399 927.311 318.437 922.541C305.836 860.27 301.426 796.142 297.671 732.788C293.662 664.638 291.538 596.381 291.792 528.137C291.792 512.863 291.538 497.402 292.687 482.155C294.023 464.783 298.513 442.133 317.194 435.719C319.208 435.153 320.397 433.079 319.867 431.055C318.239 426.908 318.326 422.284 320.107 418.2C321.911 413.657 314.575 411.693 312.785 416.183L312.691 416.223Z" fill="#192939"/>
<path d="M373.412 583.312C378.343 638.26 379.599 693.542 381.43 748.664C382.405 777.982 383.367 807.3 384.704 836.604C385.866 861.767 386.428 887.383 389.755 912.398C391.479 925.387 397.158 935.329 411.135 937.106C429.028 939.378 447.589 939.338 465.602 939.578C474.814 939.694 484.021 939.672 493.223 939.512C500.119 939.391 509.78 940.701 515.94 936.639C520.818 933.378 521.74 927.913 522.622 922.501C523.704 915.418 524.706 908.323 525.682 901.214C534.007 840.707 539.766 779.826 543.695 718.878C548.105 650.54 550.443 581.882 548.051 513.411C547.877 508.533 540.287 508.52 540.461 513.411C544.537 629.667 536.813 747.073 523.089 862.555C521.441 876.426 519.66 890.279 517.744 904.113C516.889 910.207 516.087 916.314 515.072 922.38C514.283 927.164 513.094 930.919 507.294 931.534C502.711 932.015 497.94 931.828 493.37 931.922C475.393 932.242 457.424 932.02 439.465 931.253C431.581 930.919 423.67 930.612 415.826 929.917C411.109 929.503 406.218 929.142 402.663 925.641C399.697 922.701 398.561 918.078 397.826 914.122C395.688 902.684 395.554 890.564 394.806 878.965C393.978 866.484 393.309 853.99 392.721 841.549C391.385 814.142 390.476 786.761 389.568 759.3C387.603 700.651 386.454 641.828 381.216 583.352C380.775 578.528 373.198 578.474 373.613 583.352L373.412 583.312Z" fill="#192939"/>
<path d="M311.743 922.1C308.148 937.307 333.056 935.743 341.809 936.118C360.157 936.809 378.526 935.519 396.597 932.269C401.407 931.427 399.363 924.104 394.579 924.946C381.826 927.218 368.912 928.473 355.96 928.701C352.553 928.701 317.943 928.835 319.066 924.118C320.188 919.401 312.865 917.343 311.743 922.1Z" fill="#192939"/>
<path d="M417.55 935.075L418.886 956.269C419.234 961.961 422.24 973.881 418.245 978.491C416.548 980.442 412.9 981.912 410.748 983.436C408.597 984.959 406.619 986.482 404.615 988.086C401.141 990.865 397.051 993.778 394.619 997.573C380.896 1018.95 434.24 1013.44 441.51 1013.17L480.877 1011.7C489.268 1011.39 502.885 1013.35 508.845 1005.7C510.956 1003.03 511.411 999.711 511.785 996.344C512.547 989.542 513.028 982.687 513.402 975.859C514.15 962.162 514.203 948.452 513.696 934.755C513.509 929.877 505.919 929.864 506.092 934.755C506.52 945.886 506.573 957.017 506.092 968.162C505.905 973.311 505.625 978.442 505.25 983.556C504.89 988.38 505.25 994.246 503.74 998.803C502.003 1004.15 495.856 1003.51 491.313 1003.68L474.249 1004.32L441.443 1005.54C431.394 1005.91 421.011 1007.07 410.976 1006.38C407.448 1006.13 403.145 1006.57 402.25 1002.76C401.515 999.618 403.319 999.017 405.604 997.012C409.593 993.54 413.807 990.335 418.218 987.418C420.998 985.574 424.766 984.01 426.476 980.937C428.361 977.556 427.439 973.106 427.211 969.471L425.113 935.035C424.819 930.185 417.229 930.145 417.523 935.035L417.55 935.075Z" fill="#192939"/>
<path d="M324.251 932.122L324.585 961.387C324.585 967.106 326.389 974.669 321.832 979.133C319.307 981.618 315.151 983.369 312.144 985.253C306.559 988.767 284.67 1001.54 296.764 1009.91C302.109 1013.56 310.861 1013.57 317.008 1013.68C326.189 1013.85 335.396 1013.56 344.589 1013.38C354.05 1013.19 363.515 1012.95 372.985 1012.63C380.923 1012.37 388.566 1012.18 395.796 1008.53C400.152 1006.34 396.317 999.792 391.96 1001.98C384.678 1005.64 375.778 1004.96 367.827 1005.2C360.077 1005.44 352.331 1005.64 344.589 1005.79C336.571 1005.94 328.447 1006.11 320.376 1006.1C316.807 1006.15 313.237 1006 309.685 1005.64C307.612 1005.58 305.561 1005.2 303.605 1004.51C301.36 1003.39 301.32 1004.29 302.429 1001.84C304.741 996.705 314.55 992.709 319.053 989.876C323.556 987.043 329.008 984.531 331.173 979.6C333.845 973.534 332.242 965.169 332.162 958.714L331.854 932.109C331.854 927.218 324.211 927.205 324.264 932.109L324.251 932.122Z" fill="#192939"/>
<path d="M403.706 934.126C404.375 952.915 400.74 971.542 402.37 990.357C402.784 995.181 410.388 995.235 409.96 990.357C408.357 971.649 412.005 952.941 411.297 934.126C411.123 929.262 403.533 929.236 403.706 934.126Z" fill="#192939"/>
<path d="M475.65 963.204C468.715 965.703 464.051 972.651 466.136 980.121C468.191 987.329 475.566 991.633 482.853 989.876C489.909 988.095 494.833 981.72 494.772 974.442C494.915 970.749 493.74 967.126 491.458 964.22C488.786 961.226 485.017 960.732 481.236 960.759C476.358 960.759 476.345 968.389 481.236 968.349C483.16 968.349 484.937 968.081 486.193 969.899C487.041 971.472 487.381 973.269 487.169 975.043C487.044 978.276 484.988 981.116 481.957 982.246C474.02 985.066 469.637 973.427 477.668 970.527C482.238 968.883 480.26 961.547 475.65 963.204Z" fill="#1A73E8"/>
<path d="M341.154 959.008C343.405 959.204 345.671 958.972 347.836 958.327C349.144 957.966 350.16 956.935 350.502 955.622C350.844 954.309 350.46 952.913 349.493 951.961C348.527 951.008 347.126 950.643 345.818 951.004C345.432 951.126 345.039 951.229 344.642 951.311C344.375 951.311 344.108 951.418 343.84 951.458C344.108 951.458 344.108 951.458 343.84 951.458C342.951 951.541 342.057 951.541 341.168 951.458C339.071 951.473 337.374 953.169 337.359 955.266C337.422 957.341 339.093 959.006 341.168 959.062L341.154 959.008Z" fill="#1A73E8"/>
<path d="M342.209 972.531C343.907 971.978 345.725 971.908 347.46 972.331C349.482 972.888 351.573 971.701 352.131 969.678C352.688 967.656 351.5 965.565 349.478 965.008C346.4 964.226 343.166 964.296 340.124 965.208C335.46 966.625 337.452 973.961 342.142 972.531H342.209Z" fill="#1A73E8"/>
<path d="M341.716 984.905H344.522C346.609 984.883 348.295 983.197 348.317 981.11C348.281 979.027 346.605 977.344 344.522 977.302H341.716C340.304 977.218 338.961 977.924 338.23 979.134C337.499 980.345 337.499 981.862 338.23 983.072C338.961 984.283 340.304 984.989 341.716 984.905Z" fill="#1A73E8"/>
<path d="M436.764 956.202C438.675 956.234 440.546 955.659 442.109 954.559C442.938 954.036 443.553 953.235 443.846 952.3C444.114 951.314 443.979 950.261 443.472 949.374C442.456 947.797 439.984 946.701 438.274 948.037C438.095 948.174 437.908 948.299 437.713 948.412C437.579 948.492 436.964 948.759 437.552 948.518C438.14 948.278 437.459 948.518 437.365 948.518C437.15 948.58 436.931 948.629 436.71 948.665L437.713 948.532C437.415 948.552 437.115 948.552 436.817 948.532C434.805 948.651 433.234 950.318 433.234 952.334C433.234 954.349 434.805 956.016 436.817 956.135L436.764 956.202Z" fill="#1A73E8"/>
<path d="M436.766 967.453H440.133C442.229 967.453 443.928 965.754 443.928 963.658C443.928 961.563 442.229 959.863 440.133 959.863H436.766C434.67 959.863 432.971 961.563 432.971 963.658C432.971 965.754 434.67 967.453 436.766 967.453Z" fill="#1A73E8"/>
<path d="M433.813 981.364C437.952 983.489 442.995 982.653 446.227 979.306C449.581 975.752 444.223 970.366 440.882 973.961C440.448 974.522 439.809 974.887 439.105 974.977C438.62 975.027 438.129 974.982 437.662 974.843C435.854 973.831 433.57 974.42 432.477 976.179C431.427 977.982 432.023 980.293 433.813 981.364Z" fill="#1A73E8"/>
<path d="M391.197 353.952C376.137 340.816 359.58 325.997 354.609 305.846C351.803 294.447 354.609 281.258 368.654 280.937C379.344 280.683 386.961 289.075 391.531 297.761C392.221 298.916 393.467 299.622 394.811 299.622C396.156 299.622 397.402 298.916 398.092 297.761C402.609 288.568 411.361 281.031 422.225 282.14C435.909 283.476 441.334 296.291 439.316 308.625C437.406 320.237 430.27 330.006 421.945 338.023C415.424 344.21 401.299 358.589 391.437 355.395C386.774 353.898 384.756 361.235 389.42 362.705C396.595 364.99 403.036 362.063 408.956 357.988C415.76 353.377 422.173 348.215 428.132 342.553C439.089 331.863 448.176 317.351 447.388 301.543C446.719 287.966 438.034 276.688 424.19 274.817C410.105 272.866 397.611 281.672 391.571 293.979H398.146C392.707 283.663 383.553 274.523 371.42 273.481C359.861 272.492 348.89 279.401 346.458 291.013C340.672 318.607 367.558 343.382 385.905 359.391C389.567 362.598 394.965 357.239 391.25 354.045L391.197 353.952Z" fill="#1A73E8"/>
<path d="M429.336 705.248C437.704 703.612 446.2 702.718 454.725 702.576C459.603 702.482 459.616 694.892 454.725 694.985C445.506 695.18 436.322 696.181 427.278 697.979C422.494 698.927 424.525 706.25 429.296 705.302L429.336 705.248Z" fill="#BAD5F8"/>
<path d="M428.883 728.259C439.573 727.083 450.263 726.432 460.953 726.308C465.844 726.241 465.858 718.651 460.953 718.704C450.263 718.838 439.573 719.493 428.883 720.669C424.085 721.203 424.032 728.793 428.883 728.259Z" fill="#BAD5F8"/>
<path d="M430.58 750.909C432.842 751.111 435.106 750.546 437.008 749.305C438.82 748.25 439.433 745.926 438.377 744.114C437.322 742.302 434.998 741.689 433.186 742.744C433.039 742.838 431.85 743.559 432.772 743.052C432.503 743.175 432.22 743.264 431.93 743.319C431.101 743.586 432.625 743.319 431.756 743.319C431.365 743.345 430.972 743.345 430.58 743.319C428.487 743.326 426.792 745.021 426.785 747.114C426.841 749.188 428.506 750.859 430.58 750.922V750.909Z" fill="#BAD5F8"/>
<path d="M449.247 751.403L457.105 752.579C459.125 753.066 461.175 751.894 461.782 749.907C462.276 748.116 461.167 745.537 459.109 745.23L451.252 744.054C449.23 743.56 447.176 744.734 446.575 746.726C446.08 748.517 447.19 751.083 449.247 751.39V751.403Z" fill="#BAD5F8"/>
<path d="M316.259 699.128C324.661 700.427 333.146 701.124 341.648 701.213C346.526 701.213 346.539 693.663 341.648 693.622C333.802 693.572 325.97 692.964 318.21 691.805C313.439 691.084 311.368 698.393 316.192 699.128H316.259Z" fill="#BAD5F8"/>
<path d="M316.407 723.916H327.324C332.215 723.916 332.228 716.326 327.324 716.326H316.366C311.476 716.326 311.462 723.916 316.366 723.916H316.407Z" fill="#BAD5F8"/>
<path d="M345.083 726.455H348.464C350.476 726.336 352.047 724.669 352.047 722.653C352.047 720.637 350.476 718.971 348.464 718.851H345.083C342.996 718.873 341.31 720.56 341.288 722.646C341.324 724.73 343 726.412 345.083 726.455Z" fill="#BAD5F8"/>
<path d="M320.642 744.922C329.177 745.481 337.749 745.032 346.179 743.586C350.989 742.771 348.945 735.461 344.161 736.263C336.391 737.545 328.497 737.908 320.642 737.346C315.765 737.011 315.778 744.602 320.642 744.936V744.922Z" fill="#BAD5F8"/>
<path d="M356.053 429.947C355.639 436.067 355.853 442.869 360.957 447.158C366.062 451.448 374.454 450.165 380.507 450.058C384.703 449.978 388.912 449.777 393.108 449.457C396.048 449.229 400.765 449.71 403.358 447.987C407.741 445.047 405.87 434.33 406.03 429.907C406.177 425.016 398.587 425.029 398.44 429.907C398.306 434.103 399.068 439.702 397.812 443.697L400.485 441.025C393.803 443.149 384.957 442.428 378.035 442.481C375.082 442.481 370.685 443.203 367.893 442.214C362.735 440.41 363.403 434.263 363.697 429.933C364.017 425.056 356.427 425.069 356.107 429.933L356.053 429.947Z" fill="#BAD5F8"/>
<path d="M327.619 434.477C338.442 438.675 349.816 441.286 361.387 442.227C366.251 442.655 366.225 435.051 361.387 434.637C350.499 433.683 339.805 431.163 329.637 427.154C325.094 425.39 323.116 432.726 327.619 434.477Z" fill="#BAD5F8"/>
<path d="M408.57 444.779C414.924 444.47 421.257 443.832 427.545 442.869C434.601 441.786 443.313 438.152 450.342 439.595C455.113 440.57 457.157 433.247 452.36 432.272C445.531 430.869 439.344 432.98 432.65 434.303C424.712 435.844 416.673 436.808 408.597 437.189C403.732 437.443 403.706 445.033 408.597 444.779H408.57Z" fill="#BAD5F8"/>
<path d="M449.192 427.101L449.887 435.532C449.937 437.608 451.607 439.278 453.682 439.328C455.772 439.313 457.463 437.622 457.477 435.532L456.796 427.101C456.74 425.028 455.073 423.362 453.001 423.305C450.909 423.32 449.214 425.008 449.192 427.101H449.192Z" fill="#BAD5F8"/>
<path d="M470.08 424.842V433.287C470.08 438.165 477.684 438.178 477.684 433.287V424.842C477.684 419.965 470.08 419.951 470.08 424.842Z" fill="#BAD5F8"/>
<path d="M402.584 96.9447H410.949V105.31H402.584V96.9447Z" fill="#BAD5F8"/>
<path fill-rule="evenodd" clip-rule="evenodd" d="M97.5586 34.3787C97.5594 22.5811 84.72 11.1392 69.308 16.1903C61.2941 18.8167 56.3303 23.5685 54.1085 29.321C51.8632 35.1342 52.1712 42.6163 56.0285 51.08C56.9612 53.1266 56.0583 55.5417 54.0117 56.4745C51.9652 57.4072 49.55 56.5042 48.6173 54.4577C44.0934 44.5315 43.2883 34.7298 46.5108 26.3865C49.7568 17.9824 56.842 11.7049 66.7715 8.45067C87.4046 1.68846 105.704 16.9918 105.703 34.3793C105.703 40.0739 103.929 44.3967 101.703 48.1813C100.728 49.8377 99.6387 51.4368 98.6123 52.9429C98.5027 53.1037 98.3939 53.2634 98.286 53.4221C97.1387 55.1085 96.0545 56.7309 95.0688 58.4848C93.1419 61.9134 91.5763 65.8754 91.1268 71.3088C90.6723 76.8044 91.3436 84.0114 94.2118 93.9092C94.8377 96.0694 93.594 98.328 91.4338 98.954C89.2736 99.58 87.0149 98.3363 86.3889 96.1761C83.3286 85.6153 82.4518 77.3843 83.0099 70.6374C83.5732 63.8281 85.581 58.7429 87.9687 54.4944C89.1403 52.4097 90.3986 50.5362 91.5518 48.841C91.6574 48.6857 91.7619 48.5323 91.8653 48.3806C92.9182 46.8346 93.8534 45.4615 94.6824 44.0521C96.4335 41.0749 97.5583 38.181 97.5586 34.3787Z" fill="#1A73E8"/>
<path fill-rule="evenodd" clip-rule="evenodd" d="M96.7498 120.305C97.0929 120.512 97.4726 120.672 97.8823 120.773C100.066 121.313 102.273 119.98 102.813 117.797C103.279 115.909 103.458 114.035 103.118 112.388C102.818 110.94 101.632 108.083 98.3588 107.859C95.6681 107.676 93.9108 109.585 93.1354 110.659C92.1743 111.991 91.454 113.72 90.9674 115.689C90.4279 117.873 91.7605 120.08 93.9439 120.619C94.9256 120.862 95.9122 120.726 96.7498 120.305ZM99.7742 115.381C99.7785 115.376 99.7807 115.373 99.7808 115.373C99.7808 115.373 99.7786 115.376 99.7742 115.381Z" fill="#1A73E8"/>
<path fill-rule="evenodd" clip-rule="evenodd" d="M166.966 42.4473C164.457 39.2209 160.507 37.101 155.101 37.4872C149.714 37.872 145.824 39.9082 143.268 42.7667C140.689 45.6505 139.2 49.6724 139.2 54.4656C139.2 56.7147 137.377 58.538 135.128 58.538C132.879 58.538 131.056 56.7147 131.056 54.4656C131.056 47.9744 133.092 41.9273 137.197 37.3375C141.324 32.7226 147.275 29.8808 154.521 29.3633C162.66 28.7819 169.23 32.0919 173.395 37.4471C177.482 42.702 179.115 49.7263 178.036 56.5598C175.916 69.9865 166.884 75.213 159.907 79.2228C156.285 81.3043 153.506 82.9056 151.505 85.0092C149.717 86.8885 148.511 89.2337 148.511 93.0587C148.511 95.3078 146.688 97.1311 144.439 97.1311C142.19 97.1311 140.366 95.3078 140.366 93.0587C140.366 87.0987 142.407 82.756 145.603 79.396C148.445 76.4085 152.156 74.2799 155.373 72.4342C155.533 72.3425 155.692 72.2516 155.849 72.1612C162.76 68.1892 168.516 64.6337 169.991 55.2897C170.75 50.4833 169.554 45.7741 166.966 42.4473Z" fill="#1A73E8"/>
<path fill-rule="evenodd" clip-rule="evenodd" d="M139.247 123.493C139.277 123.493 139.306 123.494 139.336 123.494C141.017 123.494 142.323 122.729 143.154 121.974C143.987 121.219 144.577 120.282 144.93 119.349C145.266 118.462 145.531 117.189 145.197 115.814C144.807 114.207 143.617 112.704 141.683 112.151C140.232 111.737 138.597 111.617 136.991 112.218C135.356 112.829 134.307 113.979 133.659 115.045C133.044 116.056 132.7 117.133 132.48 117.954C132.314 118.576 132.167 119.266 132.051 119.811C132.017 119.972 131.985 120.119 131.957 120.249C131.475 122.446 132.865 124.617 135.061 125.1C136.701 125.46 138.327 124.776 139.247 123.493Z" fill="#1A73E8"/>
<path fill-rule="evenodd" clip-rule="evenodd" d="M34.4819 86.4671C28.3371 81.4545 17.9983 82.1471 12.6517 88.3467C9.22328 92.3221 8.33906 96.6637 9.34315 100.716C10.3722 104.869 13.5147 109.183 19.0091 112.547C20.9272 113.721 21.5302 116.228 20.3558 118.146C19.1814 120.064 16.6744 120.667 14.7563 119.493C7.84484 115.261 3.08627 109.329 1.43757 102.675C-0.236104 95.9202 1.42518 88.8933 6.48393 83.0275C14.7927 73.3931 30.1644 72.4342 39.6302 80.1559C43.8503 83.5985 45.7865 88.2418 46.6068 92.9884C47.4121 97.6478 47.1969 102.729 46.8722 107.429C46.7993 108.483 46.7214 109.516 46.645 110.528C46.3674 114.207 46.1102 117.615 46.1918 120.809C46.2957 124.873 46.9553 127.85 48.3342 129.918C49.5817 131.79 49.076 134.318 47.2047 135.566C45.3333 136.813 42.805 136.307 41.5574 134.436C38.8999 130.45 38.1671 125.607 38.0498 121.017C37.9566 117.369 38.2565 113.414 38.5397 109.682C38.6121 108.726 38.6835 107.785 38.7469 106.868C39.0708 102.18 39.2028 97.9726 38.5811 94.3755C37.9745 90.8655 36.7096 88.2843 34.4819 86.4671Z" fill="#1A73E8"/>
<path fill-rule="evenodd" clip-rule="evenodd" d="M65.0927 149.226C65.6746 148.522 66.0242 147.619 66.0242 146.634C66.0242 143.57 64.1011 141.531 62.381 140.512C60.774 139.559 58.5368 138.987 56.4493 139.539C55.3257 139.835 53.827 140.599 52.9902 142.287C52.1519 143.978 52.4345 145.675 52.9053 146.865C53.7662 149.04 55.8504 151.147 58.6277 153.27C60.4143 154.637 62.9702 154.296 64.3364 152.509C65.0795 151.537 65.3176 150.338 65.0927 149.226Z" fill="#1A73E8"/>
</svg>
