<svg width="492" height="361" viewBox="0 0 492 361" fill="none" xmlns="http://www.w3.org/2000/svg">
<path d="M144.258 96.7988C143.788 87.8341 138.608 79.5283 131.529 74.0019C124.449 68.4756 115.661 65.52 106.787 64.1629C104.582 63.8236 102.22 63.5952 100.204 64.5413C96.5112 66.2638 95.4934 71.4313 97.1767 75.1437C98.8601 78.8562 102.455 81.329 106.102 83.1625C109.75 84.9959 113.658 86.4247 116.868 88.9237C112.581 90.0067 107.57 91.7684 106.481 96.055C105.646 99.3173 107.786 102.893 110.846 104.341C113.906 105.79 117.579 105.431 120.691 104.119C119.256 106.279 118.082 108.771 118.212 111.368C118.342 113.965 120.019 116.621 122.557 117.156C125.82 117.808 128.651 115.1 130.831 112.588C131.513 114.756 133.536 116.22 135.809 116.19" fill="#BAD5F8"/>
<path d="M150.339 98.0971C157.5 95.402 165.475 95.9178 172.229 99.513C169.155 100.493 166.239 101.913 163.571 103.728C165.912 112.302 163.352 121.468 156.908 127.589C150.464 133.71 141.178 135.795 132.736 133.017C131.353 132.56 129.95 131.973 128.501 132.136C127.388 132.337 126.328 132.761 125.383 133.382L108.288 143.052C104.29 136.421 101.45 129.157 99.8911 121.573C105.008 120.496 110.224 119.961 115.452 119.974" fill="#BAD5F8"/>
<path d="M161.137 88.7996C163.134 82.4773 167.009 75.9592 173.364 74.1911C176.052 73.4473 178.891 73.6365 181.67 73.8388C185.109 74.0802 188.677 74.3672 191.666 76.0832C194.654 77.7992 196.885 81.3877 195.855 84.6826C194.667 88.5321 190.093 89.9871 186.166 90.8679C188.943 92.9092 189.908 96.6182 188.479 99.7547C187.05 102.891 183.617 104.596 180.254 103.839C181.946 106.872 181.399 110.662 178.918 113.094C176.438 115.525 172.638 115.997 169.639 114.245" fill="#BAD5F8"/>
<path d="M179.08 17.9101L188.051 43.5843C188.534 44.961 189.512 46.6378 190.935 46.3181C191.587 46.0858 192.141 45.6397 192.507 45.0524L211.813 20.3438C212.488 19.631 212.941 18.7381 213.118 17.7731C213.308 15.2872 210.143 14.1193 207.677 13.7866C200.348 12.7818 192.999 11.9988 185.63 11.4377C184.391 11.3464 183.086 11.2681 181.977 11.8227C180.867 12.3773 180.084 13.78 180.672 14.8827" fill="#BAD5F8"/>
<path d="M47.7069 233.398C35.5584 221.566 25.5556 207.715 18.144 192.462C15.8408 187.712 13.766 182.715 13.4528 177.456C12.7155 164.974 23.4615 153.126 35.9235 152.108C48.3855 151.09 60.6712 160.59 63.3789 172.797C64.6839 178.748 63.9857 184.966 62.6873 190.923C59.7448 204.422 53.8726 217.073 48.0005 229.594" fill="#BAD5F8"/>
<path d="M442.125 75.4374C437.777 66.5799 434.07 57.422 431.033 48.0341C429.884 44.4848 428.958 40.2046 431.352 37.3338C432.847 35.533 435.267 34.8349 437.518 34.2281L462.312 27.5535C463.806 27.1555 465.417 26.751 466.879 27.2664C468.836 27.9189 469.874 29.9937 470.715 31.8336C479.279 50.8393 485.953 70.641 490.641 90.9529C490.968 92.3817 491.294 93.9542 490.589 95.2591C489.935 96.2607 488.997 97.0444 487.894 97.5101C480.717 101.281 472.888 103.48 465.098 105.653C462.325 106.429 459.362 107.199 456.616 106.305C453.869 105.411 451.657 102.247 452.923 99.6632" fill="#BAD5F8"/>
<path d="M312.957 300.607C312.957 300.607 277.483 304.137 281.9 316.057C286.317 327.978 285.541 346.305 299.83 358.382H460.1C460.1 358.382 407.851 277.406 402.501 274.868C397.151 272.33 391.298 260.664 390.841 260.096C390.385 259.528 387.52 248.43 377.081 261.16" fill="#1A73E8"/>
<path d="M252.442 105.985C252.442 105.985 251.039 116.523 257.994 128.169C264.95 139.815 266.144 144.774 268.91 144.944C271.677 145.113 278.971 137.369 279.232 132.436C279.493 127.503 279.63 126.264 274.861 123.752C270.091 121.24 266.731 107.988 270.737 108.001C274.743 108.015 275.435 106.09 277.144 108.001C278.854 109.913 279.793 109.58 280.478 104.7C281.163 99.8197 283.74 87.3838 284.393 92.0163C285.045 96.6487 288.386 96.7205 293.018 91.3638C297.651 86.0071 291.642 95.2786 295.55 93.6474C299.458 92.0163 304.273 85.5439 304.991 85.3286C305.709 85.1133 308.012 83.332 310.622 89.165C313.232 94.998 319.28 98.4691 321.342 92.2903C323.403 86.1115 323.795 69.2324 316.644 69.2324C309.493 69.2324 289.241 68.8083 284.171 71.0201C279.102 73.232 277.581 78.8496 274.874 83.7039C272.166 88.5582 271.07 82.7253 266.105 85.7722C261.139 88.8192 254.112 93.2886 253.486 98.4495" fill="#1A73E8"/>
<path d="M97.2288 179.857C98.1942 182.436 99.7131 184.772 101.679 186.701C103.284 188.267 105.743 185.814 104.138 184.248C102.58 182.754 101.365 180.94 100.576 178.93C99.7799 176.868 96.4197 177.762 97.2288 179.857Z" fill="#192939"/>
<path d="M100.426 169.894C101.17 171.757 102.042 173.566 103.036 175.309C104.145 177.267 107.153 175.498 106.037 173.554C105.187 172.084 104.437 170.558 103.793 168.987C103.515 168.078 102.575 167.545 101.653 167.773C100.731 168.03 100.189 168.983 100.439 169.907L100.426 169.894Z" fill="#192939"/>
<path d="M106.65 162.293C108.888 162.293 108.895 158.815 106.65 158.815C104.406 158.815 104.412 162.293 106.65 162.293Z" fill="#192939"/>
<path d="M104.928 161.144C105.423 162.876 106.122 164.542 107.009 166.109C108.112 168.067 111.113 166.305 110.01 164.354C109.269 163.05 108.688 161.661 108.281 160.218C107.668 158.071 104.314 158.985 104.928 161.144Z" fill="#192939"/>
<path d="M306.374 84.1542C309.055 90.8743 313.108 96.961 318.275 102.025C320.806 104.485 323.625 106.423 326.457 108.491C331.383 112.092 327.71 116.594 323.403 118.545C322.862 118.849 322.532 119.426 322.542 120.046C323.239 134.661 322.648 149.308 320.774 163.819C320.487 166.031 323.964 166.012 324.245 163.819C326.119 149.306 326.711 134.656 326.013 120.039L325.152 121.54C328.414 120.059 331.676 117.273 332.375 113.587C333.079 110.018 330.946 107.427 328.205 105.483C320.017 99.6827 313.551 92.6362 309.721 83.2212C308.886 81.179 305.526 82.0729 306.368 84.1477L306.374 84.1542Z" fill="#192939"/>
<path d="M279.441 122.877C275.761 121.657 272.048 119.485 270.959 115.479C270.384 113.332 270.619 110.8 272.981 109.991C275.343 109.182 277.548 110.598 279.238 112.132C280.928 113.665 283.349 111.192 281.692 109.672C277.588 105.914 268.995 104.25 267.337 111.505C265.68 118.76 272.414 124.209 278.508 126.225C280.635 126.929 281.548 123.576 279.428 122.877H279.441Z" fill="#192939"/>
<path d="M290.063 94.8608C293.025 91.6308 295.054 87.6574 295.935 83.3645C296.379 81.1788 293.025 80.2458 292.582 82.4446C291.867 86.1534 290.153 89.5964 287.623 92.4011C286.122 94.0583 288.575 96.5246 290.076 94.8608H290.063Z" fill="#192939"/>
<path d="M301.304 92.5708C305.407 89.2338 308.45 84.7743 310.06 79.7369C310.758 77.6099 307.398 76.6965 306.707 78.817C305.256 83.2654 302.534 87.1917 298.877 90.111C297.135 91.5203 299.608 93.967 301.337 92.5708H301.304Z" fill="#192939"/>
<path d="M279.962 95.9832L278.782 104.38C278.468 106.599 278.005 108.745 278.631 110.944C279.258 113.143 282.592 112.184 281.979 110.024C281.365 107.865 282.122 105.405 282.429 103.206L283.316 96.9293C283.623 94.737 280.269 93.791 279.962 96.0028V95.9832Z" fill="#192939"/>
<path d="M311.991 120.646C308.594 120.364 305.218 119.865 301.885 119.152C299.928 118.741 297.866 118.043 296.137 119.393C292.998 121.853 294.982 126.773 297.018 129.18C299.399 132.012 303.588 134.498 307.457 134.093C311.763 133.643 310.948 126.107 311.274 123.054C311.515 120.829 308.011 120.848 307.803 123.054L307.339 127.34C307.294 127.778 307.339 130.479 306.941 130.772C306.289 131.242 303.209 129.696 302.655 129.383C301.508 128.74 300.494 127.885 299.667 126.864C298.61 125.559 296.822 123.178 299.836 122.219C300.678 121.951 302.974 122.904 303.908 123.073C306.596 123.556 309.303 123.882 312.024 124.104C314.255 124.287 314.242 120.809 312.024 120.633L311.991 120.646Z" fill="#192939"/>
<path d="M296.679 127.373C298.179 128.123 299.8 128.6 301.468 128.782C302.323 128.887 303.177 128.939 304.038 128.978C304.547 128.978 306.133 128.795 306.518 129.082L305.722 128.045C305.749 128.52 305.714 128.996 305.617 129.461L306.655 128.658C305.846 128.835 304.998 127.895 304.365 127.582C303.732 127.269 302.936 127.327 302.218 127.047C300.13 126.244 299.223 129.604 301.292 130.4C301.794 130.596 302.251 130.498 302.734 130.655C303.083 130.843 303.415 131.061 303.725 131.307C304.47 131.743 305.3 132.012 306.159 132.097C308.638 132.319 309.258 130.348 309.199 128.182C309.141 126.016 307.823 125.69 305.983 125.572C303.425 125.429 300.763 125.54 298.434 124.352C296.444 123.347 294.682 126.342 296.679 127.353V127.373Z" fill="#192939"/>
<path d="M269.837 82.8883C261.798 84.3237 255.45 90.4699 252.592 97.9862C249.043 107.323 250.987 117.775 254.791 126.694C256.908 131.459 259.359 136.068 262.125 140.487C263.86 143.358 266.222 148.395 270.391 147.664C274.117 147.012 276.622 141.512 278.038 138.465C280.009 134.192 281.181 129.595 281.496 124.9C281.666 122.669 278.188 122.682 278.025 124.9C277.661 130.65 275.806 136.207 272.642 141.022C271.122 143.352 269.315 145.12 267.201 142.125C262.704 135.814 259.107 128.908 256.514 121.605C254.041 114.376 253.121 106.201 255.946 98.9257C258.445 92.499 263.919 87.4816 270.763 86.2615C272.962 85.87 272.029 82.5164 269.837 82.9079V82.8883Z" fill="#192939"/>
<path d="M273.099 70.3938L273.993 78.7583C274.169 80.3895 276.289 81.2311 277.255 79.6326C283.936 68.3581 297.931 70.9353 309.108 70.9419H314.119C314.954 70.9419 316.963 70.6678 317.759 71.0071C320.037 71.9793 320.552 77.6687 320.695 79.7305C320.878 82.2849 320.657 84.852 320.043 87.3381C319.776 88.4278 316.781 94.7175 317.348 95.0437C315.391 93.9084 313.662 96.9097 315.593 98.045C320.728 101.053 323.658 87.7753 324.017 84.8066C324.604 79.8088 324.388 68.6191 317.883 67.5491C313.903 66.8966 309.401 67.4642 305.337 67.4577C300.482 67.4577 295.55 67.1576 290.682 67.5752C283.844 68.1015 277.701 71.9524 274.247 77.8775L277.509 78.7518L276.609 70.3873C276.374 68.1885 272.896 68.1624 273.138 70.3873L273.099 70.3938Z" fill="#192939"/>
<path d="M293.978 103.219C293.039 103.8 292.465 104.822 292.457 105.926C292.449 107.029 293.008 108.06 293.938 108.654C294.541 109.011 295.277 109.06 295.922 108.786C296.566 108.511 297.041 107.946 297.201 107.264C297.573 105.757 296.339 104.002 294.676 104.524C294.078 104.688 293.613 105.159 293.456 105.759C293.3 106.359 293.475 106.997 293.916 107.433C294.358 107.868 294.998 108.035 295.596 107.871H295.694H294.774L294.865 107.904L294.102 107.453C293.893 107.22 293.789 106.911 293.814 106.599C293.814 106.175 294.18 106.025 294.852 106.155C295.354 105.633 295.713 105.555 295.928 105.907C296.007 106.018 296 106.005 295.928 105.874L295.87 105.764C295.994 105.953 295.87 105.992 295.87 105.764C295.87 105.535 295.87 106.109 295.87 105.868C295.87 105.627 295.746 106.22 295.87 105.927C295.87 106.018 295.726 106.22 295.87 106.025C295.811 106.122 295.465 106.383 295.733 106.24C296.561 105.755 296.84 104.69 296.356 103.862C295.871 103.033 294.806 102.754 293.978 103.239V103.219Z" fill="#192939"/>
<path d="M307.157 101.268C306.216 101.848 305.64 102.871 305.634 103.977C305.627 105.082 306.191 106.112 307.125 106.703C307.727 107.06 308.464 107.109 309.108 106.835C309.752 106.56 310.227 105.995 310.387 105.313C310.752 103.8 309.526 102.051 307.855 102.573C307.258 102.739 306.793 103.21 306.638 103.811C306.482 104.412 306.659 105.049 307.101 105.485C307.543 105.92 308.184 106.086 308.782 105.92H308.88H307.953L308.051 105.953L307.281 105.503C307.074 105.266 306.971 104.955 306.994 104.641C306.994 104.224 307.366 104.074 308.032 104.198C308.534 103.682 308.893 103.604 309.108 103.95C309.186 104.067 309.186 104.054 309.108 103.95L309.049 103.839C309.167 104.021 309.049 104.067 309.049 103.839C309.049 103.61 309.049 104.185 309.049 103.943C309.049 103.702 308.932 104.296 309.049 104.002C309.01 104.093 308.906 104.296 309.049 104.1C308.991 104.198 308.645 104.459 308.906 104.315C309.442 104.002 309.77 103.426 309.767 102.805C309.763 102.184 309.429 101.612 308.889 101.304C308.35 100.997 307.687 101 307.151 101.314L307.157 101.268Z" fill="#192939"/>
<path d="M325.778 153.902C341.881 138.36 366.583 143.691 386.666 140.54C403.754 137.858 419.093 128.084 429.487 114.356C435.327 106.682 439.405 97.8164 441.433 88.3885C441.896 86.2028 438.543 85.2698 438.08 87.462C434.478 104.426 423.725 119.361 409.032 128.534C401.172 133.416 392.328 136.495 383.136 137.551C372.462 138.856 361.657 138.152 350.996 139.58C340.811 140.918 330.828 144.18 323.338 151.449C321.727 153.001 324.186 155.461 325.798 153.902H325.778Z" fill="#192939"/>
<path d="M440.128 79.2019C438.823 75.9984 441.779 74.0932 444.467 73.3885C446.105 72.9644 453.19 71.6465 452.388 75.5547C451.977 77.5121 449.537 77.362 448.473 78.6604C447.41 79.9588 448.473 80.7744 448.212 82.0466C447.782 84.2259 451.129 85.1654 451.566 82.9666C451.69 82.3142 451.357 81.2311 451.494 80.7483C451.422 81.0027 451.109 81.1202 452.284 80.4808C453.662 79.7692 454.768 78.6225 455.428 77.2185C456.733 74.2172 455.069 71.2028 452.199 69.9697C446.216 67.4055 433.382 71.927 436.762 80.1415C437.603 82.1837 440.963 81.2898 440.115 79.215L440.128 79.2019Z" fill="#192939"/>
<path d="M442.086 70.6482C439.476 65.2393 437.036 59.7325 434.909 54.1149C433.075 49.3389 430.237 43.6755 430.113 38.5081C429.956 31.7486 439.561 31.1549 444.545 29.8108C450.183 28.2971 456.087 26.0135 461.862 25.1653C464.211 24.8195 465.685 25.1131 466.938 27.214C467.423 28.0984 467.858 29.0089 468.243 29.9413C469.6 32.9861 470.905 36.0309 472.157 39.0757C474.311 44.3693 476.322 49.7195 478.193 55.1262C480.133 60.7243 481.91 66.3789 483.523 72.0901C484.25 74.6434 484.943 77.2054 485.605 79.7761C485.961 81.1593 486.309 82.5447 486.649 83.9322C487.001 85.3937 488.097 87.8144 487.784 89.2498C487.04 92.6491 481.403 94.1562 478.604 95.2393C475.909 96.2767 473.156 97.1967 470.396 98.0058C467.479 98.8866 464.524 99.7674 461.588 100.498C458.652 101.229 451.311 101.418 453.106 96.2572C453.849 94.1432 450.496 93.2363 449.752 95.3307C447.827 100.785 453.341 104.72 458.28 104.537C461.379 104.426 464.445 103.33 467.414 102.488C471.12 101.438 474.819 100.335 478.434 98.9975C482.884 97.3468 491.366 95.2328 491.248 89.2498C491.177 85.6417 489.689 81.7204 488.789 78.2558C487.762 74.3019 486.662 70.3698 485.487 66.4594C483.251 59.0301 480.746 51.6877 477.971 44.4324C476.666 41.0005 475.294 37.5925 473.854 34.2084C472.477 30.9461 471.303 27.1879 469.215 24.3171C465.111 18.6603 457.02 22.8425 451.69 24.278L440.533 27.2793C437.225 28.1731 433.408 28.7277 430.472 30.6003C424.26 34.5607 427.144 42.5533 429.036 48.0731C431.879 56.3815 435.226 64.5088 439.058 72.4098C440.037 74.4194 443.038 72.6577 442.06 70.6547L442.086 70.6482Z" fill="#1A73E8"/>
<path d="M268.349 162.912C272.851 161.881 277.379 161.001 281.946 160.303C284.282 159.955 286.625 159.661 288.973 159.422C289.854 159.33 291.44 158.939 292.34 159.122C293.756 159.409 294.826 161.007 295.557 162.09L303.066 173.097C304.417 175.055 305.911 177.984 308.756 177.077C310.876 176.425 309.969 173.039 307.829 173.724C307.118 173.952 301.103 164.061 300.346 162.958C298.623 160.426 296.836 156.257 293.423 155.716C289.756 155.135 285.294 156.368 281.679 156.864C276.896 157.556 272.16 158.463 267.455 159.539C265.276 160.035 266.203 163.389 268.382 162.893L268.349 162.912Z" fill="#192939"/>
<path d="M274.639 310.355C311.75 304.072 346.595 288.268 375.77 264.487C384.094 257.691 391.894 250.275 399.102 242.303C400.602 240.646 398.149 238.18 396.642 239.844C364.42 275.464 321.095 299.135 273.712 307.008C271.513 307.373 272.446 310.72 274.639 310.355Z" fill="#192939"/>
<path d="M135.234 189.161C146.108 194.815 157.007 200.427 167.929 205.994C173.579 208.871 179.229 211.749 184.893 214.574C189.14 216.681 191.587 216.779 195.293 213.537C212.109 198.786 231.434 187.171 252.35 179.243C254.425 178.46 253.525 175.1 251.424 175.89C232.391 183.049 214.632 193.218 198.823 206.007C196.937 207.534 195.104 209.126 193.257 210.705C191.411 212.284 190.204 213.276 187.783 212.14C186.635 211.605 185.513 210.998 184.384 210.431C179.09 207.778 173.81 205.107 168.542 202.419C157.994 197.047 147.472 191.627 136.976 186.159C135.019 185.129 133.231 188.117 135.221 189.161H135.234Z" fill="#192939"/>
<path d="M98.4815 193.591C104.53 202.308 112.092 210.04 119.419 217.66C127.842 226.429 136.494 234.97 145.204 243.452C153.817 251.836 162.338 259.639 173.769 264.017C186.877 269.041 202.275 269.89 215.898 266.627C233.553 262.445 248.854 251.784 263.449 241.481C265.263 240.177 263.527 237.188 261.694 238.48C249.075 247.393 236.085 256.508 221.307 261.466C207.361 266.071 192.33 266.231 178.29 261.923C166.311 258.184 157.412 250.511 148.636 241.945C140.552 234.083 132.52 226.175 124.665 218.091C116.587 209.785 108.105 201.381 101.502 191.81C100.237 189.989 97.2223 191.725 98.5011 193.565L98.4815 193.591Z" fill="#192939"/>
<path d="M184.09 214.215C187.941 216.004 191.553 218.266 194.843 220.949C196.559 222.351 199.032 219.911 197.296 218.489C193.798 215.595 189.951 213.151 185.845 211.214C183.836 210.274 182.068 213.269 184.09 214.215Z" fill="#192939"/>
<path d="M221.039 194.048C234.588 206.25 244.951 221.576 251.228 238.695C251.985 240.783 255.345 239.883 254.575 237.775C248.144 220.077 237.48 204.223 223.512 191.594C221.854 190.094 219.388 192.547 221.052 194.048H221.039Z" fill="#192939"/>
<path d="M362.042 188.45C375.861 204.202 387.63 221.642 397.066 240.353C398.077 242.356 401.072 240.594 400.067 238.604C390.482 219.636 378.532 201.959 364.502 185.996C363.027 184.313 360.587 186.779 362.042 188.45Z" fill="#192939"/>
<path d="M385.355 195.281C406.233 188.671 428.071 181.527 443.723 165.385C458.384 150.261 466.298 129.787 469.352 109.215C469.678 107.023 466.331 106.083 465.998 108.289C463.036 128.28 455.559 148.212 441.264 162.925C426.035 178.637 404.726 185.5 384.428 191.927C382.308 192.58 383.214 195.959 385.355 195.281Z" fill="#192939"/>
<path d="M453.673 61.2593C453.02 60.3785 450.887 57.3446 451.644 56.255C451.35 56.6726 454.906 55.9679 455.226 55.8831C456.27 55.6221 457.777 54.8196 458.716 55.4264C459.284 55.7983 459.486 57.2728 460.08 57.8666C460.646 58.4128 461.503 58.5216 462.187 58.1341C463.675 57.2467 464.895 55.4851 466.063 54.2193L463.16 53.4886C463.727 55.688 464.462 57.8409 465.358 59.9283L466.859 57.3185C465.4 57.3421 463.953 57.0575 462.611 56.4833C461.568 56.0332 459.806 56.4833 460.002 57.984C460.257 60.2209 460.806 62.4146 461.633 64.5086L463.303 62.3098C459.525 62.3098 456.981 64.5151 453.471 65.2002L455.16 65.6504C454.599 65.1545 454.351 62.8187 454.149 62.0488L452.916 57.2728C452.355 55.1132 449.001 56.0266 449.562 58.1993C450.182 60.5808 450.763 62.9818 451.415 65.3764C451.709 66.4464 451.859 67.6208 452.877 68.2602C453.764 68.8148 454.554 68.5799 455.487 68.2602C458.253 67.3337 460.243 65.7939 463.316 65.8005C464.347 65.8005 465.424 64.6717 464.993 63.6017C464.254 61.8034 463.75 59.9176 463.492 57.9905L460.882 59.4912C462.769 60.3457 464.814 60.7905 466.885 60.7961C468.333 60.7961 468.842 59.3411 468.386 58.1863C467.629 56.3676 467.012 54.494 466.539 52.5816C466.37 51.9894 465.902 51.53 465.306 51.3721C464.711 51.2142 464.076 51.3812 463.636 51.8117C462.703 52.8035 461.626 54.4803 460.458 55.1719L462.566 55.4459C461.137 54.0236 461.587 51.9749 459.114 51.6617C456.641 51.3485 453.066 52.7643 450.73 53.482C446.254 54.8653 448.701 60.3002 450.698 63.0536C452.002 64.8479 455.01 63.1189 453.699 61.2985L453.673 61.2593Z" fill="#1A73E8"/>
<path d="M451.076 57.4033L453.034 63.6016C453.601 65.3828 456.576 65.1806 456.446 63.1384L456.133 58.1079L452.72 58.5647L453.477 62.9166C453.836 64.9914 456.74 64.2215 456.89 62.4533L457.431 57.0705L454.019 57.5338C454.225 58.9958 454.604 60.4282 455.148 61.8009C455.375 62.5362 456.055 63.0376 456.824 63.0376C457.594 63.0376 458.274 62.5362 458.501 61.8009C459.113 60.1972 459.461 58.505 459.532 56.79H456.054C456.04 58.496 456.323 60.1916 456.89 61.8009C457.294 62.9492 458.847 63.6212 459.793 62.5708C460.652 61.63 461.163 60.4235 461.242 59.1519H457.764C457.863 60.615 458.11 62.0644 458.501 63.4777C458.672 64.0688 459.141 64.5266 459.736 64.6831C460.331 64.8395 460.965 64.6717 461.405 64.241C461.989 63.6478 462.24 62.8031 462.076 61.9869C461.911 61.1707 461.351 60.4897 460.583 60.1697C458.625 59.4194 457.418 60.9657 456.146 62.1662C454.763 63.4711 456.257 65.3241 457.836 65.0697C458.626 64.9485 459.401 64.7407 460.145 64.4498C461.352 63.9801 462.103 61.9313 460.563 61.2724C459.71 60.845 458.753 60.6686 457.803 60.7634C455.611 61.0244 455.585 64.5086 457.803 64.241C458.13 64.14 458.481 64.14 458.808 64.241L459.225 61.0636C458.479 61.3625 457.702 61.5812 456.909 61.716L458.606 64.6195C458.847 64.3911 459.062 64.1432 459.258 63.8952C459.338 63.7876 459.428 63.6872 459.526 63.5951C460.061 63.1166 459.858 62.5099 458.919 61.7748L461.822 62.5447C461.501 61.4358 461.295 60.2966 461.209 59.1453C461.153 58.2263 460.391 57.5098 459.47 57.5098C458.549 57.5098 457.788 58.2263 457.731 59.1453C457.702 59.5038 457.553 59.8418 457.307 60.1045L460.211 60.8744C459.735 59.5633 459.494 58.1783 459.499 56.7834C459.499 54.539 456.133 54.5586 456.022 56.7834C455.943 58.1851 455.637 59.5647 455.115 60.8678H458.469C457.923 59.4957 457.544 58.0631 457.34 56.6008C457.046 54.5194 454.078 55.2958 453.927 57.064L453.379 62.4468L456.798 61.9835L456.035 57.6382C455.702 55.7134 452.505 56.1506 452.623 58.1014L452.936 63.1319L456.355 62.6686L454.397 56.4768C453.745 54.3498 450.365 55.2567 451.05 57.3968L451.076 57.4033Z" fill="#1A73E8"/>
<path d="M446.946 56.6857C448.154 60.2764 449.732 63.7314 451.657 66.9945C452.799 68.9193 455.8 67.1707 454.658 65.2394C452.875 62.2418 451.414 59.064 450.3 55.7592C449.588 53.6517 446.235 54.5587 446.946 56.6857Z" fill="#1A73E8"/>
<path d="M325.172 182.121C322.131 181.905 320.422 186.035 322.483 188.143C324.545 190.25 328.741 188.358 328.473 185.39C328.449 184.441 327.686 183.678 326.737 183.654C325.781 183.661 325.006 184.433 324.995 185.39C324.995 185.677 324.937 185.657 325.035 185.442C324.871 185.794 325.198 185.174 325.035 185.487C325.237 185.148 325.035 185.442 324.976 185.527C325.145 185.298 325.061 185.448 324.898 185.559C324.552 185.781 325.211 185.442 324.826 185.559C324.441 185.677 325.165 185.559 324.774 185.559C324.382 185.559 325.145 185.618 324.774 185.559C324.969 185.65 325.015 185.664 324.898 185.605C324.78 185.546 324.826 185.559 324.995 185.677L325.093 185.827C325.002 185.657 325.002 185.683 325.093 185.905C325.041 185.722 325.093 185.513 325.093 185.905C325.139 185.546 324.956 186.231 325.093 185.853C325.132 185.735 325.309 185.442 325.093 185.774C325.158 185.677 325.393 185.409 325.093 185.69L325.178 185.598C325.296 185.487 325.302 185.481 325.178 185.566C325.054 185.65 325.08 185.644 325.211 185.566C325.002 185.637 324.963 185.657 325.087 185.618C325.211 185.579 325.165 185.618 324.937 185.618H325.198C326.153 185.611 326.926 184.838 326.933 183.882C326.916 182.931 326.149 182.164 325.198 182.147L325.172 182.121Z" fill="#192939"/>
<path d="M332.675 197.812C329.634 197.604 327.931 201.727 329.986 203.835C332.042 205.942 336.243 204.056 335.976 201.081C335.952 200.133 335.189 199.37 334.24 199.346C333.285 199.353 332.512 200.126 332.505 201.081C332.505 201.368 332.44 201.355 332.538 201.133C332.381 201.486 332.701 200.872 332.538 201.179C332.74 200.84 332.538 201.133 332.479 201.225C332.655 200.99 332.564 201.146 332.4 201.225C332.055 201.453 332.714 201.107 332.329 201.225C331.944 201.342 332.675 201.225 332.277 201.225C331.879 201.225 332.655 201.277 332.277 201.225C332.472 201.323 332.518 201.336 332.407 201.27C332.296 201.205 332.329 201.231 332.498 201.342L332.603 201.499C332.505 201.329 332.505 201.355 332.603 201.571C332.551 201.394 332.603 201.179 332.603 201.571C332.648 201.212 332.466 201.897 332.603 201.518C332.648 201.401 332.818 201.114 332.603 201.447C332.661 201.342 332.896 201.075 332.603 201.362L332.688 201.264C332.812 201.16 332.818 201.146 332.688 201.264C332.557 201.381 332.59 201.342 332.727 201.264C332.518 201.342 332.472 201.362 332.596 201.323C332.72 201.283 332.675 201.283 332.446 201.323C332.533 201.313 332.62 201.313 332.707 201.323C333.664 201.316 334.439 200.544 334.449 199.587C334.432 198.632 333.662 197.862 332.707 197.845L332.675 197.812Z" fill="#192939"/>
<path d="M125.911 178.898C125.813 177.397 127.177 176.444 127.829 175.27C128.378 174.177 128.719 172.991 128.834 171.773C128.882 170.785 129.011 169.803 129.219 168.837C130.224 165.777 132.481 167.225 133.688 169.169C136.755 174.2 136.252 182.18 133.78 187.256C132.801 189.259 135.796 191.027 136.781 189.011C139.045 184.365 139.547 179.322 138.836 174.226C138.327 170.592 136.99 166.064 133.617 164.022C130.674 162.247 127.536 163.748 126.263 166.736C125.35 168.902 125.846 171.414 124.815 173.521C123.843 175.479 122.27 176.503 122.427 178.898C122.57 181.116 126.048 181.136 125.898 178.898H125.911Z" fill="#192939"/>
<path d="M280.276 308.978C279.229 327.208 284.827 345.199 296.033 359.615C297.403 361.377 299.843 358.904 298.493 357.156C287.924 343.403 282.688 326.29 283.754 308.978C283.884 306.747 280.413 306.753 280.276 308.978Z" fill="#192939"/>
<path d="M385.321 256.09C409.04 285.164 431.044 315.596 451.22 347.232C452.42 349.111 455.428 347.369 454.221 345.477C433.882 313.598 411.705 282.931 387.801 253.63C386.391 251.895 383.945 254.367 385.347 256.09H385.321Z" fill="#192939"/>
<path d="M435.998 38.3972C435.084 39.663 435.006 41.6595 436.507 42.5469C437.248 43.0009 438.18 43.0009 438.921 42.5469C439.777 42.0265 440.178 40.9972 439.9 40.0349C439.761 39.4056 439.286 38.9042 438.666 38.7313C438.045 38.5584 437.38 38.7422 436.936 39.2092C436.492 39.6763 436.342 40.3502 436.546 40.9614V40.3089L436.859 39.7674C437.083 39.5643 437.373 39.4485 437.675 39.4412C437.967 39.4491 438.249 39.5522 438.477 39.7348C438.622 39.8827 438.718 40.0719 438.751 40.2763C438.83 40.6286 438.751 40.1002 438.751 40.4133C438.751 40.7265 438.836 40.2111 438.751 40.4982C438.666 40.7852 438.751 40.4982 438.81 40.4329C438.869 40.3677 438.927 40.2567 438.986 40.1719C439.468 39.3424 439.191 38.28 438.366 37.7904C437.525 37.3403 436.479 37.6269 435.985 38.4429L435.998 38.3972Z" fill="#1A73E8"/>
<path d="M388.036 149.119C396.655 160.159 399.076 173.913 401.242 187.399L403.793 185.442L402.827 184.789C400.968 183.537 399.226 186.544 401.072 187.791L402.044 188.443C403.434 189.376 404.811 187.836 404.595 186.486C402.305 172.282 399.545 158.273 390.496 146.686C389.119 144.924 386.672 147.403 388.036 149.146V149.119Z" fill="#192939"/>
<path d="M275.056 116.444L275.232 116.562C275.017 116.392 274.984 116.366 275.128 116.483L275.356 116.692L275.572 116.921L275.709 117.077C275.545 116.862 275.513 116.829 275.624 116.979C275.859 117.364 276.228 117.648 276.661 117.775C277.342 117.962 278.068 117.719 278.498 117.158C278.928 116.598 278.976 115.833 278.619 115.224C278.135 114.521 277.522 113.916 276.811 113.443C275.983 112.966 274.926 113.242 274.436 114.063C273.977 114.895 274.249 115.942 275.056 116.444Z" fill="#192939"/>
<path d="M146 96.7988C144.577 77.0554 126.217 65.6374 108.314 62.6557C104.399 62.0032 100.028 61.553 97.0785 64.724C94.8275 67.1446 94.175 70.9093 94.971 74.0541C97.3786 83.6126 109.136 85.3612 115.993 90.4243L116.404 87.2468C110.845 88.6953 103.414 91.8793 104.712 98.9911C106.128 106.736 114.878 108.217 121.154 105.803L119.197 103.245C116.502 107.506 114.864 113.567 119.275 117.364C123.686 121.162 128.886 117.364 132.063 113.841L129.153 113.078C130.123 115.942 132.785 117.891 135.808 117.952C138.046 118.075 138.04 114.598 135.808 114.48C134.336 114.449 133.03 113.528 132.507 112.151C132.07 111.022 130.55 110.324 129.604 111.388C127.607 113.613 124.273 117.26 121.304 114.409C118.544 111.721 120.508 107.675 122.192 105C122.955 103.793 121.67 101.895 120.234 102.449C115.928 104.106 107.537 103.943 108.098 97.2294C108.457 92.9297 113.892 91.5335 117.331 90.6396C118.903 90.2286 118.884 88.3038 117.748 87.4621C112.007 83.2212 102.827 81.8249 99.1337 75.209C97.4243 72.1424 97.7701 67.0337 101.704 65.8788C105.267 64.8284 110.239 66.4791 113.723 67.4186C127.751 71.1768 141.4 81.2768 142.522 96.838C142.679 99.0563 146.156 99.0694 146 96.838V96.7988Z" fill="#1A73E8"/>
<path d="M150.802 99.7739C157.523 97.2814 164.982 97.7314 171.354 101.014L171.765 97.8361C168.564 98.8991 165.514 100.371 162.69 102.214C162.027 102.625 161.706 103.415 161.894 104.172C165.117 117.012 156.844 130.035 143.677 132.149C140.651 132.636 137.556 132.491 134.588 131.725C131.913 131.033 129.512 129.82 126.759 130.785C123.555 131.894 120.515 134.126 117.579 135.79L107.407 141.57L109.788 142.223C105.922 135.693 103.145 128.577 101.567 121.155L100.354 123.295C105.324 122.293 110.381 121.778 115.452 121.755C117.683 121.755 117.69 118.271 115.452 118.284C110.071 118.313 104.706 118.868 99.4337 119.941C98.5639 120.214 98.046 121.106 98.2397 121.997C99.8818 129.719 102.769 137.123 106.787 143.919C107.281 144.734 108.333 145.009 109.162 144.539L119.849 138.497C121.807 137.388 123.764 136.272 125.721 135.17C128.194 133.793 130.178 134.054 132.735 134.824C138.622 136.545 144.925 136.162 150.56 133.741C162.35 128.717 168.327 115.524 165.247 103.245L164.445 105.202C167.006 103.507 169.779 102.153 172.692 101.177C173.997 100.727 174.512 98.717 173.109 97.9993C165.927 94.2458 157.502 93.6686 149.875 96.4073C147.787 97.1576 148.688 100.518 150.802 99.7609V99.7739Z" fill="#1A73E8"/>
<path d="M162.833 89.2628C164.138 85.348 165.952 81.4333 169.051 78.5886C172.796 75.1697 177.429 75.2545 182.205 75.6134C186.53 75.9396 192.598 76.6051 194.138 81.5377C195.724 86.5942 189.329 88.3493 185.721 89.191C185.129 89.3624 184.67 89.832 184.513 90.428C184.355 91.024 184.521 91.6591 184.951 92.101C189.329 95.8135 186.87 103.095 180.737 102.162C180.06 102.005 179.355 102.259 178.934 102.81C178.512 103.361 178.451 104.108 178.779 104.72C179.956 107.07 179.476 109.911 177.593 111.745C175.71 113.579 172.857 113.983 170.539 112.745C168.542 111.753 166.78 114.748 168.784 115.746C177.311 119.987 185.832 111.531 181.78 102.964L179.823 105.516C188.99 106.912 194.83 95.9113 187.424 89.6412L186.661 92.5446C191.313 91.455 197.283 89.3606 197.824 83.7821C198.386 77.91 192.99 73.9431 187.835 72.8404C181.963 71.5746 174.479 70.883 169.142 74.1845C164.112 77.2902 161.313 82.9013 159.499 88.3363C158.794 90.4633 162.148 91.3767 162.846 89.2628H162.833Z" fill="#1A73E8"/>
<path d="M1.676 301.103C10.7596 301.464 19.8574 301.192 28.9031 300.288C29.4412 300.276 29.9447 300.02 30.2711 299.592C30.5974 299.164 30.7111 298.611 30.5799 298.089C29.0892 290.274 26.8316 282.625 23.84 275.253L22.6264 277.386C28.9488 274.776 35.8518 271.821 42.8527 272.623C48.6073 273.276 54.1728 276.956 55.4125 282.841C55.6604 284.035 57.0175 284.315 57.9636 283.878C60.7496 282.573 65.2059 280.733 68.1419 282.573C69.8122 283.604 70.0471 285.751 70.9606 287.336C71.5896 288.43 72.4463 289.375 73.4725 290.109C78.0397 293.371 84.5643 291.982 89.5165 290.468C90.4301 290.196 90.9658 289.251 90.7301 288.328C86.0526 272.664 80.0704 257.419 72.8462 242.754L71.3455 245.364L106.722 243.354C107.979 243.191 109.246 243.121 110.513 243.145C112.561 243.361 113.122 243.798 113.886 245.69C114.962 248.254 115.921 250.909 116.939 253.474L123.503 270.229C127.731 280.999 131.955 291.771 136.174 302.545C137.479 305.873 138.405 310.303 142.503 311.027C145.112 311.49 148.081 310.942 150.717 310.805L159.101 310.381L157.431 309.076L163.088 325.564C163.303 326.317 163.981 326.845 164.765 326.869C174.792 326.719 184.757 325.271 194.412 322.562C196.565 321.962 195.652 318.609 193.492 319.215C184.143 321.839 174.494 323.243 164.784 323.391L166.461 324.696L160.765 308.248C160.545 307.502 159.865 306.986 159.088 306.975L150.704 307.399C148.153 307.523 143.207 308.704 141.4 306.355C139.769 304.241 139.071 300.562 138.105 298.102L135.293 290.925C130.987 279.955 126.685 268.983 122.387 258.008C120.43 253.069 118.851 247.752 116.476 243.002C114.356 238.767 110.134 239.739 106.076 239.981L71.3586 241.938C70.7436 241.953 70.1811 242.288 69.8744 242.821C69.5678 243.354 69.5616 244.009 69.8579 244.548C76.9421 258.947 82.8065 273.915 87.3895 289.294L88.5835 287.069C85.406 288.041 81.8827 288.954 78.5356 288.374C73.9684 287.617 74.1576 284.009 71.6587 281.047C67.7439 276.414 60.8148 278.711 56.202 280.825L58.7531 281.869C57.4482 275.553 52.0458 271.221 45.9845 269.648C37.7048 267.501 29.2554 270.868 21.7 273.987C20.917 274.307 20.1014 275.168 20.4864 276.12C23.4806 283.492 25.7382 291.141 27.2263 298.957L28.9031 296.758C19.8585 297.678 10.761 297.971 1.676 297.632C-0.561929 297.541 -0.555404 301.018 1.676 301.103Z" fill="#1A73E8"/>
<path d="M13.1528 34.5674H43.8575C46.0954 34.5674 46.0954 31.0898 43.8575 31.0898H13.1528C10.9214 31.0898 10.9149 34.5674 13.1528 34.5674Z" fill="#1A73E8"/>
<path d="M46.0432 30.5024C43.0027 28.2058 42.2067 23.3254 44.7383 20.3828C47.1915 17.5381 51.5238 17.5577 54.4142 19.5868C56.0389 20.7221 57.944 18.1971 56.5217 16.853C53.7292 14.2432 54.2511 10.0283 56.4108 7.1379C59.3729 3.17095 64.834 2.99479 69.2511 4.08439C78.0071 6.24403 85.6344 12.9187 90.58 20.2393C90.976 20.924 91.7823 21.2576 92.5463 21.0529C93.3104 20.8481 93.8418 20.156 93.8423 19.365C94.1489 16.2593 97.0198 14.328 100.015 14.5759C102.677 14.8043 104.784 16.4485 106.285 18.569C108.399 21.5703 109.697 25.0936 113.142 26.8552C116.587 28.6168 121.037 28.2645 124.808 28.3298L141.119 28.6429C143.357 28.6886 143.357 25.211 141.119 25.1653C134.419 25.0414 127.711 24.9696 121.011 24.7869C118.101 24.7086 115.08 24.6629 112.927 22.4054C111.054 20.4481 110.102 17.773 108.412 15.6655C103.107 9.04308 91.3042 9.65639 90.3386 19.365L93.6009 18.4842C87.2329 9.0496 75.6061 -0.854715 63.4377 0.0587265C58.59 0.424103 54.3033 2.94259 52.2611 7.4576C50.4473 11.4833 50.767 16.194 54.0815 19.3128L56.1889 16.5855C51.6217 13.395 44.7774 14.2432 41.5151 18.9083C38.1811 23.6842 39.8448 30.1436 44.2881 33.5037C46.0693 34.8543 47.8048 31.84 46.0432 30.5024Z" fill="#1A73E8"/>
<path d="M237.709 39.6043H259.749C261.981 39.6043 261.987 36.1267 259.749 36.1267H237.709C235.471 36.1267 235.471 39.6043 237.709 39.6043Z" fill="#1A73E8"/>
<path d="M261.929 36.0483C257.107 32.2249 261.929 25.3023 267.103 28.7799C268.76 29.8891 270.606 27.4163 269.21 26.0526C267.253 24.1279 267.833 21.0417 269.641 19.1757C271.95 16.7812 275.728 17.0487 278.651 17.9295C284.523 19.6977 289.488 24.0953 292.888 29.08C293.919 30.5872 295.909 29.8891 296.15 28.1992C296.568 24.9695 300.326 24.7542 302.498 26.2418C303.836 27.1357 304.547 28.5059 305.363 29.8434C306.615 31.9117 308.012 33.6407 310.354 34.4628C312.996 35.3828 316.043 35.1153 318.79 35.1675L329.621 35.3697C331.859 35.4154 331.859 31.9378 329.621 31.8987C324.806 31.8073 319.991 31.7747 315.182 31.6181C312.527 31.5333 310.445 31.2201 308.86 28.8973C307.875 27.4554 307.17 25.8634 305.943 24.5976C301.461 19.9652 293.547 21.4006 292.679 28.2188L295.941 27.3445C291.152 20.324 282.24 12.6837 273.105 13.9626C266.528 14.8825 261.361 23.1557 266.822 28.532L268.929 25.7982C265.465 23.4819 260.447 23.9909 257.838 27.4685C255.228 30.9461 256.239 35.9504 259.514 38.5211C261.25 39.8978 263.723 37.4576 261.974 36.0679L261.929 36.0483Z" fill="#1A73E8"/>
<path d="M48.9467 227.427C39.6275 218.316 31.5639 208.003 24.9688 196.762C18.9466 186.473 11.4042 173.626 17.6222 161.803C22.8418 151.834 34.4752 146.503 45.2799 150.32C57.5069 154.633 63.353 166.475 62.1459 178.911C60.6061 194.72 53.1224 209.759 46.4869 223.93C45.5409 225.946 48.5356 227.714 49.4882 225.685C59.6013 204.05 80.1538 163.819 49.9515 148.552C39.5081 143.155 26.742 145.442 18.8227 154.13C14.9518 158.224 12.4977 163.452 11.8218 169.045C11.078 175.916 13.7139 182.493 16.65 188.56C24.1485 203.932 34.2396 217.897 46.4804 229.841C48.0789 231.407 50.5387 228.954 48.9402 227.382L48.9467 227.427Z" fill="#1A73E8"/>
<path d="M39.6489 163.624C34.9328 163.469 30.7504 166.632 29.6141 171.212C28.5832 175.544 31.2191 179.772 35.1535 181.527C43.7007 185.344 51.4649 175.25 46.5911 167.649C45.384 165.77 42.3762 167.512 43.5898 169.404C46.4475 173.861 42.6959 180.437 37.1761 178.604C30.3057 176.327 32.7459 166.794 39.6489 167.101C41.8803 167.199 41.8803 163.721 39.6489 163.624Z" fill="#1A73E8"/>
<path d="M48.8815 241.266H49.958C50.6046 241.306 51.2199 240.983 51.5552 240.429C51.8905 239.875 51.8905 239.18 51.5552 238.626C51.2199 238.071 50.6046 237.749 49.958 237.789H48.8684C47.9494 237.845 47.2329 238.607 47.2329 239.527C47.2329 240.448 47.9494 241.21 48.8684 241.266H48.8815Z" fill="#1A73E8"/>
<path d="M48.9333 252.521C49.2788 253.578 50.2647 254.293 51.3768 254.293C52.4888 254.293 53.4747 253.578 53.8202 252.521C54.0708 251.596 53.5295 250.641 52.6066 250.381C51.6853 250.149 50.7448 250.684 50.4731 251.594C50.5055 251.435 50.5824 251.288 50.6949 251.17C50.8124 251.031 50.832 251.005 50.7537 251.092C50.7537 251.092 51.1451 250.818 50.9559 250.929C51.4387 250.648 51.2952 250.818 51.1321 250.838C51.1712 250.838 51.641 250.838 51.3735 250.798C51.106 250.759 51.8759 250.903 51.6084 250.798C51.3409 250.694 51.9868 250.994 51.8172 250.896C51.6475 250.798 51.9738 251.014 51.9999 251.04L52.1891 251.294C52.1043 251.151 52.1369 251.229 52.2869 251.536C52.1484 250.906 51.6738 250.405 51.0531 250.232C50.4324 250.059 49.7669 250.243 49.3229 250.71C48.879 251.177 48.7291 251.851 48.9333 252.462V252.521Z" fill="#1A73E8"/>
<path d="M180.378 15.2023L186.791 33.5364C187.75 36.2963 188.462 39.4085 189.812 42.0183C190.465 43.245 191.345 44.4977 192.774 44.85C194.203 45.2023 195.299 44.5499 196.265 43.6691C198.496 41.6269 200.251 38.5994 202.137 36.218L213.34 21.8639C215.415 19.2019 219.597 15.4372 216.987 11.8356C214.632 8.57331 209.301 8.67771 205.784 8.24708C199.853 7.51633 193.662 6.47892 187.685 6.47892C184.384 6.47892 180.939 8.39062 181.97 12.1814C182.557 14.3345 185.884 13.4211 185.323 11.2549C184.756 9.18662 194.869 10.5437 195.991 10.6481C199.875 11.0179 203.751 11.4528 207.618 11.953C209.112 12.1488 211.121 12.1096 212.511 12.8339C215.415 14.3606 213 16.6964 211.65 18.4189L204.316 27.8078L197.361 36.7008C196.545 37.7513 195.214 40.4524 194.047 40.9222C192.702 41.4637 192.259 38.6321 191.867 37.5098L183.712 14.2758C182.981 12.1814 179.621 13.0818 180.358 15.2023H180.378Z" fill="#1A73E8"/>
<path d="M321.824 53.8344C353.429 52.4915 384.933 49.3766 416.189 44.5042C418.388 44.1584 417.455 40.8113 415.263 41.1506C384.314 45.9688 353.118 49.0423 321.824 50.3568C319.593 50.4546 319.58 53.9322 321.824 53.8344Z" fill="#1A73E8"/>
<path d="M421.86 42.3968C424.098 42.3968 424.104 38.9192 421.86 38.9192C419.615 38.9192 419.622 42.3968 421.86 42.3968Z" fill="#1A73E8"/>
<path d="M425.624 57.4946C402.855 83.7123 378.25 108.276 351.994 131.001C350.297 132.469 352.764 134.915 354.454 133.46C380.708 110.734 405.313 86.1705 428.083 59.9544C429.545 58.271 427.098 55.7982 425.624 57.4946Z" fill="#1A73E8"/>
<path d="M286.826 111.583H290.539V115.296H286.826V111.583Z" fill="#BAD5F8"/>
<path d="M299.51 323.248L300.658 322.458C301.194 322.145 301.523 321.569 301.519 320.948C301.516 320.327 301.181 319.755 300.642 319.447C300.102 319.14 299.439 319.143 298.903 319.457L297.755 320.246C297.219 320.56 296.891 321.136 296.894 321.757C296.898 322.378 297.232 322.95 297.772 323.257C298.311 323.565 298.974 323.561 299.51 323.248Z" fill="#BAD5F8"/>
<path d="M311.802 319.287C314.04 319.287 314.04 315.816 311.802 315.816C309.565 315.816 309.565 319.287 311.802 319.287Z" fill="#BAD5F8"/>
<path d="M310.811 332.134C310.875 332.424 310.826 332.727 310.674 332.982L310.498 333.198C310.25 333.367 310.197 333.406 310.361 333.328C310.758 333.095 311.046 332.714 311.162 332.269C311.279 331.824 311.213 331.35 310.98 330.953C310.489 330.138 309.445 329.851 308.605 330.301C307.627 330.828 307.149 331.967 307.457 333.034C307.596 333.664 308.07 334.165 308.691 334.338C309.312 334.511 309.977 334.327 310.421 333.86C310.865 333.393 311.015 332.719 310.811 332.108V332.134Z" fill="#BAD5F8"/>
<path d="M326.672 330.679V330.294C326.615 329.375 325.854 328.659 324.933 328.659C324.012 328.659 323.251 329.375 323.194 330.294V330.679C323.155 331.326 323.477 331.941 324.031 332.276C324.586 332.611 325.28 332.611 325.835 332.276C326.389 331.941 326.711 331.326 326.672 330.679Z" fill="#BAD5F8"/>
<path d="M326.861 314.27C329.099 314.27 329.106 310.792 326.861 310.792C324.617 310.792 324.623 314.27 326.861 314.27Z" fill="#BAD5F8"/>
<path d="M340.576 304.418V305.194C340.576 306.152 341.353 306.93 342.311 306.93C343.27 306.93 344.047 306.152 344.047 305.194V304.418C344.047 303.459 343.27 302.682 342.311 302.682C341.353 302.682 340.576 303.459 340.576 304.418Z" fill="#BAD5F8"/>
<path d="M339.74 323.809L340.125 321.851C340.324 320.947 339.781 320.044 338.888 319.798C337.995 319.551 337.065 320.046 336.772 320.925L336.387 322.882C336.183 323.493 336.332 324.167 336.776 324.634C337.22 325.101 337.886 325.285 338.506 325.112C339.127 324.939 339.602 324.438 339.74 323.809Z" fill="#BAD5F8"/>
<path d="M317.211 307.295C319.443 307.295 319.449 303.824 317.211 303.824C314.973 303.824 314.967 307.295 317.211 307.295Z" fill="#BAD5F8"/>
<path d="M301.376 311.569C303.614 311.569 303.614 308.091 301.376 308.091C299.138 308.091 299.132 311.569 301.376 311.569Z" fill="#BAD5F8"/>
<path d="M290.173 316.586C292.411 316.586 292.418 313.108 290.173 313.108C287.929 313.108 287.935 316.586 290.173 316.586Z" fill="#BAD5F8"/>
<path d="M292.881 335.122C295.112 335.122 295.119 331.645 292.881 331.645C290.643 331.645 290.636 335.122 292.881 335.122Z" fill="#BAD5F8"/>
<path d="M299.06 344.394C301.291 344.394 301.298 340.916 299.06 340.916C296.822 340.916 296.815 344.394 299.06 344.394Z" fill="#BAD5F8"/>
<path d="M320.682 344.002C322.92 344.002 322.926 340.531 320.682 340.531C318.437 340.531 318.444 344.002 320.682 344.002Z" fill="#BAD5F8"/>
<path d="M319.142 353.659C321.374 353.659 321.38 350.188 319.142 350.188C316.904 350.188 316.898 353.659 319.142 353.659Z" fill="#BAD5F8"/>
<path d="M310.288 348.256H310.673C311.32 348.296 311.935 347.973 312.27 347.419C312.606 346.865 312.606 346.17 312.27 345.616C311.935 345.061 311.32 344.739 310.673 344.779H310.288C309.369 344.835 308.653 345.597 308.653 346.517C308.653 347.438 309.369 348.2 310.288 348.256Z" fill="#BAD5F8"/>
<path d="M345.397 345.138C347.635 345.138 347.642 341.66 345.397 341.66C343.153 341.66 343.159 345.138 345.397 345.138Z" fill="#BAD5F8"/>
<path d="M336.903 342.847C339.141 342.847 339.147 339.37 336.903 339.37C334.658 339.37 334.665 342.847 336.903 342.847Z" fill="#BAD5F8"/>
<path d="M354.656 324.311C356.894 324.311 356.894 320.833 354.656 320.833C352.418 320.833 352.418 324.311 354.656 324.311Z" fill="#BAD5F8"/>
<path d="M350.206 332.31L350.591 330.77C350.79 329.866 350.246 328.963 349.354 328.717C348.461 328.47 347.531 328.965 347.237 329.844L346.852 331.39C346.598 332.316 347.143 333.273 348.069 333.527C348.995 333.781 349.952 333.236 350.206 332.31Z" fill="#BAD5F8"/>
<path d="M359.758 306.036L360.534 305.266C361.15 304.577 361.12 303.527 360.467 302.873C359.813 302.22 358.763 302.19 358.074 302.806L357.304 303.576C356.625 304.253 356.624 305.353 357.301 306.032C357.979 306.712 359.078 306.713 359.758 306.036Z" fill="#BAD5F8"/>
<path d="M331.592 302.428L332.753 301.658C333.575 301.168 333.863 300.117 333.405 299.276C332.925 298.447 331.867 298.156 331.031 298.624L329.863 299.426C329.034 299.911 328.755 300.976 329.24 301.805C329.724 302.633 330.789 302.912 331.618 302.428H331.592Z" fill="#BAD5F8"/>
<path d="M355.961 293.176L356.731 292.791C357.564 292.312 357.855 291.252 357.383 290.416C356.894 289.594 355.842 289.306 355.002 289.763L354.232 290.148C353.398 290.629 353.107 291.691 353.58 292.53C354.072 293.349 355.12 293.636 355.961 293.182V293.176Z" fill="#BAD5F8"/>
<path d="M370.432 283.637L370.817 284.022C371.506 284.637 372.556 284.608 373.21 283.954C373.863 283.301 373.893 282.251 373.277 281.562L372.925 281.197C372.236 280.581 371.186 280.61 370.532 281.264C369.879 281.917 369.849 282.967 370.465 283.656L370.432 283.637Z" fill="#BAD5F8"/>
<path d="M373.577 303.843C375.815 303.843 375.822 300.366 373.577 300.366C371.333 300.366 371.339 303.843 373.577 303.843Z" fill="#BAD5F8"/>
<path d="M368.958 320.064C371.196 320.064 371.196 316.586 368.958 316.586C366.72 316.586 366.72 320.064 368.958 320.064Z" fill="#BAD5F8"/>
<path d="M368.573 341.301H368.958C369.877 341.245 370.593 340.483 370.593 339.562C370.593 338.641 369.877 337.88 368.958 337.823H368.573C367.654 337.88 366.938 338.641 366.938 339.562C366.938 340.483 367.654 341.245 368.573 341.301Z" fill="#BAD5F8"/>
<path d="M358.844 335.246L358.459 335.631C357.978 336.061 357.774 336.723 357.929 337.349C358.085 337.976 358.574 338.466 359.201 338.621C359.828 338.776 360.489 338.572 360.919 338.091L361.304 337.706C361.786 337.276 361.99 336.614 361.834 335.988C361.679 335.361 361.189 334.872 360.563 334.716C359.936 334.561 359.275 334.765 358.844 335.246Z" fill="#BAD5F8"/>
<path d="M358.917 347.48C361.155 347.48 361.155 344.002 358.917 344.002C356.679 344.002 356.679 347.48 358.917 347.48Z" fill="#BAD5F8"/>
<path d="M330.41 352.765L330.795 352.38C331.462 351.695 331.462 350.604 330.795 349.92C330.108 349.26 329.022 349.26 328.335 349.92L327.95 350.305C327.469 350.735 327.265 351.396 327.42 352.023C327.576 352.65 328.065 353.139 328.692 353.295C329.319 353.45 329.98 353.246 330.41 352.765Z" fill="#BAD5F8"/>
<path d="M344.217 353.274H344.986C345.633 353.313 346.248 352.991 346.584 352.437C346.919 351.882 346.919 351.188 346.584 350.633C346.248 350.079 345.633 349.757 344.986 349.796H344.217C343.298 349.853 342.581 350.614 342.581 351.535C342.581 352.456 343.298 353.217 344.217 353.274Z" fill="#BAD5F8"/>
<path d="M362.518 356.171L363.288 355.779C364.122 355.298 364.413 354.236 363.941 353.398C363.44 352.588 362.391 352.315 361.559 352.778L360.789 353.169C359.957 353.647 359.665 354.708 360.137 355.544C360.626 356.362 361.673 356.65 362.512 356.197L362.518 356.171Z" fill="#BAD5F8"/>
<path d="M382.953 355.107L383.723 354.331C384.402 353.653 384.404 352.553 383.726 351.874C383.049 351.195 381.949 351.194 381.27 351.871L380.5 352.647C380.06 353.086 379.888 353.725 380.048 354.325C380.208 354.924 380.675 355.393 381.275 355.555C381.874 355.716 382.514 355.545 382.953 355.107Z" fill="#BAD5F8"/>
<path d="M389.621 333.002V332.61C389.565 331.691 388.803 330.975 387.882 330.975C386.962 330.975 386.2 331.691 386.144 332.61V333.002C386.2 333.921 386.962 334.637 387.882 334.637C388.803 334.637 389.565 333.921 389.621 333.002Z" fill="#BAD5F8"/>
<path d="M384.447 319.143L384.839 317.982C385.085 317.059 384.545 316.109 383.625 315.849C382.702 315.613 381.757 316.149 381.485 317.062L381.1 318.217C380.85 319.142 381.391 320.097 382.314 320.357C383.235 320.585 384.173 320.052 384.447 319.143Z" fill="#BAD5F8"/>
<path d="M388.845 300.17V299.785C388.845 298.827 388.068 298.05 387.109 298.05C386.151 298.05 385.374 298.827 385.374 299.785V300.17C385.374 301.129 386.151 301.906 387.109 301.906C388.068 301.906 388.845 301.129 388.845 300.17Z" fill="#BAD5F8"/>
<path d="M384.212 280.864V280.087C384.156 279.168 383.394 278.452 382.474 278.452C381.553 278.452 380.791 279.168 380.735 280.087V280.864C380.791 281.783 381.553 282.499 382.474 282.499C383.394 282.499 384.156 281.783 384.212 280.864Z" fill="#BAD5F8"/>
<path d="M382.477 269.087H383.246C384.165 269.031 384.882 268.269 384.882 267.348C384.882 266.427 384.165 265.666 383.246 265.609H382.477C381.83 265.57 381.215 265.892 380.879 266.447C380.544 267.001 380.544 267.695 380.879 268.25C381.215 268.804 381.83 269.127 382.477 269.087Z" fill="#BAD5F8"/>
<path d="M396.765 286.077C399.003 286.077 399.003 282.599 396.765 282.599C394.527 282.599 394.521 286.077 396.765 286.077Z" fill="#BAD5F8"/>
<path d="M402.56 299.981H402.168C401.214 299.991 400.443 300.762 400.433 301.716C400.45 302.669 401.216 303.438 402.168 303.459H402.56C403.479 303.402 404.195 302.64 404.195 301.72C404.195 300.799 403.479 300.037 402.56 299.981Z" fill="#BAD5F8"/>
<path d="M397.535 318.517C399.773 318.517 399.78 315.04 397.535 315.04C395.291 315.04 395.297 318.517 397.535 318.517Z" fill="#BAD5F8"/>
<path d="M411.635 314.074V314.472C411.635 315.431 412.412 316.208 413.37 316.208C414.329 316.208 415.106 315.431 415.106 314.472V314.087C415.106 313.129 414.329 312.352 413.37 312.352C412.412 312.352 411.635 313.129 411.635 314.087L411.635 314.074Z" fill="#BAD5F8"/>
<path d="M402.116 330.783L403.277 331.162C404.2 331.408 405.151 330.868 405.411 329.948C405.646 329.025 405.111 328.08 404.197 327.808L403.036 327.43C402.112 327.183 401.162 327.724 400.902 328.643C400.666 329.567 401.202 330.512 402.116 330.783Z" fill="#BAD5F8"/>
<path d="M419.745 326.823V327.208C419.745 328.167 420.522 328.944 421.48 328.944C422.439 328.944 423.216 328.167 423.216 327.208V326.823C423.216 325.865 422.439 325.088 421.48 325.088C420.522 325.088 419.745 325.865 419.745 326.823H419.745Z" fill="#BAD5F8"/>
<path d="M408.738 345.549C410.97 345.549 410.976 342.077 408.738 342.077C406.501 342.077 406.494 345.549 408.738 345.549Z" fill="#BAD5F8"/>
<path d="M398.886 342.267V341.875C398.886 340.917 398.109 340.14 397.15 340.14C396.192 340.14 395.415 340.917 395.415 341.875V342.26C395.415 343.219 396.192 343.996 397.15 343.996C398.109 343.996 398.886 343.219 398.886 342.26V342.267Z" fill="#BAD5F8"/>
<path d="M382.477 343.232C384.715 343.232 384.715 339.755 382.477 339.755C380.239 339.755 380.232 343.232 382.477 343.232Z" fill="#BAD5F8"/>
<path d="M373.688 326.621L374.882 326.216C375.48 326.051 375.944 325.579 376.1 324.978C376.256 324.378 376.079 323.74 375.637 323.305C375.195 322.87 374.554 322.703 373.956 322.869L372.794 323.241C371.916 323.534 371.421 324.464 371.667 325.357C371.914 326.25 372.816 326.794 373.721 326.595L373.688 326.621Z" fill="#BAD5F8"/>
<path d="M427.079 344.968V345.359C427.135 346.278 427.897 346.995 428.817 346.995C429.738 346.995 430.5 346.278 430.556 345.359V344.968C430.5 344.049 429.738 343.332 428.817 343.332C427.897 343.332 427.135 344.049 427.079 344.968H427.079Z" fill="#BAD5F8"/>
<path d="M416.568 354.97L417.338 354.578C418.162 354.092 418.438 353.031 417.958 352.204C417.468 351.386 416.421 351.098 415.583 351.551L414.813 351.943C413.98 352.421 413.689 353.481 414.16 354.318C414.652 355.136 415.701 355.424 416.542 354.97H416.568Z" fill="#BAD5F8"/>
<path d="M420.391 341.223L421.546 340.831C422.175 340.693 422.677 340.218 422.85 339.597C423.022 338.977 422.839 338.311 422.372 337.867C421.905 337.423 421.231 337.273 420.619 337.478L419.465 337.876C418.54 338.131 417.998 339.088 418.254 340.012C418.51 340.937 419.467 341.478 420.391 341.223Z" fill="#BAD5F8"/>
<path d="M436.931 339.37H438.888C439.842 339.359 440.613 338.588 440.624 337.634C440.606 336.682 439.84 335.913 438.888 335.892H436.931C436.284 335.853 435.669 336.175 435.334 336.73C434.998 337.284 434.998 337.978 435.334 338.533C435.669 339.087 436.284 339.41 436.931 339.37Z" fill="#BAD5F8"/>
<path d="M439.632 354.82H440.781C441.427 354.86 442.042 354.537 442.378 353.983C442.713 353.428 442.713 352.734 442.378 352.18C442.042 351.625 441.427 351.303 440.781 351.342H439.626C438.707 351.399 437.99 352.16 437.99 353.081C437.99 354.002 438.707 354.764 439.626 354.82H439.632Z" fill="#BAD5F8"/>
<path d="M451.99 355.205C454.228 355.205 454.228 351.727 451.99 351.727C449.752 351.727 449.752 355.205 451.99 355.205Z" fill="#BAD5F8"/>
<path d="M158.266 180.105L172.789 189.891C174.649 191.144 176.391 188.13 174.544 186.89L160.021 177.103C158.161 175.85 156.419 178.858 158.266 180.105Z" fill="#1A73E8"/>
<path d="M167.642 171.199C172.464 173.676 176.81 176.99 180.475 180.985C181.989 182.636 184.442 180.176 182.929 178.526C179.063 174.303 174.482 170.795 169.397 168.165C167.439 167.14 165.652 170.122 167.642 171.166V171.199Z" fill="#1A73E8"/>
<path d="M346.174 73.669L342.168 78.3406C341.511 79.0289 341.511 80.1121 342.168 80.8004C342.847 81.4738 343.942 81.4738 344.621 80.8004L348.627 76.1223C349.286 75.4375 349.286 74.3538 348.627 73.669C347.948 72.9956 346.853 72.9956 346.174 73.669Z" fill="#1A73E8"/>
<path d="M347.981 89.974C349.711 90.096 351.414 89.4906 352.679 88.3037C353.295 87.6146 353.265 86.5645 352.612 85.9111C351.958 85.2576 350.908 85.2281 350.219 85.8439C349.606 86.3804 348.787 86.6191 347.981 86.4963C347.024 86.4999 346.249 87.2749 346.246 88.2319C346.26 89.1845 347.028 89.9534 347.981 89.9674V89.974Z" fill="#1A73E8"/>
<path d="M348.666 99.8131C351.185 100.594 353.906 99.5058 355.191 97.2032C356.261 95.2459 353.234 93.4777 352.19 95.4481C351.703 96.3998 350.577 96.8306 349.58 96.4464C347.453 95.7417 346.539 99.0954 348.653 99.8L348.666 99.8131Z" fill="#1A73E8"/>
</svg>
