<svg width="449" height="432" viewBox="0 0 449 432" fill="none" xmlns="http://www.w3.org/2000/svg">
<path d="M179.403 79.5653C179.403 79.5653 183.926 92.7758 186.373 97.3271C188.821 101.879 194.911 116.556 197.773 114.502C200.636 112.448 206.926 99.152 207.713 96.1249C208.5 93.0978 204.435 91.7381 202.654 90.6861C200.872 89.6342 199.791 82.2275 201.287 79.5367C202.782 76.846 209.366 76.023 209.008 72.0727C208.651 68.1225 208.708 64.1436 216.394 62.6694C224.079 61.1952 242.156 48.8722 239.802 54.5113C237.447 60.1504 238.478 64.2009 241.412 66.6769C244.346 69.153 250.558 66.3191 252.239 59.7425C253.921 53.1659 253.806 37.0787 248.976 37.1645C244.146 37.2504 221.603 31.3036 216.315 34.2376C211.026 37.1717 204.428 39.6549 203.591 44.7859C202.754 49.917 206.096 59.535 200.249 55.3486C194.402 51.1622 195.784 52.1354 192.606 54.5614C189.429 56.9873 181.564 63.75 180.441 70.2049C179.797 73.6513 179.416 77.1418 179.303 80.6459" fill="#1A73E8"/>
<path d="M387.727 216.264L401.61 196.327C403.342 193.836 405.188 190.809 404.115 187.961C402.891 184.626 398.655 183.782 395.127 183.41C371.221 180.888 347.513 176.751 324.165 171.029C319.048 180.082 313.152 191.317 311.949 196.928C309.752 207.211 312.007 219.055 313.116 223.721C314.225 228.387 318.898 231.593 311.949 233.589C305.001 235.586 253.526 250.671 249.375 250.957C245.225 251.244 174.234 238.04 174.234 238.04L136.714 230.562C136.206 230.462 131.891 233.84 133.759 222.526L134.174 221.052C134.174 221.052 139.477 198.724 131.311 187.94C128.743 184.413 126.416 180.717 124.348 176.876L66.6975 190.351C72.8447 202.123 84.2661 218.468 92.6031 228.802V229.961C85.225 244.381 71.4707 258.006 64.0926 272.419C63.2673 273.781 62.7518 275.308 62.5826 276.892C62.3679 284.141 73.5961 284.005 79.5358 288.156C85.4755 292.306 85.5828 300.693 85.1821 307.821C83.8701 330.893 82.5629 353.962 81.2604 377.029C136.306 400.316 193.563 417.984 252.159 429.764C256.209 430.579 260.324 431.367 264.439 430.987C268.683 430.601 272.712 428.984 276.669 427.409L389.022 381.974C391.047 381.151 393.151 380.285 394.618 378.654C396.765 376.271 397.095 372.807 397.309 369.601L401.603 307.062C401.896 302.769 402.226 298.346 404.251 294.553C406.047 291.176 409.031 288.607 411.951 286.123L436.132 265.535C421.398 247.791 405.207 231.31 387.727 216.264Z" fill="#BAD5F8"/>
<path d="M119.24 166.27L66.2409 178.651C65.71 178.805 65.2787 179.193 65.0695 179.704C64.8604 180.216 64.8965 180.795 65.1674 181.277C71.6081 193.521 79.6732 205.028 88.1175 215.978C88.8332 216.886 90.3431 218.239 90.751 219.341C90.6151 218.976 90.8584 219.341 90.8298 219.656C90.7797 220.228 89.9996 221.087 89.6919 221.617C87.7931 224.929 85.7295 228.143 83.5089 231.249C78.9504 237.69 73.9839 243.837 69.4683 250.313C67.3845 253.258 65.4545 256.308 63.6861 259.452C62.2548 262.092 60.523 264.948 60.9166 268.082C61.4319 272.197 65.2104 274.186 68.6812 275.539C74.4062 277.743 80.4317 278.809 82.5357 285.443C84.7469 292.385 83.2513 300.593 82.872 307.699C81.7509 327.474 80.6297 347.247 79.5086 367.017C79.4978 367.657 79.8385 368.25 80.3959 368.563C135.821 391.978 193.887 410.434 253.055 421.748C260.004 423.072 266.251 423.18 272.971 420.725C280.184 418.127 287.24 415 294.346 412.138L339.302 393.961L383.592 376.07C388.83 373.923 395.607 372.42 397.905 366.617C398.871 364.162 399.007 361.464 399.193 358.859C399.469 354.828 399.744 350.801 400.016 346.779C401.225 329.053 401.826 311.17 403.694 293.508C404.145 289.25 405.297 285.329 408.181 282.058C410.922 278.974 414.314 276.426 417.441 273.757L437.421 256.754C438.103 256.047 438.103 254.927 437.421 254.221C422.651 236.52 406.452 220.063 388.988 205.014L389.267 207.161L398.663 193.671C401.204 190.029 404.889 186.093 405.962 181.67C407.852 173.927 399.436 172.088 393.74 171.466C372.188 169.111 350.798 165.464 329.684 160.545C327.451 160.03 326.492 163.472 328.739 163.995C346.081 168.04 363.59 171.234 381.266 173.577C385.639 174.156 390.026 174.643 394.405 175.144C398.499 175.616 404.481 176.811 401.869 182.458C400.023 186.444 396.86 190.058 394.319 193.657L386.218 205.386C385.819 206.083 385.933 206.961 386.497 207.533C403.943 222.593 420.125 239.057 434.881 256.761V254.228L417.527 268.998C412.668 273.142 406.735 277.128 403.286 282.595C400.087 287.697 400.03 294.045 399.629 299.834C399.095 307.659 398.561 315.476 398.026 323.286C397.492 331.095 396.958 338.915 396.423 346.744L395.708 357.399C395.443 361.221 395.593 365.987 392.129 368.441C389.21 370.502 385.302 371.519 382.003 372.857L370.761 377.394L348.949 386.218L306.011 403.593L284.142 412.445C277.501 415.129 270.373 419.022 263.081 419.279C255.488 419.551 247.502 417.018 240.124 415.422C232.881 413.862 225.661 412.209 218.462 410.463C204.278 407.014 190.185 403.223 176.182 399.092C144.242 389.65 112.858 378.421 82.1779 365.457L83.0581 366.996C84.0743 349.105 85.0881 331.215 86.0995 313.324C86.5289 305.731 87.6023 297.867 86.9797 290.267C86.5575 285.028 84.9616 279.718 80.4532 276.584C76.2883 273.678 70.8567 273.435 66.6774 270.658C63.314 268.426 64.5305 265.442 66.1908 262.257C68.0993 258.746 70.2166 255.353 72.5312 252.095C77.0468 245.619 82.0133 239.471 86.5718 233.031C88.6686 230.068 90.6866 227.055 92.49 223.907C93.4561 222.218 95.0305 220.185 94.2505 218.11C93.7781 216.865 92.2324 215.477 91.4237 214.432C90.1929 212.85 88.9834 211.247 87.7955 209.637C85.3767 206.374 83.0175 203.063 80.718 199.704C76.1826 193.196 72.0228 186.435 68.2589 179.452L67.1855 182.078L120.185 169.691C122.425 169.161 121.48 165.719 119.24 166.242V166.27Z" fill="#1A73E8"/>
<path d="M110.045 227.055L216.007 248.188C224.108 249.798 232.281 251.895 240.503 252.775C249.091 253.691 257.113 251.344 265.242 248.989L316.374 234.169L375.005 217.18C377.209 216.543 376.271 213.094 374.053 213.738L273.15 242.971C264.562 245.461 255.603 248.982 246.593 249.412C238.099 249.819 229.418 247.215 221.131 245.569L169.549 235.278L110.989 223.606C108.742 223.155 107.783 226.605 110.037 227.048L110.045 227.055Z" fill="#192939"/>
<path d="M78.6857 279.439L156.853 309.102L176.225 316.459C181.95 318.605 187.84 321.468 194.023 321.983C205.652 322.999 211.678 312.68 217.123 304.186C225.401 291.261 233.676 278.332 241.948 265.399C243.194 263.459 240.102 261.663 238.864 263.595L218.175 295.92C212.558 304.701 206.224 319.808 193.622 318.348C187.504 317.632 181.55 314.67 175.839 312.501L157.133 305.402L121.058 291.712L79.6304 275.969C77.4835 275.153 76.5532 278.602 78.6857 279.411V279.439Z" fill="#1A73E8"/>
<path d="M258.672 268.082C268.032 282.5 277.753 296.676 287.834 310.612C293.745 318.827 297.309 330.907 308.93 331.802C322.42 332.839 335.28 324.867 346.658 318.706C360.391 311.27 373.723 303.091 386.733 294.468C400.96 285.045 414.795 275.074 428.239 264.554C430.057 263.123 427.524 260.626 425.713 262.028C402.844 280.005 378.71 296.314 353.5 310.827C347.503 314.247 341.427 317.546 335.265 320.659C329.426 323.608 323.637 326.456 317.16 327.687C311.049 328.846 304.923 328.939 300.701 323.88C297.294 319.829 295.147 314.899 292.185 310.54C282.102 295.741 271.546 281.321 261.785 266.293C260.54 264.375 257.441 266.165 258.701 268.097L258.672 268.082Z" fill="#1A73E8"/>
<path d="M78.7568 76.352C85.5695 102.708 95.9388 128.013 109.579 151.571C122.424 173.691 142.319 200.377 130.146 227.091C129.201 229.167 132.293 230.984 133.23 228.895C141.982 209.694 135.134 188.82 125.487 171.387C120.156 161.769 114.087 152.588 108.82 142.927C103.362 132.922 98.4945 122.607 94.2429 112.033C89.4503 100.088 85.4297 87.8467 82.2061 75.3859C81.6265 73.1603 78.1771 74.1049 78.7568 76.3377V76.352Z" fill="#192939"/>
<path d="M360.821 74.4915C357.959 88.5106 355.096 102.608 350.158 116.069C345.221 129.53 338.215 142.054 331.552 154.713C325.312 166.6 317.955 178.45 313.561 191.21C309.24 203.986 309.045 217.798 313.003 230.691C313.669 232.888 317.118 231.95 316.452 229.739C312.318 216.163 313.016 201.574 318.428 188.455C323.609 175.781 330.851 163.794 337.206 151.686C343.353 139.985 349.607 128.278 354.059 115.797C358.724 102.709 361.501 89.0616 364.27 75.479C364.728 73.232 361.279 72.273 360.821 74.5272V74.4915Z" fill="#192939"/>
<path d="M75.001 67.9362C91.2218 61.8868 107.681 56.6389 124.379 52.1925L122.354 51.3695C139.364 90.915 158.264 133.352 196.85 156.323C198.833 157.504 200.629 154.412 198.654 153.239C160.647 130.582 142.191 88.4818 125.474 49.5304C125.065 48.8307 124.237 48.493 123.456 48.7074C106.758 53.1824 90.2986 58.4303 74.0778 64.4511C71.9309 65.2455 72.8684 68.702 75.0296 67.9004L75.001 67.9362Z" fill="#192939"/>
<path d="M368.707 66.7984L325.884 49.881C324.935 49.6285 323.958 50.1821 323.687 51.1262C312.904 88.3961 291.523 121.729 262.143 147.07C260.397 148.573 262.937 151.092 264.669 149.596C294.497 123.819 316.196 89.9331 327.129 52.0565L324.932 53.3017L367.755 70.219C369.902 71.0706 370.825 67.6142 368.707 66.7769V66.7984Z" fill="#192939"/>
<path d="M194.853 153.26C200.66 167.057 214.733 175.505 229.64 174.142C237.176 173.427 243.752 170.106 249.613 165.412C255.474 160.717 261.435 155.078 263.761 147.621C264.477 145.424 260.999 144.48 260.312 146.669C258.301 153.11 253.084 157.955 248.003 162.141C242.342 166.8 235.88 170.156 228.452 170.671C215.099 171.602 203.09 163.673 197.938 151.478C197.05 149.367 193.966 151.185 194.853 153.282V153.26Z" fill="#192939"/>
<path d="M236.18 64.1865L244.266 71.9224C246.885 74.4271 250.07 77.0606 251.193 80.6388C251.874 82.5409 251.647 84.6496 250.578 86.3638C249.862 87.4945 248.703 88.2745 247.944 89.3837C246.399 91.6522 246.764 94.114 247.1 96.6974C249.089 112.093 251.108 127.479 253.154 142.855C253.448 145.109 257.026 145.138 256.732 142.855L253.433 117.68L251.78 105.092C251.308 101.456 249.898 96.9407 250.349 93.2839C250.7 90.3283 254.063 88.6251 254.857 85.6982C255.479 83.1246 255.186 80.4147 254.027 78.0339C252.711 75.1714 250.449 72.9172 248.252 70.7631C245.096 67.7146 241.905 64.6946 238.734 61.6604C237.074 60.0717 234.541 62.5978 236.208 64.1865H236.18Z" fill="#192939"/>
<path d="M208.592 74.6058C206.7 73.2989 204.175 73.3891 202.381 74.8277C200.119 76.5165 199.611 79.4935 199.518 82.1342C199.297 87.2509 201.909 93.6772 208.106 92.2388C210.353 91.7236 209.401 88.2814 207.161 88.7967C203.791 89.5695 203.068 85.376 203.061 83.0287C203.061 81.1037 203.776 75.4789 206.796 77.6902C208.664 79.0427 210.446 75.944 208.6 74.6058H208.592Z" fill="#192939"/>
<path d="M210.602 76.2232C210.873 72.4254 210.617 68.6084 209.843 64.8805L208.598 67.0775C220.764 63.1774 234.081 59.6135 242.79 49.5876C244.293 47.8558 241.774 45.2939 240.257 47.0543C231.956 56.6151 219.261 59.9356 207.646 63.6282C206.711 63.9149 206.164 64.8834 206.401 65.8323C207.094 69.2497 207.304 72.7475 207.023 76.2232C206.859 78.5132 210.43 78.506 210.602 76.2232Z" fill="#192939"/>
<path d="M243.493 55.9424C241.975 58.2064 239.803 59.9538 237.267 60.9518C235.12 61.7747 236.072 65.2455 238.218 64.3939C241.635 63.0943 244.559 60.76 246.584 57.7171C247.865 55.7993 244.766 54.0102 243.493 55.9138V55.9424Z" fill="#192939"/>
<path d="M195.148 51.0546C187.698 54.9261 181.551 61.3667 178.817 69.3961C175.661 78.6992 179.032 87.4155 183.419 95.6738C186.131 100.798 188.729 106.05 191.67 111.045C193.23 113.708 195.534 116.234 198.962 115.432C202.683 114.566 204.573 110.459 205.839 107.267C207.866 102.138 209.493 96.86 210.705 91.4803C211.221 89.2403 207.771 88.2814 207.263 90.5285C206.421 94.2506 205.387 97.9266 204.165 101.542C203.513 103.431 202.841 105.32 202.018 107.152C201.13 109.178 199.506 112.419 196.722 111.747C195.405 111.432 194.003 107.897 193.495 106.945L190.453 101.277C188.535 97.699 186.539 94.1567 184.728 90.5428C181.343 83.6513 179.719 76.4736 182.696 69.1384C185.372 62.5404 190.668 57.4165 196.915 54.1675C198.955 53.1084 197.151 50.0169 195.112 51.0832L195.148 51.0546Z" fill="#192939"/>
<path d="M204.449 48.5357C205.387 40.9643 213.13 37.1858 219.964 36.6634C227.442 36.1052 234.778 38.3094 242.191 38.932C243.997 39.0906 245.811 39.1384 247.623 39.0751C249.691 38.9821 250.128 38.9749 250.986 41.0287C252.083 43.9475 252.57 47.0601 252.418 50.1744C252.239 56.8243 249.549 63.1599 244.889 67.9076C243.272 69.5464 245.798 72.0797 247.416 70.4338C252.852 64.8857 255.93 57.4481 256.003 49.6807C256.087 45.7165 255.28 41.7839 253.641 38.1734C251.91 34.5953 249.061 35.5757 245.555 35.5399C235.364 35.4397 225.303 31.3893 215.112 33.8224C207.841 35.5542 201.787 40.9429 200.85 48.55C200.564 50.8257 204.142 50.8042 204.428 48.55L204.449 48.5357Z" fill="#192939"/>
<path d="M219.843 90.9865C225.711 94.7435 232.61 95.13 239.301 96.2893C241.555 96.6829 242.521 93.2336 240.253 92.8471C233.898 91.7379 227.228 91.4731 221.646 87.895C219.7 86.657 217.904 89.7485 219.843 90.9865Z" fill="#192939"/>
<path d="M220.601 91.4518C219.012 98.1643 222.748 106.129 229.747 107.997C237.49 110.058 241.733 102.837 241.268 96.0676C241.118 93.7847 237.54 93.7632 237.69 96.0676C238.026 101.02 235.071 107.017 229.203 103.939C225.088 101.674 222.98 96.9502 224.043 92.3749C224.573 90.1422 221.123 89.1832 220.594 91.4231L220.601 91.4518Z" fill="#192939"/>
<path d="M221.71 100.433C225.36 104.011 231.364 104.047 236.13 104.827C238.377 105.192 239.35 101.75 237.082 101.378C233.232 100.755 227.185 100.805 224.2 97.9068C222.562 96.2967 220.028 98.8157 221.674 100.433H221.71Z" fill="#192939"/>
<path d="M227.907 104.769C229.641 105.649 231.53 106.181 233.467 106.337C234.455 106.337 235.256 105.536 235.256 104.548C235.256 103.56 234.455 102.759 233.467 102.759C232.158 102.644 230.883 102.279 229.71 101.685C227.664 100.647 225.853 103.732 227.907 104.769Z" fill="#192939"/>
<path d="M224.38 71.4858C223.364 71.7292 222.524 72.4398 222.117 73.401C221.709 74.3621 221.781 75.4598 222.311 76.3592C222.871 77.2455 223.814 77.8178 224.859 77.9049C225.577 77.9562 226.263 77.5993 226.634 76.9818C227.016 76.3404 227.016 75.5407 226.634 74.8993C226.131 74.0564 225.047 73.7701 224.193 74.2553C223.359 74.7679 223.076 75.8458 223.549 76.7027L223.592 76.7886L223.349 75.8869V75.9871L223.592 75.0854L223.542 75.1784L224.186 74.5343L224.1 74.5916L225.002 74.3483C225.113 74.3338 225.226 74.3619 225.317 74.427C225.145 74.3197 225.145 74.3197 225.317 74.427C225.489 74.5343 225.431 74.5916 225.317 74.427C225.382 74.5183 225.41 74.6307 225.396 74.7419C225.384 74.8299 225.337 74.9097 225.267 74.9637C225.417 74.8134 225.424 74.8063 225.267 74.9279C225.109 75.0496 225.102 74.9995 225.31 74.9279C225.961 74.7905 226.482 74.3029 226.662 73.6622C226.843 73.0216 226.653 72.3338 226.169 71.8768C225.685 71.4199 224.987 71.2692 224.358 71.4858H224.38Z" fill="#192939"/>
<path d="M237.439 72.9454C236.423 73.1899 235.583 73.9025 235.176 74.8654C234.77 75.8283 234.845 76.9271 235.378 77.826C235.937 78.7096 236.877 79.2813 237.918 79.3717C238.638 79.4192 239.324 79.0636 239.7 78.4486C240.08 77.8037 240.08 77.0039 239.7 76.359C239.387 75.7868 238.788 75.4303 238.136 75.4284C237.484 75.4265 236.882 75.7796 236.566 76.3499C236.25 76.9202 236.269 77.6174 236.616 78.1695L236.659 78.2554L236.416 77.3537V77.4539L236.659 76.5522L236.616 76.6452L237.253 76.0011L237.174 76.0584L238.076 75.8151C238.187 75.802 238.299 75.83 238.391 75.8938C238.219 75.7865 238.212 75.7865 238.391 75.8938C238.57 76.0011 238.498 76.0656 238.391 75.8938C238.452 75.9895 238.479 76.1027 238.469 76.2158C238.453 76.3001 238.407 76.376 238.341 76.4305C238.484 76.2874 238.491 76.2731 238.341 76.4305C238.19 76.588 238.176 76.5021 238.341 76.4305C239.285 76.1594 239.841 75.1844 239.593 74.2336C239.312 73.2931 238.34 72.7409 237.389 72.9812L237.439 72.9454Z" fill="#192939"/>
<path d="M109.215 54.6758C111.691 48.5071 117.487 38.8604 114.625 32.0262C113.706 29.9137 111.272 28.9172 109.136 29.7792C106.095 30.8383 105.336 34.1445 103.161 36.1697C101.472 37.7369 104.005 40.2631 105.687 38.6959C106.696 37.7584 107.261 36.2126 108.242 35.361C108.535 34.3377 109.172 34.1874 110.167 34.9174C111.545 34.7695 112.008 35.3276 111.555 36.5919C111.741 37.7942 111.09 39.5403 110.768 40.6853C109.508 45.1436 107.497 49.4302 105.758 53.724C104.9 55.8709 108.356 56.7869 109.208 54.6758H109.215Z" fill="#192939"/>
<path d="M72.8815 30.18C73.3609 40.9931 80.5315 50.6612 85.6482 59.8069C86.7717 61.8106 89.8561 60.0144 88.7326 57.9963C83.988 49.5233 76.9033 40.1916 76.4596 30.18C76.3594 27.89 72.7813 27.8757 72.8815 30.18Z" fill="#192939"/>
<path d="M81.1258 26.9741L81.8843 31.9834C82.1521 32.9301 83.1316 33.4853 84.0813 33.2286C85.0179 32.9481 85.567 31.9793 85.3265 31.0317L84.5679 26.0223C84.3002 25.0756 83.3207 24.5205 82.371 24.7771C81.4344 25.0576 80.8853 26.0264 81.1258 26.9741Z" fill="#192939"/>
<path d="M90.0791 23.3242C90.0032 25.2499 90.1959 27.1768 90.6516 29.0493C91.1883 31.2892 94.6305 30.3374 94.0938 28.0975C93.7208 26.5257 93.5714 24.9091 93.6501 23.2956C93.7503 20.9985 90.1721 21.0056 90.0719 23.2956L90.0791 23.3242Z" fill="#192939"/>
<path d="M99.853 21.2202C99.6752 23.0684 99.8377 24.9336 100.332 26.7233C100.934 28.9418 104.383 28.0043 103.782 25.7787C103.384 24.2939 103.263 22.7488 103.424 21.2202C103.424 20.2321 102.623 19.4311 101.635 19.4311C100.647 19.4311 99.8459 20.2321 99.8459 21.2202H99.853Z" fill="#192939"/>
<path d="M336.19 52.9797L335.703 40.9143C335.703 39.9625 334.945 36.1554 336.891 36.3199C337.936 36.413 339.353 40.2416 339.954 41.1361C341.235 43.0325 344.334 41.2434 343.045 39.3327C341.206 36.6134 337.979 29.4929 333.506 33.4574C331.624 35.132 332.011 38.016 332.075 40.2487L332.583 52.9797C332.676 55.2697 336.254 55.284 336.161 52.9797H336.19Z" fill="#192939"/>
<path d="M347.482 22.5369C347.667 23.9727 347.573 25.4308 347.203 26.8306C346.609 29.0562 350.066 30.0009 350.652 27.7753C351.114 26.0748 351.25 24.3022 351.053 22.5512C351.027 21.5782 350.244 20.7955 349.271 20.7693C348.288 20.7732 347.49 21.5675 347.482 22.5512V22.5369Z" fill="#192939"/>
<path d="M357.071 24.4407L355.583 30.0011C354.989 32.2196 358.445 33.1713 359.032 30.9458L360.521 25.3853C361.115 23.1597 357.658 22.2151 357.071 24.4407Z" fill="#192939"/>
<path d="M365.602 26.3869C365.152 29.1066 364.433 31.7747 363.455 34.3518C362.653 36.4987 366.103 37.4433 366.904 35.3036C367.879 32.7254 368.598 30.0576 369.051 27.3387C369.423 25.0845 365.981 24.1184 365.602 26.3869Z" fill="#192939"/>
<path d="M372.864 30.7597C371.115 42.6517 366.408 53.914 359.174 63.5139C357.793 65.3531 360.892 67.1421 362.259 65.3173C369.678 55.4556 374.508 43.8919 376.307 31.6829C376.643 29.4287 373.201 28.4626 372.864 30.7311V30.7597Z" fill="#192939"/>
<path d="M235.63 190.122C234.561 191.203 233.971 192.667 233.991 194.187C234.072 195.991 235.569 197.407 237.376 197.386C239.164 197.343 240.647 195.986 240.846 194.208C240.956 192.393 239.813 190.736 238.077 190.194C237.127 189.937 236.148 190.492 235.88 191.439C235.64 192.386 236.189 193.355 237.125 193.636C237.19 193.636 237.347 193.872 237.29 193.972C237.44 193.707 237.419 193.807 237.29 193.829H237.197C237.197 193.829 237.39 193.829 237.462 193.829C237.533 193.829 237.54 193.929 237.583 193.951C237.626 193.972 237.583 193.836 237.583 193.893C237.583 193.951 237.49 194.294 237.583 193.893C237.583 193.836 237.583 193.607 237.583 193.8C237.679 193.366 237.886 192.964 238.184 192.634C239.73 190.938 237.211 188.405 235.658 190.108L235.63 190.122Z" fill="#1A73E8"/>
<path d="M238.948 209.83C237.879 210.911 237.289 212.375 237.309 213.895C237.394 215.698 238.889 217.111 240.694 217.094C242.483 217.052 243.965 215.695 244.165 213.917C244.274 212.101 243.131 210.445 241.395 209.902C240.446 209.645 239.466 210.2 239.198 211.147C238.954 212.097 239.509 213.07 240.451 213.344C240.515 213.344 240.665 213.58 240.608 213.68C240.758 213.416 240.737 213.516 240.608 213.537H240.515C240.515 213.537 240.708 213.537 240.78 213.537C240.851 213.537 240.859 213.638 240.902 213.666C240.944 213.695 240.902 213.544 240.902 213.602C240.902 213.659 240.808 214.002 240.902 213.602C240.902 213.537 240.937 213.308 240.902 213.502C240.997 213.067 241.204 212.665 241.503 212.335C243.048 210.639 240.529 208.106 238.976 209.809L238.948 209.83Z" fill="#1A73E8"/>
<path d="M242.269 229.539C241.199 230.618 240.611 232.084 240.637 233.603C240.714 235.407 242.21 236.823 244.015 236.802C245.803 236.76 247.286 235.403 247.486 233.625C247.595 231.809 246.452 230.153 244.716 229.61C243.767 229.358 242.79 229.911 242.519 230.855C242.275 231.806 242.83 232.778 243.771 233.052C243.836 233.052 243.986 233.288 243.929 233.389C244.079 233.124 244.058 233.224 243.929 233.246H243.829C243.829 233.246 244.022 233.246 244.101 233.246C244.179 233.246 244.172 233.346 244.222 233.374C244.272 233.403 244.222 233.253 244.179 233.31C244.136 233.367 244.094 233.711 244.179 233.31C244.179 233.246 244.215 233.017 244.179 233.21C244.275 232.775 244.482 232.373 244.781 232.043C246.326 230.347 243.807 227.814 242.254 229.517L242.269 229.539Z" fill="#1A73E8"/>
<path d="M79.0638 145.989C55.2592 106.153 33.6532 65.0431 14.3426 22.8447C13.3908 20.7551 10.3065 22.5656 11.2583 24.6481C30.566 66.8502 52.1721 107.963 75.9794 147.8C77.153 149.768 80.2732 147.972 79.0638 145.989Z" fill="#1A73E8"/>
<path d="M51.8909 39.2183C50.2252 35.8287 49.1759 32.1696 48.7923 28.4123C48.5633 26.151 44.9851 26.1223 45.2141 28.4123C45.638 32.7966 46.8502 37.0682 48.7923 41.0217C49.8085 43.0898 52.8857 41.2793 51.8766 39.2183H51.8909Z" fill="#1A73E8"/>
<path d="M366.702 149.911C381.382 117.279 395.043 84.2143 407.686 50.7183C408.502 48.5714 405.045 47.634 404.244 49.7737C391.725 82.9644 378.19 115.742 363.639 148.108C362.702 150.19 365.786 152.008 366.723 149.911H366.702Z" fill="#1A73E8"/>
<path d="M393.83 155.536L406.711 135.67C407.964 133.731 404.872 131.935 403.627 133.867L390.746 153.733C389.493 155.665 392.585 157.461 393.83 155.536Z" fill="#1A73E8"/>
<path d="M419.852 114.13C421.651 109.882 424.062 105.921 427.008 102.372C428.44 100.612 425.942 98.0785 424.482 99.8461C421.164 103.872 418.456 108.364 416.446 113.178C415.558 115.325 419.015 116.22 419.895 114.13H419.852Z" fill="#1A73E8"/>
<path d="M439.015 83.6657L440.683 80.3166C441.157 79.4637 440.877 78.3885 440.046 77.8763C439.193 77.3852 438.104 77.6686 437.598 78.5132L435.924 81.8623C435.451 82.717 435.735 83.7927 436.568 84.3026C437.421 84.7937 438.51 84.5103 439.015 83.6657Z" fill="#1A73E8"/>
<path d="M218.991 5.01843L219.864 12.5397C220.128 14.801 223.707 14.8225 223.442 12.5397L222.562 5.01843C222.304 2.76421 218.726 2.73559 218.983 5.01843H218.991Z" fill="#1A73E8"/>
<path d="M237.633 1.20412L234.355 9.58409C233.511 11.731 236.967 12.6613 237.797 10.5359L241.082 2.14874C241.919 0.00186636 238.463 -0.92129 237.633 1.20412Z" fill="#1A73E8"/>
<path d="M257.262 4.53878C255.035 6.87361 253.445 9.74213 252.646 12.8687C252.088 15.1014 255.509 16.0532 256.096 13.8204C256.718 11.2842 257.994 8.95516 259.795 7.06494C261.377 5.39753 258.851 2.87137 257.262 4.53878Z" fill="#1A73E8"/>
<path d="M101.401 354.051C104.899 356.005 108.581 357.611 112.393 358.845C114.59 359.561 115.527 356.112 113.345 355.403C109.828 354.258 106.432 352.772 103.204 350.966C101.193 349.843 99.39 352.927 101.401 354.051Z" fill="white"/>
<path d="M102.116 340.883C105.215 343.157 108.541 345.104 112.041 346.694C114.124 347.639 115.941 344.547 113.852 343.61C110.352 342.015 107.024 340.068 103.919 337.799C102.058 336.439 100.276 339.545 102.116 340.883Z" fill="white"/>
<path d="M102.589 328.51L118.977 337.14C121.009 338.207 122.819 335.122 120.78 334.049L104.392 325.425C102.36 324.352 100.549 327.436 102.589 328.51Z" fill="white"/>
<path d="M214.231 79.1357H218.832V83.7372H214.231V79.1357Z" fill="#BAD5F8"/>
<path d="M156.008 6.86441L149.568 21.2843C149.067 22.4078 149.618 24.0895 151.106 23.975C156.352 23.5984 161.511 22.4281 166.406 20.5042L164.388 17.8779C161.328 21.9737 158.504 26.241 155.93 30.659C154.763 32.6484 157.855 34.4518 159.014 32.4623C161.588 28.0427 164.414 23.7753 167.48 19.6813C168.381 18.4719 166.864 16.4967 165.462 17.0549C160.873 18.8884 156.033 20.0175 151.106 20.404L152.652 23.0876L159.093 8.67494C160.023 6.58532 156.946 4.76763 156.008 6.86441Z" fill="#1A73E8"/>
<path d="M294.618 35.7112C290.396 40.1359 285.78 44.1672 280.828 47.7552C279.847 48.4708 279.497 50.217 280.828 50.8396C284.283 52.5016 287.966 53.6423 291.755 54.2245L290.689 51.5981C288.321 55.1167 285.514 58.3197 282.338 61.1303C280.613 62.6688 283.154 65.1878 284.864 63.6564C288.258 60.6313 291.252 57.1851 293.773 53.4015C294.05 52.9217 294.091 52.341 293.882 51.8277C293.674 51.3145 293.24 50.9261 292.707 50.7752C289.203 50.2752 285.793 49.2575 282.588 47.7552V50.8396C287.798 47.088 292.656 42.8699 297.101 38.2374C298.697 36.5771 296.171 34.0438 294.575 35.7112H294.618Z" fill="#1A73E8"/>
<path d="M0.274217 122.152C4.72532 129.564 9.76779 136.605 15.3524 143.206C16.3257 144.358 17.8786 143.528 18.3438 142.418L23.3531 130.489L20.0827 130.918C23.238 135.895 26.9603 140.489 31.1749 144.608C32.8209 146.218 35.3542 143.692 33.7011 142.082C29.7041 138.18 26.1717 133.829 23.1742 129.115C22.2797 127.684 20.4835 128.156 19.9038 129.537L14.8944 141.467L17.8858 140.679C12.5043 134.304 7.64617 127.505 3.35856 120.348C2.17778 118.373 -0.935189 120.17 0.274217 122.152Z" fill="#1A73E8"/>
<path d="M445.893 132.221L426.056 149.711C424.939 150.691 425.705 152.23 426.843 152.695L438.336 157.375L437.549 154.391C435.21 156.721 432.595 158.757 429.763 160.452C427.795 161.633 429.591 164.746 431.573 163.536C434.666 161.684 437.521 159.461 440.075 156.917C441.112 155.879 440.49 154.419 439.288 153.933L427.795 149.253L428.582 152.237L448.419 134.783C450.151 133.258 447.617 130.732 445.893 132.249V132.221Z" fill="#1A73E8"/>
<path d="M258.658 421.891C266.58 413.876 265.278 399.857 265.772 389.545C266.411 376.091 266.747 362.626 266.781 349.148C266.824 321.775 265.514 294.374 262 267.216C261.714 264.969 258.136 264.941 258.422 267.216C261.757 293.029 263.102 319.056 263.195 345.069C263.243 358.122 262.985 371.173 262.422 384.221C262.165 390.397 261.879 396.565 261.478 402.734C261.099 408.652 260.512 414.964 256.125 419.401C254.508 421.04 257.034 423.573 258.651 421.927L258.658 421.891Z" fill="#1A73E8"/>
</svg>
